<svg width="1440" height="303" viewBox="0 0 1440 303" fill="none" xmlns="http://www.w3.org/2000/svg">
  <path fill-rule="evenodd" clip-rule="evenodd" d="M0 13.8998L60 19.9022C120 25.9046 240 37.9094 360 61.9189C480 85.9285 600 121.943 720 103.936C840 85.9285 960 13.8998 1080 1.89505C1200 -10.1097 1320 37.9094 1380 61.9189L1440 85.9285V266H1380C1320 266 1200 266 1080 266C960 266 840 266 720 266C600 266 480 266 360 266C240 266 120 266 60 266H0V13.8998Z" fill="#E5EEFD" />
  <path d="M108.448 27L0 16V302.525H1440V102L1409.96 86.4189C1348.58 62.4094 1225.81 14.3903 1103.04 26.3951C980.267 38.3998 857.496 110.428 734.725 128.436C611.954 146.443 533.03 103.5 411.794 73.5C275.247 39.7114 290.046 42.5 108.448 27Z" fill="#FDFDFD" />
</svg>
