<svg width="276" height="222" viewBox="0 0 276 222" fill="none" xmlns="http://www.w3.org/2000/svg">
    <g clip-path="url(#clip0)">
        <path d="M219.512 88.8663L219.14 87.1376C215.991 72.5508 205.272 60.7014 191.007 56.7539C189.174 56.252 187.307 55.8852 185.42 55.6565C171.793 53.9856 157.44 59.7598 148.618 70.4655C143.428 76.7575 139.802 84.8164 132.713 88.7873C123.488 93.9517 112.124 90.2845 102.311 86.5467C92.4985 82.8088 81.1299 79.1702 71.9168 84.3747C66.1426 87.6195 62.5335 93.8398 60.6915 100.253C55.8215 117.199 62.2691 136.085 74.4571 148.577C86.645 161.069 103.777 167.736 121.039 170.062C145.219 173.323 171.047 168.242 190.653 153.38C210.258 138.519 222.654 113.312 219.512 88.8663Z" fill="#EBEBEB" />
        <path d="M215.483 201.221C215.471 201.264 171.933 188.595 118.253 172.925C64.5732 157.256 21.0442 144.509 21.0568 144.466C21.0693 144.423 64.5983 157.09 118.3 172.766C172.001 188.441 215.496 201.178 215.483 201.221Z" fill="#263238" />
        <path d="M33.6339 139.157C33.663 139.113 33.6963 139.071 33.7335 139.033C33.8092 138.945 33.9122 138.832 34.0423 138.683C34.4259 138.226 34.7712 137.738 35.0748 137.225C35.8649 135.888 36.6368 133.724 36.8549 130.944C36.9762 129.431 36.9987 127.912 36.9222 126.396C36.8665 124.76 36.7561 123.014 36.7851 121.156C36.7796 119.215 37.0669 117.283 37.6372 115.428C38.2773 113.498 39.4224 111.722 40.6219 109.965C41.8214 108.209 43.032 106.505 43.7823 104.654C44.5363 102.884 44.7103 100.921 44.2794 99.0454C43.8861 97.2638 43.2186 95.6222 42.8299 94.0187C42.4626 92.5323 42.3191 90.9995 42.4041 89.4707C42.5333 87.2569 43.1269 85.095 44.1463 83.1255C44.5143 82.4036 44.9528 81.7198 45.4555 81.0842C45.4346 81.134 45.4075 81.181 45.3747 81.224C45.3105 81.3186 45.2262 81.4473 45.1149 81.6115C44.788 82.112 44.4887 82.63 44.2186 83.1633C43.2342 85.1319 42.6666 87.2824 42.5513 89.4804C42.4771 90.9934 42.6279 92.5091 42.9985 93.9779C43.3925 95.563 44.0615 97.1884 44.4674 99.0069C44.9156 100.922 44.7439 102.93 43.977 104.741C43.2146 106.622 41.9973 108.337 40.8018 110.091C39.6063 111.846 38.4683 113.597 37.8382 115.493C37.2719 117.329 36.9839 119.239 36.9838 121.161C36.9438 122.999 37.0464 124.749 37.0941 126.39C37.1641 127.913 37.1341 129.438 37.0043 130.957C36.7654 133.751 35.9618 135.933 35.1432 137.264C34.8309 137.778 34.473 138.263 34.0738 138.712C33.9363 138.852 33.8275 138.974 33.7492 139.048C33.714 139.087 33.6754 139.124 33.6339 139.157Z" fill="#263238" />
        <path d="M43.514 95.695C43.514 95.695 43.419 90.0935 47.1659 87.9237C47.1955 87.9057 47.2296 87.8963 47.2643 87.8966C47.299 87.8969 47.3329 87.9069 47.3622 87.9255C47.3914 87.9442 47.4149 87.9706 47.4299 88.0019C47.4449 88.0332 47.4509 88.068 47.4471 88.1025C47.3501 88.9943 46.7895 91.6341 43.514 95.695Z" fill="#13CB6E" />
        <path d="M46.3531 89.5434C46.2565 89.8616 46.1276 90.1691 45.9685 90.4612C45.6709 91.081 45.3239 91.8131 44.9391 92.6175C44.5542 93.4219 44.2133 94.1557 43.9188 94.7765C43.8007 95.0861 43.6526 95.3834 43.4764 95.6641C43.5402 95.3383 43.6428 95.0213 43.782 94.7199C44.0085 94.1493 44.3457 93.371 44.7554 92.5272C45.1651 91.6834 45.554 90.9335 45.8384 90.3932C45.9781 90.0918 46.1508 89.8068 46.3531 89.5434Z" fill="#263238" />
        <path d="M41.8654 108.355C41.8654 108.355 44.3894 103.351 48.7257 103.193C48.7598 103.192 48.7937 103.2 48.8235 103.217C48.8534 103.233 48.8781 103.258 48.8949 103.287C48.9118 103.317 48.9201 103.351 48.9189 103.385C48.9178 103.419 48.9072 103.452 48.8884 103.481C48.387 104.228 46.6565 106.296 41.8654 108.355Z" fill="#13CB6E" />
        <path d="M47.2484 104.245C47.0152 104.481 46.7581 104.692 46.4813 104.875L44.561 106.314L42.6468 107.756C42.3956 107.973 42.1249 108.166 41.8383 108.333C42.0475 108.074 42.2877 107.842 42.5534 107.642C43.005 107.237 43.6818 106.711 44.4335 106.157C45.1853 105.603 45.8777 105.115 46.3896 104.778C46.6541 104.568 46.9423 104.389 47.2484 104.245Z" fill="#263238" />
        <path d="M36.9219 121.316C36.9219 121.316 37.888 115.791 41.9958 114.383C42.0283 114.371 42.0634 114.369 42.0971 114.376C42.1308 114.383 42.1618 114.4 42.1867 114.424C42.2116 114.448 42.2293 114.478 42.2379 114.511C42.2465 114.545 42.2456 114.58 42.2354 114.613C41.9695 115.455 40.9113 117.95 36.9219 121.316Z" fill="#13CB6E" />
        <path d="M40.887 115.806C40.7292 116.103 40.5424 116.383 40.3292 116.643L38.9121 118.563L37.498 120.484C37.3206 120.764 37.1188 121.027 36.8948 121.271C37.0175 120.965 37.1781 120.676 37.3727 120.411C37.7005 119.893 38.1845 119.194 38.7405 118.443C39.2964 117.692 39.8202 117.028 40.2115 116.556C40.406 116.28 40.6328 116.028 40.887 115.806Z" fill="#263238" />
        <path d="M36.0032 135.529C36.0032 135.529 37.1642 130.044 41.3059 128.783C41.3384 128.773 41.373 128.772 41.406 128.78C41.4389 128.788 41.469 128.805 41.4929 128.829C41.5168 128.854 41.5336 128.884 41.5415 128.917C41.5493 128.95 41.548 128.985 41.5375 129.017C41.2558 129.868 40.1126 132.311 36.0032 135.529Z" fill="#13CB6E" />
        <path d="M40.1587 130.178C39.9959 130.466 39.805 130.737 39.5888 130.988C39.1576 131.529 38.6568 132.159 38.0999 132.857L36.6193 134.732C36.4317 135.004 36.22 135.259 35.9868 135.494C36.1237 135.191 36.2955 134.906 36.4984 134.643C36.8459 134.138 37.3518 133.455 37.9371 132.729C38.5223 132.004 39.0658 131.352 39.4728 130.894C39.6746 130.631 39.9046 130.391 40.1587 130.178Z" fill="#263238" />
        <path d="M42.5212 90.5083C42.5212 90.5083 38.481 86.6254 39.6056 82.4301C39.6142 82.3972 39.6317 82.3673 39.6561 82.3436C39.6806 82.32 39.711 82.3035 39.7442 82.296C39.7773 82.2885 39.8119 82.2902 39.8441 82.301C39.8763 82.3118 39.905 82.3312 39.9269 82.3572C40.4913 83.0619 41.9619 85.3213 42.5212 90.5083Z" fill="#13CB6E" />
        <path d="M40.1751 84.1565C40.3309 84.4495 40.4565 84.7576 40.5501 85.076L41.353 87.3272L42.1635 89.5639C42.2972 89.8676 42.4027 90.1829 42.4786 90.5059C42.2927 90.2303 42.1411 89.933 42.027 89.6207C41.7809 89.0589 41.4716 88.2685 41.1588 87.3872C40.8461 86.5058 40.5878 85.7004 40.4127 85.1126C40.2983 84.8037 40.2186 84.483 40.1751 84.1565Z" fill="#263238" />
        <path d="M44.4229 103.031C44.4229 103.031 40.1491 99.3997 41.0196 95.1502C41.0263 95.1169 41.042 95.086 41.0651 95.0611C41.0881 95.0361 41.1176 95.018 41.1502 95.0086C41.1829 94.9992 41.2175 94.999 41.2503 95.0079C41.283 95.0168 41.3127 95.0346 41.3361 95.0592C41.9433 95.7198 43.5503 97.889 44.4229 103.031Z" fill="#13CB6E" />
        <path d="M41.6956 96.8311C41.8676 97.1154 42.0121 97.4155 42.1274 97.7271L43.063 99.9237C43.417 100.744 43.7367 101.487 44.0056 102.119C44.1594 102.413 44.2837 102.722 44.3766 103.041C44.1829 102.775 44.0193 102.49 43.8887 102.188C43.6088 101.64 43.2497 100.872 42.8871 100.012C42.5245 99.1532 42.2121 98.3619 42.004 97.7845C41.8651 97.4795 41.7616 97.1596 41.6956 96.8311Z" fill="#263238" />
        <path d="M38.0065 114.505C38.0065 114.505 35.8515 109.326 38.5662 105.941C38.5874 105.917 38.6147 105.898 38.6455 105.887C38.6762 105.876 38.7093 105.874 38.7413 105.88C38.7734 105.886 38.8033 105.9 38.8281 105.921C38.8528 105.942 38.8716 105.97 38.8824 106C39.1288 106.869 39.5725 109.529 38.0065 114.505Z" fill="#13CB6E" />
        <path d="M38.4025 107.747C38.4264 108.078 38.4186 108.411 38.3793 108.74C38.3292 109.426 38.2767 110.234 38.21 111.124C38.1434 112.015 38.0948 112.821 38.0509 113.508C38.0514 113.835 38.0231 114.161 37.9662 114.483C37.9117 114.157 37.8968 113.824 37.9218 113.494C37.9209 112.88 37.9517 112.032 38.0198 111.102C38.088 110.172 38.1715 109.326 38.2488 108.719C38.2641 108.39 38.3156 108.064 38.4025 107.747Z" fill="#263238" />
        <path d="M37.1173 129.953C37.1173 129.953 32.9077 126.251 33.8435 122.017C33.8502 121.983 33.8664 121.952 33.8901 121.927C33.9138 121.901 33.9441 121.883 33.9776 121.874C34.0111 121.865 34.0465 121.866 34.0796 121.876C34.1128 121.886 34.1425 121.905 34.1653 121.931C34.7659 122.603 36.3317 124.81 37.1173 129.953Z" fill="#13CB6E" />
        <path d="M34.499 123.712C34.6639 123.997 34.7994 124.298 34.9035 124.61L35.8043 126.823L36.7182 129.037C36.8647 129.333 36.9842 129.643 37.0751 129.961C36.8756 129.695 36.7105 129.405 36.5838 129.097C36.3118 128.545 35.9707 127.772 35.617 126.905C35.2632 126.038 34.972 125.243 34.7757 124.659C34.6495 124.355 34.5567 124.037 34.499 123.712Z" fill="#263238" />
        <path d="M53.0049 111.636C52.9978 111.677 52.9861 111.718 52.9699 111.756C52.943 111.848 52.9099 111.962 52.8695 112.1C52.7754 112.423 52.6142 112.849 52.43 113.389C52.0342 114.516 51.4788 116.088 50.8157 117.971C49.901 119.814 48.2784 121.684 46.3338 123.39C44.9086 124.641 43.4741 125.752 42.2083 126.799C41.0767 127.705 40.0097 128.689 39.0152 129.744C38.3505 130.462 37.7547 131.242 37.2358 132.071C37.0556 132.369 36.9185 132.599 36.8314 132.76C36.7909 132.844 36.742 132.924 36.6854 132.998C36.7129 132.908 36.7494 132.822 36.7941 132.739C36.8689 132.574 36.9956 132.335 37.1674 132.031C37.6624 131.178 38.2444 130.378 38.9041 129.645C39.8974 128.571 40.9689 127.573 42.1098 126.657C43.3721 125.599 44.7987 124.492 46.2208 123.24C48.1536 121.541 49.7592 119.706 50.6812 117.895C51.3741 116.024 51.951 114.459 52.3684 113.337C52.5692 112.809 52.7303 112.383 52.8521 112.068C52.8925 111.93 52.9493 111.827 52.9863 111.734C53.0233 111.642 52.9988 111.634 53.0049 111.636Z" fill="#263238" />
        <path d="M46.5305 123.024C46.5305 123.024 50.0447 118.659 48.3995 114.646C48.3862 114.615 48.3648 114.588 48.3377 114.569C48.3106 114.549 48.2787 114.538 48.2454 114.535C48.2121 114.532 48.1786 114.538 48.1485 114.552C48.1184 114.567 48.0928 114.589 48.0744 114.617C47.5989 115.379 46.4258 117.81 46.5305 123.024Z" fill="#13CB6E" />
        <path d="M48.0659 116.428C48.0648 116.76 48.0273 117.092 47.9543 117.416C47.8577 118.021 47.7039 118.856 47.5044 119.768C47.3049 120.68 47.1011 121.504 46.9289 122.093C46.8569 122.418 46.7438 122.732 46.5926 123.029C46.628 122.699 46.693 122.373 46.7867 122.055C46.9325 121.384 47.1093 120.596 47.3002 119.725C47.4912 118.854 47.6627 118.061 47.8085 117.39C47.8614 117.061 47.9476 116.739 48.0659 116.428Z" fill="#263238" />
        <g opacity="0.3">
            <path opacity="0.3" d="M46.5305 123.024C46.5305 123.024 50.0447 118.659 48.3995 114.646C48.3862 114.615 48.3648 114.588 48.3377 114.569C48.3106 114.549 48.2787 114.538 48.2454 114.535C48.2121 114.532 48.1786 114.538 48.1485 114.552C48.1184 114.567 48.0928 114.589 48.0744 114.617C47.5989 115.379 46.4258 117.81 46.5305 123.024Z" fill="black" />
        </g>
        <path d="M36.6429 133.132C36.6429 133.132 39.7933 128.494 37.8247 124.629C37.8105 124.597 37.7875 124.57 37.7582 124.551C37.729 124.531 37.6947 124.521 37.6597 124.521C37.6246 124.52 37.5902 124.53 37.5605 124.549C37.5308 124.567 37.5072 124.594 37.4924 124.626C37.086 125.424 36.1147 127.941 36.6429 133.132Z" fill="#13CB6E" />
        <path d="M37.6223 126.43C37.6501 126.761 37.6403 127.094 37.5929 127.422C37.5441 128.034 37.4584 128.876 37.3345 129.803C37.2105 130.73 37.073 131.567 36.9478 132.167C36.9008 132.497 36.8144 132.82 36.6904 133.129C36.6964 132.797 36.7337 132.466 36.802 132.141C36.8977 131.459 37.0043 130.66 37.1258 129.776C37.2474 128.891 37.3517 128.088 37.4444 127.405C37.4708 127.075 37.5304 126.749 37.6223 126.43Z" fill="#263238" />
        <g opacity="0.3">
            <path opacity="0.3" d="M36.6429 133.132C36.6429 133.132 39.7933 128.494 37.8247 124.629C37.8105 124.597 37.7875 124.57 37.7582 124.551C37.729 124.531 37.6947 124.521 37.6597 124.521C37.6246 124.52 37.5902 124.53 37.5605 124.549C37.5308 124.567 37.5072 124.594 37.4924 124.626C37.086 125.424 36.1147 127.941 36.6429 133.132Z" fill="black" />
        </g>
        <path d="M50.9274 117.737C50.9274 117.737 56.2366 115.937 56.999 111.669C57.008 111.634 57.0064 111.596 56.9943 111.562C56.9822 111.527 56.9602 111.497 56.9311 111.475C56.9019 111.453 56.8668 111.44 56.8303 111.438C56.7938 111.436 56.7575 111.444 56.7259 111.463C55.9321 111.841 53.6558 113.267 50.9274 117.737Z" fill="#13CB6E" />
        <g opacity="0.3">
            <path opacity="0.3" d="M50.9274 117.737C50.9274 117.737 56.2366 115.937 56.999 111.669C57.008 111.634 57.0064 111.596 56.9943 111.562C56.9822 111.527 56.9602 111.497 56.9311 111.475C56.9019 111.453 56.8668 111.44 56.8303 111.438C56.7938 111.436 56.7575 111.444 56.7259 111.463C55.9321 111.841 53.6558 113.267 50.9274 117.737Z" fill="black" />
        </g>
        <path d="M55.7446 112.963C55.5667 113.243 55.3578 113.503 55.1217 113.737C54.7147 114.195 54.1406 114.814 53.4832 115.479C52.8258 116.144 52.2088 116.727 51.7471 117.133C51.5114 117.368 51.2477 117.573 50.9621 117.744C51.1679 117.485 51.3964 117.245 51.6449 117.026L53.3328 115.332L55.0146 113.636C55.2343 113.387 55.4789 113.162 55.7446 112.963Z" fill="#263238" />
        <path d="M39.9027 128.576C39.9027 128.576 45.459 129.298 48.0267 125.801C48.0471 125.773 48.0595 125.741 48.0625 125.707C48.0656 125.673 48.0592 125.638 48.044 125.608C48.0288 125.577 48.0054 125.551 47.9764 125.533C47.9475 125.515 47.914 125.505 47.8798 125.505C46.9814 125.499 44.2968 125.765 39.9027 128.576Z" fill="#13CB6E" />
        <g opacity="0.3">
            <path opacity="0.3" d="M39.9027 128.576C39.9027 128.576 45.459 129.298 48.0267 125.801C48.0471 125.773 48.0595 125.741 48.0625 125.707C48.0656 125.673 48.0592 125.638 48.044 125.608C48.0288 125.577 48.0054 125.551 47.9764 125.533C47.9475 125.515 47.914 125.505 47.8798 125.505C46.9814 125.499 44.2968 125.765 39.9027 128.576Z" fill="black" />
        </g>
        <path d="M46.326 126.431C46.0415 126.602 45.74 126.743 45.4264 126.852C44.859 127.083 44.0674 127.385 43.1808 127.693C42.2942 128.001 41.4905 128.253 40.8971 128.413C40.5812 128.52 40.2536 128.588 39.9214 128.615C40.2213 128.472 40.5339 128.356 40.8552 128.271L43.1124 127.493L45.3705 126.712C45.678 126.585 45.9983 126.49 46.326 126.431Z" fill="#263238" />
        <path d="M30.7567 136.521L29.3637 146.968L35.4547 148.736L40.4236 139.343L30.7567 136.521Z" fill="#455A64" />
        <path d="M38.4035 142.94C38.4035 142.94 38.3991 142.955 38.3406 142.961C38.2796 142.981 38.2172 142.996 38.1539 143.007C37.9097 143.047 37.6606 143.049 37.4159 143.011C37.0242 142.952 36.6512 142.804 36.3252 142.58C35.8847 142.284 35.5518 141.853 35.3766 141.353C35.2829 141.055 35.2695 140.739 35.3379 140.435C35.3707 140.262 35.4502 140.102 35.5675 139.972C35.6849 139.842 35.8357 139.746 36.0036 139.696C36.1885 139.662 36.3791 139.68 36.5547 139.747C36.7302 139.814 36.884 139.928 36.9992 140.076C37.237 140.388 37.3492 140.778 37.3139 141.168C37.2851 141.563 37.1999 141.951 37.0607 142.321C36.9225 142.71 36.7248 143.075 36.4747 143.403C36.2125 143.749 35.8687 144.024 35.4741 144.205C35.065 144.398 34.603 144.45 34.1612 144.351C33.722 144.235 33.3291 143.986 33.0356 143.639C32.7486 143.317 32.518 142.949 32.3534 142.55C32.1836 142.162 32.1349 141.732 32.2137 141.316C32.2559 141.113 32.345 140.923 32.474 140.761C32.6029 140.599 32.7681 140.469 32.9562 140.383C33.1434 140.312 33.3472 140.299 33.5423 140.343C33.7373 140.388 33.915 140.488 34.0532 140.633C34.188 140.759 34.2922 140.913 34.3575 141.086C34.4228 141.258 34.4476 141.443 34.4299 141.626C34.3848 141.95 34.243 142.253 34.0231 142.495C33.8031 142.737 33.5153 142.907 33.1971 142.983C32.6776 143.097 32.1344 143.02 31.6669 142.767C31.3184 142.584 31.0043 142.342 30.7387 142.052C30.5699 141.873 30.4126 141.684 30.2677 141.485C30.2133 141.418 30.1662 141.347 30.1269 141.27C30.188 141.33 30.2439 141.394 30.2942 141.462C30.4033 141.591 30.5614 141.78 30.8009 142.01C31.0737 142.284 31.3887 142.512 31.7338 142.686C32.1841 142.916 32.7007 142.981 33.1938 142.869C33.4831 142.795 33.7439 142.636 33.943 142.414C34.1421 142.191 34.2706 141.914 34.3122 141.619C34.3258 141.456 34.3018 141.293 34.242 141.141C34.1821 140.99 34.0881 140.854 33.9673 140.745C33.849 140.621 33.6972 140.535 33.5305 140.497C33.3638 140.459 33.1897 140.471 33.0296 140.531C32.8681 140.609 32.7267 140.723 32.6161 140.864C32.5056 141.005 32.4289 141.169 32.392 141.345C32.3214 141.728 32.3688 142.123 32.5279 142.478C32.6828 142.856 32.8996 143.205 33.1695 143.512C33.4355 143.837 33.7945 144.073 34.1986 144.189C34.6036 144.277 35.0263 144.229 35.4016 144.053C35.7712 143.884 36.0936 143.627 36.3404 143.304C36.5803 142.991 36.7698 142.643 36.9019 142.271C37.0368 141.917 37.1207 141.545 37.1508 141.167C37.1865 140.817 37.089 140.466 36.8777 140.184C36.7811 140.056 36.6515 139.957 36.5028 139.897C36.354 139.837 36.1918 139.819 36.0335 139.844C35.8903 139.888 35.7617 139.969 35.6617 140.081C35.5616 140.192 35.4939 140.328 35.466 140.475C35.3998 140.756 35.4085 141.05 35.491 141.326C35.6532 141.805 35.9644 142.219 36.3792 142.509C36.6894 142.733 37.0461 142.885 37.4228 142.953C37.7482 143.004 38.0797 142.999 38.4035 142.94Z" fill="#263238" />
        <path d="M210.303 165.9C212.9 164.476 215.822 163.751 218.783 163.798C221.744 163.844 224.643 164.659 227.194 166.163C221.603 167.979 215.599 168.092 209.944 166.489" fill="#13CB6E" />
        <path d="M221.098 148.673C221.792 143.875 225.096 139.216 229.523 136.875C228.304 141.473 224.875 146.049 221.098 148.673Z" fill="#13CB6E" />
        <path d="M215.8 156.57C219.674 152.571 224.746 149.942 230.247 149.08C228.717 151.513 226.567 153.493 224.017 154.818C221.467 156.142 218.609 156.763 215.74 156.616" fill="#13CB6E" />
        <path d="M214.738 158.084C217.499 158.973 220.343 159.7 223.245 159.774C226.147 159.848 229.121 159.229 231.54 157.625C226.084 156.051 220.285 156.122 214.869 157.829" fill="#13CB6E" />
        <path d="M217.766 152.964C217.898 147.259 216.638 142.917 213.342 138.735C212.263 141.245 212.115 144.058 212.926 146.666C213.738 149.275 215.454 151.509 217.766 152.964Z" fill="#13CB6E" />
        <path d="M204.598 159.028C205.039 157.481 205.926 156.099 207.15 155.056C208.373 154.012 209.878 153.353 211.474 153.161C210.446 155.828 207.376 158.362 204.598 159.028Z" fill="#13CB6E" />
        <path d="M204.571 154.176C205.025 151.904 204.819 149.549 203.979 147.389C203.139 145.229 201.699 143.354 199.829 141.985C199.5 146.689 200.98 151.118 204.571 154.176Z" fill="#13CB6E" />
        <path d="M204.261 162.683C203.691 160.993 202.342 159.653 200.813 158.736C199.284 157.82 197.572 157.277 195.86 156.737C196.657 158.345 197.794 159.761 199.192 160.888C200.589 162.015 202.214 162.825 203.955 163.264" fill="#13CB6E" />
        <path d="M202.955 174.546C200.113 172.672 196.672 171.93 193.31 172.467C189.949 173.004 186.91 174.782 184.794 177.448C190.911 178.041 197.386 177.124 202.955 174.546Z" fill="#13CB6E" />
        <path d="M210.461 172.483C208.669 175.047 207.849 178.541 209.274 181.621C210.128 180.277 210.678 178.763 210.883 177.184C211.088 175.605 210.944 174 210.461 172.483Z" fill="#13CB6E" />
        <path d="M214.683 171.999C214.303 173.878 214.414 175.824 215.006 177.648C215.598 179.472 216.65 181.113 218.06 182.412C218.122 182.484 218.198 182.543 218.284 182.584C218.369 182.625 218.463 182.647 218.557 182.65C218.849 182.622 218.978 182.273 219.028 181.985C219.672 178.215 218.001 173.901 214.683 171.999Z" fill="#13CB6E" />
        <path d="M217.248 172.348C217.807 173.469 218.59 174.463 219.549 175.269C220.509 176.075 221.623 176.675 222.824 177.032C224.025 177.389 225.286 177.496 226.53 177.345C227.774 177.194 228.973 176.789 230.054 176.156C226.108 174.521 221.489 172.849 217.248 172.348Z" fill="#13CB6E" />
        <path d="M227.371 139.93C227.351 139.969 227.327 140.006 227.299 140.039L227.076 140.347C226.869 140.62 226.573 141.021 226.199 141.525C225.825 142.029 225.353 142.661 224.819 143.396C224.552 143.761 224.265 144.151 223.964 144.566L223.027 145.893C221.702 147.746 220.165 149.987 218.506 152.497C216.846 155.006 215.063 157.802 213.245 160.765C211.427 163.728 209.769 166.597 208.293 169.223C206.816 171.849 205.543 174.245 204.522 176.283C204.263 176.791 204.016 177.272 203.785 177.735C203.553 178.197 203.35 178.631 203.151 179.037C202.754 179.851 202.412 180.551 202.15 181.131C201.887 181.711 201.676 182.149 201.528 182.463C201.459 182.606 201.406 182.721 201.364 182.805C201.323 182.89 201.304 182.921 201.304 182.921C201.312 182.879 201.324 182.838 201.34 182.798C201.366 182.709 201.426 182.593 201.49 182.445C201.628 182.132 201.829 181.681 202.082 181.101C202.334 180.522 202.668 179.812 203.06 178.996C203.253 178.586 203.46 178.15 203.682 177.685C203.905 177.22 204.155 176.739 204.41 176.231C205.419 174.192 206.706 171.794 208.144 169.15C209.582 166.506 211.282 163.652 213.09 160.68C214.898 157.707 216.701 154.923 218.364 152.412C220.027 149.9 221.574 147.682 222.917 145.824L223.866 144.504C224.172 144.093 224.459 143.704 224.732 143.34C225.278 142.613 225.737 141.987 226.13 141.485C226.523 140.983 226.819 140.599 227.031 140.328L227.269 140.027C227.341 139.965 227.368 139.929 227.371 139.93Z" fill="#263238" />
        <path d="M201.576 145.045C201.576 145.045 201.595 145.073 201.628 145.13L201.762 145.392C201.881 145.624 202.047 145.969 202.25 146.415C202.829 147.686 203.317 148.996 203.712 150.335C204.306 152.316 204.623 154.37 204.654 156.437C204.7 158.784 204.412 161.323 204.085 163.985C203.43 169.311 203.115 174.159 202.894 177.668C202.784 179.416 202.697 180.831 202.638 181.824C202.606 182.308 202.579 182.687 202.564 182.955C202.552 183.075 202.547 183.174 202.539 183.248C202.538 183.282 202.534 183.315 202.526 183.348C202.522 183.314 202.52 183.28 202.522 183.247C202.525 183.171 202.526 183.074 202.531 182.953C202.541 182.682 202.557 182.293 202.575 181.822C202.62 180.835 202.692 179.409 202.789 177.664C202.983 174.154 203.277 169.299 203.933 163.967C204.26 161.306 204.552 158.764 204.513 156.443C204.493 154.387 204.192 152.345 203.618 150.371C203.233 149.04 202.761 147.735 202.205 146.465C202.005 146.01 201.855 145.666 201.747 145.431L201.625 145.162C201.604 145.125 201.588 145.086 201.576 145.045Z" fill="#263238" />
        <path d="M218.515 172.528C218.463 172.531 218.411 172.526 218.36 172.512L217.926 172.435L217.609 172.377L217.231 172.326C216.962 172.288 216.655 172.241 216.312 172.218L215.779 172.172L215.196 172.149C214.793 172.124 214.362 172.149 213.911 172.154C212.931 172.202 211.957 172.33 210.999 172.537C210.042 172.757 209.109 173.069 208.213 173.47C207.823 173.646 207.444 173.844 207.077 174.062C206.753 174.247 206.439 174.449 206.137 174.668C205.884 174.843 205.641 175.031 205.409 175.232C205.224 175.375 205.05 175.53 204.886 175.696L204.561 175.998C204.526 176.036 204.486 176.069 204.443 176.097C204.469 176.052 204.501 176.011 204.538 175.975L204.843 175.65C204.998 175.475 205.167 175.313 205.348 175.164C205.577 174.954 205.818 174.757 206.07 174.575C206.369 174.346 206.682 174.136 207.007 173.945C207.377 173.72 207.758 173.516 208.15 173.332C209.053 172.921 209.995 172.602 210.962 172.379C211.93 172.17 212.915 172.043 213.905 172.002C214.362 172.002 214.794 171.985 215.202 172.014L215.786 172.044L216.326 172.102C216.671 172.132 216.968 172.186 217.247 172.237L217.622 172.3L217.929 172.39L218.361 172.496C218.414 172.501 218.465 172.511 218.515 172.528Z" fill="#263238" />
        <path d="M225.707 152.208C225.583 152.284 225.453 152.349 225.317 152.401L224.266 152.885C223.374 153.291 222.141 153.828 220.774 154.422C219.407 155.016 218.161 155.539 217.257 155.916L216.187 156.35C216.058 156.409 215.924 156.456 215.786 156.49C215.909 156.412 216.04 156.347 216.176 156.297L217.23 155.815C218.122 155.408 219.357 154.868 220.723 154.277C222.089 153.686 223.333 153.159 224.236 152.783L225.309 152.349C225.436 152.289 225.57 152.242 225.707 152.208Z" fill="#263238" />
        <path d="M225.134 157.892C225.122 157.935 222.798 157.983 219.918 157.993C217.038 158.002 214.7 157.973 214.7 157.926C214.701 157.88 217.036 157.838 219.919 157.83C222.802 157.821 225.134 157.848 225.134 157.892Z" fill="#263238" />
        <path d="M217.858 153.438C217.801 153.318 217.757 153.194 217.726 153.066L217.412 152.041C217.147 151.18 216.753 149.992 216.259 148.704C215.765 147.416 215.255 146.274 214.875 145.453C214.694 145.067 214.542 144.743 214.425 144.482C214.36 144.362 214.31 144.236 214.275 144.104C214.356 144.209 214.426 144.322 214.483 144.442C214.609 144.662 214.777 144.988 214.983 145.391C215.389 146.203 215.917 147.331 216.413 148.632C216.91 149.934 217.287 151.121 217.529 151.995C217.648 152.433 217.737 152.789 217.792 153.035C217.828 153.167 217.85 153.301 217.858 153.438Z" fill="#263238" />
        <path d="M209.549 154.263C209.316 154.505 209.067 154.732 208.804 154.942C208.351 155.353 207.701 155.923 207.022 156.582C206.343 157.24 205.745 157.876 205.327 158.314C205.114 158.571 204.884 158.813 204.638 159.039C204.819 158.754 205.025 158.486 205.255 158.239C205.66 157.767 206.245 157.132 206.925 156.47C207.605 155.808 208.259 155.246 208.749 154.859C208.997 154.636 209.265 154.437 209.549 154.263Z" fill="#263238" />
        <path d="M204.286 162.837C203.958 162.587 203.641 162.321 203.339 162.04C202.759 161.538 201.938 160.878 200.992 160.202C200.046 159.526 199.15 158.964 198.493 158.576C198.13 158.38 197.776 158.165 197.434 157.933C197.537 157.963 197.637 158.005 197.731 158.057C197.928 158.147 198.204 158.288 198.541 158.47C200.296 159.43 201.93 160.598 203.405 161.95C203.687 162.208 203.909 162.43 204.058 162.58C204.144 162.656 204.221 162.742 204.286 162.837Z" fill="#263238" />
        <path d="M203.03 174.588C202.982 174.597 202.933 174.599 202.885 174.592L202.469 174.578L200.951 174.491C199.285 174.363 197.613 174.32 195.942 174.362C194.273 174.427 192.618 174.686 191.009 175.136C190.394 175.313 189.908 175.481 189.569 175.615C189.4 175.687 189.226 175.747 189.049 175.797C189.088 175.768 189.13 175.744 189.174 175.723C189.26 175.682 189.382 175.617 189.558 175.549C190.025 175.344 190.502 175.165 190.988 175.013C192.599 174.53 194.265 174.253 195.945 174.19C197.623 174.145 199.301 174.204 200.971 174.367L202.487 174.506C202.67 174.52 202.851 174.547 203.03 174.588Z" fill="#263238" />
        <path d="M209.468 179.45C209.425 179.438 209.597 177.865 209.878 175.93C210.16 173.995 210.407 172.417 210.45 172.43C210.493 172.443 210.321 174.016 210.039 175.95C209.758 177.885 209.512 179.457 209.468 179.45Z" fill="#263238" />
        <path d="M217.805 178.914C217.636 178.588 217.488 178.252 217.362 177.908C217.101 177.282 216.743 176.417 216.326 175.472C215.909 174.527 215.516 173.679 215.229 173.065C215.058 172.739 214.911 172.402 214.786 172.056C214.851 172.131 214.905 172.215 214.947 172.306C215.042 172.47 215.164 172.703 215.331 173.011C215.645 173.613 216.055 174.459 216.474 175.409C216.894 176.358 217.237 177.228 217.471 177.866C217.584 178.186 217.675 178.446 217.737 178.611C217.775 178.707 217.798 178.81 217.805 178.914Z" fill="#263238" />
        <path d="M195.812 180.081L194.725 183.807L195.659 184.08L195.916 195.496L203.261 197.64L209.489 188.227L210.76 188.488L211.847 184.762L195.812 180.081Z" fill="#263238" />
        <path d="M210.109 188.408C210.097 188.451 206.845 187.542 202.846 186.375C198.846 185.207 195.616 184.224 195.629 184.181C195.642 184.138 198.892 185.05 202.892 186.218C206.891 187.385 210.122 188.365 210.109 188.408Z" fill="#455A64" />
        <path d="M222.387 165.991C222.217 166 222.047 165.996 221.877 165.978L220.5 165.91C219.334 165.863 217.725 165.836 215.946 165.914C214.166 165.991 212.565 166.144 211.407 166.286L210.038 166.463C209.872 166.493 209.703 166.509 209.534 166.512C209.695 166.461 209.86 166.423 210.027 166.399C210.349 166.337 210.815 166.256 211.393 166.172C214.409 165.736 217.461 165.611 220.502 165.8C221.084 165.84 221.556 165.881 221.878 165.919C222.05 165.926 222.22 165.95 222.387 165.991Z" fill="#263238" />
        <path d="M205.979 193.503C205.966 193.546 203.68 192.915 200.876 192.096C198.071 191.278 195.805 190.579 195.817 190.536C195.83 190.493 198.114 191.12 200.921 191.94C203.729 192.759 205.991 193.46 205.979 193.503Z" fill="#FAFAFA" />
        <path d="M206.517 192.72C206.505 192.763 204.083 192.096 201.109 191.228C198.136 190.36 195.735 189.619 195.748 189.576C195.76 189.533 198.181 190.203 201.155 191.071C204.128 191.939 206.53 192.677 206.517 192.72Z" fill="#FAFAFA" />
        <path d="M217.215 81.6953L92.1158 45.178C91.602 45.0262 91.0633 44.9775 90.5306 45.0345C89.998 45.0916 89.4818 45.2533 89.0118 45.5105C88.5418 45.7676 88.1272 46.115 87.7919 46.5328C87.4566 46.9507 87.2071 47.4306 87.0578 47.9451L61.2639 136.309C60.9616 137.344 61.0831 138.457 61.6015 139.403C62.12 140.349 62.993 141.05 64.0285 141.352L112.056 155.372C112.056 155.372 112.352 165.709 101.461 167.824L146.358 180.93C146.358 180.93 136.738 174.144 142.601 164.282L189.142 177.867C189.654 178.017 190.192 178.064 190.722 178.006C191.253 177.948 191.768 177.786 192.236 177.53C192.705 177.273 193.118 176.926 193.452 176.51C193.787 176.094 194.036 175.615 194.186 175.103L219.978 86.7454C220.128 86.2324 220.176 85.6947 220.119 85.1632C220.062 84.6316 219.9 84.1166 219.643 83.6475C219.387 83.1785 219.04 82.7646 218.624 82.4296C218.207 82.0947 217.728 81.8451 217.215 81.6953Z" fill="#455A64" />
        <path d="M130.979 150.809C131.971 153.738 128.527 155.623 126.591 153.211C126.527 153.13 126.477 153.039 126.443 152.941C125.457 150.017 128.894 148.133 130.828 150.538C130.893 150.619 130.944 150.711 130.979 150.809Z" fill="#263238" />
        <path d="M92.7671 47.1381L215.421 82.9417C216.211 83.1724 216.877 83.7075 217.273 84.4294C217.669 85.1513 217.762 86.0008 217.531 86.7911L195.517 162.204L66.9041 124.661L88.9176 49.248C89.1483 48.4577 89.6835 47.7915 90.4054 47.3958C91.1273 47.0001 91.9768 46.9074 92.7671 47.1381Z" fill="white" />
        <path d="M92.7031 47.106L216.094 83.1248C216.707 83.3036 217.223 83.7185 217.53 84.2782C217.837 84.8378 217.909 85.4964 217.73 86.1091L216.502 90.3144L87.9751 52.7963L89.0556 49.0948C89.1634 48.724 89.3435 48.3782 89.5855 48.0773C89.8274 47.7764 90.1265 47.5263 90.4655 47.3415C90.8045 47.1566 91.1768 47.0407 91.5608 47.0003C91.9448 46.9598 92.333 46.9958 92.7031 47.106Z" fill="#EBEBEB" />
        <path d="M93.8993 51.1391C93.8472 51.3177 93.7432 51.4769 93.6006 51.5964C93.458 51.716 93.2832 51.7905 93.0982 51.8107C92.9133 51.8309 92.7264 51.7958 92.5614 51.7098C92.3964 51.6238 92.2606 51.4908 92.1712 51.3277C92.0817 51.1645 92.0427 50.9785 92.059 50.7931C92.0753 50.6077 92.1462 50.4314 92.2627 50.2863C92.3792 50.1412 92.5362 50.034 92.7136 49.9781C92.8911 49.9222 93.0812 49.9202 93.2598 49.9724C93.4993 50.0423 93.7013 50.2045 93.8212 50.4233C93.9411 50.6421 93.9692 50.8996 93.8993 51.1391Z" fill="#263238" />
        <path d="M96.5932 51.9255C96.5411 52.1041 96.4372 52.2632 96.2946 52.3828C96.152 52.5023 95.9772 52.5769 95.7922 52.5971C95.6072 52.6173 95.4204 52.5822 95.2554 52.4962C95.0904 52.4102 94.9546 52.2772 94.8651 52.114C94.7757 51.9509 94.7367 51.7648 94.753 51.5795C94.7693 51.3941 94.8401 51.2178 94.9567 51.0727C95.0732 50.9276 95.2301 50.8204 95.4076 50.7645C95.5851 50.7086 95.7751 50.7066 95.9538 50.7587C96.1933 50.8287 96.3952 50.9909 96.5151 51.2097C96.6351 51.4285 96.6632 51.686 96.5932 51.9255Z" fill="#263238" />
        <path d="M99.1551 52.6733C99.103 52.8519 98.9991 53.011 98.8565 53.1306C98.7139 53.2501 98.5391 53.3247 98.3541 53.3449C98.1691 53.3651 97.9823 53.33 97.8173 53.244C97.6523 53.158 97.5165 53.025 97.427 52.8618C97.3376 52.6987 97.2986 52.5126 97.3148 52.3273C97.3311 52.1419 97.402 51.9656 97.5186 51.8205C97.6351 51.6754 97.792 51.5682 97.9695 51.5123C98.147 51.4564 98.337 51.4544 98.5157 51.5065C98.7552 51.5765 98.9571 51.7387 99.077 51.9575C99.197 52.1763 99.2251 52.4338 99.1551 52.6733Z" fill="#263238" />
        <path d="M166.777 171.359C166.765 171.399 148.939 166.232 126.997 159.827C105.055 153.422 87.2452 148.186 87.2569 148.146C87.2685 148.106 105.077 153.265 127.041 159.676C149.004 166.087 166.789 171.316 166.777 171.359Z" fill="#263238" />
        <path d="M188.52 129.899C190.23 129.565 192.01 129.978 193.581 130.73C194.422 131.136 195.27 131.67 195.68 132.513C196.091 133.356 195.858 134.565 195.001 134.931C194.461 135.103 193.878 135.08 193.353 134.867C192.067 134.475 190.699 133.829 189.44 134.305C188.724 134.579 188.115 135.201 187.349 135.211C186.97 135.193 186.608 135.051 186.317 134.807C186.027 134.562 185.826 134.229 185.744 133.859C185.596 133.114 185.742 132.341 186.15 131.701C186.378 131.238 186.711 130.833 187.122 130.521C187.534 130.208 188.012 129.995 188.52 129.899Z" fill="#EBEBEB" />
        <path d="M187.038 122.32C187.581 123.888 189.46 123.97 190.509 123.416C191.557 122.862 192.243 121.815 192.875 120.813C194.327 118.524 195.819 116.109 196.038 113.403C196.135 112.593 196.006 111.773 195.667 111.031C195.493 110.664 195.225 110.349 194.891 110.118C194.556 109.886 194.167 109.746 193.762 109.712C192.803 109.688 191.992 110.398 191.354 111.112C189.462 113.218 188.062 115.719 187.256 118.433C186.887 119.699 186.645 121.065 187.053 122.317" fill="#EBEBEB" />
        <path d="M184.001 123.453C185.328 122.571 186.014 120.917 186.003 119.324C185.991 117.731 185.364 116.191 184.519 114.837C183.523 113.249 182.227 111.869 180.705 110.774C180.124 110.317 179.452 109.991 178.735 109.815C178.375 109.733 178 109.739 177.644 109.834C177.287 109.93 176.959 110.11 176.688 110.361C175.934 111.141 176.07 112.401 176.306 113.463C176.72 115.335 177.282 117.171 177.987 118.954C178.567 120.394 179.256 121.848 180.484 122.78C181.712 123.712 183.167 124.07 184.182 123.323" fill="#EBEBEB" />
        <path d="M181.263 141.878C181.369 141.7 181.455 141.511 181.518 141.313C181.685 140.898 181.895 140.373 182.144 139.749C182.454 138.98 182.805 138.227 183.195 137.496C183.683 136.607 184.241 135.759 184.866 134.96C185.483 134.16 186.209 133.45 187.024 132.853C187.688 132.368 188.452 132.036 189.261 131.882C189.806 131.786 190.364 131.776 190.912 131.854C191.113 131.905 191.318 131.933 191.524 131.94C191.331 131.862 191.13 131.803 190.925 131.765C190.366 131.648 189.791 131.632 189.226 131.716C188.384 131.849 187.585 132.176 186.891 132.671C186.047 133.27 185.297 133.991 184.666 134.811C184.032 135.622 183.47 136.487 182.985 137.394C182.604 138.14 182.268 138.908 181.98 139.694C181.728 140.364 181.551 140.902 181.428 141.29C181.352 141.48 181.297 141.677 181.263 141.878Z" fill="#E0E0E0" />
        <path d="M181.735 140.673C181.773 140.586 181.8 140.494 181.814 140.399L182.043 139.616C182.241 138.937 182.528 137.954 182.916 136.751C183.686 134.342 184.657 131.792 186.134 128.226C187.526 124.876 189.215 120.995 190.524 118.534C190.812 117.971 191.087 117.471 191.332 117.033C191.577 116.594 191.785 116.212 191.966 115.911C192.147 115.611 192.265 115.388 192.37 115.202C192.423 115.123 192.466 115.037 192.498 114.946C192.432 115.016 192.374 115.093 192.327 115.176C192.212 115.356 192.063 115.579 191.881 115.86C191.699 116.14 191.466 116.528 191.21 116.96C190.954 117.392 190.665 117.891 190.366 118.447C188.791 121.351 187.372 124.336 186.115 127.391C184.637 130.959 183.47 134.269 182.733 136.694C182.374 137.923 182.09 138.896 181.935 139.588C181.863 139.9 181.8 140.175 181.752 140.385C181.737 140.48 181.731 140.576 181.735 140.673Z" fill="#E0E0E0" />
        <path d="M183.644 134.2C183.743 133.933 183.823 133.658 183.883 133.38C184.006 132.846 184.154 132.065 184.278 131.091C184.417 129.952 184.491 128.805 184.501 127.656C184.529 126.248 184.45 124.84 184.264 123.443C183.994 120.891 183.262 118.41 182.105 116.119C181.906 115.727 181.682 115.348 181.436 114.984C181.33 114.82 181.236 114.663 181.138 114.531L180.848 114.176C180.678 113.948 180.491 113.734 180.289 113.533C180.233 113.576 181.073 114.468 181.957 116.203C183.054 118.492 183.754 120.951 184.028 123.475C184.198 124.862 184.274 126.258 184.258 127.655C184.261 128.797 184.206 129.938 184.093 131.074C183.993 132.045 183.872 132.823 183.778 133.362C183.711 133.638 183.666 133.918 183.644 134.2Z" fill="#E0E0E0" />
        <path d="M174.041 143.801L172.095 152.887L183.522 156.222L186.77 147.517L174.041 143.801Z" fill="#E0E0E0" />
        <path d="M189.158 144.407L173.962 139.971L172.938 143.479L188.134 147.915L189.158 144.407Z" fill="#E0E0E0" />
        <path d="M170.441 152.034L170.157 153.007L170.872 153.216L185.101 157.37L185.385 156.396L170.441 152.034Z" fill="#EBEBEB" />
        <path d="M171.07 155.131L170.872 153.217L184.557 157.211L183.241 158.684L171.07 155.131Z" fill="#E0E0E0" />
        <path d="M185.71 150.36C185.71 150.36 185.701 150.391 185.631 150.427C185.56 150.463 185.49 150.533 185.395 150.605L184.481 151.261L184.439 151.289L184.422 151.244L183.449 148.503L183.541 148.53L181.266 150.34L181.195 150.399L181.157 150.315L179.91 147.484L180.02 147.516L179.877 147.618L177.542 149.269L177.466 149.324L177.432 149.234L176.488 146.482L176.581 146.509L173.936 148.19L173.891 148.22L173.877 148.166L173.567 146.942L173.488 146.619C173.478 146.582 173.472 146.545 173.468 146.507C173.468 146.507 173.487 146.542 173.51 146.612L173.607 146.931C173.693 147.229 173.811 147.637 173.962 148.148L173.898 148.129L176.518 146.414L176.585 146.37L176.613 146.445C176.902 147.279 177.227 148.201 177.575 149.189L177.464 149.157L179.797 147.504L179.94 147.403L180.015 147.351L180.051 147.432L181.291 150.267L181.183 150.236L183.474 148.441L183.539 148.39L183.566 148.468L184.498 151.223L184.443 151.207L185.376 150.58L185.623 150.418C185.65 150.395 185.679 150.376 185.71 150.36Z" fill="#F5F5F5" />
        <path d="M186.947 147.505C186.936 147.545 184.061 146.739 180.531 145.709C177.002 144.678 174.141 143.81 174.153 143.77C174.165 143.73 177.033 144.548 180.566 145.579C184.098 146.61 186.959 147.465 186.947 147.505Z" fill="#F5F5F5" />
        <path d="M184.698 157.356C184.687 157.396 181.563 156.517 177.726 155.397C173.89 154.277 170.784 153.337 170.795 153.297C170.807 153.258 173.928 154.135 177.768 155.256C181.607 156.377 184.71 157.316 184.698 157.356Z" fill="#F5F5F5" />
        <path d="M162.988 96.8947C164.254 91.3482 165.307 85.7575 166.147 80.1224C166.653 76.7332 167.081 73.3044 166.86 69.8829C166.638 66.4615 165.725 63.0246 163.756 60.2331C161.787 57.4416 158.675 55.3698 155.292 55.1522L156.576 98.9565C157.506 99.368 158.455 99.7817 159.466 99.8702C160.477 99.9586 161.58 99.6638 162.222 98.8679C162.623 98.2765 162.885 97.6019 162.988 96.8947Z" fill="#263238" />
        <path d="M150.66 55.2938C148.232 54.3748 144.94 54.4474 142.924 56.1023C141.358 57.3887 140.802 60.2664 139.85 62.0654C138.339 64.9578 136.846 67.8557 135.856 70.9634C134.77 74.3735 134.327 77.9477 133.894 81.4982C133.414 85.4251 132.935 89.351 132.456 93.2759C132.243 95.0206 132.026 96.8172 132.377 98.5264C132.728 100.236 133.741 101.925 135.352 102.609C136.836 103.235 138.578 102.907 139.941 102.055C141.303 101.202 142.312 99.8799 143.108 98.4788L150.66 55.2938Z" fill="#263238" />
        <path d="M142.639 90.9146C141.906 90.6608 136.605 90.4032 136.605 90.4032L135.78 114.664L144.793 118.105L160.488 94.7947L142.639 90.9146Z" fill="#AA6550" />
        <path d="M147.441 113.028C145.639 114.275 143.478 114.896 141.288 114.796C140.071 114.783 138.887 114.4 137.892 113.697C136.934 112.961 136.302 111.723 136.505 110.522L133.533 114.848L132.257 129.62L133.001 143.962L141.909 146.506L147.441 113.028Z" fill="#263238" />
        <path d="M111.12 105.429L116.494 101.787C116.494 101.787 123.986 90.3835 125.412 89.7828C126.837 89.1822 138.129 89.6116 138.129 89.6116L137.157 106.886L133.252 127.354L134.443 136.282L135.706 144.721L123.64 141.236C123.64 141.236 121.965 128.703 121.244 121.488C121.01 119.145 121.129 116.779 121.595 114.471L121.915 112.897C121.915 112.897 108.776 128.753 106.586 129.38C104.396 130.008 101.576 131.091 99.0639 130.241C96.5518 129.392 93.5294 120.309 93.5294 120.309L96.4483 110.207L104.741 109.274L105.207 112.44L111.12 105.429Z" fill="#13CB6E" />
        <path d="M136.624 136.325L138.007 134.579L157.416 131.537L163.824 107.623L171.198 99.2613C171.198 99.2613 173.449 101.142 173.97 104.908C174.341 107.556 167.704 141.584 165.682 142.117C163.043 142.797 146.19 144.391 140.561 144.902C140.052 144.948 139.543 144.809 139.128 144.51C138.713 144.211 138.42 143.773 138.302 143.276L136.624 136.325Z" fill="#13CB6E" />
        <path d="M157.276 139.543L171.16 99.1634L162.056 94.5825L159.874 91.7819L157.687 91.1435C157.687 91.1435 157.884 93.4611 157.275 95.1468C156.666 96.8326 139.787 125.191 139.787 125.191L138.716 145.593L159.078 151.47L157.276 139.543Z" fill="#13CB6E" />
        <path d="M162.059 94.5732L162.042 94.6316C162.029 94.6777 162.012 94.733 161.992 94.8036C161.944 94.9664 161.906 95.1987 161.841 95.4898C161.706 96.0903 161.493 96.9682 161.198 98.072C160.608 100.287 159.602 103.4 158.328 107.092L158.31 107.153L158.246 107.134L154.565 106.28L154.657 106.18C155.107 107.755 155.932 109.197 157.061 110.382L157.112 110.437L157.065 110.493L154.684 113.272C152.405 115.94 150.263 118.505 148.429 120.927C146.789 123.059 145.263 125.278 143.859 127.573C142.666 129.535 141.825 131.196 141.255 132.347C140.984 132.934 140.776 133.373 140.628 133.687C140.558 133.833 140.504 133.951 140.462 134.035C140.447 134.076 140.427 134.115 140.402 134.151C140.41 134.108 140.422 134.066 140.439 134.025C140.465 133.936 140.525 133.82 140.588 133.672C140.721 133.377 140.917 132.901 141.187 132.317C141.743 131.145 142.567 129.486 143.748 127.507C145.142 125.202 146.661 122.975 148.296 120.834C150.126 118.402 152.269 115.834 154.537 113.159L156.921 110.381L156.922 110.492C155.782 109.288 154.95 107.826 154.499 106.231L154.463 106.103L154.589 106.14L158.269 107.008L158.183 107.053C159.472 103.369 160.497 100.268 161.107 98.0623C161.428 96.9626 161.64 96.0878 161.791 95.4917C161.875 95.2029 161.922 94.9733 161.96 94.8109L162.011 94.6358C162.022 94.6117 162.039 94.5904 162.059 94.5732Z" fill="#263238" />
        <path d="M135.894 142.159L135.78 142.059L135.452 141.757C135.161 141.498 134.762 141.082 134.254 140.537C134.005 140.251 133.741 139.944 133.46 139.592C133.18 139.24 132.877 138.848 132.589 138.407C131.907 137.424 131.302 136.389 130.779 135.312C129.419 132.505 128.511 129.501 128.091 126.41C127.6 122.627 127.605 118.796 128.107 115.014C128.414 112.457 128.875 109.998 129.372 107.677C129.619 106.522 129.903 105.368 130.509 104.398C131.116 103.428 132.05 102.684 133.13 102.556L133.078 102.668C132.804 102.252 132.43 101.911 131.99 101.678C131.55 101.444 131.059 101.326 130.561 101.333L130.466 101.339L130.493 101.246C131.637 97.7501 132.581 94.8557 133.234 92.8595C133.564 91.8657 133.825 91.0853 134.003 90.5439C134.08 90.2827 134.161 90.0832 134.21 89.9376C134.26 89.7919 134.288 89.7301 134.288 89.7301C134.288 89.7301 134.266 89.8038 134.226 89.942C134.185 90.0803 134.124 90.2922 134.046 90.5564C133.888 91.1001 133.627 91.8806 133.311 92.8819C132.666 94.8971 131.744 97.7815 130.625 101.285L130.557 101.195C131.08 101.185 131.596 101.307 132.058 101.55C132.521 101.793 132.914 102.148 133.202 102.584L133.264 102.682L133.149 102.699C132.114 102.817 131.217 103.548 130.631 104.474C130.044 105.399 129.766 106.555 129.52 107.706C129.027 110.026 128.567 112.479 128.266 115.031C127.763 118.798 127.753 122.615 128.235 126.386C128.647 129.462 129.538 132.456 130.875 135.257C131.391 136.33 131.986 137.363 132.657 138.347C132.941 138.79 133.245 139.186 133.514 139.534C133.782 139.882 134.062 140.201 134.295 140.489C134.801 141.04 135.181 141.461 135.467 141.728L135.782 142.04L135.894 142.159Z" fill="#263238" />
        <path d="M162.617 111.277C162.611 111.31 162.602 111.342 162.589 111.373C162.569 111.44 162.542 111.532 162.507 111.652C162.448 111.912 162.362 112.276 162.249 112.767C162.014 113.742 161.672 115.165 161.239 116.969C160.363 120.587 159.11 125.735 157.623 131.868L157.609 131.917L157.56 131.923L139.704 134.317L137.987 134.546L138.042 134.516C137.851 134.76 137.662 134.995 137.473 135.233L137.491 135.172C137.818 138.217 138.13 141.159 138.425 143.915L138.405 143.869C138.739 144.226 139.143 144.509 139.593 144.699C139.703 144.74 139.817 144.766 139.933 144.779C140.047 144.783 140.16 144.777 140.272 144.761L141.002 144.704L143.847 144.471L149.149 144.019C152.499 143.723 155.458 143.44 157.91 143.182C160.362 142.925 162.311 142.69 163.641 142.485C164.304 142.382 164.814 142.291 165.153 142.203C165.281 142.173 165.405 142.13 165.524 142.075C165.565 142.058 165.601 142.03 165.628 141.995C165.608 142.038 165.573 142.072 165.53 142.09C165.41 142.148 165.285 142.194 165.156 142.227C164.657 142.357 164.152 142.461 163.642 142.539C162.315 142.758 160.368 143.01 157.915 143.28C155.463 143.551 152.507 143.845 149.156 144.154L143.857 144.607L141.01 144.846L140.283 144.907C140.156 144.922 140.029 144.926 139.902 144.92C139.772 144.906 139.644 144.876 139.521 144.832C139.047 144.634 138.62 144.337 138.268 143.962L138.247 143.956L138.254 143.932C137.954 141.177 137.64 138.235 137.312 135.19L137.321 135.159L137.33 135.128C137.519 134.893 137.705 134.654 137.899 134.411L137.908 134.383L137.94 134.376L139.672 134.152L157.56 131.776L157.497 131.831C159.013 125.703 160.283 120.563 161.175 116.947C161.624 115.148 161.978 113.728 162.223 112.753C162.346 112.271 162.44 111.901 162.506 111.645C162.541 111.525 162.568 111.433 162.588 111.366L162.617 111.277Z" fill="#263238" />
        <path d="M170.474 100.313C170.49 100.338 170.008 100.644 169.291 101.215C168.357 101.961 167.505 102.804 166.75 103.73C165.999 104.659 165.35 105.667 164.816 106.736C164.403 107.555 164.204 108.09 164.177 108.079C164.202 107.947 164.24 107.817 164.29 107.692C164.411 107.348 164.55 107.01 164.705 106.68C165.727 104.484 167.274 102.574 169.209 101.118C169.499 100.898 169.801 100.693 170.112 100.504C170.226 100.429 170.347 100.365 170.474 100.313Z" fill="#263238" />
        <path d="M125.798 101.1C125.799 100.951 125.814 100.802 125.844 100.657C125.89 100.377 125.943 99.9654 125.994 99.4602C126.273 96.8137 126.077 94.1388 125.416 91.561C125.29 91.0676 125.177 90.6678 125.09 90.3957C125.039 90.2553 125.002 90.1106 124.979 89.9634C125.049 90.0947 125.107 90.2321 125.152 90.374C125.255 90.6406 125.386 91.0356 125.525 91.5296C126.257 94.1104 126.455 96.8133 126.107 99.4731C126.039 99.98 125.969 100.39 125.905 100.668C125.885 100.815 125.85 100.96 125.798 101.1Z" fill="#263238" />
        <path d="M139.837 114.595C139.872 114.175 139.962 113.762 140.105 113.367C140.193 112.956 140.337 112.559 140.533 112.188C140.406 113.017 140.17 113.826 139.831 114.593L139.837 114.595Z" fill="#754034" />
        <g opacity="0.3">
            <path opacity="0.3" d="M156.576 107.397L159.173 108.548C159.026 106.892 161.455 98.8806 161.443 97.1738L158.284 107.072L154.606 106.209C154.606 106.209 155.552 108.755 156.152 109.407C156.46 109.728 156.744 110.07 157.003 110.432C157.003 110.432 148.382 120.916 146.981 122.747C143.999 126.647 140.606 133.681 140.606 133.681C147.006 127.548 151.963 119.738 156.594 112.153C156.995 111.587 157.273 110.944 157.412 110.265C157.541 109.262 157.051 108.292 156.576 107.397Z" fill="black" />
        </g>
        <g opacity="0.3">
            <path opacity="0.3" d="M130.579 101.282C130.487 101.415 131.605 97.9145 131.648 97.847C131.691 97.7796 129.953 101.942 129.792 102.172L131.371 102.28C130.949 102.355 130.547 102.519 130.193 102.76C129.838 103.001 129.538 103.314 129.312 103.679C128.865 104.417 128.539 105.222 128.346 106.064C126.643 112.264 126.133 118.992 127.935 125.152C127.273 119.355 128.258 113.502 129.363 107.764C129.582 106.638 129.815 105.519 130.432 104.549C131.048 103.579 132.081 102.657 133.15 102.579C132.586 101.748 131.632 101.136 130.579 101.282Z" fill="black" />
        </g>
        <g opacity="0.3">
            <path opacity="0.3" d="M138.739 144.29C138.888 145.23 140.327 145.587 141.352 145.766C142.383 145.9 143.427 145.901 144.458 145.769C149.051 145.383 153.462 145.117 158.053 144.737L157.842 143.326L140.103 144.871C139.847 144.88 139.592 144.832 139.357 144.732C139.121 144.631 138.91 144.48 138.739 144.29Z" fill="black" />
        </g>
        <path d="M108.204 92.0537C107.438 91.7565 104.907 91.7579 103.979 92.6638L101.44 96.5895C101.44 96.5895 105.195 94.4589 106.665 94.368C108.967 94.2264 109.936 94.4926 109.366 93.1096C109.262 92.8589 109.104 92.6342 108.903 92.4517C108.703 92.2692 108.464 92.1333 108.204 92.0537Z" fill="#AA6550" />
        <path d="M95.1058 91.7603L95.5641 95.3976L93.9068 101.281L101.189 102.29L101.826 96.3754L103.235 94.1065L101.066 90.8365L95.1058 91.7603Z" fill="#AA6550" />
        <path d="M123.986 105.746L87.3634 95.1731L80.104 120.319L116.727 130.892L123.986 105.746Z" fill="#FAFAFA" />
        <path d="M116.718 130.894C116.718 130.894 116.763 130.738 116.851 130.437C116.939 130.136 117.07 129.687 117.24 129.107C117.579 127.942 118.063 126.23 118.685 124.042C119.942 119.668 121.742 113.386 123.934 105.739L123.98 105.823L87.3566 95.262L87.4598 95.2054C84.863 104.181 82.4001 112.71 80.1903 120.349L80.1381 120.253L106.518 127.91L116.744 130.896L116.572 130.845L116.065 130.697L114.073 130.133L106.551 127.98L80.1005 120.382L80.0298 120.362L80.0513 120.288C82.255 112.647 84.7148 104.118 87.3054 95.1404L87.3287 95.0605L87.4117 95.0847L124.026 105.676L124.09 105.695L124.072 105.759C121.838 113.411 120.019 119.701 118.743 124.082L117.271 129.126C117.103 129.7 116.975 130.139 116.887 130.441C116.799 130.742 116.718 130.894 116.718 130.894Z" fill="#263238" />
        <path d="M83.6215 118.427C83.5785 118.414 84.774 114.136 86.2937 108.873C87.8135 103.609 89.0734 99.35 89.1287 99.3662C89.184 99.3823 87.9772 103.654 86.4565 108.92C84.9359 114.187 83.6676 118.44 83.6215 118.427Z" fill="#263238" />
        <path d="M116.164 124.979C116.151 125.025 108.999 122.998 100.188 120.452C91.377 117.907 84.2483 115.799 84.2582 115.766C84.2681 115.732 91.4236 117.747 100.235 120.293C109.046 122.838 116.177 124.936 116.164 124.979Z" fill="#EBEBEB" />
        <path d="M116.97 122.184C116.958 122.227 109.805 120.203 100.997 117.658C92.1891 115.114 85.0594 113.033 85.0764 112.974C85.0935 112.916 92.2388 114.955 101.053 117.501C109.867 120.047 116.983 122.141 116.97 122.184Z" fill="#EBEBEB" />
        <path d="M117.776 119.389C117.763 119.432 110.611 117.408 101.803 114.863C92.9949 112.319 85.8632 110.21 85.8731 110.177C85.8829 110.143 93.0384 112.158 101.849 114.704C110.66 117.249 117.79 119.343 117.776 119.389Z" fill="#EBEBEB" />
        <path d="M118.585 116.595C118.572 116.638 111.42 114.61 102.609 112.068C93.7968 109.526 86.6691 107.415 86.6798 107.378C86.6906 107.342 93.8443 109.363 102.655 111.908C111.466 114.454 118.598 116.549 118.585 116.595Z" fill="#EBEBEB" />
        <path d="M119.392 113.797C119.378 113.843 112.226 111.816 103.418 109.271C94.6105 106.727 87.4788 104.618 87.4887 104.585C87.4986 104.551 94.6501 106.568 103.465 109.112C112.28 111.655 119.404 113.754 119.392 113.797Z" fill="#EBEBEB" />
        <path d="M120.201 111.003C120.187 111.049 113.032 109.021 104.224 106.476C95.4165 103.932 88.2848 101.823 88.2947 101.79C88.3045 101.756 95.46 103.771 104.271 106.316C113.082 108.862 120.213 110.96 120.201 111.003Z" fill="#EBEBEB" />
        <path d="M121.007 108.208C120.994 108.251 113.841 106.227 105.033 103.682C96.2254 101.138 89.0938 99.0294 89.1036 98.9956C89.1135 98.9618 96.2659 100.976 105.077 103.522C113.888 106.067 121.019 108.165 121.007 108.208Z" fill="#EBEBEB" />
        <path d="M89.2158 115.316L86.9284 114.655L85.6707 119.012L87.9581 119.672L89.2158 115.316Z" fill="#13CB6E" />
        <path d="M105.81 120.119L103.523 119.459L102.264 123.815L104.552 124.476L105.81 120.119Z" fill="#13CB6E" />
        <path d="M94.6271 113.404L92.3397 112.744L90.1572 120.304L92.4446 120.964L94.6271 113.404Z" fill="#13CB6E" />
        <path d="M103.558 113.87L101.271 113.209L98.5189 122.736L100.806 123.397L103.558 113.87Z" fill="#13CB6E" />
        <path d="M101.093 106.886L98.8055 106.225L94.3819 121.538L96.6692 122.199L101.093 106.886Z" fill="#13CB6E" />
        <path d="M112.589 113.278L110.302 112.617L106.696 125.099L108.984 125.76L112.589 113.278Z" fill="#13CB6E" />
        <path d="M111.722 126.539C111.709 126.585 105.421 124.807 97.6797 122.57C89.9386 120.334 83.6692 118.481 83.6799 118.444C83.6907 118.407 89.9782 120.175 97.7263 122.411C105.474 124.646 111.737 126.487 111.722 126.539Z" fill="#263238" />
        <path d="M103.044 101.805L101.896 103.1L101.483 101.352L105.768 86.4323L107.33 86.8847L103.044 101.805Z" fill="#263238" />
        <path d="M106.734 86.7443C106.734 86.7443 106.455 85.1994 105.711 84.9855C104.966 84.7716 103.457 85.7977 103.457 85.7977C103.457 85.7977 102.004 84.4034 101.342 84.4537C100.681 84.504 99.3538 85.75 99.3538 85.75C98.8374 85.7629 98.3269 85.863 97.8439 86.046C97.3383 86.3051 96.917 87.4856 96.917 87.4856C96.917 87.4856 95.8318 87.3321 95.656 87.9342C95.4803 88.5363 94.7593 91.006 95.1159 91.7601C95.4725 92.5142 97.7216 95.601 98.7476 95.8204C99.7736 96.0399 100.184 94.6098 100.047 94.2463C100.047 94.2463 100.98 95.4921 101.814 94.8389C102.648 94.1856 102.697 92.8997 102.697 92.8997C102.697 92.8997 102.739 94.4586 103.848 94.0958C105.134 93.6776 104.661 91.8828 104.661 91.8828C104.661 91.8828 105.073 93.3366 105.705 92.8743C106.336 92.4119 106.472 91.3881 106.361 90.6257C106.25 89.8633 106.734 86.7443 106.734 86.7443Z" fill="#AA6550" />
        <path d="M99.3529 93.2902C99.216 93.1106 99.1043 92.9131 99.0209 92.7033C98.5588 91.7214 98.2194 90.6863 98.0103 89.6214C97.9526 89.4028 97.9254 89.1772 97.9293 88.9511C97.9786 88.9421 98.1856 89.9459 98.5801 91.1412C98.9746 92.3364 99.3965 93.2663 99.3529 93.2902Z" fill="#754034" />
        <path d="M102.736 92.7777C102.345 91.9488 102.005 91.0969 101.717 90.2268C101.375 89.3716 101.085 88.4965 100.849 87.6064C101.241 88.4394 101.584 89.2952 101.874 90.1692C102.213 91.0209 102.501 91.8919 102.736 92.7777Z" fill="#754034" />
        <path d="M104.743 91.9765C104.645 91.7321 104.574 91.4778 104.531 91.218L104.098 89.368L103.655 87.5184C103.578 87.2662 103.527 87.0069 103.504 86.7444C103.621 86.9813 103.71 87.2311 103.77 87.4888C103.911 87.9533 104.087 88.6049 104.26 89.3285C104.432 90.0521 104.562 90.7135 104.646 91.1914C104.706 91.4489 104.739 91.7121 104.743 91.9765Z" fill="#754034" />
        <path d="M102.584 92.7034C102.584 92.7034 102.606 92.7329 102.627 92.7959C102.662 92.8875 102.683 92.9835 102.691 93.0811C102.717 93.3944 102.656 93.7088 102.515 93.9898C102.374 94.2709 102.159 94.5079 101.892 94.6748C101.632 94.8388 101.322 94.9064 101.016 94.8658C100.682 94.7997 100.373 94.6379 100.129 94.4001C99.8609 94.1538 99.6452 93.8562 99.4944 93.5248L99.6364 93.4496C99.8973 93.8344 100.032 94.2908 100.022 94.7555C100.003 94.9902 99.9203 95.2151 99.7821 95.4056C99.6435 95.5959 99.4399 95.7286 99.2099 95.7786C98.7859 95.8257 98.3591 95.7177 98.0085 95.4746C97.4138 95.1206 96.8856 94.6652 96.4479 94.129C96.1533 93.7701 95.9031 93.377 95.7029 92.9581C95.6365 92.8087 95.5875 92.6911 95.5581 92.6091C95.5287 92.5272 95.5179 92.4841 95.525 92.4828C95.8 93.0442 96.1393 93.5717 96.5362 94.0547C96.9768 94.5672 97.4998 95.0027 98.0836 95.3431C98.4039 95.5612 98.7911 95.6588 99.1765 95.6188C99.3686 95.564 99.5381 95.4492 99.6604 95.2912C99.7827 95.1332 99.8513 94.9402 99.8562 94.7405C99.8619 94.3111 99.7372 93.89 99.4988 93.5328L99.6407 93.4575C99.936 94.0904 100.459 94.6165 101.038 94.7222C101.312 94.7655 101.591 94.71 101.827 94.5659C102.036 94.4426 102.214 94.2735 102.348 94.0713C102.544 93.7803 102.645 93.4358 102.636 93.0852C102.625 92.8254 102.569 92.709 102.584 92.7034Z" fill="#754034" />
        <path d="M104.606 91.2831C104.711 91.5091 104.773 91.7533 104.786 92.0024C104.817 92.2765 104.815 92.5535 104.778 92.827C104.711 93.1645 104.566 93.4817 104.355 93.7534C104.256 93.9038 104.121 94.0263 103.961 94.1088C103.802 94.1913 103.623 94.2311 103.444 94.2242C103.301 94.1977 103.166 94.136 103.053 94.0446C102.939 93.9533 102.85 93.8352 102.793 93.7009C102.722 93.528 102.678 93.3453 102.661 93.1591C102.648 93.032 102.65 92.959 102.66 92.9586C102.67 92.9582 102.691 93.0243 102.725 93.1476C102.768 93.3221 102.83 93.4912 102.911 93.6519C102.963 93.7642 103.04 93.8625 103.137 93.939C103.234 94.0154 103.348 94.0677 103.469 94.0916C103.621 94.0901 103.771 94.0509 103.904 93.9775C104.037 93.904 104.15 93.7987 104.232 93.6709C104.426 93.4179 104.564 93.1261 104.635 92.8152C104.678 92.556 104.692 92.293 104.678 92.0308C104.658 91.5718 104.578 91.2883 104.606 91.2831Z" fill="#754034" />
        <path d="M101.011 96.151C100.515 96.3609 99.9971 96.5182 99.4675 96.6204C98.9524 96.7779 98.4219 96.8801 97.8851 96.9252C98.3828 96.7192 98.8996 96.563 99.428 96.4588C99.944 96.3029 100.475 96.1998 101.011 96.151Z" fill="#754034" />
        <path d="M137.888 135.191L126.38 135.182L123.277 131.402C123.277 131.402 120.063 129.291 118.957 128.808C117.851 128.325 115.935 127.856 114.674 127.491C113.999 127.333 113.39 126.968 112.933 126.446C112.933 126.446 111.854 126.088 111.738 127.571C111.594 129.409 115.72 130.6 115.72 130.6L110.25 129.023L107.071 128.095L109.267 130.85C109.825 131.545 110.581 132.053 111.435 132.309L112.546 132.634C111.812 134.086 112.125 135.084 113.012 135.823C111.99 136.345 111.98 137.875 113.57 138.276C114.34 138.471 127.638 142.383 127.638 142.383L139.565 144.098L137.888 135.191Z" fill="#AA6550" />
        <path d="M115.051 133.271C114.43 133.211 113.819 133.08 113.228 132.879C112.625 132.731 112.031 132.547 111.449 132.327C112.07 132.387 112.681 132.518 113.272 132.719C113.876 132.865 114.47 133.05 115.051 133.271Z" fill="#754034" />
        <path d="M119.21 130.912C118.45 130.89 117.693 130.811 116.945 130.677C116.196 130.603 115.454 130.472 114.725 130.286C115.485 130.31 116.242 130.388 116.99 130.521C117.739 130.597 118.48 130.727 119.21 130.912Z" fill="#754034" />
        <path d="M133.517 89.0487C133.611 89.033 133.616 88.5578 133.568 87.7303C133.52 86.9028 133.39 85.6783 133.3 84.185C133.174 82.458 133.191 80.7236 133.35 78.9994C133.545 76.9221 134.129 74.8999 135.07 73.0378C136.068 71.0457 137.328 69.2665 138.421 67.5888C139.429 66.0985 140.304 64.5223 141.036 62.8785C141.536 61.7583 141.87 60.5711 142.028 59.3545C142.119 58.4943 142.049 58.0271 141.969 58.0038C141.755 57.9815 141.568 59.8569 140.169 62.4788C139.335 64.0057 138.402 65.476 137.374 66.88C136.234 68.5038 134.917 70.2962 133.845 72.4268C133.579 72.9536 133.34 73.4936 133.129 74.0447C133.029 74.3189 132.927 74.5891 132.846 74.8686C132.764 75.1481 132.667 75.4131 132.606 75.6888C132.337 76.7321 132.167 77.7984 132.096 78.8735C131.984 80.6777 132.063 82.4887 132.333 84.2762C132.501 85.4671 132.734 86.6479 133.03 87.8134C133.257 88.623 133.428 89.0662 133.517 89.0487Z" fill="#263238" />
        <path d="M161.977 69.6512C162.298 68.2169 162.326 66.7326 162.06 65.2872C161.793 63.8418 161.238 62.465 160.427 61.2392C159.616 60.0134 158.566 58.9638 157.34 58.1532C156.114 57.3427 154.737 56.7879 153.292 56.522C147.482 55.4026 141.838 59.2156 140.393 64.8874C139.127 69.8516 137.956 74.8902 137.798 76.7442C137.318 82.3309 140.408 84.8198 141.683 85.602C142.147 85.8215 142.632 85.9922 143.131 86.1114C143.136 86.1124 143.14 86.1143 143.145 86.1171C143.149 86.1199 143.152 86.1235 143.154 86.1277C143.157 86.1319 143.159 86.1366 143.159 86.1415C143.16 86.1463 143.16 86.1513 143.158 86.156L141.271 92.4388C140.288 96.5822 142.289 100.553 146.468 101.573C150.647 102.593 154.292 99.69 155.369 95.5541L161.977 69.6512Z" fill="#AA6550" />
        <path d="M142.276 68.4172C142.217 68.6432 142.249 68.8833 142.366 69.0853C142.483 69.2874 142.676 69.4351 142.901 69.4964C143.01 69.5331 143.125 69.5477 143.239 69.5394C143.354 69.531 143.466 69.4999 143.568 69.4479C143.671 69.3958 143.762 69.3239 143.836 69.2362C143.91 69.1486 143.966 69.047 144.001 68.9374C144.058 68.7116 144.025 68.4723 143.908 68.2706C143.791 68.069 143.6 67.921 143.376 67.8583C143.267 67.822 143.152 67.8078 143.037 67.8163C142.923 67.8248 142.811 67.856 142.709 67.908C142.607 67.96 142.516 68.0318 142.441 68.1192C142.367 68.2066 142.311 68.3079 142.276 68.4172Z" fill="#263238" />
        <path d="M141.55 66.5186C141.629 66.6584 142.414 66.3341 143.356 66.5658C144.299 66.7976 144.87 67.4343 145.003 67.3432C145.064 67.3044 145.005 67.0737 144.759 66.7853C144.419 66.406 143.971 66.1401 143.475 66.0236C142.985 65.9016 142.469 65.9378 142.001 66.1269C141.655 66.2827 141.505 66.4656 141.55 66.5186Z" fill="#263238" />
        <path d="M151.194 70.9271C151.136 71.153 151.17 71.3923 151.287 71.5939C151.403 71.7956 151.594 71.9436 151.819 72.0063C151.928 72.0421 152.043 72.056 152.157 72.0473C152.271 72.0385 152.383 72.0073 152.485 71.9553C152.587 71.9034 152.678 71.8318 152.752 71.7446C152.827 71.6574 152.883 71.5564 152.919 71.4473C152.977 71.2214 152.944 70.9817 152.827 70.7799C152.71 70.578 152.518 70.4301 152.294 70.3681C152.185 70.3315 152.07 70.3169 151.955 70.3252C151.84 70.3335 151.729 70.3646 151.626 70.4167C151.524 70.4687 151.433 70.5407 151.359 70.6283C151.284 70.716 151.228 70.8176 151.194 70.9271Z" fill="#263238" />
        <path d="M150.764 68.9615C150.844 69.0982 151.631 68.7779 152.57 69.0087C153.51 69.2396 154.088 69.875 154.217 69.7861C154.281 69.7482 154.222 69.5175 153.973 69.2282C153.635 68.8483 153.187 68.5825 152.692 68.4674C152.203 68.3449 151.687 68.3799 151.219 68.5676C150.872 68.7164 150.723 68.8962 150.764 68.9615Z" fill="#263238" />
        <path d="M145.616 75.0394C145.632 74.9872 145.073 74.744 144.155 74.3928C143.915 74.3228 143.703 74.2073 143.703 74.0341C143.746 73.7834 143.863 73.5516 144.041 73.3693C144.412 72.8509 144.798 72.3037 145.205 71.7324C146.836 69.3984 148.081 67.4517 147.987 67.3874C147.892 67.3231 146.493 69.1582 144.857 71.4843C144.459 72.0613 144.081 72.6143 143.705 73.148C143.486 73.3966 143.361 73.7135 143.35 74.0444C143.364 74.1377 143.399 74.2265 143.453 74.3041C143.506 74.3816 143.577 74.4457 143.66 74.4915C143.785 74.558 143.917 74.61 144.054 74.6467C145.011 74.9326 145.604 75.0824 145.616 75.0394Z" fill="#263238" />
        <path d="M143.169 86.1189C143.169 86.1189 146.734 87.3028 151.956 85.7072C151.956 85.7072 149.338 90.1098 142.658 87.8132L143.169 86.1189Z" fill="#754034" />
        <path d="M145.471 77.3771C145.707 77.1977 145.984 77.0804 146.277 77.0361C146.57 76.9918 146.87 77.0218 147.148 77.1234C147.351 77.1921 147.538 77.3009 147.698 77.4432C147.858 77.5856 147.988 77.7586 148.08 77.952C148.166 78.1385 148.193 78.3472 148.157 78.5496C148.121 78.7519 148.023 78.9381 147.876 79.0827C147.682 79.2124 147.453 79.2822 147.22 79.2833C146.986 79.2844 146.757 79.2167 146.561 79.0888C146.15 78.8263 145.796 78.4826 145.523 78.0789C145.434 77.9803 145.365 77.8652 145.321 77.7402C145.302 77.6794 145.301 77.6141 145.319 77.5528C145.337 77.4915 145.373 77.4369 145.422 77.3962" fill="#754034" />
        <path d="M148.23 76.3522C148.08 76.3082 147.826 77.3142 146.772 77.8199C145.717 78.3255 144.655 77.9454 144.61 78.0858C144.593 78.1472 144.806 78.3396 145.263 78.4662C145.86 78.62 146.492 78.5618 147.051 78.3015C147.584 78.0511 147.999 77.6033 148.209 77.0527C148.352 76.6412 148.303 76.3636 148.23 76.3522Z" fill="#263238" />
        <path d="M150.747 67.2265C150.777 67.5018 151.748 67.612 152.821 68.015C153.893 68.4181 154.713 68.9309 154.916 68.74C155.009 68.6473 154.913 68.3725 154.614 68.0384C154.205 67.6204 153.708 67.2997 153.158 67.1001C152.609 66.9004 152.022 66.8271 151.44 66.8854C150.994 66.9417 150.738 67.0972 150.747 67.2265Z" fill="#263238" />
        <path d="M142.368 64.7105C142.481 64.9634 143.185 64.9024 143.97 65.0814C144.754 65.2604 145.376 65.5751 145.582 65.3921C145.676 65.2995 145.623 65.0706 145.384 64.791C145.055 64.456 144.633 64.2253 144.174 64.1278C143.714 64.0303 143.235 64.0702 142.798 64.2426C142.467 64.3928 142.32 64.5898 142.368 64.7105Z" fill="#263238" />
        <path d="M135.67 77.5831C133.596 81.3414 134.027 85.9742 135.044 90.1413C135.429 91.7136 135.889 93.2881 135.919 94.9103C135.949 96.5324 135.472 98.2466 134.266 99.3281C134.525 99.5089 134.84 99.5915 135.154 99.5611C135.469 99.5307 135.762 99.3892 135.981 99.1621C135.818 100.008 135.652 100.849 135.488 101.685C136.364 102.407 137.766 102.036 138.535 101.194C139.304 100.352 139.599 99.1946 139.869 98.0867C140.658 94.8336 141.883 91.071 142.673 87.8179L137.289 84.9863L135.67 77.5831Z" fill="#263238" />
        <path d="M156.192 64.6291C157.142 69.4398 155.971 74.4217 154.438 79.0912C152.905 83.7607 150.994 88.3634 150.411 93.2502C150.185 95.1676 150.149 97.174 149.337 98.917C148.856 99.9468 148.126 100.84 147.595 101.846C147.065 102.851 146.749 104.062 147.164 105.116C147.58 106.171 148.699 106.858 149.831 106.965C150.977 107.024 152.113 106.725 153.081 106.11C155.234 104.855 156.786 102.735 157.8 100.451C158.813 98.1664 159.34 95.6999 159.86 93.255C161.215 86.8943 162.567 80.5342 163.917 74.1744C164.503 71.4252 165.092 68.607 164.721 65.8221C164.284 62.9066 162.954 60.1984 160.914 58.0702C158.534 55.5119 155.018 53.6822 151.596 54.3936C150.454 54.6302 149.21 55.3637 149.127 56.5263C149.061 57.4503 149.748 58.2345 150.392 58.8957L156.737 65.4481" fill="#263238" />
        <path d="M150.303 99.3887C150.398 99.37 150.379 98.8411 150.301 97.8982C150.223 96.9553 150.087 95.6055 150.027 93.9379C149.944 92.0053 150.083 90.0694 150.441 88.1684C150.847 86.0468 151.781 83.8293 152.905 81.5539C154.03 79.2786 155.215 77.0678 155.991 74.9008C156.72 72.9844 157.114 70.9572 157.157 68.9074C157.185 67.5155 156.923 66.1329 156.385 64.8485C156.276 64.6268 156.173 64.4332 156.094 64.2702C156.016 64.129 155.93 63.9926 155.836 63.8616C155.686 63.6577 155.59 63.5631 155.547 63.584C155.505 63.6048 155.526 63.7478 155.594 63.9842L155.73 64.4206C155.773 64.5932 155.831 64.7834 155.891 65.011C156.206 66.2639 156.314 67.5601 156.211 68.848C156.037 70.7642 155.575 72.6433 154.841 74.4217C154.039 76.4479 152.855 78.5857 151.704 80.9198C150.552 83.2539 149.59 85.6365 149.223 87.9228C148.901 89.9287 148.853 91.969 149.079 93.9879C149.22 95.3375 149.457 96.6754 149.787 97.9915C150.022 98.9102 150.214 99.4063 150.303 99.3887Z" fill="#263238" />
        <path d="M166.958 70.4249C166.904 70.3743 166.844 70.33 166.78 70.2929L166.257 69.937C166.028 69.7866 165.746 69.5978 165.425 69.3608C165.104 69.1238 164.737 68.8865 164.344 68.5884C163.543 68.0212 162.618 67.2946 161.631 66.463C160.643 65.6315 159.557 64.6841 158.477 63.6424C157.398 62.6006 156.421 61.5519 155.551 60.5782C154.682 59.6044 153.944 58.6956 153.33 57.9096C153.022 57.5263 152.761 57.1635 152.526 56.8514C152.29 56.5393 152.089 56.2674 151.932 56.0414L151.558 55.529C151.517 55.4674 151.47 55.4092 151.419 55.355C151.453 55.4209 151.491 55.4844 151.534 55.5451L151.89 56.0724C152.042 56.3036 152.231 56.582 152.463 56.9064C152.695 57.2308 152.947 57.591 153.253 57.9804C153.847 58.7671 154.587 59.6799 155.442 60.6663C156.298 61.6528 157.287 62.6949 158.368 63.7437C159.448 64.7925 160.53 65.735 161.544 66.5676C162.557 67.4002 163.492 68.1031 164.296 68.6712C164.695 68.961 165.068 69.2031 165.409 69.4292C165.749 69.6554 166.014 69.8327 166.248 69.9778L166.788 70.3119C166.842 70.3532 166.899 70.391 166.958 70.4249Z" fill="#455A64" />
        <path d="M166.741 71.3752C166.677 71.3349 166.61 71.3009 166.54 71.2733L165.953 71.0019L165.525 70.8104L165.031 70.5627C164.674 70.3818 164.263 70.1918 163.83 69.9387L163.141 69.5577C162.903 69.4249 162.662 69.2679 162.409 69.1174C161.9 68.8187 161.384 68.4615 160.832 68.0904C159.656 67.2628 158.531 66.3645 157.464 65.4004C156.407 64.4253 155.41 63.3873 154.478 62.2919C154.061 61.777 153.656 61.292 153.313 60.8118C153.139 60.5743 152.962 60.3491 152.808 60.121L152.368 59.4591C152.08 59.0417 151.853 58.6421 151.637 58.3191L151.343 57.8432L151.125 57.4463L150.787 56.8809C150.75 56.8147 150.71 56.7506 150.666 56.689C150.7 56.7566 150.741 56.8209 150.787 56.8809C150.858 57.025 150.96 57.2146 151.085 57.458L151.303 57.8548C151.386 58.0025 151.483 58.1609 151.586 58.3342C151.793 58.6778 152.016 59.0765 152.302 59.49L152.739 60.1509C152.893 60.3791 153.066 60.6064 153.24 60.847C153.581 61.3333 153.982 61.8205 154.4 62.3424C155.327 63.4509 156.325 64.4983 157.388 65.4782C158.458 66.4472 159.59 67.3465 160.776 68.1705C161.334 68.5403 161.851 68.8945 162.365 69.191C162.62 69.3424 162.862 69.4963 163.101 69.626L163.798 70.0027C164.236 70.2474 164.652 70.4353 165.011 70.6101C165.19 70.6924 165.355 70.7773 165.512 70.8464L165.945 71.0295L166.54 71.2733C166.604 71.3123 166.671 71.3464 166.741 71.3752Z" fill="white" />
        <path d="M153.584 103.187C153.602 103.163 153.616 103.137 153.627 103.109C153.646 103.045 153.695 102.969 153.741 102.866C153.837 102.654 153.984 102.344 154.148 101.928C154.626 100.768 155.038 99.5815 155.382 98.3749C155.831 96.839 156.26 95.0041 156.652 92.9417C157.044 90.8793 157.415 88.601 157.822 86.213C158.618 81.4448 159.345 77.1136 159.868 73.9759C160.124 72.4138 160.329 71.1504 160.471 70.265C160.541 69.832 160.593 69.4939 160.629 69.2545L160.666 68.9919C160.672 68.9621 160.675 68.9318 160.676 68.9014C160.669 68.9311 160.666 68.9615 160.666 68.9919C160.647 69.0564 160.623 69.1393 160.616 69.254C160.573 69.4916 160.511 69.8301 160.432 70.2604C160.278 71.1422 160.06 72.4051 159.785 73.9618C159.253 77.0998 158.514 81.4213 157.701 86.1943C157.297 88.5832 156.933 90.8602 156.544 92.9235C156.155 94.9868 155.737 96.8283 155.293 98.3489C154.958 99.5561 154.561 100.745 154.103 101.912C153.946 102.326 153.807 102.642 153.718 102.856C153.686 102.963 153.644 103.041 153.619 103.104C153.594 103.166 153.584 103.187 153.584 103.187Z" fill="#455A64" />
        <path d="M154.351 88.3198C154.385 88.2542 154.413 88.1853 154.434 88.1141L154.65 87.5105C154.834 86.9942 155.089 86.2453 155.395 85.3143C156.004 83.4554 156.802 80.8683 157.593 77.9888C158.383 75.1094 159.012 72.4761 159.427 70.5637C159.637 69.6049 159.799 68.8322 159.906 68.2935C159.955 68.0344 159.995 67.8294 160.03 67.663C160.048 67.5916 160.058 67.5186 160.061 67.4451C160.035 67.5143 160.015 67.5851 159.999 67.6571C159.955 67.8076 159.915 68.0126 159.853 68.2813C159.728 68.8248 159.55 69.593 159.332 70.5359C158.885 72.4424 158.239 75.0673 157.452 77.9476C156.664 80.8279 155.88 83.4125 155.292 85.2777C155.001 86.1929 154.76 86.9524 154.591 87.4864C154.516 87.7414 154.458 87.941 154.411 88.1008C154.385 88.1721 154.365 88.2453 154.351 88.3198Z" fill="#455A64" />
        <path d="M170.685 87.2709L174.592 83.4313C173.858 80.7287 174.04 77.859 175.111 75.2711C176.181 72.6832 178.079 70.5232 180.508 69.1291C182.937 67.735 185.76 67.1854 188.534 67.5664C191.309 67.9473 193.878 69.2373 195.842 71.2345C197.805 73.2317 199.051 75.8234 199.384 78.604C199.717 81.3846 199.119 84.1973 197.684 86.6019C196.248 89.0065 194.056 90.8673 191.45 91.8933C188.844 92.9192 185.972 93.0523 183.282 92.2717C180.58 91.4928 178.216 89.8298 176.57 87.549L170.685 87.2709Z" fill="#FAFAFA" />
        <path d="M170.685 87.2708L176.574 87.5133L176.534 87.5715C176.531 87.5669 176.529 87.5617 176.528 87.5564C176.527 87.551 176.528 87.5455 176.529 87.5402C176.531 87.535 176.534 87.5302 176.537 87.526C176.541 87.5219 176.545 87.5185 176.55 87.5162C176.559 87.5133 176.568 87.5131 176.577 87.5157C176.586 87.5183 176.593 87.5235 176.599 87.5306C177.199 88.348 177.893 89.0929 178.665 89.7503C179.589 90.5243 180.62 91.162 181.725 91.6438C182.336 91.9146 182.969 92.1296 183.618 92.2863C183.953 92.3608 184.29 92.4524 184.638 92.5141L185.708 92.653C188.929 92.9078 192.126 91.9268 194.649 89.9094C196.05 88.7961 197.197 87.3967 198.014 85.8046C198.868 84.12 199.345 82.2694 199.411 80.3818C199.487 78.4122 199.095 76.4526 198.266 74.6641L197.93 73.976C197.82 73.7473 197.671 73.5402 197.544 73.3233C197.42 73.1041 197.284 72.8919 197.136 72.6875L196.685 72.0858C196.535 71.881 196.368 71.6886 196.187 71.5102L195.681 70.9592L195.131 70.4655C194.954 70.2947 194.765 70.1361 194.567 69.9906C193.048 68.8111 191.281 67.992 189.399 67.5954C187.619 67.2138 185.777 67.2328 184.005 67.6511C180.821 68.4055 178.046 70.3511 176.251 73.0881C175.506 74.2583 174.943 75.5351 174.583 76.8746C174.024 79.0225 174.035 81.279 174.615 83.4212C174.616 83.4278 174.616 83.4345 174.614 83.441C174.612 83.4474 174.609 83.4532 174.604 83.4581L170.668 87.2694C170.869 87.0715 172.077 85.8704 174.548 83.4015L174.536 83.4414C173.934 81.2863 173.909 79.0109 174.462 76.8427C174.82 75.4896 175.383 74.1992 176.132 73.0167C177.946 70.2384 180.759 68.2642 183.989 67.5029C185.781 67.0727 187.647 67.0479 189.45 67.4304C191.357 67.8302 193.148 68.6584 194.687 69.8524C194.888 69.9997 195.08 70.1603 195.26 70.3331L195.819 70.8294L196.323 71.3866C196.501 71.5684 196.667 71.7617 196.82 71.9653L197.276 72.5749C197.437 72.7754 197.555 72.9897 197.691 73.2195C197.827 73.4493 197.969 73.6505 198.081 73.8832L198.418 74.5784C199.259 76.3898 199.658 78.3755 199.58 80.3714C199.513 82.2828 199.029 84.1563 198.161 85.8609C197.335 87.4725 196.172 88.8883 194.752 90.0128C192.199 92.053 188.961 93.0389 185.704 92.7686L184.625 92.627C184.275 92.5613 183.932 92.4679 183.594 92.3926C182.939 92.2325 182.3 92.0126 181.685 91.7355C180.573 91.2444 179.538 90.5952 178.611 89.808C177.835 89.1423 177.14 88.3879 176.54 87.5601L176.613 87.5179C176.618 87.5274 176.619 87.5385 176.616 87.5488C176.613 87.5591 176.606 87.5678 176.597 87.5732L176.581 87.5687L170.685 87.2708Z" fill="#263238" />
        <path d="M192.907 78.1767C192.752 78.285 192.588 78.3799 192.418 78.4605L191.047 79.1806C189.874 79.7747 188.277 80.5955 186.497 81.4891L186.226 81.6269L186.16 81.6608L186.116 81.5946L184.831 79.6228L184.936 79.6533L181.98 81.0874L181.13 81.4861C181.03 81.5381 180.925 81.5801 180.817 81.6113C180.907 81.5433 181.004 81.4843 181.105 81.4354C181.325 81.3228 181.601 81.1767 181.933 81.0102L184.855 79.5298L184.921 79.499L184.96 79.5572L186.253 81.5246L186.142 81.4923L186.412 81.3576C188.192 80.464 189.804 79.6812 190.986 79.0927L192.378 78.4255C192.547 78.3277 192.724 78.2444 192.907 78.1767Z" fill="#263238" />
        <path d="M192.254 81.0533C192.276 80.7658 192.326 80.4811 192.402 80.2031C192.515 79.6794 192.684 78.952 192.877 78.1549L192.942 78.2638L192.797 78.2217C191.97 78.0169 191.22 77.8245 190.681 77.6737C190.384 77.6118 190.095 77.5196 189.818 77.3985C190.12 77.4203 190.42 77.4721 190.712 77.553C191.258 77.6722 192.011 77.8453 192.841 78.0509L192.982 78.0922L193.065 78.1164L193.041 78.1993C192.84 79.0008 192.654 79.7167 192.511 80.2314C192.451 80.5128 192.365 80.788 192.254 81.0533Z" fill="#263238" />
    </g>
    <defs>
        <clipPath id="clip0">
            <rect width="240" height="160" fill="white" transform="translate(45.2635 0.409424) rotate(16.2729)" />
        </clipPath>
    </defs>
</svg>
