<svg xmlns="http://www.w3.org/2000/svg" viewBox="0 0 750 500"><g id="freepik--background-simple--inject-34"><path d="M600.17,112.77l-2.63-4.86c-22.22-41-64.75-67.16-111-66.51A121.42,121.42,0,0,0,468.82,43c-42.34,6.92-80.34,36.81-97.43,76.65-10.06,23.42-13.88,50.77-31.67,68.89-23.15,23.57-60.45,22.52-93.16,19.9s-70-3.58-93.08,20.1C139,243.33,133.62,265.15,133.71,286c.23,55.1,36.11,106.11,83.61,132.91s104.73,31.8,158.55,23.66c75.39-11.39,148.42-49.25,194.22-111S631,183.35,600.17,112.77Z" style="fill:#ebebeb"></path></g><g id="freepik--Desk--inject-34"><path d="M686.47,453.34c0,.14-141.7.26-316.45.26s-316.49-.12-316.49-.26,141.67-.26,316.49-.26S686.47,453.2,686.47,453.34Z" style="fill:#263238"></path></g><g id="freepik--Plants--inject-34"><path d="M86.61,426.4a2.56,2.56,0,0,1,.19-.46c.15-.33.36-.76.62-1.32a34,34,0,0,0,1.82-5.28c1.2-4.7,1.62-11.87-.16-20.4a109.07,109.07,0,0,0-3.78-13.7c-1.6-4.86-3.46-10-5-15.6a60.35,60.35,0,0,1-2.46-17.93c.23-6.35,2.11-12.68,4.17-19s4.2-12.49,4.83-18.7a28.46,28.46,0,0,0-3.42-17.26c-2.74-5-6.18-9.34-8.75-13.81a48.11,48.11,0,0,1-5.26-13.27,49.4,49.4,0,0,1-.33-20.56,38.37,38.37,0,0,1,2.14-7.27,2,2,0,0,1-.12.49c-.11.34-.25.8-.44,1.39a51,51,0,0,0-1.33,5.44,50,50,0,0,0,.53,20.41,47.87,47.87,0,0,0,5.28,13.1c2.57,4.41,6,8.7,8.81,13.8A29,29,0,0,1,87.5,314.1c-.64,6.31-2.79,12.52-4.84,18.83s-3.93,12.56-4.16,18.8a60.11,60.11,0,0,0,2.4,17.75c1.49,5.55,3.33,10.71,4.91,15.59a108.94,108.94,0,0,1,3.73,13.78c1.73,8.59,1.23,15.84-.06,20.55a31.32,31.32,0,0,1-1.94,5.28c-.29.54-.51,1-.68,1.29A2.92,2.92,0,0,1,86.61,426.4Z" style="fill:#263238"></path><path d="M78.19,287.37S73,270.65,82.34,260.86a.58.58,0,0,1,1,.29C83.83,263.91,84.46,272.32,78.19,287.37Z" style="fill:#13CB6E"></path><path d="M81.32,266.43a15.28,15.28,0,0,1-.35,3.09c-.35,2.12-.75,4.62-1.2,7.37s-.83,5.25-1.17,7.37a15.81,15.81,0,0,1-.55,3.05,13,13,0,0,1,.09-3.1c.18-1.91.51-4.54,1-7.43s1-5.48,1.38-7.35A14.09,14.09,0,0,1,81.32,266.43Z" style="fill:#263238"></path><path d="M84.33,326.79s3.19-17.22,16.06-21.49a.58.58,0,0,1,.74.72C100.28,308.7,96.9,316.42,84.33,326.79Z" style="fill:#13CB6E"></path><path d="M96.88,309.75a15,15,0,0,1-1.75,2.56l-4.5,6-4.48,6a16.9,16.9,0,0,1-1.92,2.44,12.74,12.74,0,0,1,1.54-2.7c1-1.61,2.57-3.78,4.34-6.1s3.42-4.39,4.66-5.85A13.54,13.54,0,0,1,96.88,309.75Z" style="fill:#263238"></path><path d="M80.85,370S78.91,352.58,90,344.76a.58.58,0,0,1,.92.48C90.86,348,89.87,356.41,80.85,370Z" style="fill:#13CB6E"></path><path d="M87.92,350a15.87,15.87,0,0,1-.94,3l-2.57,7-2.56,7a17.5,17.5,0,0,1-1.12,2.89,12.31,12.31,0,0,1,.68-3c.53-1.84,1.37-4.36,2.38-7.1s2-5.19,2.76-6.95A13.26,13.26,0,0,1,87.92,350Z" style="fill:#263238"></path><path d="M90.54,413.44s-1.32-17.47,10-24.88a.58.58,0,0,1,.9.5C101.34,391.86,100.05,400.19,90.54,413.44Z" style="fill:#13CB6E"></path><path d="M98.32,393.75a15.7,15.7,0,0,1-1,2.93c-.82,2-1.77,4.33-2.83,6.91l-2.8,6.92a17.23,17.23,0,0,1-1.23,2.84,13.37,13.37,0,0,1,.79-3c.6-1.82,1.52-4.31,2.64-7s2.18-5.12,3-6.85A14.2,14.2,0,0,1,98.32,393.75Z" style="fill:#263238"></path><path d="M70.67,272.68S55.15,264.57,54.85,251a.58.58,0,0,1,.9-.5C58.06,252.12,64.45,257.61,70.67,272.68Z" style="fill:#13CB6E"></path><path d="M58.07,255.68A15.34,15.34,0,0,1,60,258.11l4.38,6.05,4.39,6a16.9,16.9,0,0,1,1.77,2.55,12.82,12.82,0,0,1-2.13-2.26c-1.23-1.47-2.85-3.57-4.56-5.94s-3.19-4.56-4.23-6.17A13.89,13.89,0,0,1,58.07,255.68Z" style="fill:#263238"></path><path d="M87.34,308.58s-16-7.15-17.11-20.66a.58.58,0,0,1,.87-.55C73.5,288.82,80.22,293.92,87.34,308.58Z" style="fill:#13CB6E"></path><path d="M73.73,292.37a16.42,16.42,0,0,1,2.08,2.31l4.73,5.77c1.78,2.15,3.39,4.1,4.75,5.76a15.71,15.71,0,0,1,1.92,2.44A13.85,13.85,0,0,1,85,306.52c-1.32-1.4-3.07-3.39-4.91-5.65s-3.47-4.36-4.6-5.91A13.69,13.69,0,0,1,73.73,292.37Z" style="fill:#263238"></path><path d="M78.14,348.62s-11-13.65-5.82-26.18a.58.58,0,0,1,1-.1C74.82,324.73,78.48,332.32,78.14,348.62Z" style="fill:#13CB6E"></path><path d="M73.41,328a16.3,16.3,0,0,1,.8,3c.45,2.1,1,4.57,1.58,7.3s1.14,5.19,1.61,7.29a17.36,17.36,0,0,1,.6,3,12.9,12.9,0,0,1-1-2.93c-.54-1.84-1.19-4.41-1.8-7.26s-1.1-5.46-1.4-7.35A13.94,13.94,0,0,1,73.41,328Z" style="fill:#263238"></path><path d="M89,395.74s-15.87-7.42-16.77-20.94a.58.58,0,0,1,.89-.54C75.51,375.75,82.14,381,89,395.74Z" style="fill:#13CB6E"></path><path d="M75.68,379.31a15.2,15.2,0,0,1,2,2.34l4.64,5.85L87,393.34a17.2,17.2,0,0,1,1.88,2.46,12.31,12.31,0,0,1-2.23-2.16c-1.3-1.42-3-3.44-4.82-5.73s-3.39-4.42-4.49-6A14.26,14.26,0,0,1,75.68,379.31Z" style="fill:#263238"></path><path d="M120.62,326.88a1.73,1.73,0,0,1,0,.39c0,.3,0,.67,0,1.12,0,1.05-.11,2.47-.19,4.25-.2,3.73-.49,8.93-.83,15.16h0v0c-1.13,6.33-4.36,13.36-8.7,20.18-3.18,5-6.51,9.59-9.39,13.84a97.3,97.3,0,0,0-7,11.63,48.82,48.82,0,0,0-3.3,8.54c-.28,1.05-.49,1.86-.61,2.42a4.29,4.29,0,0,1-.23.84,4.38,4.38,0,0,1,.1-.87c.08-.56.25-1.39.5-2.45a44.67,44.67,0,0,1,3.12-8.68,92.54,92.54,0,0,1,7-11.77c2.86-4.28,6.17-8.85,9.34-13.85,4.31-6.79,7.52-13.7,8.7-19.94v0c.44-6.22.8-11.42,1.07-15.15.14-1.76.25-3.18.34-4.23,0-.45.08-.81.11-1.12S120.6,326.88,120.62,326.88Z" style="fill:#263238"></path><path d="M111.17,366.71s6.72-16.17-1.73-26.77a.58.58,0,0,0-1,.2C107.68,342.84,106.29,351.16,111.17,366.71Z" style="fill:#13CB6E"></path><path d="M110,345.58a14.27,14.27,0,0,1,.53,3.06c.24,1.9.51,4.54.71,7.45s.31,5.56.31,7.48a12.27,12.27,0,0,1-.19,3.1,17.31,17.31,0,0,1-.27-3.09c-.15-2.14-.31-4.66-.5-7.44s-.37-5.31-.52-7.45A15.27,15.27,0,0,1,110,345.58Z" style="fill:#263238"></path><g style="opacity:0.30000000000000004"><path d="M111.17,366.71s6.72-16.17-1.73-26.77a.58.58,0,0,0-1,.2C107.68,342.84,106.29,351.16,111.17,366.71Z"></path></g><path d="M90.36,405.69s5.39-16.67-3.9-26.54a.57.57,0,0,0-1,.28C84.94,382.18,84.23,390.58,90.36,405.69Z" style="fill:#13CB6E"></path><path d="M87.43,384.73a13.67,13.67,0,0,1,.78,3c.39,1.88.87,4.48,1.31,7.37s.76,5.52.91,7.43a13,13,0,0,1,.07,3.11,16.45,16.45,0,0,1-.53-3.06c-.31-2.13-.69-4.62-1.1-7.38s-.8-5.26-1.12-7.39A15.4,15.4,0,0,1,87.43,384.73Z" style="fill:#263238"></path><g style="opacity:0.30000000000000004"><path d="M90.36,405.69s5.39-16.67-3.9-26.54a.57.57,0,0,0-1,.28C84.94,382.18,84.23,390.58,90.36,405.69Z"></path></g><path d="M119.73,347s14.35-10.05,12.9-23.52a.58.58,0,0,0-1-.38C129.58,324.93,124,331.2,119.73,347Z" style="fill:#13CB6E"></path><g style="opacity:0.30000000000000004"><path d="M119.73,347s14.35-10.05,12.9-23.52a.58.58,0,0,0-1-.38C129.58,324.93,124,331.2,119.73,347Z"></path></g><path d="M130,328.46a13.83,13.83,0,0,1-1.19,2.87c-.82,1.73-2,4.09-3.39,6.66s-2.73,4.86-3.76,6.48a12.75,12.75,0,0,1-1.82,2.52,17.37,17.37,0,0,1,1.42-2.75l3.58-6.56,3.56-6.56A15.22,15.22,0,0,1,130,328.46Z" style="fill:#263238"></path><path d="M96.15,389.17s17.3-2.7,21.94-15.44a.58.58,0,0,0-.7-.76C114.69,373.74,106.87,376.89,96.15,389.17Z" style="fill:#13CB6E"></path><g style="opacity:0.30000000000000004"><path d="M96.15,389.17s17.3-2.7,21.94-15.44a.58.58,0,0,0-.7-.76C114.69,373.74,106.87,376.89,96.15,389.17Z"></path></g><path d="M113.54,377.11a15,15,0,0,1-2.33,2.05c-1.5,1.19-3.61,2.79-6,4.49s-4.58,3.16-6.22,4.16a12.84,12.84,0,0,1-2.75,1.46,16.65,16.65,0,0,1,2.5-1.85l6.09-4.31,6.09-4.32A14.5,14.5,0,0,1,113.54,377.11Z" style="fill:#263238"></path><polygon points="75.67 421.01 80.64 453.57 100.46 453.54 107.14 421.01 75.67 421.01" style="fill:#455a64"></polygon><path d="M104.23,433.57s0,.05-.17.12a3.86,3.86,0,0,1-.52.3,7.32,7.32,0,0,1-2.21.66,8.15,8.15,0,0,1-3.65-.34,7.67,7.67,0,0,1-3.92-2.85,5.52,5.52,0,0,1-.92-2.72,3,3,0,0,1,1.35-2.8,3.21,3.21,0,0,1,3.32.27,4.9,4.9,0,0,1,1.9,3,12.9,12.9,0,0,1,.25,3.68,12.48,12.48,0,0,1-.81,3.76,8.21,8.21,0,0,1-2.3,3.28,6.35,6.35,0,0,1-3.81,1.59,6.94,6.94,0,0,1-4-1.15,12,12,0,0,1-3-2.67,6.57,6.57,0,0,1-1.5-3.58,4.14,4.14,0,0,1,1.41-3.45,3.19,3.19,0,0,1,3.51-.21,3.75,3.75,0,0,1,2,2.65,5.08,5.08,0,0,1-2.51,5.15,6.92,6.92,0,0,1-4.78.69,10.59,10.59,0,0,1-3.41-1.33,18.32,18.32,0,0,1-1.91-1.29,3.81,3.81,0,0,1-.61-.52,4.72,4.72,0,0,1,.67.43c.44.29,1.08.72,2,1.2A11.28,11.28,0,0,0,84,438.65a6.75,6.75,0,0,0,4.54-.73,4.71,4.71,0,0,0,2.26-4.73A3.31,3.31,0,0,0,89,430.87a2.73,2.73,0,0,0-3,.18,3.66,3.66,0,0,0-1.2,3,6,6,0,0,0,1.4,3.28,11.48,11.48,0,0,0,2.83,2.54A6.44,6.44,0,0,0,92.71,441a5.91,5.91,0,0,0,3.49-1.46,7.75,7.75,0,0,0,2.16-3.07,11.79,11.79,0,0,0,.78-3.59,12.48,12.48,0,0,0-.22-3.53,4.38,4.38,0,0,0-1.68-2.71,2.76,2.76,0,0,0-2.83-.28,2.56,2.56,0,0,0-1.15,2.39,5.16,5.16,0,0,0,.82,2.53,7.4,7.4,0,0,0,3.7,2.77,8,8,0,0,0,3.52.42A9.17,9.17,0,0,0,104.23,433.57Z" style="fill:#263238"></path><path d="M640,351.92a53.38,53.38,0,0,1,50.9-14A92.66,92.66,0,0,1,639.44,354" style="fill:#13CB6E"></path><path d="M657.3,290.79c-2.12-15,3.71-31.87,14.94-42.77.37,14.86-5.91,31.59-14.94,42.77" style="fill:#13CB6E"></path><path d="M648.32,319.12A80.12,80.12,0,0,1,685.1,284a50.5,50.5,0,0,1-36.92,35.31" style="fill:#13CB6E"></path><path d="M646.46,324.59c9.06.25,18.23-.06,27-2.38s17.15-6.78,23-13.71a90.15,90.15,0,0,0-49.83,15.21" style="fill:#13CB6E"></path><path d="M651.06,306.58c-4.6-17.23-12.18-29.15-25.73-38.81a35.82,35.82,0,0,0,25.73,38.81" style="fill:#13CB6E"></path><path d="M616.87,336.3a25.5,25.5,0,0,1,15.49-23.62c-.75,8.9-7.74,19.19-15.49,23.62" style="fill:#13CB6E"></path><path d="M612.54,321.77a38,38,0,0,0-24.9-32.42c3.13,14.4,11.45,26.39,24.9,32.42" style="fill:#13CB6E"></path><path d="M619.06,347.56c-3.19-4.57-8.41-7.41-13.8-8.82s-11-1.54-16.61-1.66a38.82,38.82,0,0,0,30,12.49" style="fill:#13CB6E"></path><path d="M625.53,384.29a42.55,42.55,0,0,0-51.94,24.61c18.87-3.58,37.49-12,51.94-24.61" style="fill:#13CB6E"></path><path d="M646.24,371.53c-3.13,9.26-2.53,20.46,4.44,28.45a34,34,0,0,0-4.44-28.45" style="fill:#13CB6E"></path><path d="M658.48,366.38a34.85,34.85,0,0,0,19.25,28.28,2.13,2.13,0,0,0,1.7.28c.85-.34.93-1.5.83-2.41-1.37-11.87-10.16-23.35-21.78-26.15" style="fill:#13CB6E"></path><path d="M666.48,365.18a28.57,28.57,0,0,0,41.75.21c-13.27-1.45-28.59-2.42-41.75-.21" style="fill:#13CB6E"></path><path d="M668.46,259.07a1.73,1.73,0,0,1-.12.39l-.4,1.12c-.38,1-.92,2.46-1.6,4.3s-1.54,4.15-2.5,6.82c-.48,1.33-1,2.75-1.54,4.26l-1.65,4.8c-2.35,6.72-5,14.79-7.78,23.77s-5.68,18.93-8.54,29.41-5.32,20.54-7.45,29.71-3.85,17.47-5.13,24.48c-.33,1.75-.65,3.41-.94,5s-.52,3.07-.76,4.46c-.48,2.79-.89,5.19-1.17,7.16s-.53,3.47-.7,4.54c-.08.49-.14.88-.19,1.17s-.08.4-.08.4a2,2,0,0,1,0-.4c0-.29.08-.69.14-1.19.14-1.06.35-2.59.6-4.55s.63-4.38,1.09-7.17c.22-1.4.46-2.89.72-4.48s.59-3.25.91-5c1.24-7,3-15.32,5-24.51s4.6-19.24,7.42-29.74,5.79-20.43,8.58-29.42,5.49-17,7.89-23.75l1.69-4.79c.56-1.5,1.08-2.92,1.58-4.25,1-2.66,1.83-4.94,2.57-6.79s1.29-3.26,1.69-4.26l.45-1.11C668.4,259.2,668.45,259.07,668.46,259.07Z" style="fill:#263238"></path><path d="M595.56,297s.08.07.23.21l.63.67c.56.59,1.36,1.48,2.36,2.64A93.07,93.07,0,0,1,606.6,311a70.14,70.14,0,0,1,8.17,17.48c2.19,7,3.55,14.87,4.9,23.14,2.7,16.55,6,31.37,8.41,42.09,1.2,5.34,2.18,9.66,2.87,12.69.33,1.48.58,2.64.77,3.46.07.37.14.67.18.9a1.43,1.43,0,0,1,.05.31,1.61,1.61,0,0,1-.1-.3c-.06-.23-.14-.52-.23-.89-.21-.82-.5-2-.86-3.43-.73-3-1.76-7.34-3-12.66-2.49-10.7-5.86-25.52-8.56-42.09-1.35-8.27-2.7-16.15-4.85-23.08a70.44,70.44,0,0,0-8-17.43,99.11,99.11,0,0,0-7.66-10.48c-1-1.19-1.75-2.09-2.28-2.7l-.6-.7A1.67,1.67,0,0,1,595.56,297Z" style="fill:#263238"></path><path d="M670.44,364.61a1.55,1.55,0,0,1-.48.09l-1.37.15-1,.1-1.18.18c-.84.12-1.8.25-2.85.48l-1.64.33-1.77.44c-1.23.28-2.5.73-3.85,1.14a56.2,56.2,0,0,0-8.4,3.7,47.16,47.16,0,0,0-7.54,5.24,35.09,35.09,0,0,0-2.89,2.77,32.06,32.06,0,0,0-2.29,2.64,27.67,27.67,0,0,0-1.69,2.33,16.43,16.43,0,0,0-1.16,1.85l-.71,1.19a1.83,1.83,0,0,1-.27.4,1.7,1.7,0,0,1,.18-.45l.63-1.24a13.83,13.83,0,0,1,1.09-1.9,24.89,24.89,0,0,1,1.65-2.4,28.68,28.68,0,0,1,2.26-2.71,37.2,37.2,0,0,1,2.89-2.84,46.32,46.32,0,0,1,7.6-5.32,54.24,54.24,0,0,1,8.5-3.71c1.37-.4,2.65-.83,3.9-1.1l1.78-.42,1.67-.3c1.06-.21,2-.31,2.88-.4l1.18-.14,1,0,1.39-.06A2.23,2.23,0,0,1,670.44,364.61Z" style="fill:#263238"></path><path d="M674.22,297.36a7.6,7.6,0,0,1-1,.92l-2.73,2.37c-2.32,2-5.55,4.69-9.13,7.67s-6.86,5.64-9.24,7.56l-2.83,2.24a7,7,0,0,1-1.08.77,6.3,6.3,0,0,1,1-.92l2.74-2.37c2.32-2,5.55-4.7,9.13-7.67s6.85-5.64,9.23-7.56l2.84-2.24A6.43,6.43,0,0,1,674.22,297.36Z" style="fill:#263238"></path><path d="M677.48,314.91c0,.14-6.93,2.32-15.56,4.87s-15.67,4.51-15.71,4.37,6.93-2.31,15.57-4.86S677.44,314.78,677.48,314.91Z" style="fill:#263238"></path><path d="M651.75,307.92a6,6,0,0,1-.72-1l-1.84-2.8c-1.55-2.35-3.77-5.57-6.38-9s-5.14-6.41-7-8.54c-.88-1-1.62-1.84-2.2-2.52a5.39,5.39,0,0,1-.78-1,5.75,5.75,0,0,1,.92.83c.57.55,1.36,1.38,2.33,2.41,1.93,2.08,4.5,5,7.13,8.47s4.8,6.7,6.29,9.11c.74,1.21,1.32,2.2,1.7,2.89A6.19,6.19,0,0,1,651.75,307.92Z" style="fill:#263238"></path><path d="M627.55,317.67a24.52,24.52,0,0,1-1.64,2.69c-1,1.63-2.45,3.91-3.91,6.48s-2.7,5-3.57,6.68A23.27,23.27,0,0,1,617,336.3a17,17,0,0,1,1.15-2.94c.8-1.77,2-4.19,3.46-6.77s2.93-4.84,4.06-6.43A17.05,17.05,0,0,1,627.55,317.67Z" style="fill:#263238"></path><path d="M619.27,348a38.63,38.63,0,0,1-3.54-1.56c-2.18-1-5.22-2.26-8.65-3.46s-6.61-2.1-8.92-2.69a38.05,38.05,0,0,1-3.74-1,4.64,4.64,0,0,1,1,.11c.67.1,1.62.28,2.79.53a77.85,77.85,0,0,1,17.64,6.18c1.07.53,1.93,1,2.51,1.32A4.44,4.44,0,0,1,619.27,348Z" style="fill:#263238"></path><path d="M625.79,384.35a1.37,1.37,0,0,1-.43.14l-1.26.32-4.63,1.07a154.16,154.16,0,0,0-15.14,4,66.82,66.82,0,0,0-14.12,6.64c-1.69,1.07-3,2-3.9,2.7a13.7,13.7,0,0,1-1.4,1,2.22,2.22,0,0,1,.31-.33c.22-.2.53-.5,1-.86a43.48,43.48,0,0,1,3.82-2.86,62,62,0,0,1,14.15-6.81,126.57,126.57,0,0,1,15.23-3.87l4.67-.91A11.65,11.65,0,0,1,625.79,384.35Z" style="fill:#263238"></path><path d="M649.36,393.3c-.14,0-1-4.87-1.85-10.92s-1.49-11-1.35-11,1,4.87,1.85,10.92S649.5,393.28,649.36,393.3Z" style="fill:#263238"></path><path d="M673.9,384.39a27,27,0,0,1-2.21-2.63c-1.33-1.65-3.16-3.93-5.24-6.4s-4-4.67-5.4-6.26a25.3,25.3,0,0,1-2.21-2.64,3.33,3.33,0,0,1,.7.61c.43.41,1,1,1.77,1.78,1.47,1.53,3.44,3.71,5.53,6.19s3.88,4.79,5.14,6.5c.62.86,1.12,1.56,1.45,2A3.09,3.09,0,0,1,673.9,384.39Z" style="fill:#263238"></path><polygon points="608.95 407.15 608.95 419.28 611.99 419.28 622.76 453.3 646.67 453.3 657.11 419.61 661.15 419.28 661.15 407.15 608.95 407.15" style="fill:#263238"></polygon><path d="M659.13,419.61c0,.14-10.55.26-23.57.26s-23.57-.12-23.57-.26,10.55-.25,23.57-.25S659.13,419.47,659.13,419.61Z" style="fill:#455a64"></path><path d="M676.33,341.61a10.21,10.21,0,0,1-1.54.41l-4.19,1c-3.54.88-8.39,2.21-13.66,4s-9.94,3.65-13.29,5.09l-3.95,1.73a9.8,9.8,0,0,1-1.47.59,9.23,9.23,0,0,1,1.38-.77c.91-.47,2.24-1.12,3.9-1.88a138.74,138.74,0,0,1,27-9.09c1.78-.39,3.23-.68,4.23-.85A8.19,8.19,0,0,1,676.33,341.61Z" style="fill:#263238"></path><path d="M651.2,438.51c0,.14-7.41.25-16.54.25s-16.54-.11-16.54-.25,7.4-.26,16.54-.26S651.2,438.37,651.2,438.51Z" style="fill:#fafafa"></path><path d="M652.13,435.69c0,.14-7.85.26-17.53.26s-17.53-.12-17.53-.26,7.85-.25,17.53-.25S652.13,435.55,652.13,435.69Z" style="fill:#fafafa"></path></g><g id="freepik--Device--inject-34"><path d="M587,93.27H179.75A12.71,12.71,0,0,0,167,106V393.66a12.71,12.71,0,0,0,12.71,12.71H336.06S346,437.12,315.18,453H461.34s-34.8-11.93-25.85-46.65H587a12.71,12.71,0,0,0,12.71-12.71V106A12.71,12.71,0,0,0,587,93.27Z" style="fill:#455a64"></path><path d="M388.83,376.11c5.54,7.92-3.14,16.59-11.06,11.05a2.93,2.93,0,0,1-.68-.68c-5.52-7.91,3.14-16.57,11.05-11.05A3,3,0,0,1,388.83,376.11Z" style="fill:#263238"></path><path d="M183.42,98.58H582.71a9.7,9.7,0,0,1,9.7,9.7v245.5a0,0,0,0,1,0,0H173.72a0,0,0,0,1,0,0V108.28A9.7,9.7,0,0,1,183.42,98.58Z" style="fill:#fff"></path><path d="M183.2,98.54H584.89a7.52,7.52,0,0,1,7.52,7.52v13.69a0,0,0,0,1,0,0H174a0,0,0,0,1,0,0V107.7A9.15,9.15,0,0,1,183.2,98.54Z" style="fill:#ebebeb"></path><path d="M190.32,109.59a2.94,2.94,0,1,1-2.94-2.94A2.94,2.94,0,0,1,190.32,109.59Z" style="fill:#263238"></path><path d="M199.09,109.59a2.94,2.94,0,1,1-2.94-2.94A2.94,2.94,0,0,1,199.09,109.59Z" style="fill:#263238"></path><path d="M207.43,109.59a2.94,2.94,0,1,1-2.94-2.94A2.94,2.94,0,0,1,207.43,109.59Z" style="fill:#263238"></path><path d="M514.21,406.41c0,.13-58,.24-129.43.24s-129.44-.11-129.44-.24,57.94-.25,129.44-.25S514.21,406.27,514.21,406.41Z" style="fill:#263238"></path><path d="M543.13,263c4.84-2.5,10.54-2.82,15.91-1.94,2.88.48,5.89,1.34,7.86,3.51s2.33,6,.08,7.85a7.6,7.6,0,0,1-5,1.25c-4.2-.05-8.87-.79-12.23,1.74-1.91,1.45-3.19,3.85-5.48,4.55a5.4,5.4,0,0,1-6-2.65,9.22,9.22,0,0,1-.67-6.83A10.41,10.41,0,0,1,543.13,263Z" style="fill:#ebebeb"></path><path d="M532.05,241.56c3,4.23,8.71,2.83,11.37.25s3.8-6.32,4.82-9.88c2.35-8.14,4.71-16.69,3-25a13.89,13.89,0,0,0-3.19-6.79,7.28,7.28,0,0,0-6.87-2.29c-2.9.77-4.71,3.61-6,6.31a59.65,59.65,0,0,0-5.88,25.55c0,4.12.47,8.43,2.79,11.83" style="fill:#ebebeb"></path><path d="M523.93,247.62c3.21-3.81,3.82-9.37,2.39-14.14s-4.66-8.84-8.38-12.16a45.26,45.26,0,0,0-15-8.85,16.19,16.19,0,0,0-6.75-1.15,7.08,7.08,0,0,0-5.66,3.43c-1.58,3-.07,6.66,1.57,9.64a113.12,113.12,0,0,0,9.85,15c3,3.81,6.34,7.57,10.84,9.29s9.18,1.52,11.57-1.61" style="fill:#ebebeb"></path><path d="M531.85,305.29a8.42,8.42,0,0,0,.27-1.92c.14-1.39.31-3.15.51-5.24a72.79,72.79,0,0,1,1.18-7.68,58.85,58.85,0,0,1,2.79-9.07,33.66,33.66,0,0,1,4.63-8.21,17.35,17.35,0,0,1,5.86-4.87,16.39,16.39,0,0,1,4.93-1.53,9,9,0,0,0,1.91-.28,9.8,9.8,0,0,0-1.95,0,15.14,15.14,0,0,0-5.14,1.34,17.22,17.22,0,0,0-6.17,4.91,32.57,32.57,0,0,0-4.8,8.37,56.13,56.13,0,0,0-2.78,9.22,64.51,64.51,0,0,0-1,7.78c-.17,2.23-.23,4-.26,5.27A9.14,9.14,0,0,0,531.85,305.29Z" style="fill:#e0e0e0"></path><path d="M532.21,301.26a3.26,3.26,0,0,0,0-.89v-2.55c0-2.21,0-5.41.11-9.36.2-7.9.88-16.4,2.19-28.39,1.24-11.27,2.91-24.39,4.68-32.92.37-1.94.76-3.68,1.11-5.21s.64-2.86.92-3.92.44-1.83.59-2.48a3.58,3.58,0,0,0,.16-.88,3.6,3.6,0,0,0-.31.84c-.19.64-.44,1.44-.74,2.44s-.66,2.37-1.05,3.89-.82,3.27-1.23,5.2a290.86,290.86,0,0,0-4.92,30.55c-1.31,12-1.91,22.95-2,30.87,0,4,0,7.17.14,9.38.06,1,.11,1.88.15,2.55A4.74,4.74,0,0,0,532.21,301.26Z" style="fill:#e0e0e0"></path><path d="M532.27,280.17a18.83,18.83,0,0,0,0-2.67c-.1-1.71-.34-4.18-.82-7.21a95.11,95.11,0,0,0-2.34-10.5,86.55,86.55,0,0,0-4.4-12.43,66.17,66.17,0,0,0-12.89-20.08,32.78,32.78,0,0,0-3-2.82c-.46-.4-.88-.79-1.29-1.1l-1.18-.81a18.53,18.53,0,0,0-2.24-1.44c-.13.18,3.17,2.12,7.34,6.55a70.06,70.06,0,0,1,12.58,20A97.88,97.88,0,0,1,528.38,260a105.33,105.33,0,0,1,2.5,10.4c.55,3,.87,5.44,1.06,7.14A16.32,16.32,0,0,0,532.27,280.17Z" style="fill:#e0e0e0"></path><polygon points="511.87 317.38 513.99 346.34 551.19 346.34 553.31 317.38 511.87 317.38" style="fill:#e0e0e0"></polygon><rect x="508.28" y="305.96" width="49.47" height="11.42" style="fill:#e0e0e0"></rect><polygon points="508.28 345.23 508.28 348.4 510.61 348.4 556.93 348.4 556.93 345.23 508.28 345.23" style="fill:#ebebeb"></polygon><polygon points="512.88 353.97 510.61 348.4 555.16 348.4 552.5 353.97 512.88 353.97" style="fill:#e0e0e0"></polygon><path d="M552.62,326.84s0,.1-.18.27-.33.44-.55.74l-2.17,2.77-.1.12-.09-.12-5.32-7.37h.3l-5.24,7.42-.16.24-.19-.22-6.22-7.4h.36l-.34.43-5.56,7-.18.23-.18-.24-5.24-7.43.3,0-6.46,7.36-.11.13-.09-.15-2-3.4-.52-.9a2.37,2.37,0,0,1-.16-.32s.09.09.22.28l.57.87c.52.82,1.23,1.94,2.13,3.34l-.21,0,6.36-7.44.16-.19.15.2c1.6,2.25,3.38,4.73,5.29,7.39h-.36l5.55-7,.34-.43.18-.22.18.21,6.2,7.42h-.35l5.3-7.39.15-.21.15.21,5.21,7.45h-.18l2.25-2.7.6-.7A1.3,1.3,0,0,1,552.62,326.84Z" style="fill:#f5f5f5"></path><path d="M553.83,317.19c0,.13-9.33.23-20.82.23s-20.83-.1-20.83-.23S521.5,317,533,317,553.83,317.06,553.83,317.19Z" style="fill:#f5f5f5"></path><path d="M555.71,348.71c0,.13-10.14.23-22.63.23s-22.63-.1-22.63-.23,10.13-.23,22.63-.23S555.71,348.58,555.71,348.71Z" style="fill:#f5f5f5"></path></g><g id="freepik--Character--inject-34"><path d="M437.64,186.35q-1.59-26.62-5.21-53.08c-1.45-10.61-3.17-21.27-6.83-31.34s-9.41-19.58-17.76-26.23S388.34,65.56,378,67.87l42.21,130.28c3.15.42,6.36.83,9.47.21s6.16-2.47,7.39-5.42A14.77,14.77,0,0,0,437.64,186.35Z" style="fill:#263238"></path><path d="M364.23,72.35c-8.09-.63-17.9,2.47-22.5,9.2-3.57,5.23-2.72,14.35-4,20.58-2,10-3.94,20-4.19,30.19-.27,11.18,1.53,22.29,3.34,33.32q3,18.3,6,36.59c.89,5.42,1.81,11,4.36,15.82s7.07,9,12.5,9.64c5,.58,9.94-1.93,13.28-5.68s5.21-8.6,6.37-13.5Z" style="fill:#263238"></path><path d="M371.36,186.23c-2.42-.12-18.55,3.75-18.55,3.75l18.77,73.5,30.05,2.43,26.67-83.67Z" style="fill:#aa6550"></path><path d="M405.13,248.36a31.27,31.27,0,0,1-16.91,10.69,18.75,18.75,0,0,1-11.15-.32c-3.52-1.37-6.5-4.53-6.94-8.31L365,266l9.11,45.43,14.79,42.37,28.95-.17Z" style="fill:#263238"></path><path d="M289.52,257.37l12.93-15.63s12.49-40.77,16.24-43.82,38-11.65,38-11.65l12.21,52.67,6.21,64.82L386.5,329.5l11.18,24.21-39.25.11s-16-36.13-24.48-57.14a73.79,73.79,0,0,1-5.09-21.36l-.42-5s-25.53,59.07-31.55,62.87-13.53,9.52-21.81,9.17-25.3-24.95-25.3-24.95l-.09-32.86,24.06-10.06,4.17,9.09Z" style="fill:#13CB6E"></path><path d="M393.08,327.72l2.62-6.45,55.56-26.12-1.72-77.35,14.8-31.54s8.4,3.67,13.26,14.51c3.43,7.62,13.32,115.51,7.72,118.88C478,324,428.84,343.54,412.4,350a6.64,6.64,0,0,1-8.2-2.9Z" style="fill:#13CB6E"></path><path d="M457.85,319.29,464.14,186l-31.32-5.77-9-6.49-7.12,0s2.62,6.78,2.27,12.37-26.15,105.44-26.15,105.44l14.65,62.14,66.23-.2Z" style="fill:#13CB6E"></path><path d="M432.82,180.2l0,.19c0,.15,0,.33,0,.56,0,.53.09,1.26.15,2.19.12,1.92.25,4.74.33,8.31.17,7.16-.12,17.38-.71,29.57v.2h-.21l-11.79.66.19-.38A31.62,31.62,0,0,0,431.67,232l.2.12-.09.21-4.71,10.42c-4.5,10-8.68,19.57-12.06,28.44a237,237,0,0,0-7.89,23.94c-1.86,6.93-2.93,12.65-3.63,16.6-.3,2-.54,3.5-.71,4.57-.08.5-.14.9-.19,1.19a1.78,1.78,0,0,1-.08.4,2.11,2.11,0,0,1,0-.41c0-.29.08-.69.14-1.19.14-1,.31-2.6.61-4.59.64-4,1.66-9.7,3.47-16.67a232.65,232.65,0,0,1,7.8-24c3.36-8.9,7.54-18.48,12-28.49l4.72-10.42.1.33a32,32,0,0,1-11-10.66l-.22-.35.41,0,11.8-.62-.22.21c.64-12.18,1-22.38.9-29.53,0-3.58-.13-6.39-.2-8.31,0-.94-.06-1.67-.09-2.19v-.57A.58.58,0,0,1,432.82,180.2Z" style="fill:#263238"></path><path d="M396,345.86l-.43-.2-1.25-.62c-1.1-.52-2.66-1.42-4.66-2.61-1-.64-2.06-1.33-3.21-2.14s-2.4-1.72-3.65-2.79a72.56,72.56,0,0,1-8.14-7.7,92.34,92.34,0,0,1-15.86-24.35,136.87,136.87,0,0,1-9.93-34.2c-1.32-7.94-2.09-15.72-2.63-23.12-.27-3.68-.43-7.39.54-10.83s3.12-6.49,6.25-7.82l-.06.38a9.25,9.25,0,0,0-8.72-1.8l-.28.1v-.3c.37-11.49.67-21,.88-27.56.12-3.27.22-5.84.28-7.62,0-.85.07-1.52.09-2s.05-.69.05-.69,0,.24,0,.69,0,1.14,0,2c0,1.77-.1,4.34-.17,7.62-.17,6.61-.41,16.07-.7,27.56l-.28-.21a9.68,9.68,0,0,1,9.15,1.85l.27.24-.33.15c-3,1.26-5.05,4.24-6,7.53s-.77,7-.5,10.67c.55,7.39,1.32,15.15,2.65,23.07a137.08,137.08,0,0,0,9.85,34.09,93.06,93.06,0,0,0,15.69,24.3,74.36,74.36,0,0,0,8.05,7.71c1.24,1.08,2.5,2,3.61,2.81s2.23,1.52,3.18,2.18c2,1.21,3.51,2.14,4.6,2.69l1.22.66Z" style="fill:#263238"></path><path d="M449.12,229.82a1.44,1.44,0,0,1,0,.31c0,.22,0,.52,0,.91.05.83.11,2,.2,3.57.15,3.13.37,7.7.65,13.49.54,11.62,1.29,28.16,2.2,47.86v.16l-.14.06L400.56,319l-4.95,2.19.14-.14c-.36.9-.72,1.77-1.08,2.65v-.2c3.65,8.85,7.16,17.4,10.46,25.41l-.1-.12a10.88,10.88,0,0,0,4.29,1.45,4.38,4.38,0,0,0,1.09-.06,5.88,5.88,0,0,0,1-.35l2.14-.81,8.33-3.19,15.51-6c9.79-3.82,18.42-7.26,25.55-10.18s12.77-5.33,16.58-7.11c1.9-.89,3.35-1.61,4.29-2.17a6.25,6.25,0,0,0,1-.71.78.78,0,0,0,.24-.33.57.57,0,0,1-.21.37,6.13,6.13,0,0,1-1,.74,46.85,46.85,0,0,1-4.27,2.26c-3.79,1.82-9.41,4.28-16.53,7.24s-15.73,6.43-25.51,10.29l-15.5,6-8.33,3.21-2.13.82a7.13,7.13,0,0,1-1.13.37,5,5,0,0,1-1.22.07,11.37,11.37,0,0,1-4.52-1.51l-.07,0,0-.08c-3.31-8-6.83-16.55-10.48-25.4l0-.1,0-.1c.36-.87.71-1.75,1.08-2.65l0-.09.09-.05,5-2.19,51.58-22.79-.14.22c-.82-19.71-1.51-36.24-2-47.87-.23-5.79-.41-10.36-.53-13.5q-.08-2.33-.12-3.57c0-.39,0-.69,0-.91Z" style="fill:#263238"></path><path d="M463.09,190.05c.07.06-1.11,1.4-2.76,3.74a52.63,52.63,0,0,0-5.42,9.77,51.76,51.76,0,0,0-3.17,10.71c-.52,2.82-.65,4.6-.74,4.59a6.41,6.41,0,0,1,0-1.26,33.91,33.91,0,0,1,.36-3.4A46.1,46.1,0,0,1,460,193.57a32.78,32.78,0,0,1,2.17-2.63A6.37,6.37,0,0,1,463.09,190.05Z" style="fill:#263238"></path><path d="M329.76,231.53a6.79,6.79,0,0,1-.25-1.37c-.11-.88-.31-2.16-.6-3.72a69.9,69.9,0,0,0-8.65-23.19c-.81-1.37-1.5-2.47-2-3.21a7.46,7.46,0,0,1-.71-1.2,7.61,7.61,0,0,1,.88,1.08c.54.71,1.28,1.78,2.13,3.14a61.67,61.67,0,0,1,8.7,23.32c.24,1.58.39,2.87.44,3.76A6.36,6.36,0,0,1,329.76,231.53Z" style="fill:#263238"></path><path d="M383.69,259.72a14.88,14.88,0,0,1-.27-3.92,14.38,14.38,0,0,1,.25-3.91,29.6,29.6,0,0,1,0,7.83Z" style="fill:#754034"></path><g style="opacity:0.30000000000000004"><path d="M427.6,223.47l8.8,1.18c-1.89-4.84-1.62-31-3.15-36.11L432.44,221l-11.79.63s5.07,6.81,7.44,8.24a29.11,29.11,0,0,1,3.45,2.33s-16.68,39-19.28,45.72c-5.53,14.31-9.55,38.38-9.55,38.38,13.83-24,21.86-51.77,29.11-78.58a15.64,15.64,0,0,0,.8-6.38C432.13,228.22,429.81,225.74,427.6,223.47Z"></path></g><g style="opacity:0.30000000000000004"><path d="M344.26,227.89c-.16.48.13-11,.2-11.24s-1.5,13.77-1.78,14.6l4.83-1.06a9.55,9.55,0,0,0-4.95,6,25.19,25.19,0,0,0-.81,8c.32,20.09,4.68,40.72,15.48,57.62C350.17,285,348,266.58,346.29,248.4c-.33-3.57-.61-7.13.39-10.58s3.29-7.12,6.43-8.29c-2.42-2-5.82-3-8.85-1.64"></path></g><g style="opacity:0.30000000000000004"><path d="M406.4,349.76c1.27,2.69,5.9,2.5,9.13,2.14a38,38,0,0,0,9.32-2.71c13.44-5.18,26.44-9.84,39.88-15l-1.87-4.05L411,350.31A5.48,5.48,0,0,1,406.4,349.76Z"></path></g><path d="M269.06,219.8c-2.56-.22-10.15,2-12.14,5.53l-4.18,14s9.4-9.68,13.73-11.24c6.78-2.44,9.92-2.49,7-6.14A5.76,5.76,0,0,0,269.06,219.8Z" style="fill:#aa6550"></path><polygon points="229.51 230.39 234.07 240.9 234.25 260 256.98 256.65 253.71 238.35 255.95 230.31 246.58 222.4 229.51 230.39" style="fill:#aa6550"></polygon><rect x="209.37" y="247.25" width="119.12" height="81.79" transform="translate(-0.83 0.78) rotate(-0.17)" style="fill:#fafafa"></rect><path d="M328.61,328.86s0-.51,0-1.49,0-2.44,0-4.33c0-3.79-.05-9.35-.1-16.46-.06-14.22-.16-34.64-.28-59.5l.21.21-119.11.39h0l.26-.26c.07,29.2.15,56.94.21,81.79l-.24-.24,85.84-.13h33.29l-.56,0-1.65,0-6.47.05-24.45.13-86,.37h-.23v-.24c-.08-24.85-.17-52.59-.26-81.79v-.26h.27l119.11-.29h.21v.21c0,24.91.05,45.37.06,59.63v16.42c0,1.87,0,3.3,0,4.28S328.61,328.86,328.61,328.86Z" style="fill:#263238"></path><path d="M218.41,320.44c-.14,0-.3-13.88-.35-31s0-31,.18-31,.3,13.87.35,31S218.56,320.44,218.41,320.44Z" style="fill:#263238"></path><path d="M321.77,311.6c0,.15-23.23.33-51.89.41s-51.89,0-51.89-.11,23.23-.33,51.89-.41S321.77,311.46,321.77,311.6Z" style="fill:#ebebeb"></path><path d="M321.74,302.51c0,.14-23.23.33-51.88.41S218,303,218,302.81s23.22-.33,51.89-.41S321.74,302.37,321.74,302.51Z" style="fill:#ebebeb"></path><path d="M321.71,293.42c0,.14-23.23.33-51.88.41s-51.89,0-51.89-.11,23.23-.33,51.89-.41S321.71,293.27,321.71,293.42Z" style="fill:#ebebeb"></path><path d="M321.69,284.33c0,.14-23.23.32-51.89.41s-51.89,0-51.89-.12,23.23-.32,51.89-.4S321.69,284.18,321.69,284.33Z" style="fill:#ebebeb"></path><path d="M321.66,275.23c0,.15-23.23.33-51.88.41s-51.89,0-51.89-.11,23.22-.32,51.89-.41S321.66,275.09,321.66,275.23Z" style="fill:#ebebeb"></path><path d="M321.64,266.14c0,.15-23.24.33-51.89.41s-51.89,0-51.89-.11,23.23-.33,51.89-.41S321.64,266,321.64,266.14Z" style="fill:#ebebeb"></path><path d="M321.61,257.05c0,.14-23.23.33-51.88.41s-51.89,0-51.89-.11,23.22-.33,51.88-.41S321.61,256.91,321.61,257.05Z" style="fill:#ebebeb"></path><rect x="225.02" y="306.24" width="7.44" height="14.17" transform="translate(-0.9 0.66) rotate(-0.17)" style="fill:#13CB6E"></rect><rect x="279.06" y="306.08" width="7.44" height="14.17" transform="translate(-0.9 0.81) rotate(-0.16)" style="fill:#13CB6E"></rect><rect x="239.6" y="295.77" width="7.44" height="24.59" transform="translate(-0.89 0.7) rotate(-0.17)" style="fill:#13CB6E"></rect><rect x="266.86" y="289.3" width="7.44" height="30.99" transform="translate(-0.88 0.78) rotate(-0.16)" style="fill:#13CB6E"></rect><rect x="253.37" y="270.51" width="7.44" height="49.81" transform="translate(-0.85 0.74) rotate(-0.16)" style="fill:#13CB6E"></rect><rect x="293.44" y="279.61" width="7.44" height="40.6" transform="translate(-0.86 0.86) rotate(-0.16)" style="fill:#13CB6E"></rect><path d="M309.81,320.17c0,.15-20.42.32-45.6.39s-45.61,0-45.61-.12,20.41-.32,45.61-.4S309.81,320,309.81,320.17Z" style="fill:#263238"></path><polygon points="262.12 253.57 259.81 258.46 257.04 253.58 256.83 205.07 261.91 205.06 262.12 253.57" style="fill:#263238"></polygon><path d="M260,205.16s-2.19-4.39-4.61-4.38-6.05,4.41-6.05,4.41-5.58-2.91-7.52-2.18-4.83,5.63-4.83,5.63a14.32,14.32,0,0,0-4.27,2.21c-1.29,1.22-1.52,5.13-1.52,5.13s-3.39.49-3.39,2.45,0,10,1.73,11.95,11.18,9.24,14.45,9,3.25-4.89,2.52-5.86c0,0,3.89,2.92,5.82.23s.95-6.59.95-6.59,1.49,4.64,4.5,2.58c3.49-2.38.5-7.35.5-7.35s2.51,4,4,2.06,1-5.13,0-7.32S260,205.16,260,205.16Z" style="fill:#aa6550"></path><path d="M243.59,231.26a7.74,7.74,0,0,1-1.51-1.47,41.3,41.3,0,0,1-5.73-8.36,7.68,7.68,0,0,1-.83-1.94c.14-.07,1.64,2.76,3.87,6S243.7,231.15,243.59,231.26Z" style="fill:#754034"></path><path d="M253.29,226.76A70.78,70.78,0,0,1,248,220a71.78,71.78,0,0,1-4.9-7.1,72,72,0,0,1,5.32,6.79A72.44,72.44,0,0,1,253.29,226.76Z" style="fill:#754034"></path><path d="M258.61,222.6a11.32,11.32,0,0,1-1.3-2.09l-2.92-5.17-2.95-5.16a12.06,12.06,0,0,1-1.13-2.19,10.62,10.62,0,0,1,1.45,2c.83,1.27,1.93,3.07,3.08,5.09s2.12,3.89,2.79,5.25A11.58,11.58,0,0,1,258.61,222.6Z" style="fill:#754034"></path><path d="M252.77,226.67s.09.07.21.24a3.25,3.25,0,0,1,.44.8,5.36,5.36,0,0,1-1,5.48,4.12,4.12,0,0,1-2.46,1.34,5.51,5.51,0,0,1-3.07-.62,8.49,8.49,0,0,1-2.67-2.07l.36-.35a7,7,0,0,1,2.3,3.58,4,4,0,0,1-.15,2.16,3,3,0,0,1-1.39,1.62,5.52,5.52,0,0,1-3.87.14,18.53,18.53,0,0,1-5.86-2.67,18,18,0,0,1-3.26-2.86c-.33-.39-.58-.7-.74-.92s-.23-.34-.21-.35a25.19,25.19,0,0,0,4.41,3.83,19,19,0,0,0,5.77,2.51,5.13,5.13,0,0,0,3.52-.13,2.93,2.93,0,0,0,1.27-3.23,6.64,6.64,0,0,0-2.13-3.31l.36-.35c1.44,1.64,3.47,2.76,5.3,2.57a3.64,3.64,0,0,0,2.23-1.16,5,5,0,0,0,1.13-1.94,5.29,5.29,0,0,0,0-3.21C253,227,252.73,226.7,252.77,226.67Z" style="fill:#754034"></path><path d="M257.59,220.64a6.07,6.07,0,0,1,1.17,2,10.55,10.55,0,0,1,.7,2.48,6.92,6.92,0,0,1-.46,3.15,3.25,3.25,0,0,1-2.32,2.21,2.75,2.75,0,0,1-2.41-1,5.78,5.78,0,0,1-.87-1.51c-.15-.37-.21-.59-.18-.6s.15.17.36.51a7.57,7.57,0,0,0,1,1.35,2.44,2.44,0,0,0,2.06.83,2.87,2.87,0,0,0,1.92-1.93,6.94,6.94,0,0,0,.46-2.92,11.36,11.36,0,0,0-.56-2.39C258,221.46,257.51,220.68,257.59,220.64Z" style="fill:#754034"></path><path d="M251.07,238.39a24.15,24.15,0,0,1-4.22,2.76,23.7,23.7,0,0,1-4.48,2.3,25.5,25.5,0,0,1,4.22-2.75A24.91,24.91,0,0,1,251.07,238.39Z" style="fill:#754034"></path><path d="M395.88,323.21l-34.53,10.05-12.62-8.62s-11.49-3.52-15.23-4-9.9-.21-14-.2a10.4,10.4,0,0,1-6.14-1.61s-3.55-.13-2.6,4.42c1.18,5.64,14.6,5.6,14.6,5.6l-17.79.06-10.35,0,9,6.34a13.75,13.75,0,0,0,7.78,2.48l3.62,0c-.93,5,.88,7.72,4.19,9.16-2.61,2.46-1.3,7.06,3.82,6.87,2.48-.09,45.8,0,45.8,0l37.28-5.3Z" style="fill:#aa6550"></path><path d="M325.69,337.45a25.35,25.35,0,0,1-5.81.42,48.15,48.15,0,0,1-5.82-.1,25.35,25.35,0,0,1,5.81-.42A45.81,45.81,0,0,1,325.69,337.45Z" style="fill:#754034"></path><path d="M336.1,326.73a48.06,48.06,0,0,1-7,1.28,46.72,46.72,0,0,1-7,.77,49.37,49.37,0,0,1,7-1.28A48.07,48.07,0,0,1,336.1,326.73Z" style="fill:#754034"></path><path d="M342.36,188.62c.27-.13-.13-1.56-1-4s-2.33-6-3.91-10.4a98.42,98.42,0,0,1-4.39-15.6,52.13,52.13,0,0,1-.06-19.39c1.25-6.85,3.47-13.29,5.28-19.28A95.73,95.73,0,0,0,342,103.53a39.44,39.44,0,0,0-.11-11.44c-.48-2.66-1.1-4-1.36-4-.66.12.42,5.91-1.48,15a123.58,123.58,0,0,1-4.53,15.65c-2,5.87-4.38,12.4-5.73,19.73a54.13,54.13,0,0,0-.73,5.48c-.06.91-.13,1.81-.13,2.72s-.06,1.79,0,2.67a53.93,53.93,0,0,0,1.26,10,79.93,79.93,0,0,0,5.44,16,103.33,103.33,0,0,0,5.19,10C341.21,187.57,342.11,188.75,342.36,188.62Z" style="fill:#263238"></path><path d="M410.75,105.51A34.14,34.14,0,0,0,373.2,73.73c-18.41,1.73-32,18.11-31.37,36.39.55,16,1.45,32.14,2.6,37.84,3.45,17.18,14.9,21.94,19.41,23.17a23.15,23.15,0,0,0,4.79.26h0a.11.11,0,0,1,.12.11l-.16,20.5c.68,13.29,10.16,23.45,23.59,22.85S414,202.35,413.61,189Z" style="fill:#aa6550"></path><path d="M350.57,119.06a2.77,2.77,0,0,0,2.82,2.69,2.7,2.7,0,0,0,2.81-2.64,2.79,2.79,0,0,0-2.82-2.69A2.71,2.71,0,0,0,350.57,119.06Z" style="fill:#263238"></path><path d="M346.73,114c.36.35,2.43-1.31,5.46-1.44s5.3,1.28,5.62.89c.15-.17-.23-.81-1.22-1.46a7.78,7.78,0,0,0-4.52-1.16,7.47,7.47,0,0,0-4.33,1.6C346.84,113.2,346.55,113.88,346.73,114Z" style="fill:#263238"></path><path d="M379.52,118.78a2.79,2.79,0,0,0,2.82,2.69,2.72,2.72,0,0,0,2.81-2.64,2.78,2.78,0,0,0-2.82-2.69A2.7,2.7,0,0,0,379.52,118.78Z" style="fill:#263238"></path><path d="M376.51,113.26c.36.34,2.44-1.31,5.46-1.44s5.31,1.27,5.62.89c.16-.17-.22-.81-1.22-1.46a7.69,7.69,0,0,0-4.51-1.16,7.48,7.48,0,0,0-4.33,1.59C376.62,112.43,376.33,113.1,376.51,113.26Z" style="fill:#263238"></path><path d="M366.39,136c0-.17-1.89-.41-4.95-.66-.78,0-1.52-.16-1.67-.68a3.92,3.92,0,0,1,.43-2.29c.66-1.88,1.34-3.86,2.06-5.93,2.85-8.43,4.88-15.36,4.54-15.47S363.87,117.59,361,126c-.69,2.08-1.34,4.07-2,6a4.46,4.46,0,0,0-.28,3,1.92,1.92,0,0,0,1.32,1.07,5.87,5.87,0,0,0,1.32.12C364.48,136.21,366.39,136.14,366.39,136Z" style="fill:#263238"></path><path d="M368.75,171.38s11.73.43,26-8.93c0,0-4,15.5-26.05,14.46Z" style="fill:#754034"></path><path d="M368,143.14a5.53,5.53,0,0,1,4.81-2.23,5,5,0,0,1,3.52,1.67,3.12,3.12,0,0,1,.38,3.57,3.73,3.73,0,0,1-3.94,1.17,11.22,11.22,0,0,1-4-2.12,3.15,3.15,0,0,1-.9-.84,1,1,0,0,1,0-1.12" style="fill:#754034"></path><path d="M375.38,137.65c-.49,0-.37,3.24-3.09,5.68s-6.24,2.23-6.25,2.69c0,.2.81.59,2.29.57a8.32,8.32,0,0,0,5.22-2.06,7.1,7.1,0,0,0,2.38-4.76C376,138.41,375.61,137.62,375.38,137.65Z" style="fill:#263238"></path><path d="M374.94,108.07c.33.8,3.34.28,6.91.55s6.48,1.09,6.92.34c.2-.36-.33-1.1-1.52-1.84a12.17,12.17,0,0,0-10.53-.68C375.43,107,374.8,107.69,374.94,108.07Z" style="fill:#263238"></path><path d="M347.6,107.86c.56.66,2.62-.14,5.13-.29s4.65.25,5.11-.48c.2-.36-.16-1-1.12-1.63a7.49,7.49,0,0,0-8.24.62C347.62,106.82,347.35,107.54,347.6,107.86Z" style="fill:#263238"></path><path d="M338.78,152.34c-2.93,13.09,2.42,26.61,9.12,38.22,2.53,4.38,5.29,8.7,6.8,13.54s1.58,10.4-1.09,14.7a4.15,4.15,0,0,0,5-2c.25,2.68.49,5.35.73,8,3.26,1.4,7.14-.94,8.71-4.14s1.44-6.93,1.28-10.49c-.48-10.45-.1-22.81-.58-33.26l-18.63-3.78Z" style="fill:#263238"></path><path d="M389,95.51c7.06,13.6,7.91,29.57,7.4,44.92s-2.21,30.83.32,46c1,5.95,2.65,12,1.74,17.94-.54,3.51-1.95,6.83-2.66,10.31s-.6,7.39,1.57,10.19,6.13,3.88,9.62,3.21a17.29,17.29,0,0,0,9-5.41c5.36-5.65,8.16-13.37,9.2-21.11s.46-15.6-.12-23.39q-2.26-30.4-4.54-60.79c-.65-8.76-1.35-17.73-4.9-25.76a44.56,44.56,0,0,0-18.21-19.92c-9.38-5.59-21.53-8-31.17-2.87-3.22,1.71-6.31,5-5.54,8.56.61,2.83,3.36,4.58,5.87,6l24.77,14.1" style="fill:#263238"></path><path d="M401.77,204.94c.27-.14-.25-1.71-1.31-4.47s-2.65-6.69-4.29-11.64a79.06,79.06,0,0,1-3.81-17.67c-.64-6.72.22-14.19,1.6-22s3-15.48,3.43-22.66a56,56,0,0,0-1.75-19A31.21,31.21,0,0,0,389.77,96c-.52-.57-1-1.06-1.38-1.48a12.72,12.72,0,0,0-1.13-1c-.63-.48-1-.68-1.11-.58s.08.51.49,1.16l.79,1.19c.28.48.62,1,1,1.63a37,37,0,0,1,4.32,11.23,59.75,59.75,0,0,1,.77,17.92c-.63,6.78-2.31,14.23-3.72,22.24s-2.21,16-1.31,23.18a70.23,70.23,0,0,0,4.88,18.32A89.52,89.52,0,0,0,399,201.2C400.51,203.75,401.52,205.07,401.77,204.94Z" style="fill:#263238"></path><path d="M426.37,103.47a3.06,3.06,0,0,0-.65-.24l-1.88-.61c-.82-.25-1.83-.57-3-1s-2.48-.82-3.92-1.37c-2.9-1-6.31-2.37-10-4s-7.78-3.52-11.93-5.7-8-4.47-11.46-6.63-6.47-4.24-9-6.06c-1.26-.88-2.36-1.74-3.34-2.47s-1.82-1.37-2.49-1.91l-1.57-1.21a4.42,4.42,0,0,0-.57-.4,5.09,5.09,0,0,0,.51.47l1.53,1.27c.66.56,1.47,1.23,2.45,2s2.05,1.63,3.31,2.53c2.47,1.84,5.49,3.93,8.92,6.14s7.31,4.47,11.47,6.67,8.23,4.08,12,5.69,7.19,2.9,10.1,3.9c1.45.52,2.78.92,4,1.3s2.17.68,3,.91l1.91.53A4.91,4.91,0,0,0,426.37,103.47Z" style="fill:#455a64"></path><path d="M426.55,106.51a3.7,3.7,0,0,0-.69-.13l-2-.3-1.45-.2-1.7-.31c-1.23-.23-2.63-.44-4.15-.82l-2.4-.54c-.83-.19-1.69-.45-2.58-.68-1.79-.45-3.65-1.07-5.63-1.7a110.85,110.85,0,0,1-12.46-5.12A111.51,111.51,0,0,1,381.81,90c-1.7-1.18-3.34-2.28-4.79-3.42-.73-.56-1.46-1.08-2.12-1.63L373,83.35c-1.23-1-2.26-2-3.19-2.78l-1.3-1.17-1-1L366,77a6.25,6.25,0,0,0-.53-.47A3.71,3.71,0,0,0,366,77c.34.37.81.85,1.4,1.47l1,1c.38.37.81.76,1.27,1.19.92.85,1.94,1.85,3.16,2.84l1.89,1.6c.66.55,1.38,1.08,2.11,1.65,1.45,1.16,3.08,2.27,4.79,3.47a104.9,104.9,0,0,0,11.71,6.79,105.33,105.33,0,0,0,12.52,5.11c2,.62,3.86,1.23,5.66,1.67.9.23,1.76.48,2.59.66l2.42.52c1.53.35,2.94.55,4.17.76.61.09,1.18.2,1.71.27l1.46.17,2,.21A4.59,4.59,0,0,0,426.55,106.51Z" style="fill:#fff"></path><path d="M414.94,213.46a1,1,0,0,0,.06-.27c0-.21.08-.48.13-.83.1-.72.27-1.78.4-3.17a105,105,0,0,0,.59-11.74c0-5-.32-10.88-.95-17.41s-1.51-13.69-2.38-21.21c-1.79-15-3.4-28.63-4.58-38.5-.6-4.91-1.09-8.88-1.44-11.66-.17-1.36-.31-2.42-.41-3.17l-.12-.82a1.47,1.47,0,0,0-.05-.28,1.47,1.47,0,0,0,.05.28c0,.21,0,.48.08.83.08.75.19,1.82.33,3.18.31,2.78.76,6.76,1.3,11.67,1.15,9.88,2.72,23.49,4.46,38.52.88,7.52,1.78,14.67,2.42,21.2s1,12.42,1,17.37a114.35,114.35,0,0,1-.45,11.73c-.11,1.38-.25,2.45-.33,3.17,0,.35-.06.62-.08.83S414.94,213.46,414.94,213.46Z" style="fill:#455a64"></path><path d="M404.22,168.19a3.47,3.47,0,0,0,.07-.69l.12-2c.1-1.71.21-4.18.31-7.24.2-6.11.33-14.57.18-23.9s-.57-17.78-1-23.88c-.21-3.06-.4-5.52-.55-7.23-.08-.82-.14-1.47-.18-2a3.35,3.35,0,0,0-.1-.68,5.15,5.15,0,0,0,0,.69c0,.49.06,1.14.11,2,.1,1.74.24,4.2.41,7.22.33,6.11.69,14.55.85,23.88s.07,17.77-.06,23.88c-.07,3-.13,5.49-.17,7.24,0,.83,0,1.48,0,2A4.56,4.56,0,0,0,404.22,168.19Z" style="fill:#455a64"></path></g><g id="freepik--speech-bubble--inject-34"><path d="M452.3,150.74l8.36-14.94a39.57,39.57,0,1,1,33.81,18.91,39.28,39.28,0,0,1-24.27-8.29v0Z" style="fill:#fafafa"></path><path d="M452.3,150.74l17.88-4.43-.07.21v0a.12.12,0,0,1,0-.18.14.14,0,0,1,.16,0,40.92,40.92,0,0,0,8.14,4.85,39.48,39.48,0,0,0,10.84,3,34.63,34.63,0,0,0,6.24.27c1.07-.07,2.16-.09,3.26-.21l3.33-.52a39.73,39.73,0,0,0,24.42-16.06A39.3,39.3,0,0,0,533,122.41a40.62,40.62,0,0,0-.56-17.49A38.92,38.92,0,0,0,524,88.77L522.39,87c-.53-.59-1.16-1.08-1.73-1.62a21.7,21.7,0,0,0-1.78-1.55L517,82.42a15,15,0,0,0-2-1.29l-2-1.21-2.08-1a17.13,17.13,0,0,0-2.11-.93,39.67,39.67,0,0,0-17.6-2.66,38.35,38.35,0,0,0-16.13,4.89,40,40,0,0,0-18.5,23.1,42.71,42.71,0,0,0-1.69,12.82,39.88,39.88,0,0,0,5.83,19.61.13.13,0,0,1,0,.12l-8.47,14.88c.43-.77,3-5.43,8.25-15v.13a39.94,39.94,0,0,1-6-19.73,42.81,42.81,0,0,1,1.66-12.94A40.39,40.39,0,0,1,474.9,79.79a38.71,38.71,0,0,1,16.32-5,40.14,40.14,0,0,1,17.83,2.68,17.59,17.59,0,0,1,2.14.94l2.11,1,2,1.23a18.23,18.23,0,0,1,2,1.3l1.9,1.43c.66.46,1.2,1,1.81,1.57s1.21,1.05,1.75,1.65l1.62,1.79a39.33,39.33,0,0,1,8.56,16.36,41,41,0,0,1,.55,17.71,39.61,39.61,0,0,1-6.59,15.44,40,40,0,0,1-24.73,16.19l-3.36.52c-1.11.11-2.22.13-3.3.2a34.35,34.35,0,0,1-6.3-.3,39.44,39.44,0,0,1-10.91-3.09,40.82,40.82,0,0,1-8.18-4.93l.18-.19,0,0a.13.13,0,0,1,0,.18l-.05,0Z" style="fill:#263238"></path><path d="M511,104a10.44,10.44,0,0,1-1.22,1.28l-3.48,3.36c-3,2.81-7.07,6.67-11.63,10.91l-.69.65-.17.16-.19-.16-5.58-4.79h.34l-7.61,6.89-2.2,1.94a5.3,5.3,0,0,1-.83.65,5.32,5.32,0,0,1,.71-.78c.56-.53,1.26-1.21,2.11-2l7.47-7,.17-.15.17.14,5.6,4.77h-.36l.69-.64c4.56-4.24,8.71-8,11.74-10.8l3.59-3.22A10.74,10.74,0,0,1,511,104Z" style="fill:#263238"></path><path d="M511.56,113.2a14,14,0,0,1-.3-2.68c-.12-1.67-.25-4-.37-6.56l.29.27-.47,0c-2.66.11-5.08.19-6.83.21a13.81,13.81,0,0,1-2.83-.07,14.36,14.36,0,0,1,2.82-.32c1.74-.12,4.15-.26,6.82-.37l.46,0h.27l0,.27c.1,2.58.17,4.89.19,6.56A14.38,14.38,0,0,1,511.56,113.2Z" style="fill:#263238"></path></g></svg>