<svg xmlns="http://www.w3.org/2000/svg" xmlns:xlink="http://www.w3.org/1999/xlink" viewBox="0 0 750 500" xmlns:v="https://vecta.io/nano"><style><![CDATA[.B{fill:#263238}.C{fill:#13cb6e}.D{fill:#ebebeb}.E{opacity:.3}.F{fill:#455a64}.G{fill:#aa6550}.H{fill:#754034}.I{fill:#fafafa}]]></style><path d="M600.17,112.77l-2.63-4.86c-22.22-41-64.75-67.16-111-66.51A121.42,121.42,0,0,0,468.82,43c-42.34,6.92-80.34,36.81-97.43,76.65-10.06,23.42-13.88,50.77-31.67,68.89-23.15,23.57-60.45,22.52-93.16,19.9s-70-3.58-93.08,20.1C139,243.33,133.62,265.15,133.71,286c.23,55.1,36.11,106.11,83.61,132.91s104.73,31.8,158.55,23.66c75.39-11.39,148.42-49.25,194.22-111S631,183.35,600.17,112.77Z" class="D"/><path d="M686.47 453.34c0 .14-141.7.26-316.45.26s-316.49-.12-316.49-.26 141.67-.26 316.49-.26l316.45.26zM86.61 426.4a2.56 2.56 0 0 1 .19-.46l.62-1.32a34 34 0 0 0 1.82-5.28c1.2-4.7 1.62-11.87-.16-20.4a109.07 109.07 0 0 0-3.78-13.7c-1.6-4.86-3.46-10-5-15.6a60.35 60.35 0 0 1-2.46-17.93c.23-6.35 2.11-12.68 4.17-19s4.2-12.49 4.83-18.7a28.46 28.46 0 0 0-3.42-17.26c-2.74-5-6.18-9.34-8.75-13.81a48.11 48.11 0 0 1-5.26-13.27 49.4 49.4 0 0 1-.33-20.56 38.37 38.37 0 0 1 2.14-7.27 2 2 0 0 1-.12.49l-.44 1.39a51 51 0 0 0-1.33 5.44 50 50 0 0 0 .53 20.41 47.87 47.87 0 0 0 5.28 13.1c2.57 4.41 6 8.7 8.81 13.8a29 29 0 0 1 3.55 17.63c-.64 6.31-2.79 12.52-4.84 18.83s-3.93 12.56-4.16 18.8a60.11 60.11 0 0 0 2.4 17.75c1.49 5.55 3.33 10.71 4.91 15.59a108.94 108.94 0 0 1 3.73 13.78c1.73 8.59 1.23 15.84-.06 20.55a31.32 31.32 0 0 1-1.94 5.28l-.68 1.29a2.92 2.92 0 0 1-.25.43z" class="B"/><path d="M78.19 287.37s-5.19-16.72 4.15-26.51a.58.58 0 0 1 1 .29c.49 2.76 1.12 11.17-5.15 26.22z" class="C"/><path d="M81.32 266.43a15.28 15.28 0 0 1-.35 3.09l-1.2 7.37-1.17 7.37a15.81 15.81 0 0 1-.55 3.05 13 13 0 0 1 .09-3.1l1-7.43 1.38-7.35a14.09 14.09 0 0 1 .8-3z" class="B"/><path d="M84.33 326.79s3.19-17.22 16.06-21.49a.58.58 0 0 1 .74.72c-.85 2.68-4.23 10.4-16.8 20.77z" class="C"/><path d="M96.88 309.75a15 15 0 0 1-1.75 2.56l-4.5 6-4.48 6a16.9 16.9 0 0 1-1.92 2.44 12.74 12.74 0 0 1 1.54-2.7c1-1.61 2.57-3.78 4.34-6.1l4.66-5.85a13.54 13.54 0 0 1 2.11-2.35z" class="B"/><path d="M80.85,370S78.91,352.58,90,344.76a.58.58,0,0,1,.92.48C90.86,348,89.87,356.41,80.85,370Z" class="C"/><path d="M87.92 350a15.87 15.87 0 0 1-.94 3l-2.57 7-2.56 7a17.5 17.5 0 0 1-1.12 2.89 12.31 12.31 0 0 1 .68-3l2.38-7.1 2.76-6.95a13.26 13.26 0 0 1 1.37-2.84z" class="B"/><path d="M90.54 413.44s-1.32-17.47 10-24.88a.58.58 0 0 1 .9.5c-.1 2.8-1.39 11.13-10.9 24.38z" class="C"/><path d="M98.32 393.75a15.7 15.7 0 0 1-1 2.93l-2.83 6.91-2.8 6.92a17.23 17.23 0 0 1-1.23 2.84 13.37 13.37 0 0 1 .79-3l2.64-7 3-6.85a14.2 14.2 0 0 1 1.43-2.75z" class="B"/><path d="M70.67 272.68S55.15 264.57 54.85 251a.58.58 0 0 1 .9-.5c2.31 1.62 8.7 7.11 14.92 22.18z" class="C"/><path d="M58.07 255.68a15.34 15.34 0 0 1 1.93 2.43l4.38 6.05 4.39 6a16.9 16.9 0 0 1 1.77 2.55 12.82 12.82 0 0 1-2.13-2.26l-4.56-5.94-4.23-6.17a13.89 13.89 0 0 1-1.55-2.66z" class="B"/><path d="M87.34 308.58s-16-7.15-17.11-20.66a.58.58 0 0 1 .87-.55c2.4 1.45 9.12 6.55 16.24 21.21z" class="C"/><path d="M73.73 292.37a16.42 16.42 0 0 1 2.08 2.31l4.73 5.77 4.75 5.76a15.71 15.71 0 0 1 1.92 2.44 13.85 13.85 0 0 1-2.21-2.13l-4.91-5.65-4.6-5.91a13.69 13.69 0 0 1-1.76-2.59z" class="B"/><path d="M78.14 348.62s-11-13.65-5.82-26.18a.58.58 0 0 1 1-.1c1.5 2.39 5.16 9.98 4.82 26.28z" class="C"/><path d="M73.41 328a16.3 16.3 0 0 1 .8 3l1.58 7.3 1.61 7.29a17.36 17.36 0 0 1 .6 3 12.9 12.9 0 0 1-1-2.93l-1.8-7.26-1.4-7.35a13.94 13.94 0 0 1-.39-3.05z" class="B"/><path d="M89 395.74s-15.87-7.42-16.77-20.94a.58.58 0 0 1 .89-.54c2.39 1.49 9.02 6.74 15.88 21.48z" class="C"/><path d="M75.68 379.31a15.2 15.2 0 0 1 2 2.34l4.64 5.85 4.68 5.84a17.2 17.2 0 0 1 1.88 2.46 12.31 12.31 0 0 1-2.23-2.16l-4.82-5.73-4.49-6a14.26 14.26 0 0 1-1.66-2.6zm44.94-52.43a1.73 1.73 0 0 1 0 .39v1.12l-.19 4.25-.83 15.16h0 0c-1.13 6.33-4.36 13.36-8.7 20.18-3.18 5-6.51 9.59-9.39 13.84a97.3 97.3 0 0 0-7 11.63 48.82 48.82 0 0 0-3.3 8.54l-.61 2.42a4.29 4.29 0 0 1-.23.84 4.38 4.38 0 0 1 .1-.87c.08-.56.25-1.39.5-2.45a44.67 44.67 0 0 1 3.12-8.68 92.54 92.54 0 0 1 7-11.77c2.86-4.28 6.17-8.85 9.34-13.85 4.31-6.79 7.52-13.7 8.7-19.94h0l1.07-15.15.34-4.23c0-.45.08-.81.11-1.12s-.05-.31-.03-.31z" class="B"/><path d="M111.17 366.71s6.72-16.17-1.73-26.77a.58.58 0 0 0-1 .2c-.76 2.7-2.15 11.02 2.73 26.57z" class="C"/><path d="M110 345.58a14.27 14.27 0 0 1 .53 3.06l.71 7.45.31 7.48a12.27 12.27 0 0 1-.19 3.1 17.31 17.31 0 0 1-.27-3.09l-.5-7.44-.52-7.45a15.27 15.27 0 0 1-.07-3.11z" class="B"/><path d="M111.17 366.71s6.72-16.17-1.73-26.77a.58.58 0 0 0-1 .2c-.76 2.7-2.15 11.02 2.73 26.57z" class="E"/><path d="M90.36 405.69s5.39-16.67-3.9-26.54a.57.57 0 0 0-1 .28c-.52 2.75-1.23 11.15 4.9 26.26z" class="C"/><path d="M87.43 384.73a13.67 13.67 0 0 1 .78 3l1.31 7.37.91 7.43a13 13 0 0 1 .07 3.11 16.45 16.45 0 0 1-.53-3.06l-1.1-7.38-1.12-7.39a15.4 15.4 0 0 1-.32-3.08z" class="B"/><path d="M90.36 405.69s5.39-16.67-3.9-26.54a.57.57 0 0 0-1 .28c-.52 2.75-1.23 11.15 4.9 26.26z" class="E"/><path d="M119.73 347s14.35-10.05 12.9-23.52a.58.58 0 0 0-1-.38c-2.05 1.83-7.63 8.1-11.9 23.9z" class="C"/><path d="M119.73 347s14.35-10.05 12.9-23.52a.58.58 0 0 0-1-.38c-2.05 1.83-7.63 8.1-11.9 23.9z" class="E"/><path d="M130 328.46a13.83 13.83 0 0 1-1.19 2.87l-3.39 6.66-3.76 6.48a12.75 12.75 0 0 1-1.82 2.52 17.37 17.37 0 0 1 1.42-2.75l3.58-6.56 3.56-6.56a15.22 15.22 0 0 1 1.6-2.66z" class="B"/><path d="M96.15 389.17s17.3-2.7 21.94-15.44a.58.58 0 0 0-.7-.76c-2.7.77-10.52 3.92-21.24 16.2z" class="C"/><path d="M96.15 389.17s17.3-2.7 21.94-15.44a.58.58 0 0 0-.7-.76c-2.7.77-10.52 3.92-21.24 16.2z" class="E"/><path d="M113.54 377.11a15 15 0 0 1-2.33 2.05l-6 4.49-6.22 4.16a12.84 12.84 0 0 1-2.75 1.46 16.65 16.65 0 0 1 2.5-1.85l6.09-4.31 6.09-4.32a14.5 14.5 0 0 1 2.62-1.68z" class="B"/><path d="M75.67 421.01l4.97 32.56 19.82-.03 6.68-32.53H75.67z" class="F"/><path d="M104.23 433.57s0 .05-.17.12a3.86 3.86 0 0 1-.52.3 7.32 7.32 0 0 1-2.21.66 8.15 8.15 0 0 1-3.65-.34 7.67 7.67 0 0 1-3.92-2.85 5.52 5.52 0 0 1-.92-2.72 3 3 0 0 1 1.35-2.8 3.21 3.21 0 0 1 3.32.27 4.9 4.9 0 0 1 1.9 3 12.9 12.9 0 0 1 .25 3.68 12.48 12.48 0 0 1-.81 3.76 8.21 8.21 0 0 1-2.3 3.28 6.35 6.35 0 0 1-3.81 1.59 6.94 6.94 0 0 1-4-1.15 12 12 0 0 1-3-2.67 6.57 6.57 0 0 1-1.5-3.58 4.14 4.14 0 0 1 1.41-3.45 3.19 3.19 0 0 1 3.51-.21 3.75 3.75 0 0 1 2 2.65 5.08 5.08 0 0 1-2.51 5.15 6.92 6.92 0 0 1-4.78.69 10.59 10.59 0 0 1-3.41-1.33 18.32 18.32 0 0 1-1.91-1.29 3.81 3.81 0 0 1-.61-.52 4.72 4.72 0 0 1 .67.43l2 1.2a11.28 11.28 0 0 0 3.39 1.21 6.75 6.75 0 0 0 4.54-.73 4.71 4.71 0 0 0 2.26-4.73 3.31 3.31 0 0 0-1.8-2.32 2.73 2.73 0 0 0-3 .18 3.66 3.66 0 0 0-1.2 3 6 6 0 0 0 1.4 3.28 11.48 11.48 0 0 0 2.83 2.54 6.44 6.44 0 0 0 3.68 1.13 5.91 5.91 0 0 0 3.49-1.46 7.75 7.75 0 0 0 2.16-3.07 11.79 11.79 0 0 0 .78-3.59 12.48 12.48 0 0 0-.22-3.53 4.38 4.38 0 0 0-1.68-2.71 2.76 2.76 0 0 0-2.83-.28 2.56 2.56 0 0 0-1.15 2.39 5.16 5.16 0 0 0 .82 2.53 7.4 7.4 0 0 0 3.7 2.77 8 8 0 0 0 3.52.42 9.17 9.17 0 0 0 2.93-.9z" class="B"/><g class="C"><path d="M640 351.92a53.38 53.38 0 0 1 50.9-14A92.66 92.66 0 0 1 639.44 354m17.86-63.21c-2.12-15 3.71-31.87 14.94-42.77.37 14.86-5.91 31.59-14.94 42.77"/><path d="M648.32 319.12A80.12 80.12 0 0 1 685.1 284a50.5 50.5 0 0 1-36.92 35.31m-1.72 5.28c9.06.25 18.23-.06 27-2.38s17.15-6.78 23-13.71a90.15 90.15 0 0 0-49.83 15.21m4.43-17.13c-4.6-17.23-12.18-29.15-25.73-38.81a35.82 35.82 0 0 0 25.73 38.81m-34.19 29.72a25.5 25.5 0 0 1 15.49-23.62c-.75 8.9-7.74 19.19-15.49 23.62m-4.33-14.53a38 38 0 0 0-24.9-32.42c3.13 14.4 11.45 26.39 24.9 32.42m6.52 25.79c-3.19-4.57-8.41-7.41-13.8-8.82s-11-1.54-16.61-1.66a38.82 38.82 0 0 0 30 12.49m6.88 34.72a42.55 42.55 0 0 0-51.94 24.61c18.87-3.58 37.49-12 51.94-24.61m20.71-12.76c-3.13 9.26-2.53 20.46 4.44 28.45a34 34 0 0 0-4.44-28.45m12.24-5.15a34.85 34.85 0 0 0 19.25 28.28 2.13 2.13 0 0 0 1.7.28c.85-.34.93-1.5.83-2.41-1.37-11.87-10.16-23.35-21.78-26.15m8-1.2a28.57 28.57 0 0 0 41.75.21c-13.27-1.45-28.59-2.42-41.75-.21"/></g><g class="B"><path d="M668.46 259.07a1.73 1.73 0 0 1-.12.39l-.4 1.12-1.6 4.3-2.5 6.82-1.54 4.26-1.65 4.8c-2.35 6.72-5 14.79-7.78 23.77s-5.68 18.93-8.54 29.41-5.32 20.54-7.45 29.71-3.85 17.47-5.13 24.48l-.94 5-.76 4.46-1.17 7.16-.7 4.54-.19 1.17c-.05.29-.08.4-.08.4a2 2 0 0 1 0-.4c0-.29.08-.69.14-1.19l.6-4.55c.25-1.96.63-4.38 1.09-7.17l.72-4.48c.26-1.59.59-3.25.91-5 1.24-7 3-15.32 5-24.51s4.6-19.24 7.42-29.74 5.79-20.43 8.58-29.42 5.49-17 7.89-23.75l1.69-4.79 1.58-4.25 2.57-6.79 1.69-4.26.45-1.11c.16-.25.21-.38.22-.38z"/><path d="M595.56 297l.23.21.63.67 2.36 2.64A93.07 93.07 0 0 1 606.6 311a70.14 70.14 0 0 1 8.17 17.48c2.19 7 3.55 14.87 4.9 23.14 2.7 16.55 6 31.37 8.41 42.09l2.87 12.69.77 3.46.18.9a1.43 1.43 0 0 1 .05.31 1.61 1.61 0 0 1-.1-.3l-.23-.89-.86-3.43-3-12.66c-2.49-10.7-5.86-25.52-8.56-42.09-1.35-8.27-2.7-16.15-4.85-23.08a70.44 70.44 0 0 0-8-17.43 99.11 99.11 0 0 0-7.66-10.48l-2.28-2.7-.6-.7a1.67 1.67 0 0 1-.25-.31zm74.88 67.61a1.55 1.55 0 0 1-.48.09l-1.37.15-1 .1-1.18.18-2.85.48-1.64.33-1.77.44c-1.23.28-2.5.73-3.85 1.14a56.2 56.2 0 0 0-8.4 3.7 47.16 47.16 0 0 0-7.54 5.24 35.09 35.09 0 0 0-2.89 2.77 32.06 32.06 0 0 0-2.29 2.64 27.67 27.67 0 0 0-1.69 2.33 16.43 16.43 0 0 0-1.16 1.85l-.71 1.19a1.83 1.83 0 0 1-.27.4 1.7 1.7 0 0 1 .18-.45l.63-1.24a13.83 13.83 0 0 1 1.09-1.9 24.89 24.89 0 0 1 1.65-2.4 28.68 28.68 0 0 1 2.26-2.71 37.2 37.2 0 0 1 2.89-2.84 46.32 46.32 0 0 1 7.6-5.32 54.24 54.24 0 0 1 8.5-3.71l3.9-1.1 1.78-.42 1.67-.3c1.06-.21 2-.31 2.88-.4l1.18-.14h1l1.39-.06a2.23 2.23 0 0 1 .49-.04zm3.78-67.25a7.6 7.6 0 0 1-1 .92l-2.73 2.37-9.13 7.67-9.24 7.56-2.83 2.24a7 7 0 0 1-1.08.77 6.3 6.3 0 0 1 1-.92l2.74-2.37 9.13-7.67 9.23-7.56 2.84-2.24a6.43 6.43 0 0 1 1.07-.77zm3.26 17.55c0 .14-6.93 2.32-15.56 4.87s-15.67 4.51-15.71 4.37 6.93-2.31 15.57-4.86l15.7-4.38z"/><path d="M651.75 307.92a6 6 0 0 1-.72-1l-1.84-2.8c-1.55-2.35-3.77-5.57-6.38-9s-5.14-6.41-7-8.54l-2.2-2.52a5.39 5.39 0 0 1-.78-1 5.75 5.75 0 0 1 .92.83c.57.55 1.36 1.38 2.33 2.41 1.93 2.08 4.5 5 7.13 8.47s4.8 6.7 6.29 9.11c.74 1.21 1.32 2.2 1.7 2.89a6.19 6.19 0 0 1 .55 1.15zm-24.2 9.75a24.52 24.52 0 0 1-1.64 2.69l-3.91 6.48-3.57 6.68a23.27 23.27 0 0 1-1.43 2.78 17 17 0 0 1 1.15-2.94l3.46-6.77 4.06-6.43a17.05 17.05 0 0 1 1.88-2.49zM619.27 348a38.63 38.63 0 0 1-3.54-1.56l-8.65-3.46-8.92-2.69a38.05 38.05 0 0 1-3.74-1 4.64 4.64 0 0 1 1 .11l2.79.53a77.85 77.85 0 0 1 17.64 6.18l2.51 1.32a4.44 4.44 0 0 1 .91.57zm6.52 36.35a1.37 1.37 0 0 1-.43.14l-1.26.32-4.63 1.07a154.16 154.16 0 0 0-15.14 4 66.82 66.82 0 0 0-14.12 6.64l-3.9 2.7a13.7 13.7 0 0 1-1.4 1 2.22 2.22 0 0 1 .31-.33l1-.86a43.48 43.48 0 0 1 3.82-2.86 62 62 0 0 1 14.15-6.81 126.57 126.57 0 0 1 15.23-3.87l4.67-.91a11.65 11.65 0 0 1 1.7-.23zm23.57 8.95c-.14 0-1-4.87-1.85-10.92s-1.49-11-1.35-11 1 4.87 1.85 10.92 1.49 10.98 1.35 11zm24.54-8.91a27 27 0 0 1-2.21-2.63l-5.24-6.4-5.4-6.26a25.3 25.3 0 0 1-2.21-2.64 3.33 3.33 0 0 1 .7.61l1.77 1.78 5.53 6.19 5.14 6.5 1.45 2a3.09 3.09 0 0 1 .47.85zm-64.95 22.76v12.13h3.04l10.77 34.02h23.91l10.44-33.69 4.04-.33v-12.13h-52.2z"/></g><path d="M659.13 419.61c0 .14-10.55.26-23.57.26s-23.57-.12-23.57-.26 10.55-.25 23.57-.25l23.57.25z" class="F"/><path d="M676.33 341.61a10.21 10.21 0 0 1-1.54.41l-4.19 1c-3.54.88-8.39 2.21-13.66 4s-9.94 3.65-13.29 5.09l-3.95 1.73a9.8 9.8 0 0 1-1.47.59 9.23 9.23 0 0 1 1.38-.77 95.1 95.1 0 0 1 3.9-1.88 138.74 138.74 0 0 1 27-9.09c1.78-.39 3.23-.68 4.23-.85a8.19 8.19 0 0 1 1.59-.23z" class="B"/><path d="M651.2 438.51c0 .14-7.41.25-16.54.25s-16.54-.11-16.54-.25 7.4-.26 16.54-.26 16.54.12 16.54.26zm.93-2.82c0 .14-7.85.26-17.53.26s-17.53-.12-17.53-.26 7.85-.25 17.53-.25l17.53.25z" class="I"/><path d="M587,93.27H179.75A12.71,12.71,0,0,0,167,106V393.66a12.71,12.71,0,0,0,12.71,12.71H336.06S346,437.12,315.18,453H461.34s-34.8-11.93-25.85-46.65H587a12.71,12.71,0,0,0,12.71-12.71V106A12.71,12.71,0,0,0,587,93.27Z" class="F"/><path d="M388.83 376.11c5.54 7.92-3.14 16.59-11.06 11.05a2.93 2.93 0 0 1-.68-.68c-5.52-7.91 3.14-16.57 11.05-11.05a3 3 0 0 1 .69.68z" class="B"/><path d="M183.42 98.58h399.29a9.7 9.7 0 0 1 9.7 9.7v245.5a0 0 0 0 1 0 0H173.72a0 0 0 0 1 0 0v-245.5a9.7 9.7 0 0 1 9.7-9.7z" fill="#fff"/><path d="M183.2 98.54h401.69a7.52 7.52 0 0 1 7.52 7.52v13.69a0 0 0 0 1 0 0H174a0 0 0 0 1 0 0V107.7a9.15 9.15 0 0 1 9.2-9.16z" class="D"/><g class="B"><use xlink:href="#B"/><use xlink:href="#B" x="8.77"/><use xlink:href="#B" x="17.11"/><path d="M514.21 406.41c0 .13-58 .24-129.43.24s-129.44-.11-129.44-.24 57.94-.25 129.44-.25l129.43.25z"/></g><path d="M543.13 263c4.84-2.5 10.54-2.82 15.91-1.94 2.88.48 5.89 1.34 7.86 3.51s2.33 6 .08 7.85a7.6 7.6 0 0 1-5 1.25c-4.2-.05-8.87-.79-12.23 1.74-1.91 1.45-3.19 3.85-5.48 4.55a5.4 5.4 0 0 1-6-2.65 9.22 9.22 0 0 1-.67-6.83 10.41 10.41 0 0 1 5.53-7.48zm-11.08-21.44c3 4.23 8.71 2.83 11.37.25s3.8-6.32 4.82-9.88c2.35-8.14 4.71-16.69 3-25a13.89 13.89 0 0 0-3.19-6.79 7.28 7.28 0 0 0-6.87-2.29c-2.9.77-4.71 3.61-6 6.31a59.65 59.65 0 0 0-5.88 25.55c0 4.12.47 8.43 2.79 11.83m-8.16 6.08c3.21-3.81 3.82-9.37 2.39-14.14s-4.66-8.84-8.38-12.16a45.26 45.26 0 0 0-15-8.85 16.19 16.19 0 0 0-6.75-1.15 7.08 7.08 0 0 0-5.66 3.43c-1.58 3-.07 6.66 1.57 9.64a113.12 113.12 0 0 0 9.85 15c3 3.81 6.34 7.57 10.84 9.29s9.18 1.52 11.57-1.61" class="D"/><g fill="#e0e0e0"><path d="M531.85 305.29a8.42 8.42 0 0 0 .27-1.92l.51-5.24a72.79 72.79 0 0 1 1.18-7.68 58.85 58.85 0 0 1 2.79-9.07 33.66 33.66 0 0 1 4.63-8.21 17.35 17.35 0 0 1 5.86-4.87 16.39 16.39 0 0 1 4.93-1.53 9 9 0 0 0 1.91-.28 9.8 9.8 0 0 0-1.95 0 15.14 15.14 0 0 0-5.14 1.34 17.22 17.22 0 0 0-6.17 4.91 32.57 32.57 0 0 0-4.8 8.37 56.13 56.13 0 0 0-2.78 9.22 64.51 64.51 0 0 0-1 7.78l-.26 5.27a9.14 9.14 0 0 0 .02 1.91z"/><path d="M532.21 301.26a3.26 3.26 0 0 0 0-.89v-2.55l.11-9.36c.2-7.9.88-16.4 2.19-28.39 1.24-11.27 2.91-24.39 4.68-32.92.37-1.94.76-3.68 1.11-5.21l.92-3.92c.28-1.06.44-1.83.59-2.48a3.58 3.58 0 0 0 .16-.88 3.6 3.6 0 0 0-.31.84l-.74 2.44c-.3 1-.66 2.37-1.05 3.89s-.82 3.27-1.23 5.2a290.86 290.86 0 0 0-4.92 30.55c-1.31 12-1.91 22.95-2 30.87l.14 9.38.15 2.55a4.74 4.74 0 0 0 .2.88z"/><path d="M532.27 280.17a18.83 18.83 0 0 0 0-2.67c-.1-1.71-.34-4.18-.82-7.21a95.11 95.11 0 0 0-2.34-10.5 86.55 86.55 0 0 0-4.4-12.43 66.17 66.17 0 0 0-12.89-20.08 32.78 32.78 0 0 0-3-2.82l-1.29-1.1-1.18-.81a18.53 18.53 0 0 0-2.24-1.44c-.13.18 3.17 2.12 7.34 6.55a70.06 70.06 0 0 1 12.58 20 97.88 97.88 0 0 1 4.35 12.34 105.33 105.33 0 0 1 2.5 10.4l1.06 7.14a16.32 16.32 0 0 0 .33 2.63zm-20.4 37.21l2.12 28.96h37.2l2.12-28.96h-41.44z"/><path d="M508.28 305.96h49.47v11.42h-49.47z"/></g><path d="M508.28 345.23v3.17h2.33 46.32v-3.17h-48.65z" class="D"/><path d="M512.88 353.97l-2.27-5.57h44.55l-2.66 5.57h-39.62z" fill="#e0e0e0"/><path d="M552.62 326.84s0 .1-.18.27-.33.44-.55.74l-2.17 2.77-.1.12-.09-.12-5.32-7.37h.3l-5.24 7.42-.16.24-.19-.22-6.22-7.4h.36l-.34.43-5.56 7-.18.23-.18-.24-5.24-7.43h.3l-6.46 7.36-.11.13-.09-.15-2-3.4-.52-.9a2.37 2.37 0 0 1-.16-.32 2.14 2.14 0 0 0 .22.28l.57.87 2.13 3.34h-.21l6.36-7.44.16-.19.15.2 5.29 7.39h-.36l5.55-7 .34-.43.18-.22.18.21 6.2 7.42h-.35l5.3-7.39.15-.21.15.21 5.21 7.45h-.18l2.25-2.7.6-.7a1.3 1.3 0 0 1 .21-.25zm1.21-9.65c0 .13-9.33.23-20.82.23s-20.83-.1-20.83-.23S521.5 317 533 317l20.83.19zm1.88 31.52c0 .13-10.14.23-22.63.23s-22.63-.1-22.63-.23 10.13-.23 22.63-.23l22.63.23z" fill="#f5f5f5"/><path d="M437.64 186.35q-1.59-26.62-5.21-53.08c-1.45-10.61-3.17-21.27-6.83-31.34s-9.41-19.58-17.76-26.23-19.5-10.14-29.84-7.83l42.21 130.28c3.15.42 6.36.83 9.47.21s6.16-2.47 7.39-5.42a14.77 14.77 0 0 0 .57-6.59zm-73.41-114c-8.09-.63-17.9 2.47-22.5 9.2-3.57 5.23-2.72 14.35-4 20.58-2 10-3.94 20-4.19 30.19-.27 11.18 1.53 22.29 3.34 33.32q3 18.3 6 36.59c.89 5.42 1.81 11 4.36 15.82s7.07 9 12.5 9.64c5 .58 9.94-1.93 13.28-5.68s5.21-8.6 6.37-13.5z" class="B"/><path d="M371.36,186.23c-2.42-.12-18.55,3.75-18.55,3.75l18.77,73.5,30.05,2.43,26.67-83.67Z" class="G"/><path d="M405.13,248.36a31.27,31.27,0,0,1-16.91,10.69,18.75,18.75,0,0,1-11.15-.32c-3.52-1.37-6.5-4.53-6.94-8.31L365,266l9.11,45.43,14.79,42.37,28.95-.17Z" class="B"/><g class="C"><path d="M289.52 257.37l12.93-15.63s12.49-40.77 16.24-43.82 38-11.65 38-11.65l12.21 52.67 6.21 64.82 11.39 25.74 11.18 24.21-39.25.11-24.48-57.14a73.79 73.79 0 0 1-5.09-21.36l-.42-5s-25.53 59.07-31.55 62.87-13.53 9.52-21.81 9.17-25.3-24.95-25.3-24.95l-.09-32.86 24.06-10.06 4.17 9.09zm103.56 70.35l2.62-6.45 55.56-26.12-1.72-77.35 14.8-31.54s8.4 3.67 13.26 14.51c3.43 7.62 13.32 115.51 7.72 118.88C478 324 428.84 343.54 412.4 350a6.64 6.64 0 0 1-8.2-2.9z"/><path d="M457.85 319.29L464.14 186l-31.32-5.77-9-6.49h-7.12s2.62 6.78 2.27 12.37-26.15 105.44-26.15 105.44l14.65 62.14 66.23-.2z"/></g><g class="B"><path d="M432.82 180.2v.19.56c0 .53.09 1.26.15 2.19l.33 8.31c.17 7.16-.12 17.38-.71 29.57v.2h-.21l-11.79.66.19-.38a31.62 31.62 0 0 0 10.89 10.5l.2.12-.09.21-4.71 10.42c-4.5 10-8.68 19.57-12.06 28.44a237 237 0 0 0-7.89 23.94c-1.86 6.93-2.93 12.65-3.63 16.6l-.71 4.57-.19 1.19a1.78 1.78 0 0 1-.08.4 2.11 2.11 0 0 1 0-.41c0-.29.08-.69.14-1.19l.61-4.59c.64-4 1.66-9.7 3.47-16.67a232.65 232.65 0 0 1 7.8-24c3.36-8.9 7.54-18.48 12-28.49l4.72-10.42.1.33a32 32 0 0 1-11-10.66l-.22-.35h.41l11.8-.62-.22.21c.64-12.18 1-22.38.9-29.53 0-3.58-.13-6.39-.2-8.31 0-.94-.06-1.67-.09-2.19v-.57a.58.58 0 0 1 .09-.23zM396 345.86l-.43-.2-1.25-.62c-1.1-.52-2.66-1.42-4.66-2.61l-3.21-2.14-3.65-2.79a72.56 72.56 0 0 1-8.14-7.7 92.34 92.34 0 0 1-15.86-24.35 136.87 136.87 0 0 1-9.93-34.2c-1.32-7.94-2.09-15.72-2.63-23.12-.27-3.68-.43-7.39.54-10.83s3.12-6.49 6.25-7.82l-.06.38a9.25 9.25 0 0 0-8.72-1.8l-.28.1v-.3l.88-27.56.28-7.62c0-.85.07-1.52.09-2s.05-.69.05-.69v.69 2c0 1.77-.1 4.34-.17 7.62l-.7 27.56-.28-.21a9.68 9.68 0 0 1 9.15 1.85l.27.24-.33.15c-3 1.26-5.05 4.24-6 7.53s-.77 7-.5 10.67c.55 7.39 1.32 15.15 2.65 23.07a137.08 137.08 0 0 0 9.85 34.09 93.06 93.06 0 0 0 15.69 24.3 74.36 74.36 0 0 0 8.05 7.71c1.24 1.08 2.5 2 3.61 2.81s2.23 1.52 3.18 2.18c2 1.21 3.51 2.14 4.6 2.69l1.22.66z"/><path d="M449.12 229.82a1.44 1.44 0 0 1 0 .31v.91l.2 3.57.65 13.49 2.2 47.86v.16l-.14.06L400.56 319l-4.95 2.19.14-.14-1.08 2.65v-.2l10.46 25.41-.1-.12a10.88 10.88 0 0 0 4.29 1.45 4.38 4.38 0 0 0 1.09-.06 5.88 5.88 0 0 0 1-.35l2.14-.81 8.33-3.19 15.51-6 25.55-10.18c7.13-2.92 12.77-5.33 16.58-7.11 1.9-.89 3.35-1.61 4.29-2.17a6.25 6.25 0 0 0 1-.71.78.78 0 0 0 .24-.33.57.57 0 0 1-.21.37 6.13 6.13 0 0 1-1 .74 46.85 46.85 0 0 1-4.27 2.26c-3.79 1.82-9.41 4.28-16.53 7.24l-25.51 10.29-15.5 6-8.33 3.21-2.13.82a7.13 7.13 0 0 1-1.13.37 5 5 0 0 1-1.22.07 11.37 11.37 0 0 1-4.52-1.51h-.07v-.08l-10.48-25.4v-.1-.1l1.08-2.65v-.09l.09-.05 5-2.19 51.58-22.79-.14.22-2-47.87-.53-13.5q-.08-2.33-.12-3.57v-.91zm13.97-39.77c.07.06-1.11 1.4-2.76 3.74a52.63 52.63 0 0 0-5.42 9.77 51.76 51.76 0 0 0-3.17 10.71l-.74 4.59a6.41 6.41 0 0 1 0-1.26 33.91 33.91 0 0 1 .36-3.4 46.1 46.1 0 0 1 8.64-20.63 32.78 32.78 0 0 1 2.17-2.63 6.37 6.37 0 0 1 .92-.89zm-133.33 41.48a6.79 6.79 0 0 1-.25-1.37l-.6-3.72a69.9 69.9 0 0 0-8.65-23.19l-2-3.21a7.46 7.46 0 0 1-.71-1.2 7.61 7.61 0 0 1 .88 1.08c.54.71 1.28 1.78 2.13 3.14a61.67 61.67 0 0 1 8.7 23.32l.44 3.76a6.36 6.36 0 0 1 .06 1.39z"/></g><path d="M383.69,259.72a14.88,14.88,0,0,1-.27-3.92,14.38,14.38,0,0,1,.25-3.91,29.6,29.6,0,0,1,0,7.83Z" class="H"/><path d="M427.6 223.47l8.8 1.18c-1.89-4.84-1.62-31-3.15-36.11l-.81 32.46-11.79.63s5.07 6.81 7.44 8.24a29.11 29.11 0 0 1 3.45 2.33l-19.28 45.72c-5.53 14.31-9.55 38.38-9.55 38.38 13.83-24 21.86-51.77 29.11-78.58a15.64 15.64 0 0 0 .8-6.38c-.49-3.12-2.81-5.6-5.02-7.87zm-83.34 4.42c-.16.48.13-11 .2-11.24s-1.5 13.77-1.78 14.6l4.83-1.06a9.55 9.55 0 0 0-4.95 6 25.19 25.19 0 0 0-.81 8c.32 20.09 4.68 40.72 15.48 57.62-7.06-16.81-9.23-35.23-10.94-53.41-.33-3.57-.61-7.13.39-10.58s3.29-7.12 6.43-8.29c-2.42-2-5.82-3-8.85-1.64m62.14 121.87c1.27 2.69 5.9 2.5 9.13 2.14a38 38 0 0 0 9.32-2.71l39.88-15-1.87-4.05L411 350.31a5.48 5.48 0 0 1-4.6-.55z" class="E"/><g class="G"><path d="M269.06 219.8c-2.56-.22-10.15 2-12.14 5.53l-4.18 14s9.4-9.68 13.73-11.24c6.78-2.44 9.92-2.49 7-6.14a5.76 5.76 0 0 0-4.41-2.15z"/><path d="M229.51 230.39l4.56 10.51.18 19.1 22.73-3.35-3.27-18.3 2.24-8.04-9.37-7.91-17.07 7.99z"/></g><path d="M209.273 247.408l119.119-.353.243 81.79-119.119.353z" class="I"/><path d="M328.61 328.86v-1.49-4.33l-.1-16.46-.28-59.5.21.21-119.11.39h0l.26-.26.21 81.79-.24-.24 85.84-.13h33.29-.56-1.65l-6.47.05-24.45.13-86 .37h-.23v-.24l-.26-81.79v-.26h.27l119.11-.29h.21v.21l.06 59.63v16.42 4.28c0 .98-.11 1.51-.11 1.51zm-110.2-8.42c-.14 0-.3-13.88-.35-31l.18-31c.18 0 .3 13.87.35 31l-.18 31z" class="B"/><path d="M321.77 311.6c0 .15-23.23.33-51.89.41s-51.89 0-51.89-.11 23.23-.33 51.89-.41l51.89.11zm-.03-9.09c0 .14-23.23.33-51.88.41S218 303 218 302.81s23.22-.33 51.89-.41l51.85.11zm-.03-9.09c0 .14-23.23.33-51.88.41s-51.89 0-51.89-.11 23.23-.33 51.89-.41l51.88.11zm-.02-9.09c0 .14-23.23.32-51.89.41s-51.89 0-51.89-.12 23.23-.32 51.89-.4l51.89.11zm-.03-9.1c0 .15-23.23.33-51.88.41s-51.89 0-51.89-.11 23.22-.32 51.89-.41l51.88.11zm-.02-9.09c0 .15-23.24.33-51.89.41s-51.89 0-51.89-.11 23.23-.33 51.89-.41l51.89.11zm-.03-9.09c0 .14-23.23.33-51.88.41s-51.89 0-51.89-.11 23.22-.33 51.88-.41l51.89.11z" class="D"/><path d="M225.028 306.231l7.44-.022.042 14.17-7.44.022zm53.986-.121l7.44-.021.04 14.17-7.44.021zm-39.427-10.352l7.44-.022.073 24.59-7.44.022zm27.2-6.424l7.44-.021.087 30.99-7.44.021zm-13.513-18.793l7.44-.021.139 49.81-7.44.021zm40.086 9.108l7.44-.021.113 40.6-7.44.021z" class="C"/><path d="M309.81 320.17c0 .15-20.42.32-45.6.39s-45.61 0-45.61-.12 20.41-.32 45.61-.4l45.6.13zm-47.69-66.6l-2.31 4.89-2.77-4.88-.21-48.51 5.08-.01.21 48.51z" class="B"/><path d="M260,205.16s-2.19-4.39-4.61-4.38-6.05,4.41-6.05,4.41-5.58-2.91-7.52-2.18-4.83,5.63-4.83,5.63a14.32,14.32,0,0,0-4.27,2.21c-1.29,1.22-1.52,5.13-1.52,5.13s-3.39.49-3.39,2.45,0,10,1.73,11.95,11.18,9.24,14.45,9,3.25-4.89,2.52-5.86c0,0,3.89,2.92,5.82.23s.95-6.59.95-6.59,1.49,4.64,4.5,2.58c3.49-2.38.5-7.35.5-7.35s2.51,4,4,2.06,1-5.13,0-7.32S260,205.16,260,205.16Z" class="G"/><g class="H"><path d="M243.59 231.26a7.74 7.74 0 0 1-1.51-1.47 41.3 41.3 0 0 1-5.73-8.36 7.68 7.68 0 0 1-.83-1.94c.14-.07 1.64 2.76 3.87 6l4.2 5.77zm9.7-4.5A70.78 70.78 0 0 1 248 220a71.78 71.78 0 0 1-4.9-7.1 72 72 0 0 1 5.32 6.79 72.44 72.44 0 0 1 4.87 7.07zm5.32-4.16a11.32 11.32 0 0 1-1.3-2.09l-2.92-5.17-2.95-5.16a12.06 12.06 0 0 1-1.13-2.19 10.62 10.62 0 0 1 1.45 2l3.08 5.09 2.79 5.25a11.58 11.58 0 0 1 .98 2.27zm-5.84 4.07s.09.07.21.24a3.25 3.25 0 0 1 .44.8 5.36 5.36 0 0 1-1 5.48 4.12 4.12 0 0 1-2.46 1.34 5.51 5.51 0 0 1-3.07-.62 8.49 8.49 0 0 1-2.67-2.07l.36-.35a7 7 0 0 1 2.3 3.58 4 4 0 0 1-.15 2.16 3 3 0 0 1-1.39 1.62 5.52 5.52 0 0 1-3.87.14 18.53 18.53 0 0 1-5.86-2.67 18 18 0 0 1-3.26-2.86l-.74-.92c-.16-.22-.23-.34-.21-.35a25.19 25.19 0 0 0 4.41 3.83 19 19 0 0 0 5.77 2.51 5.13 5.13 0 0 0 3.52-.13 2.93 2.93 0 0 0 1.27-3.23 6.64 6.64 0 0 0-2.13-3.31l.36-.35c1.44 1.64 3.47 2.76 5.3 2.57a3.64 3.64 0 0 0 2.23-1.16 5 5 0 0 0 1.13-1.94 5.29 5.29 0 0 0 0-3.21c-.26-.77-.53-1.07-.49-1.1z"/><path d="M257.59 220.64a6.07 6.07 0 0 1 1.17 2 10.55 10.55 0 0 1 .7 2.48 6.92 6.92 0 0 1-.46 3.15 3.25 3.25 0 0 1-2.32 2.21 2.75 2.75 0 0 1-2.41-1 5.78 5.78 0 0 1-.87-1.51c-.15-.37-.21-.59-.18-.6s.15.17.36.51a7.57 7.57 0 0 0 1 1.35 2.44 2.44 0 0 0 2.06.83 2.87 2.87 0 0 0 1.92-1.93 6.94 6.94 0 0 0 .46-2.92 11.36 11.36 0 0 0-.56-2.39c-.46-1.36-.95-2.14-.87-2.18zm-6.52 17.75a24.15 24.15 0 0 1-4.22 2.76 23.7 23.7 0 0 1-4.48 2.3 25.5 25.5 0 0 1 4.22-2.75 24.91 24.91 0 0 1 4.48-2.31z"/></g><path d="M395.88 323.21l-34.53 10.05-12.62-8.62s-11.49-3.52-15.23-4-9.9-.21-14-.2a10.4 10.4 0 0 1-6.14-1.61s-3.55-.13-2.6 4.42c1.18 5.64 14.6 5.6 14.6 5.6l-17.79.06h-10.35l9 6.34a13.75 13.75 0 0 0 7.78 2.48h3.62c-.93 5 .88 7.72 4.19 9.16-2.61 2.46-1.3 7.06 3.82 6.87 2.48-.09 45.8 0 45.8 0l37.28-5.3z" class="G"/><path d="M325.69 337.45a25.35 25.35 0 0 1-5.81.42 48.15 48.15 0 0 1-5.82-.1 25.35 25.35 0 0 1 5.81-.42 45.81 45.81 0 0 1 5.82.1zm10.41-10.72a48.06 48.06 0 0 1-7 1.28 46.72 46.72 0 0 1-7 .77 49.37 49.37 0 0 1 7-1.28 48.07 48.07 0 0 1 7-.77z" class="H"/><path d="M342.36 188.62c.27-.13-.13-1.56-1-4s-2.33-6-3.91-10.4a98.42 98.42 0 0 1-4.39-15.6 52.13 52.13 0 0 1-.06-19.39c1.25-6.85 3.47-13.29 5.28-19.28a95.73 95.73 0 0 0 3.72-16.42 39.44 39.44 0 0 0-.11-11.44c-.48-2.66-1.1-4-1.36-4-.66.12.42 5.91-1.48 15a123.58 123.58 0 0 1-4.53 15.65c-2 5.87-4.38 12.4-5.73 19.73a54.13 54.13 0 0 0-.73 5.48c-.06.91-.13 1.81-.13 2.72s-.06 1.79 0 2.67a53.93 53.93 0 0 0 1.26 10 79.93 79.93 0 0 0 5.44 16 103.33 103.33 0 0 0 5.19 10c1.39 2.23 2.29 3.41 2.54 3.28z" class="B"/><path d="M410.75,105.51A34.14,34.14,0,0,0,373.2,73.73c-18.41,1.73-32,18.11-31.37,36.39.55,16,1.45,32.14,2.6,37.84,3.45,17.18,14.9,21.94,19.41,23.17a23.15,23.15,0,0,0,4.79.26h0a.11.11,0,0,1,.12.11l-.16,20.5c.68,13.29,10.16,23.45,23.59,22.85S414,202.35,413.61,189Z" class="G"/><path d="M350.57 119.06a2.77 2.77 0 0 0 2.82 2.69 2.7 2.7 0 0 0 2.81-2.64 2.79 2.79 0 0 0-2.82-2.69 2.71 2.71 0 0 0-2.81 2.64zm-3.84-5.06c.36.35 2.43-1.31 5.46-1.44s5.3 1.28 5.62.89c.15-.17-.23-.81-1.22-1.46a7.78 7.78 0 0 0-4.52-1.16 7.47 7.47 0 0 0-4.33 1.6c-.9.77-1.19 1.45-1.01 1.57zm32.79 4.78a2.79 2.79 0 0 0 2.82 2.69 2.72 2.72 0 0 0 2.81-2.64 2.78 2.78 0 0 0-2.82-2.69 2.7 2.7 0 0 0-2.81 2.64zm-3.01-5.52c.36.34 2.44-1.31 5.46-1.44s5.31 1.27 5.62.89c.16-.17-.22-.81-1.22-1.46a7.69 7.69 0 0 0-4.51-1.16 7.48 7.48 0 0 0-4.33 1.59c-.91.75-1.2 1.42-1.02 1.58zM366.39 136c0-.17-1.89-.41-4.95-.66-.78 0-1.52-.16-1.67-.68a3.92 3.92 0 0 1 .43-2.29l2.06-5.93c2.85-8.43 4.88-15.36 4.54-15.47s-2.93 6.62-5.8 15.03l-2 6a4.46 4.46 0 0 0-.28 3 1.92 1.92 0 0 0 1.32 1.07 5.87 5.87 0 0 0 1.32.12c3.12.02 5.03-.05 5.03-.19z" class="B"/><path d="M368.75 171.38s11.73.43 26-8.93c0 0-4 15.5-26.05 14.46zm-.75-28.24a5.53 5.53 0 0 1 4.81-2.23 5 5 0 0 1 3.52 1.67 3.12 3.12 0 0 1 .38 3.57 3.73 3.73 0 0 1-3.94 1.17 11.22 11.22 0 0 1-4-2.12 3.15 3.15 0 0 1-.9-.84 1 1 0 0 1 0-1.12" class="H"/><g class="B"><path d="M375.38 137.65c-.49 0-.37 3.24-3.09 5.68s-6.24 2.23-6.25 2.69c0 .2.81.59 2.29.57a8.32 8.32 0 0 0 5.22-2.06 7.1 7.1 0 0 0 2.38-4.76c.07-1.36-.32-2.15-.55-2.12zm-.44-29.58c.33.8 3.34.28 6.91.55s6.48 1.09 6.92.34c.2-.36-.33-1.1-1.52-1.84a12.17 12.17 0 0 0-10.53-.68c-1.29.56-1.92 1.25-1.78 1.63zm-27.34-.21c.56.66 2.62-.14 5.13-.29s4.65.25 5.11-.48c.2-.36-.16-1-1.12-1.63a7.49 7.49 0 0 0-8.24.62c-.86.74-1.13 1.46-.88 1.78zm-8.82 44.48c-2.93 13.09 2.42 26.61 9.12 38.22 2.53 4.38 5.29 8.7 6.8 13.54s1.58 10.4-1.09 14.7a4.15 4.15 0 0 0 5-2l.73 8c3.26 1.4 7.14-.94 8.71-4.14s1.44-6.93 1.28-10.49c-.48-10.45-.1-22.81-.58-33.26l-18.63-3.78zM389 95.51c7.06 13.6 7.91 29.57 7.4 44.92s-2.21 30.83.32 46c1 5.95 2.65 12 1.74 17.94-.54 3.51-1.95 6.83-2.66 10.31s-.6 7.39 1.57 10.19 6.13 3.88 9.62 3.21a17.29 17.29 0 0 0 9-5.41c5.36-5.65 8.16-13.37 9.2-21.11s.46-15.6-.12-23.39q-2.26-30.4-4.54-60.79c-.65-8.76-1.35-17.73-4.9-25.76a44.56 44.56 0 0 0-18.21-19.92c-9.38-5.59-21.53-8-31.17-2.87-3.22 1.71-6.31 5-5.54 8.56.61 2.83 3.36 4.58 5.87 6l24.77 14.1"/><path d="M401.77 204.94c.27-.14-.25-1.71-1.31-4.47s-2.65-6.69-4.29-11.64a79.06 79.06 0 0 1-3.81-17.67c-.64-6.72.22-14.19 1.6-22s3-15.48 3.43-22.66a56 56 0 0 0-1.75-19 31.21 31.21 0 0 0-5.87-11.5l-1.38-1.48a12.72 12.72 0 0 0-1.13-1c-.63-.48-1-.68-1.11-.58s.08.51.49 1.16l.79 1.19c.28.48.62 1 1 1.63a37 37 0 0 1 4.32 11.23 59.75 59.75 0 0 1 .77 17.92c-.63 6.78-2.31 14.23-3.72 22.24s-2.21 16-1.31 23.18a70.23 70.23 0 0 0 4.88 18.32A89.52 89.52 0 0 0 399 201.2c1.51 2.55 2.52 3.87 2.77 3.74z"/></g><path d="M426.37 103.47a3.06 3.06 0 0 0-.65-.24l-1.88-.61-3-1-3.92-1.37c-2.9-1-6.31-2.37-10-4s-7.78-3.52-11.93-5.7-8-4.47-11.46-6.63-6.47-4.24-9-6.06c-1.26-.88-2.36-1.74-3.34-2.47l-2.49-1.91-1.57-1.21a4.42 4.42 0 0 0-.57-.4 5.09 5.09 0 0 0 .51.47l1.53 1.27c.66.56 1.47 1.23 2.45 2s2.05 1.63 3.31 2.53c2.47 1.84 5.49 3.93 8.92 6.14s7.31 4.47 11.47 6.67 8.23 4.08 12 5.69 7.19 2.9 10.1 3.9c1.45.52 2.78.92 4 1.3l3 .91 1.91.53a4.91 4.91 0 0 0 .61.19z" class="F"/><path d="M426.55 106.51a3.7 3.7 0 0 0-.69-.13l-2-.3-1.45-.2-1.7-.31-4.15-.82-2.4-.54-2.58-.68-5.63-1.7a110.85 110.85 0 0 1-12.46-5.12A111.51 111.51 0 0 1 381.81 90l-4.79-3.42-2.12-1.63-1.9-1.6-3.19-2.78-1.3-1.17-1-1L366 77a6.25 6.25 0 0 0-.53-.47 3.71 3.71 0 0 0 .53.47l1.4 1.47 1 1 1.27 1.19 3.16 2.84 1.89 1.6 2.11 1.65 4.79 3.47a104.9 104.9 0 0 0 11.71 6.79 105.33 105.33 0 0 0 12.52 5.11l5.66 1.67 2.59.66 2.42.52 4.17.76 1.71.27 1.46.17 2 .21a4.59 4.59 0 0 0 .69.13z" fill="#fff"/><path d="M414.94 213.46a1 1 0 0 0 .06-.27c0-.21.08-.48.13-.83l.4-3.17a105 105 0 0 0 .59-11.74c0-5-.32-10.88-.95-17.41s-1.51-13.69-2.38-21.21l-4.58-38.5-1.44-11.66-.41-3.17-.12-.82a1.47 1.47 0 0 0-.05-.28 1.47 1.47 0 0 0 .05.28c0 .21 0 .48.08.83l.33 3.18 1.3 11.67 4.46 38.52 2.42 21.2c.64 6.53 1 12.42 1 17.37a114.35 114.35 0 0 1-.45 11.73c-.11 1.38-.25 2.45-.33 3.17 0 .35-.06.62-.08.83l-.03.28zm-10.72-45.27a3.47 3.47 0 0 0 .07-.69l.12-2 .31-7.24c.2-6.11.33-14.57.18-23.9s-.57-17.78-1-23.88l-.55-7.23-.18-2a3.35 3.35 0 0 0-.1-.68 5.15 5.15 0 0 0 0 .69c0 .49.06 1.14.11 2l.41 7.22a662.39 662.39 0 0 1 .85 23.88 631.22 631.22 0 0 1-.06 23.88l-.17 7.24v2a4.56 4.56 0 0 0 .01.71z" class="F"/><path d="M452.3,150.74l8.36-14.94a39.57,39.57,0,1,1,33.81,18.91,39.28,39.28,0,0,1-24.27-8.29v0Z" class="I"/><g class="B"><path d="M452.3 150.74l17.88-4.43-.07.21h0a.12.12 0 0 1 0-.18.14.14 0 0 1 .16 0 40.92 40.92 0 0 0 8.14 4.85 39.48 39.48 0 0 0 10.84 3 34.63 34.63 0 0 0 6.24.27l3.26-.21 3.33-.52a39.73 39.73 0 0 0 24.42-16.06 39.3 39.3 0 0 0 6.5-15.26 40.62 40.62 0 0 0-.56-17.49A38.92 38.92 0 0 0 524 88.77L522.39 87c-.53-.59-1.16-1.08-1.73-1.62a21.7 21.7 0 0 0-1.78-1.55L517 82.42a15 15 0 0 0-2-1.29l-2-1.21-2.08-1a17.13 17.13 0 0 0-2.11-.93 39.67 39.67 0 0 0-17.6-2.66 38.35 38.35 0 0 0-16.13 4.89 40 40 0 0 0-18.5 23.1 42.71 42.71 0 0 0-1.69 12.82 39.88 39.88 0 0 0 5.83 19.61.13.13 0 0 1 0 .12l-8.47 14.88 8.25-15v.13a39.94 39.94 0 0 1-6-19.73 42.81 42.81 0 0 1 1.66-12.94 40.39 40.39 0 0 1 18.74-23.42 38.71 38.71 0 0 1 16.32-5 40.14 40.14 0 0 1 17.83 2.68 17.59 17.59 0 0 1 2.14.94l2.11 1 2 1.23a18.23 18.23 0 0 1 2 1.3l1.9 1.43c.66.46 1.2 1 1.81 1.57l1.75 1.65 1.62 1.79a39.33 39.33 0 0 1 8.56 16.36 41 41 0 0 1 .55 17.71 39.61 39.61 0 0 1-6.59 15.44 40 40 0 0 1-24.73 16.19l-3.36.52-3.3.2a34.35 34.35 0 0 1-6.3-.3 39.44 39.44 0 0 1-10.91-3.09 40.82 40.82 0 0 1-8.18-4.93l.18-.19h0a.13.13 0 0 1 0 .18h-.05zM511 104a10.44 10.44 0 0 1-1.22 1.28l-3.48 3.36-11.63 10.91-.69.65-.17.16-.19-.16-5.58-4.79h.34l-7.61 6.89-2.2 1.94a5.3 5.3 0 0 1-.83.65 5.32 5.32 0 0 1 .71-.78l2.11-2 7.47-7 .17-.15.17.14 5.6 4.77h-.36l.69-.64 11.74-10.8 3.59-3.22A10.74 10.74 0 0 1 511 104z"/><path d="M511.56 113.2a14 14 0 0 1-.3-2.68l-.37-6.56.29.27h-.47l-6.83.21a13.81 13.81 0 0 1-2.83-.07 14.36 14.36 0 0 1 2.82-.32l6.82-.37h.46.27v.27l.19 6.56a14.38 14.38 0 0 1-.05 2.69z"/></g><defs ><path id="B" d="M190.32 109.59a2.94 2.94 0 1 1-2.94-2.94 2.94 2.94 0 0 1 2.94 2.94z"/></defs></svg>