<svg xmlns="http://www.w3.org/2000/svg" xmlns:xlink="http://www.w3.org/1999/xlink" width="240" height="161" fill="none" xmlns:v="https://vecta.io/nano"><style><![CDATA[.B{fill:#263238}.C{fill:#13cb6e}.D{fill:#455a64}.E{fill:#fafafa}.F{fill:#fff}.G{fill:#e0e0e0}.H{opacity:.09}.I{fill:#af8b82}.J{fill:#ffbe9d}.K{fill:#eb996e}.L{fill:#ffbea9}.M{fill:#e4977c}.N{fill:#7f6360}]]></style><path d="M177.418 34.005l-.669-1.098c-5.619-9.261-15.789-14.845-26.49-14.166a27.79 27.79 0 0 0-4.102.563c-9.738 2.083-18.215 9.45-21.725 18.88-2.067 5.546-2.643 11.933-6.563 16.336-5.104 5.731-13.76 5.91-21.383 5.674s-16.282-.029-21.36 5.731c-3.181 3.603-4.189 8.726-3.933 13.552.678 12.778 9.581 24.199 20.902 29.879s24.64 6.185 37.04 3.686c17.357-3.497 33.866-13.12 43.786-27.949s12.435-35.069 4.496-51.088z" fill="#ebebeb"/><path d="M91.584 130.296c-.022.026-.208-.083-.413-.249s-.358-.32-.336-.352.208.086.416.249.355.324.333.352z" class="B"/><path d="M97.229 121.858a6.46 6.46 0 0 0-.192-2.342c-.25-.749-.826-1.44-1.6-1.6-.88-.183-1.786.374-2.278 1.126s-.662 1.667-.81 2.56a90.43 90.43 0 0 0-1.107 18.56l3.61.506c1.584-6.49 2.09-12.147 2.378-18.81z" class="D"/><path d="M94.938 117.89a.42.42 0 0 1-.016.058l-.061.163-.24.624-.173.448-.173.547-.202.64-.189.717a31.18 31.18 0 0 0-.694 3.571l-.426 4.438-.294 8.106-.115 2.458-.045.665v.173.061a.25.25 0 0 1 0-.061v-.173l.022-.669.07-2.457.259-8.112.435-4.448a29.52 29.52 0 0 1 .726-3.575l.195-.716c.061-.228.147-.432.211-.64l.186-.544c.054-.167.128-.32.182-.448l.266-.615.07-.16c-.01-.035 0-.054.003-.051zm.332 0a2.62 2.62 0 0 1 .442.749 5.55 5.55 0 0 1 .32 2.333l-.512 7.773-.717 7.76-.266 2.345-.083.64c0 .067-.016.122-.022.167.001.018.001.036 0 .054v-.058-.166l.058-.64.227-2.349.678-7.76.547-7.766c.067-.783-.03-1.571-.285-2.314-.107-.266-.236-.523-.387-.768zm2.503 9.341c-.237-.02-.469-.081-.685-.179a1.96 1.96 0 0 1-.64-.298c.237.017.469.077.685.176a1.93 1.93 0 0 1 .64.301zm.435-3.68a2.16 2.16 0 0 1-.64.361c-.219.122-.457.205-.704.247.191-.157.407-.279.64-.362a2.18 2.18 0 0 1 .704-.246zm-.227-3.002c0 .039-.243.048-.538.029s-.531-.064-.528-.102a1.21 1.21 0 0 1 .538-.026c.181-.009.362.025.528.099zm-3.722-1.92c-.032.016-.189-.179-.352-.442a1.29 1.29 0 0 1-.246-.508c.032-.02.189.179.355.441a1.32 1.32 0 0 1 .243.509zm-1.232 1.815c-.337.075-.687.068-1.021-.023a1.06 1.06 0 0 1 .512-.054c.282.006.512.038.509.077zm-.867 3.628c0 .036-.253-.032-.538-.147s-.506-.233-.493-.265c.189.006.375.056.541.147.269.115.49.233.49.265zm-.109 3.057c0 .035-.198.105-.461.16-.156.051-.321.065-.483.038 0-.035.198-.109.458-.163s.477-.071.486-.035zm-.416 4.995c0 .035-.211.102-.486.15-.166.05-.341.06-.512.029 0-.035.211-.106.486-.154s.506-.061.512-.025zm-.275 2.755c.016.032-.166.16-.406.288s-.451.204-.467.176.163-.16.406-.288.448-.208.467-.176zm2.25 3.129c-.029.02-.189-.201-.352-.486-.12-.165-.203-.354-.243-.554.029-.019.189.202.355.49.118.164.2.352.24.55zm.649-5.203c.026.026-.15.24-.394.477s-.461.41-.486.384a1.67 1.67 0 0 1 .397-.477c.243-.233.458-.406.483-.384zm-.144-2.726c-.026.025-.189-.109-.365-.298s-.298-.365-.272-.39.189.112.368.301.294.364.269.387zm.448-3.485c.026.022-.122.23-.32.464s-.397.4-.426.377.122-.233.32-.464.4-.403.426-.377zm.25-2.531c-.022.026-.23-.138-.458-.362s-.394-.425-.368-.451.23.135.458.362.394.425.368.451zm.496-3.418a1.32 1.32 0 0 1-.23.512c-.157.266-.32.464-.342.445a1.33 1.33 0 0 1 .23-.512c.16-.266.31-.467.342-.445zm.928-3.174c.032.019-.058.246-.202.515s-.288.467-.32.451a1.29 1.29 0 0 1 .205-.515c.144-.266.285-.477.317-.451zm1.043 1.44c0 .032-.131.134-.32.227s-.362.141-.378.109.128-.135.32-.227.378-.141.378-.109zm.038 11.386a1.5 1.5 0 0 1-.707-.173c-.233-.076-.444-.211-.611-.391a4.06 4.06 0 0 1 .662.272c.227.077.447.175.656.292zm-.431 2.409c0 .035-.211.109-.486.16s-.502.067-.509.032.211-.106.486-.157.502-.07.509-.035zm-.532 4.134a2.04 2.04 0 0 1-.893-1.126 4.31 4.31 0 0 1 .445.566 4.05 4.05 0 0 1 .448.56zm-5.795 1.892c-.022-.026.125-.189.32-.365s.39-.294.413-.266-.125.189-.32.365-.394.295-.413.266z" class="B"/><path d="M88.89 129.708c-.234-.733-.675-1.6-1.446-1.6a1.28 1.28 0 0 0-1.081.723 2.65 2.65 0 0 0-.291 1.328 34.43 34.43 0 0 0 1.654 9.6h2.816c-.034-3.415-.591-6.805-1.651-10.051zm-5.095-4.615a3.13 3.13 0 0 0-2.935-2.505c-1.245.217-1.728 1.446-1.875 2.701s.243 2.505.64 3.708l3.709 11.601 3.504-.385c-1.123-5.168-1.76-9.968-3.043-15.12z" class="D"/><g class="B"><path d="M87.443 128.111a2.87 2.87 0 0 0-.237.397c-.144.398-.189.825-.131 1.244l.205 1.888.378 2.292.906 4.131.256 1.254.058.346c0 .08.019.121 0 .121a.5.5 0 0 1-.035-.118l-.083-.336-.298-1.248-.96-4.125-.368-2.301-.102-1.014-.077-.883a2.56 2.56 0 0 1 .176-1.28c.077-.144.184-.269.314-.368zm-6.531-5.622a4.93 4.93 0 0 0-.422.569 4.02 4.02 0 0 0-.534 1.834 8.42 8.42 0 0 0 .435 2.822l.998 3.389 1.795 6.167.528 1.872.138.512c.019.058.033.118.042.179a.75.75 0 0 1-.067-.173l-.16-.506-.57-1.859-1.827-6.157-.992-3.392a8.36 8.36 0 0 1-.41-2.86 3.88 3.88 0 0 1 .582-1.853 2.15 2.15 0 0 1 .464-.544z"/><path d="M86.061 139.845a1.06 1.06 0 0 1-.077-.17l-.202-.492c-.166-.429-.381-1.063-.602-1.86l-.64-2.825-.662-3.488-.829-3.443c-.272-.925-.613-1.828-1.021-2.701a14.2 14.2 0 0 0-.96-1.703l-.294-.441a.7.7 0 0 1-.096-.157c.043.045.082.093.118.144l.32.426a12.45 12.45 0 0 1 .986 1.692c.422.872.775 1.776 1.053 2.704a34.36 34.36 0 0 1 .845 3.453l.64 3.488.624 2.826.563 1.869.176.502a.65.65 0 0 1 .058.176zm-6.381-11.427c0 .035-.182.112-.426.17s-.448.079-.458.044.182-.108.426-.169.458-.08.458-.045zm-.374-2.39a1.79 1.79 0 0 1-.592.064c-.198.028-.399.021-.595-.02a2.01 2.01 0 0 1 1.187-.044zm.393-2.183c-.022.026-.214-.096-.426-.275s-.365-.349-.342-.374.214.096.426.275.365.346.342.374z"/><path d="M80.768 121.82c.035 0 .026.179.019.384s0 .377-.042.384-.093-.167-.086-.387.074-.391.109-.381zm2.186.953c.029.019-.058.192-.192.384s-.269.32-.298.32.058-.195.192-.387.269-.339.298-.317zm1.417 2.461c0 .035-.17.141-.406.237s-.442.147-.454.115.17-.137.406-.233.442-.151.454-.119zm.861 2.535c-.158.133-.352.218-.557.243-.195.065-.405.073-.605.022a2.2 2.2 0 0 1 .576-.147 2.44 2.44 0 0 1 .586-.118zm-3.952-.724c-.035 0 0-.186.054-.39s.144-.362.176-.352 0 .185-.054.39-.141.368-.176.352zm.554 3.201a1.24 1.24 0 0 1 .157-.528c.122-.276.246-.49.278-.477-.012.186-.067.367-.16.528-.118.265-.243.477-.275.477zm-1.363.857a1.32 1.32 0 0 1-.502-.112c-.269-.083-.486-.16-.48-.195a.96.96 0 0 1 .512.089c.282.071.486.186.47.218zm.787 2.595c.019.029-.131.17-.336.32s-.39.243-.41.214.128-.173.32-.32.403-.246.426-.214zm.627 2.586c0 .035-.176.109-.413.166s-.438.077-.448.042.179-.109.416-.167.438-.076.445-.041zm3.414-6.359c.019.029-.141.157-.371.243s-.435.096-.442.061.176-.099.397-.182.4-.147.416-.122zm.49 4.029c0 .032-.205-.026-.422-.128s-.384-.211-.368-.243.205.025.422.128.381.211.368.243zm.861 2.88c-.195-.01-.386-.061-.56-.15a1.35 1.35 0 0 1-.509-.269 1.26 1.26 0 0 1 .557.15c.294.116.525.234.512.269zm-4.627 2.256c-.016-.035.214-.189.48-.397s.47-.396.496-.371-.141.256-.416.471c-.157.147-.35.25-.56.297zm2.278-1.465c-.038 0-.086-.189-.176-.413s-.179-.403-.147-.426.176.135.269.378.09.457.054.461zm-.605-3.463c-.019.029-.166-.042-.32-.157s-.275-.233-.256-.262.17.041.32.157.278.233.256.262zm5.309-5.427c.019.029-.125.169-.32.32s-.378.24-.397.211.122-.17.32-.32.374-.24.397-.211zm.8 2.186c0 .035-.224.083-.499.051s-.486-.122-.477-.154.227 0 .49.026a1.46 1.46 0 0 1 .486.077zm-3.44.492c0 .032-.198.109-.467.125s-.483-.029-.48-.064.214-.048.47-.064.47-.032.477.003zm.294-2.067c0 .032-.211.038-.442-.067s-.362-.269-.336-.292.182.08.39.173.394.147.387.186zm3.44 3.923c-.019.029-.234-.07-.48-.227s-.432-.304-.413-.32.234.071.48.224.432.295.413.323z"/></g><g class="C"><path d="M98.486 139.404H80.144v3.251h18.342v-3.251z"/><path d="M81.514 142.012l2.23 9.715h10.934l2.438-9.715H81.514z"/></g><path d="M98.477 142.661c0 .036-4.138.064-9.238.064s-9.242-.028-9.242-.064 4.138-.067 9.242-.067l9.238.067zm-10.202-11.177c-.029.019-.154-.128-.278-.32s-.202-.378-.17-.394.154.125.278.32.214.375.17.394zm.007 2.601a1.06 1.06 0 0 1 .096-.493c.09-.262.186-.464.221-.454a1.06 1.06 0 0 1-.096.496c-.086.272-.182.477-.221.451zm.896 2.758c-.032.016-.17-.204-.304-.489a1.35 1.35 0 0 1-.192-.547 1.37 1.37 0 0 1 .32.492 1.3 1.3 0 0 1 .176.544zm-1.936 2.212c-.029-.026.083-.195.243-.381s.32-.32.342-.294-.083.192-.243.377-.317.32-.343.298zm-.407-4.01c0 .035-.182.035-.394 0s-.381-.096-.374-.131.182-.032.397 0 .378.093.371.131z" class="B"/><path d="M37.021 46.207l-2.141-3.798c1.332-2.163 1.806-4.746 1.33-7.242s-1.868-4.722-3.903-6.243-4.565-2.226-7.093-1.976-4.871 1.436-6.569 3.325-2.628 4.346-2.607 6.886.992 4.981 2.721 6.842 4.092 3.008 6.624 3.216 5.05-.539 7.059-2.094l4.579 1.085z" class="E"/><path d="M37.021 46.207l-4.608-1.04c-.011-.003-.02-.01-.025-.02s-.007-.021-.004-.032V45.1l.058.058a10.13 10.13 0 0 1-4.88 2.061 8.9 8.9 0 0 1-1.6.083c-.275 0-.56-.022-.845-.045l-.858-.131a10.24 10.24 0 0 1-6.365-4.08c-.849-1.174-1.436-2.516-1.722-3.936-.298-1.505-.259-3.056.115-4.544.39-1.539 1.138-2.964 2.182-4.16a10.24 10.24 0 0 1 3.93-2.819c1.449-.572 3.007-.811 4.56-.701 1.471.101 2.901.524 4.189 1.242a10.33 10.33 0 0 1 4.832 5.946c.315 1.075.464 2.192.442 3.312a10.14 10.14 0 0 1-1.523 5.046v-.042l2.122 3.818-2.192-3.776c-.003-.007-.005-.014-.005-.021s.002-.014.005-.021a10.09 10.09 0 0 0 1.478-5.008 10.95 10.95 0 0 0-.451-3.27 10.21 10.21 0 0 0-4.781-5.853 9.92 9.92 0 0 0-4.125-1.213 10.29 10.29 0 0 0-4.48.694 10.07 10.07 0 0 0-3.859 2.758c-1.034 1.182-1.771 2.594-2.15 4.118-.373 1.459-.422 2.981-.141 4.461.282 1.397.858 2.718 1.69 3.875a10.14 10.14 0 0 0 6.262 4.042l.851.131.832.048a9.01 9.01 0 0 0 1.6-.074c1.764-.232 3.435-.925 4.845-2.01.019-.012.025-.013.03-.013.022.006.026.009.03.013s.007.017.007.026-.003.018-.007.026l-.026-.064 4.586 1.13z" class="B"/><path d="M22.083 37.455l1.165-1.165 2.246 1.997 4.41-4.243 1.082 1.165-5.658 5.325-3.245-3.078z" class="C"/><g class="B"><path d="M161.405 104.482c.258-.081.53-.109.8-.083l-.083.083v-.157-.15c0-.054 0-.182.019-.253 0-.147.035-.237.057-.237s.045.09.058.237c0 .071.016.157.019.253v.15.157l-.083.083c-.265.027-.533-.002-.787-.083z"/><use xlink:href="#B"/><use xlink:href="#C"/><use xlink:href="#C" x="-3.146"/><use xlink:href="#B" x="-9.437"/><use xlink:href="#D"/><path d="M142.534 104.482a3.75 3.75 0 0 1 1.572 0 3.75 3.75 0 0 1-1.572 0z"/><use xlink:href="#D" x="-6.291"/><path d="M136.243 104.482c.518-.111 1.054-.111 1.571 0-.517.111-1.053.111-1.571 0zm-3.145 0c.517-.111 1.053-.111 1.571 0-.518.111-1.054.111-1.571 0z"/><use xlink:href="#C" x="-25.162"/><use xlink:href="#B" x="-31.453"/><use xlink:href="#C" x="-31.453"/><use xlink:href="#B" x="-37.744"/><use xlink:href="#D" x="-28.307"/><use xlink:href="#D" x="-31.44"/><use xlink:href="#D" x="-34.598"/><use xlink:href="#D" x="-37.744"/><use xlink:href="#B" x="-53.469"/><use xlink:href="#C" x="-53.469"/><path d="M98.499 104.482c.519-.111 1.055-.111 1.575 0-.519.111-1.056.111-1.575 0zm-3.139 0c.519-.111 1.055-.111 1.575 0-.519.111-1.055.111-1.575 0z"/><use xlink:href="#E"/><use xlink:href="#E" x="-3.145"/><use xlink:href="#E" x="-6.291"/><path d="M83.546 103.685c.083.258.111.531.083.8l-.083-.083h.32l.253.019c.144.016.234.036.234.058s-.09.045-.234.061l-.253.016h-.15-.163l-.083-.083a2.04 2.04 0 0 1 .077-.788zm0-2.88c.11.476.11.971 0 1.447a3.2 3.2 0 0 1 0-1.447z"/><use xlink:href="#F"/><path d="M83.546 94.997a3.2 3.2 0 0 1 0 1.45 3.2 3.2 0 0 1 0-1.45z"/><use xlink:href="#F" y="-5.788"/><use xlink:href="#F" y="-8.684"/><path d="M84.346 86.962a2.02 2.02 0 0 1-.8.083l.083-.083v.157.15c0 .096 0 .182-.016.256 0 .144-.038.234-.061.234s-.042-.09-.058-.234c0-.074 0-.16-.019-.256s0-.102 0-.15v-.157l.083-.083c.265-.026.533.002.787.083z"/><use xlink:href="#G"/><use xlink:href="#G" x="3.146"/><use xlink:href="#G" x="6.291"/><use xlink:href="#H"/><use xlink:href="#I"/><use xlink:href="#H" x="6.291"/><use xlink:href="#I" x="6.291"/><use xlink:href="#G" x="22.016"/><use xlink:href="#G" x="25.149"/><use xlink:href="#G" x="28.307"/><use xlink:href="#G" x="31.453"/><use xlink:href="#I" x="22.016"/><use xlink:href="#H" x="28.307"/><use xlink:href="#I" x="28.307"/><use xlink:href="#H" x="34.592"/><use xlink:href="#G" x="47.178"/><use xlink:href="#G" x="50.323"/><use xlink:href="#G" x="53.469"/><path d="M144.106 86.962c-.518.111-1.054.111-1.572 0 .518-.111 1.054-.111 1.572 0z"/><use xlink:href="#G" x="59.76"/><use xlink:href="#H" x="53.472"/><use xlink:href="#H" x="56.614"/><use xlink:href="#H" x="59.76"/><use xlink:href="#I" x="59.76"/><path d="M162.205 87.762c-.081-.258-.11-.53-.083-.8l.083.083h-.32c-.096 0-.183 0-.256-.019-.144-.016-.234-.035-.234-.058s.09-.045.234-.061l.256-.016h.15.16c.039.035-.083-.083.083.083.028.265.003.532-.073.787z"/><use xlink:href="#J"/><use xlink:href="#J" y="2.896"/><path d="M162.205 96.447c-.111-.477-.111-.973 0-1.45.111.477.111.973 0 1.45z"/><use xlink:href="#J" y="8.685"/><path d="M162.205 102.236c-.111-.476-.111-.971 0-1.447.11.476.11.971 0 1.447z"/></g><path d="M162.205 62.383H83.622v20.694h78.583V62.383z" class="E"/><g class="B"><path d="M162.205 83.077v-.358-1.043-4.051l-.029-15.242.051.051-78.576.032.083-.083v20.694l-.083-.083 56.106.038 16.496.022h4.435 1.152.394-.384-1.14-4.419l-16.477.026-56.163.035h-.08v-.08-20.694-.083h.09l78.576.032h.051v.051l-.029 15.27v4.038 1.037c0 .234-.054.39-.054.39z"/><use xlink:href="#K"/><use xlink:href="#K" y="2.912"/><use xlink:href="#K" y="5.824"/><use xlink:href="#K" y="8.736"/><path d="M89.92 77.106c-.875.102-1.759.102-2.634 0 .875-.107 1.759-.107 2.634 0zm0 2.9c-.875.107-1.759.107-2.634 0 .875-.102 1.759-.102 2.634 0z"/></g><path d="M100.451 80.006c0 .045-1.529.08-3.414.08s-3.414-.035-3.414-.08 1.53-.077 3.414-.077l3.414.077z" class="C"/><path d="M100.451 77.106c0 .042-1.529.077-3.414.077s-3.414-.035-3.414-.077 1.53-.08 3.414-.08l3.414.08z" class="D"/><path d="M109.958 65.442c0 .045-2.86.08-6.4.08s-6.4-.035-6.4-.08 2.861-.08 6.4-.08l6.4.08z" class="C"/><path d="M124.73 65.442c0 .045-2.861.08-6.4.08s-6.4-.035-6.4-.08 2.86-.08 6.4-.08l6.4.08zm-5.645 2.912c0 .042-4.215.08-9.411.08s-9.415-.038-9.415-.08 4.215-.08 9.415-.08l9.411.08zm0 2.912c0 .042-4.215.077-9.411.077s-9.415-.035-9.415-.077 4.215-.08 9.415-.08l9.411.08zm7.366 2.909c0 .045-4.214.08-9.411.08s-9.414-.035-9.414-.08 4.214-.077 9.414-.077l9.411.077zm23.005 0c0 .045-4.214.08-9.411.08s-9.415-.035-9.415-.08 4.215-.077 9.415-.077l9.411.077z" class="B"/><path d="M141.456 68.354c0 .042-4.214.08-9.411.08s-9.415-.038-9.415-.08 4.215-.08 9.415-.08l9.411.08z" class="E"/><path d="M151.862 71.266c0 .042-6.544.077-14.614.077s-14.618-.035-14.618-.077 6.544-.08 14.618-.08l14.614.08zm-48.028 2.909c0 .045-1.53.08-3.415.08s-3.414-.035-3.414-.08 1.53-.077 3.414-.077l3.415.077z" class="D"/><path d="M158.554 74.175c0 .045-1.53.08-3.415.08s-3.414-.035-3.414-.08 1.529-.077 3.414-.077l3.415.077z" class="C"/><path d="M162.205 11.304H83.898v27.808h78.307V11.304z" class="E"/><g class="B"><path d="M162.205 39.113v-.49-1.424-5.491l-.029-20.403.054.054-78.304.029.083-.083v27.808l-.08-.083 56.08.038 16.32.022h4.374 1.133.387-.378-1.123-4.358l-16.32.022-56.135.038h-.083V11.205h.086l78.304.029h.057v.058l-.035 20.451v5.478 1.414c0 .32-.035.477-.035.477z"/><path d="M162.211 17.234c0 .045-17.51.083-39.104.083s-39.11-.032-39.11-.083 17.507-.083 39.11-.083l39.104.083z"/><use xlink:href="#L"/><use xlink:href="#L" x="2.576"/><use xlink:href="#L" x="4.963"/><path d="M90.522 23.321a10.04 10.04 0 0 1-2.534 0 10.08 10.08 0 0 1 2.534 0zm.096-2.701a10.05 10.05 0 0 1-2.531 0 10.05 10.05 0 0 1 2.531 0zm-.096 5.625a10.04 10.04 0 0 1-2.522 0 10.04 10.04 0 0 1 2.534 0h-.013zm0 2.9a10.53 10.53 0 0 1-2.534 0 10.04 10.04 0 0 1 2.534 0zm0 2.912a10.53 10.53 0 0 1-2.534 0 10.04 10.04 0 0 1 2.534 0zm0 2.909a10.08 10.08 0 0 1-2.534 0 10.53 10.53 0 0 1 2.534 0z"/></g><g class="C"><use xlink:href="#M"/><path d="M109.827 29.145c0 .042-2.752.077-6.147.077s-6.15-.035-6.15-.077 2.752-.08 6.15-.08l6.147.08z"/></g><path d="M124.048 29.145c0 .042-2.752.077-6.147.077s-6.151-.035-6.151-.077 2.752-.08 6.151-.08l6.147.08zm-5.434 2.911c0 .042-4.057.077-9.062.077s-9.062-.035-9.062-.077 4.054-.08 9.062-.08l9.062.08zm0 2.91c0 .045-4.057.08-9.062.08s-9.062-.035-9.062-.08 4.054-.077 9.062-.077l9.062.077zm21.546-2.91c0 .042-4.058.077-9.062.077s-9.063-.035-9.063-.077 4.058-.08 9.063-.08l9.062.08z" class="B"/><path d="M150.173 34.966c0 .045-6.301.08-14.08.08s-14.08-.035-14.08-.08 6.297-.077 14.08-.077l14.08.077z" class="D"/><g class="B"><use xlink:href="#M" y="3.097"/><path d="M92.691 37.029c-.048 0-.083-4.16-.083-9.261l.083-9.258c.048 0 .083 4.16.083 9.258l-.083 9.261z"/></g><path d="M104.96 40.402c0 .042-1.472.077-3.286.077s-3.287-.035-3.287-.077 1.453-.077 3.283-.077l3.29.077z" class="E"/><g class="B"><path d="M161.405 58.492c.258-.083.53-.111.8-.083l-.083.083v-.157-.15c0-.054 0-.182.019-.253 0-.144.035-.234.057-.234s.045.09.058.234c0 .07.016.157.019.253v.15.157c-.038.035.083-.083-.083.083a2.02 2.02 0 0 1-.787-.083z"/><use xlink:href="#N"/><use xlink:href="#N" x="-3.254"/><use xlink:href="#O"/><path d="M148.39 58.492a4.01 4.01 0 0 1 1.626 0 4.01 4.01 0 0 1-1.626 0zm-3.254 0a4.01 4.01 0 0 1 1.626 0 4.01 4.01 0 0 1-1.626 0z"/><use xlink:href="#O" x="-9.763"/><use xlink:href="#N" x="-19.523"/><use xlink:href="#N" x="-22.79"/><use xlink:href="#O" x="-19.523"/><path d="M128.867 58.492c.536-.111 1.09-.111 1.626 0-.536.111-1.09.111-1.626 0z"/><use xlink:href="#O" x="-26.032"/><use xlink:href="#N" x="-35.792"/><use xlink:href="#N" x="-39.046"/><use xlink:href="#N" x="-42.31"/><path d="M112.598 58.492a4.01 4.01 0 0 1 1.626 0 4.01 4.01 0 0 1-1.626 0zm-3.254 0a4.01 4.01 0 0 1 1.626 0 4.01 4.01 0 0 1-1.626 0z"/><use xlink:href="#O" x="-45.555"/><use xlink:href="#N" x="-55.315"/><use xlink:href="#N" x="-58.569"/><use xlink:href="#N" x="-61.83"/><use xlink:href="#P"/><use xlink:href="#P" x="-3.254"/><use xlink:href="#P" x="-6.509"/><path d="M84.141 57.692a2.02 2.02 0 0 1 .083.8l-.083-.083h.16.15l.253.016c.147 0 .237.035.237.061s-.09.042-.237.058l-.253.019h-.32l-.083-.083c-.023-.266.008-.534.093-.787zm0-3.287a4.07 4.07 0 0 1 0 1.638 4.07 4.07 0 0 1 0-1.638zm0-3.264c.111.539.111 1.096 0 1.635a4.06 4.06 0 0 1 0-1.635zm0-3.276a4.07 4.07 0 0 1 0 1.638 4.07 4.07 0 0 1 0-1.638zm0-3.274c.111.539.111 1.096 0 1.635a4.06 4.06 0 0 1 0-1.635zm.8-2.438a2.02 2.02 0 0 1-.8.083l.083-.083v.301c0 .096 0 .182-.019.256-.016.144-.035.234-.058.234s-.045-.09-.061-.234c0-.074 0-.16-.016-.256v-.15-.15l.083-.083a2.02 2.02 0 0 1 .787.083z"/><use xlink:href="#Q"/><use xlink:href="#Q" x="3.254"/><use xlink:href="#Q" x="6.509"/><use xlink:href="#R"/><use xlink:href="#R" x="3.255"/><use xlink:href="#R" x="6.509"/><use xlink:href="#S"/><path d="M110.97 42.153c-.537.111-1.09.111-1.626 0 .536-.111 1.089-.111 1.626 0z"/><use xlink:href="#T"/><path d="M117.478 42.153c-.537.111-1.091.111-1.628 0 .537-.111 1.091-.111 1.628 0z"/><use xlink:href="#R" x="22.778"/><use xlink:href="#R" x="26.032"/><use xlink:href="#S" x="19.523"/><path d="M130.493 42.153c-.536.111-1.09.111-1.626 0 .536-.111 1.09-.111 1.626 0z"/><use xlink:href="#T" x="19.52"/><use xlink:href="#R" x="39.047"/><use xlink:href="#R" x="42.301"/><use xlink:href="#S" x="35.792"/><path d="M146.762 42.153c-.537.111-1.09.111-1.626 0 .536-.111 1.089-.111 1.626 0z"/><use xlink:href="#T" x="35.776"/><use xlink:href="#T" x="39.04"/><use xlink:href="#R" x="58.57"/><use xlink:href="#R" x="61.824"/><path d="M162.205 42.952c-.081-.258-.11-.53-.083-.8l.083.083h-.32c-.096 0-.183 0-.256-.019-.144 0-.234-.035-.234-.058s.09-.045.234-.058c.073 0 .16-.016.256-.019h.15.16l.083.083c.028.265.003.532-.073.787zm0 3.274c-.111-.539-.111-1.096 0-1.635.111.539.111 1.096 0 1.635zm0 3.277a4.07 4.07 0 0 1 0-1.638 4.07 4.07 0 0 1 0 1.638zm0 3.274c-.111-.54-.111-1.096 0-1.635.111.539.111 1.096 0 1.635zm0 3.276a4.07 4.07 0 0 1 0-1.638 4.07 4.07 0 0 1 0 1.638z"/></g><path d="M91.469 81.858c-.048 0-.083-4.09-.083-9.13l.083-9.126c.048 0 .083 4.086.083 9.126l-.083 9.13zm96.793 59.395l.144 10.365-12.896.247c.055-1.232 6.679-3.84 6.679-3.84l-.365-6.637 6.438-.135z" class="D"/><path d="M186.163 147.397a.53.53 0 0 1 .303.226c.07.109.096.241.075.369-.031.126-.109.235-.218.305a.51.51 0 0 1-.368.073c-.133-.038-.248-.125-.321-.244s-.098-.259-.072-.396c.046-.124.138-.227.257-.286a.53.53 0 0 1 .383-.034" class="F"/><g class="B"><path d="M188.406 151.58v-1.05l-12.406.711s-.566.265-.493.665l12.899-.326zm-6.428-3.61c0 .064.32.087.64.282s.483.457.54.432-.044-.387-.428-.618-.768-.153-.752-.096zm-1.341.586c0 .061.259.163.48.425s.285.541.349.538.096-.362-.183-.682-.646-.352-.646-.281zm-.739 1.632c.057 0 .14-.304-.029-.64s-.464-.474-.49-.423.16.234.295.519.166.54.224.544zm2.163-3.741c.029.058.32-.035.672-.016s.64.125.669.071-.24-.276-.66-.292-.71.189-.681.237zm.278-1.533a1.24 1.24 0 0 0 .64 0c.232-.046.458-.12.672-.221a3.07 3.07 0 0 0 .368-.204c.072-.042.137-.095.192-.157a.28.28 0 0 0 .064-.156c.004-.058-.011-.115-.041-.164s-.074-.08-.123-.104-.102-.037-.156-.037a.84.84 0 0 0-.243.039c-.136.037-.269.086-.397.147-.216.101-.415.236-.589.4-.294.284-.39.521-.371.531s.173-.179.471-.413a2.69 2.69 0 0 1 .572-.336 2.4 2.4 0 0 1 .368-.121c.135-.039.25-.042.288.019s0 .032 0 .073a.68.68 0 0 1-.14.112c-.11.074-.223.141-.34.202a3.81 3.81 0 0 1-.617.253 4.21 4.21 0 0 0-.618.137z"/><path d="M182.426 145.001a1.04 1.04 0 0 0 .156-.64 2.1 2.1 0 0 0-.102-.704 2.15 2.15 0 0 0-.17-.391.53.53 0 0 0-.168-.214c-.073-.056-.159-.093-.251-.106-.057.002-.113.02-.16.053s-.084.079-.105.133c-.032.076-.054.155-.064.237a1.51 1.51 0 0 0 0 .435c.04.241.139.468.288.662.259.32.521.4.528.378s-.202-.151-.4-.467a1.45 1.45 0 0 1-.218-.602 1.3 1.3 0 0 1 0-.374c.016-.138.067-.25.118-.237a.48.48 0 0 1 .231.208 2.48 2.48 0 0 1 .166.349c.075.206.122.421.138.64.038.393-.013.63.013.64z"/></g><path d="M193.53 141.253l-.144 10.365 12.896.247c-.052-1.232-6.676-3.84-6.676-3.84l.365-6.637-6.441-.135z" class="D"/><path d="M195.629 147.397a.52.52 0 0 0-.303.225c-.069.11-.095.242-.072.37.031.126.108.235.217.305s.239.096.366.073a.56.56 0 0 0 .322-.243c.073-.119.1-.26.075-.397-.047-.124-.139-.226-.258-.285s-.255-.072-.382-.035" class="F"/><g class="B"><path d="M193.386 151.58v-1.05l12.39.711s.57.265.493.665l-12.883-.326zm6.428-3.61c0 .064-.32.087-.64.282s-.483.457-.54.432.041-.387.425-.618.771-.153.755-.096zm1.344.586c0 .061-.262.163-.483.425s-.285.541-.345.538-.096-.362.182-.682.646-.352.646-.281zm.736 1.632c-.057 0-.137-.304.029-.64s.467-.474.493-.423-.16.234-.294.519-.164.54-.228.544zm-2.163-3.741c-.029.058-.32-.035-.672-.016s-.64.125-.669.071.24-.276.66-.292.713.189.681.237zm-.278-1.533a1.24 1.24 0 0 1-.64 0 2.99 2.99 0 0 1-.672-.221c-.126-.059-.248-.128-.365-.204-.073-.041-.139-.094-.195-.157-.037-.044-.059-.099-.063-.156s.01-.115.04-.164.075-.08.124-.104a.36.36 0 0 1 .158-.037.89.89 0 0 1 .24.039 2.4 2.4 0 0 1 .4.147 2.23 2.23 0 0 1 .586.4c.294.284.393.521.371.531s-.17-.179-.471-.413c-.175-.134-.367-.247-.569-.336-.12-.049-.243-.09-.368-.121-.138-.039-.253-.042-.288.019s0 .032 0 .073a.66.66 0 0 0 .141.112 2.99 2.99 0 0 0 .336.202 3.84 3.84 0 0 0 .62.253 4.17 4.17 0 0 1 .615.137z"/><path d="M199.36 145.001c-.122-.19-.179-.415-.16-.64-.006-.239.029-.477.102-.704.045-.136.103-.267.173-.391a.53.53 0 0 1 .166-.215c.073-.056.159-.092.25-.105.058.004.113.024.16.056s.085.078.109.13a.92.92 0 0 1 .061.237 1.44 1.44 0 0 1 0 .435 1.46 1.46 0 0 1-.288.662c-.256.32-.522.4-.525.378s.198-.151.4-.467a1.49 1.49 0 0 0 .214-.602 1.3 1.3 0 0 0 0-.374c-.019-.138-.067-.25-.118-.237s-.176.099-.23.208a1.93 1.93 0 0 0-.167.349 2.26 2.26 0 0 0-.137.64c-.029.393.035.63-.01.64z"/><path d="M204.454 81.266l-19.84 2.003v1.504l-1.744 3.008s-1.804 1.805-.515 5.158v2.15a25.33 25.33 0 0 1-.464 2.579c-.32 1.28-.32 49.437-.32 49.437l7.514.541 5.2-48.602-1.088 48.087 7.728-.224 6.537-56.96-3.008-8.682z"/></g><path d="M194.336 100.216a2.38 2.38 0 0 1-.045-.476l-.073-1.296-.298-4.278-.234-4.288v-1.302a2.27 2.27 0 0 1 .036-.48 1.91 1.91 0 0 1 .048.477l.073 1.299.298 4.278.233 4.288v1.302c.008.16-.005.32-.038.476zm4.413-15.756c-.064 0-.023-.579-.125-1.28l-.24-1.254c.058-.026.349.496.451 1.222s-.032 1.338-.086 1.312zm1.68-.56c-.058 0-.147-.448-.199-1.014s-.048-1.03 0-1.037.148.451.199 1.018.057 1.03 0 1.034zm-13.059 1.587c-.055.016-.231-.515-.173-1.187s.32-1.168.368-1.146-.106.525-.154 1.162.019 1.158-.041 1.171zm1.67-.281c-.061 0-.09-.483-.064-1.078s.09-1.069.15-1.066.087.483.061 1.075-.089 1.072-.147 1.069zm-3.997.466c.048.029-.393.781-1.126 1.562s-1.45 1.28-1.482 1.235.608-.608 1.325-1.379l1.283-1.418zm22.451 3.757c-.301-.132-.581-.31-.828-.528a9.96 9.96 0 0 1-2.941-3.693 3.32 3.32 0 0 1-.32-.928c.064-.032.592 1.386 1.741 2.819s2.393 2.275 2.348 2.33zm-12.345-5.689s.048-.048.153-.061c.156-.009.311.035.439.125.096.068.175.158.23.262s.086.219.09.337a.72.72 0 0 1-.506.666.72.72 0 0 1-.816-.202c-.07-.096-.116-.207-.135-.324a.76.76 0 0 1 .023-.351.66.66 0 0 1 .263-.371c.092-.058.153-.058.156-.048s-.211.125-.272.454a.65.65 0 0 0 .004.27.64.64 0 0 0 .115.245.58.58 0 0 0 .581.112c.098-.035.185-.096.251-.175a.58.58 0 0 0 .128-.279.66.66 0 0 0-.064-.262.64.64 0 0 0-.167-.212.92.92 0 0 0-.473-.186z" class="D"/><g class="C"><path d="M185.782 53.276s-2.771.262-3.596 2.627c-.56 1.6-2.928 11.885-2.928 11.885l-7.866.902v1.715s6.045 5.469 8.445 5.51 2.973-.886 3.904-1.6 2.041-21.04 2.041-21.04z"/><path d="M206.08 78.376l-1.344-14 .102-5.293.055-5.181-8.365-3.36-5.808.749-5.61 2.122.17 14.608-1.434 8.96s-.611 4.8-.166 5.501a2.77 2.77 0 0 0 .864.848l19.84-2.003.301-.182c.471-.282.851-.692 1.098-1.182a2.9 2.9 0 0 0 .297-1.586z"/></g><path d="M199.501 36.684c-.042-1.059-.522-2.49-1.367-3.13-.55-.419-1.34-.134-1.99-.378-.829-.32-1.456-1.28-2.24-1.702s-1.747-.707-2.534-.294c-.381.198-.682.541-1.079.704-.464.192-.995.118-1.478.243a1.88 1.88 0 0 0-1.064.823c-.24.397-.325.868-.239 1.324a1.62 1.62 0 0 0-1.18 1.632c.016.365.155.714.394.991s.565.464.924.532c.576.109 1.226-.09 1.728.218s.621 1.062.55 1.683-.243 1.28-.028 1.853l8.422 1.6c.352-.662.573-1.648.848-2.362.454-1.133.381-2.515.333-3.738z" class="B"/><path d="M198.08 41.941c.051-.026 2.192-.691 2.16 1.504S198 45.154 198 45.09l.08-3.149z" class="J"/><path d="M198.688 44.271s.038.026.102.058a.38.38 0 0 0 .285 0 .96.96 0 0 0 .451-.842c.007-.188-.027-.376-.099-.55a.44.44 0 0 0-.107-.183.45.45 0 0 0-.178-.115c-.043-.012-.09-.008-.132.01s-.075.051-.095.092c-.029.061-.016.106-.029.109s-.044-.038-.025-.128a.24.24 0 0 1 .086-.138.29.29 0 0 1 .211-.051c.09.019.174.061.244.121a.54.54 0 0 1 .153.224c.09.192.131.403.122.614.008.195-.042.388-.143.555s-.25.3-.427.383a.4.4 0 0 1-.182.009c-.06-.011-.117-.036-.167-.073-.067-.045-.08-.093-.07-.096z" class="K"/><path d="M186.963 46.405c-.048-1.549.119-4.746.301-7.635.095-1.499.75-2.908 1.835-3.946a5.98 5.98 0 0 1 4.024-1.657h.32c3.341.134 5.091 3.05 4.861 6.4l-.288 11.606-.477.32a6.61 6.61 0 0 1-7.229-.032l-.025-1.373s-3.226-.464-3.322-3.683z" class="J"/><path d="M190.272 50.066c1.481.003 2.93-.436 4.16-1.261 0 0-.925 2.362-4.131 2.128l-.029-.867z" class="K"/><path d="M187.917 41.311c0 .119.047.234.131.319a.45.45 0 0 0 .317.135.44.44 0 0 0 .172-.024.45.45 0 0 0 .253-.227c.025-.053.039-.11.042-.168a.46.46 0 0 0-.133-.319c-.084-.085-.198-.133-.318-.135-.058-.004-.117.004-.172.023s-.106.049-.149.088-.078.087-.103.139-.038.11-.04.169zm4.633.182a.46.46 0 0 0 .452.454.44.44 0 0 0 .32-.114.43.43 0 0 0 .102-.139c.025-.053.039-.11.042-.168-.001-.119-.048-.233-.132-.318a.46.46 0 0 0-.316-.136.44.44 0 0 0-.173.023.43.43 0 0 0-.15.089c-.044.039-.079.087-.104.141s-.039.111-.041.17zm-4.598-1.244c.058.058.4-.205.893-.211s.857.234.912.17-.035-.131-.195-.243c-.216-.144-.471-.218-.73-.211a1.23 1.23 0 0 0-.71.243c-.148.118-.199.227-.17.253zm4.717.028c.061.058.387-.227.88-.266s.87.176.918.112-.041-.131-.208-.234a1.28 1.28 0 0 0-.742-.163 1.2 1.2 0 0 0-.695.288c-.14.128-.182.24-.153.262zm-1.568 3.757a3.14 3.14 0 0 0-.803-.131c-.125 0-.247-.035-.269-.122a.64.64 0 0 1 .08-.374l.355-.96.79-2.521c-.057-.019-.499 1.078-.992 2.451l-.339.96c-.076.154-.097.329-.057.496.019.044.048.083.085.114a.33.33 0 0 0 .126.066.78.78 0 0 0 .214.029 3.49 3.49 0 0 0 .81-.006zm1.456.314c-.08 0-.071.531-.522.918s-1.021.339-1.024.416.128.102.368.102c.315-.001.619-.115.858-.32a1.15 1.15 0 0 0 .403-.771c.016-.208-.045-.349-.083-.346zm.131-6.157c.061.128.544 0 1.126.026s1.066.122 1.13 0c.029-.061-.067-.179-.266-.288a1.89 1.89 0 0 0-.857-.205 1.86 1.86 0 0 0-.861.189c-.205.102-.301.218-.272.278zm-4.666.493c.087.112.426 0 .832-.022s.756.061.836-.058c.032-.058-.023-.17-.176-.272a1.22 1.22 0 0 0-.683-.169 1.21 1.21 0 0 0-.661.236c-.141.115-.189.234-.148.285zm2.746-5.76c1.117-.486 2.272-.291 3.485-.16a5.52 5.52 0 0 1 2.509.867 4.81 4.81 0 0 1 1.459 1.562 4.8 4.8 0 0 1 .637 2.041 14.15 14.15 0 0 1-.298 4.573l-.118-.022c.102.445.208.922-.048 1.338-.067.125-.174.224-.303.282a.64.64 0 0 1-.411.038c-.458-.134-.493-.717-.474-1.174a26.55 26.55 0 0 0-.108-4.096c-.103-1.104-.599-2.333-1.482-2.829a3.84 3.84 0 0 0-3.894.08 1.18 1.18 0 0 1-1.239.039c-.857-.509-1.577-.477-2.093.198.196-1.216 1.258-2.25 2.378-2.736z" class="B"/><g class="D"><path d="M188.576 42.773s.08 0 .227-.032c.208-.029.409-.1.589-.208a1.64 1.64 0 0 0 .352-.272c.119-.125.221-.266.301-.419a1.6 1.6 0 0 0 .166-.557c.019-.202 0-.426 0-.64l.039.042h-3.76l.038-.042a6.14 6.14 0 0 0 .022.73 1.7 1.7 0 0 0 .231.611 1.67 1.67 0 0 0 .832.675c.225.083.464.12.704.109h.195.064-.064-.195a1.78 1.78 0 0 1-.723-.09 1.7 1.7 0 0 1-.871-.685 1.68 1.68 0 0 1-.246-.64 4.72 4.72 0 0 1-.029-.742v-.042h3.856v.074l-.016.662a1.64 1.64 0 0 1-.182.579c-.156.295-.394.539-.685.701a1.55 1.55 0 0 1-.611.192c-.057.004-.113.004-.17 0l-.064-.006zm5.318 0s.08 0 .224-.032a1.55 1.55 0 0 0 .589-.208 1.64 1.64 0 0 0 .352-.272 1.66 1.66 0 0 0 .301-.419 1.62 1.62 0 0 0 .16-.557c.019-.202 0-.426 0-.64l.042.042h-3.757l.041-.042a4.94 4.94 0 0 0 .023.73 1.6 1.6 0 0 0 .23.611 1.67 1.67 0 0 0 .829.675 1.83 1.83 0 0 0 .704.109h.195.067-.067-.195c-.245.02-.491-.01-.723-.09a1.71 1.71 0 0 1-.871-.685 1.68 1.68 0 0 1-.246-.64 5.26 5.26 0 0 1-.029-.742v-.042h3.84v.074.662a1.68 1.68 0 0 1-.179.579 1.92 1.92 0 0 1-.32.429c-.111.106-.234.197-.368.272a1.55 1.55 0 0 1-.611.192c-.057.004-.113.004-.17 0l-.061-.006z"/><path d="M191.776 41.135s-.067-.074-.189-.17a.94.94 0 0 0-.55-.205.92.92 0 0 0-.557.179c-.128.09-.186.173-.198.163.031-.084.087-.158.16-.211a.9.9 0 0 1 .598-.221.89.89 0 0 1 .589.246c.118.115.157.214.147.218zm7.046.81a3.14 3.14 0 0 1-.48-.093l-1.152-.24-1.161-.192a2.86 2.86 0 0 1-.48-.086c.162-.006.325.003.486.026l1.171.17 1.152.262a2.16 2.16 0 0 1 .464.154z"/></g><path d="M188.445 42.566a1.01 1.01 0 0 1-.41-.032c-.331-.073-.637-.232-.886-.461s-.421-.53-.496-.861a.93.93 0 0 1 0-.413s0 .157.077.397c.087.311.259.593.496.813a2.07 2.07 0 0 0 .838.464c.227.07.384.093.381.093z" class="F"/><path d="M199.472 36.325s-1.491 1.299-2.435 1.392a4.68 4.68 0 0 0-.256-.899 5.7 5.7 0 0 0-.791-1.213 4.68 4.68 0 0 0 3.162-.563 4.9 4.9 0 0 1 .32 1.283zm.035.522a3.01 3.01 0 0 1-2.387 1.51 10.09 10.09 0 0 0 1.28-.598c.391-.276.762-.581 1.107-.912z" class="G"/><path d="M194.013 41.976c.038.026-.211.336-.666.413-.131.037-.27.041-.403.012s-.257-.09-.362-.178a5.35 5.35 0 0 0 .736 0c.238-.065.47-.147.695-.246zm-5.091.048c-.106.065-.223.109-.346.129a.94.94 0 0 1-.368-.014c-.41-.051-.685-.253-.662-.291a6.23 6.23 0 0 1 .684.125 5.72 5.72 0 0 1 .692.051zm4.198 2.695c-.048 0-.067-.138-.115-.285s-.109-.266-.074-.298.173.061.231.246 0 .346-.042.336zm3.229 5.082c-.045 0-.048-.234-.048-.512s0-.506.054-.512.115.221.112.512-.073.522-.118.512z" class="K"/><path d="M155.997 60.245l49.414 30.23 10.157-15.683-49.443-30.16-10.128 15.613z" class="D"/><path d="M167.974 50.821a4.03 4.03 0 0 1-.838-.451 4.08 4.08 0 0 1-.781-.547 4.09 4.09 0 0 1 .839.451 3.95 3.95 0 0 1 .78.547zm1.085-1.587a3.87 3.87 0 0 1-.838-.448c-.279-.153-.54-.337-.778-.547a4.2 4.2 0 0 1 .839.451c.279.15.54.333.777.544zm-2.192 3.335a3.81 3.81 0 0 1-.838-.451 4.21 4.21 0 0 1-.778-.544 8.13 8.13 0 0 1 1.616.995zm-1.107 1.75a4.15 4.15 0 0 1-.838-.451 3.93 3.93 0 0 1-.778-.547 4.15 4.15 0 0 1 .838.451 3.95 3.95 0 0 1 .778.547zm-1.101 1.75a4.15 4.15 0 0 1-.838-.451c-.28-.151-.541-.335-.778-.547a4.2 4.2 0 0 1 .839.451c.279.152.54.335.777.547zm-1.104 1.75a4.09 4.09 0 0 1-.838-.451 3.87 3.87 0 0 1-.778-.547c.296.118.577.269.839.451.28.151.541.334.777.547zm-1.104 1.748a3.9 3.9 0 0 1-.838-.451 4.17 4.17 0 0 1-.781-.544 3.72 3.72 0 0 1 .842.451 4.19 4.19 0 0 1 .777.544z" class="G"/><path d="M174.522 54.725c0 .026-.96-.531-2.128-1.248l-2.071-1.341c.016-.026.96.531 2.128 1.245l2.071 1.344zm3.571 7.197c-.019.026-1.789-1.037-3.959-2.374l-3.894-2.47c.019-.029 1.786 1.037 3.955 2.374l3.898 2.47z" class="C"/><path d="M187.171 67.525c0 .026-1.789-1.037-3.955-2.374l-3.898-2.467c.016-.026 1.789 1.034 3.959 2.371l3.894 2.47zm-4.573-.393c-.019.026-2.62-1.552-5.817-3.52l-5.76-3.619c0-.029 2.621 1.552 5.817 3.52l5.76 3.619zm-1.107 1.75c0 .026-2.621-1.552-5.814-3.52l-5.76-3.616c0-.026 2.621 1.549 5.817 3.52l5.757 3.616zm3.427 4.541c-.019.026-2.624-1.549-5.817-3.52l-5.76-3.616c0-.026 2.621 1.549 5.817 3.52l5.76 3.616zm14.141 8.723c0 .026-2.621-1.552-5.817-3.52l-5.76-3.619c0-.029 2.62 1.552 5.817 3.52l5.76 3.619z" class="G"/><path d="M196.349 75.612c-.016.029-2.621-1.549-5.815-3.52l-5.76-3.616c0-.026 2.621 1.549 5.818 3.52l5.757 3.616z" class="E"/><path d="M201.645 81.308c-.019.026-4.055-2.432-9.018-5.494l-8.96-5.587c0-.026 4.051 2.432 9.015 5.494l8.963 5.587z" class="B"/><path d="M173.35 56.568c-.016.026-.96-.531-2.128-1.248l-2.067-1.341c.019-.026.96.531 2.128 1.245l2.067 1.344zm-2.339 8.279c0 .029-.96-.531-2.128-1.245l-2.067-1.344c.016-.029.96.534 2.128 1.248l2.067 1.341z" class="E"/><path d="M204.653 85.593c-.019.029-.96-.531-2.131-1.245l-2.068-1.341c.016-.026.96.531 2.128 1.245l2.071 1.341z" class="C"/><path d="M162.304 62.652c-.038-.022 1.946-3.142 4.432-6.963l4.573-6.874c.038.026-1.946 3.142-4.432 6.963l-4.573 6.874z" class="B"/><path d="M203.866 53.538s5.612 1.28 5.584 7.498c-.029 7.04 0 16.64-1.952 17.658-2.586 1.325-7.303.672-7.303.672l-.992-6.246 3.127-.832.201-13.533 1.335-5.216z" class="C"/><path d="M202.525 61.154c.026.145.036.292.032.438l.019 1.197v3.946l-.038 3.946-.032 1.197c.002.147-.008.294-.032.438-.027-.144-.038-.289-.032-.435l-.023-1.197v-3.949l.042-3.946.029-1.197a2.22 2.22 0 0 1 .035-.438z" class="B"/><path d="M185.6 77.944c-.074-.109 1.971-2.448 2.493-2.778s1.801-.083 2.24.054 8.909-1.92 8.909-1.92l.96 5.83-7.136-.25s-2.084 3.2-2.676 3.168a.73.73 0 0 1-.704-.454s-.96-.019-1.107-.806c0 0-1.123.122-1.001-.518 0 0-.522.918-1.04.746s-.704-.496-.404-.979 1.229-2.269 1.229-2.269-1.293.858-1.763.176zm-12.256-7.177s-1.837.32-2.704-.029-4.282-3.418-4.282-3.418l-.195-3.226 2.023-1.92s.771.387.096 1.254l-.672 1.056s.816-1.251 1.347-1.056a.8.8 0 0 1 .374.279c.094.128.148.282.154.441 0 0 .96-.576 1.059.387.03.636-.156 1.263-.528 1.779l.096 2.07.432-1.709 1.203-1.034c.076.06.14.135.186.22a.72.72 0 0 1 .084.276c.009.097-.002.194-.032.287a.71.71 0 0 1-.142.251l-.672.842.048 1.83 2.125 1.418z" class="J"/><path d="M205.379 76.245a13.51 13.51 0 0 0-1.328-2.118 13.73 13.73 0 0 0-1.817-1.718c.232.091.448.218.64.378a7.15 7.15 0 0 1 1.305 1.235 7.27 7.27 0 0 1 .96 1.52c.116.221.197.458.24.704zm-.24-20.652a7.14 7.14 0 0 0-1.382.701 6.99 6.99 0 0 0-1.088 1.107 2.51 2.51 0 0 1 .988-1.242 2.56 2.56 0 0 1 1.482-.566zm-60.787 30.278l-7.587-2.726c.496 5.923.979 11.997-.599 17.729-.169.62-.32 1.398.173 1.811a1.63 1.63 0 0 0 1.104.243 28.9 28.9 0 0 0 2.355-.173c.836-.096 1.725-.262 2.317-.854.499-.499.701-1.213.867-1.898a49.64 49.64 0 0 0 1.37-14.131z" class="B"/><path d="M114.157 105.26l12.179 2.585c1.379.439 3.178-.208 4.464-.87l11.325-6.218-2.976-7.753a4.56 4.56 0 0 0-.896.378l-9.831 7.923-13.187-1.068-1.078 5.024z" class="C"/><path d="M83.891 114.537l75.648 6.563 2.103-19.581-75.632-6.999-2.118 20.017z" class="E"/><path d="M83.891 114.536l.029-.336.102-1.001.4-3.911 1.536-14.774v-.048h.051l75.401 6.944.234.022h.083v.087l-2.106 19.581v.08h-.08l-54.073-4.727-15.869-1.398-4.253-.381-1.098-.099-.368-.039.381.029 1.107.09 4.272.361 15.884 1.354 54.01 4.65-.09.07 2.103-19.581.077.093-.234-.022-75.395-7.008.054-.045-1.6 14.736-.426 3.917-.112 1.011-.022.345zm7.101-14.886c-.358.027-.717.014-1.072-.038-.357-.012-.711-.066-1.056-.16a4.87 4.87 0 0 1 1.069.038 4.6 4.6 0 0 1 1.059.16zm.291-2.045a4.9 4.9 0 0 1-1.072-.038 4.59 4.59 0 0 1-1.056-.16 4.87 4.87 0 0 1 1.069.038 4.62 4.62 0 0 1 1.059.16zm-.515 4.272c-.358.027-.717.014-1.072-.038a4.49 4.49 0 0 1-1.056-.16 4.84 4.84 0 0 1 1.069.038 4.62 4.62 0 0 1 1.059.16zm-.227 2.228a4.9 4.9 0 0 1-1.069-.039c-.358-.012-.714-.065-1.059-.16a4.93 4.93 0 0 1 1.072.039 4.55 4.55 0 0 1 1.056.16zm-.224 2.226a4.84 4.84 0 0 1-1.069-.038c-.358-.012-.714-.065-1.059-.16a4.9 4.9 0 0 1 1.069.038 4.62 4.62 0 0 1 1.059.16zm-.224 2.228a4.93 4.93 0 0 1-1.072-.039 4.6 4.6 0 0 1-1.056-.16 4.84 4.84 0 0 1 1.069.039 4.52 4.52 0 0 1 1.059.16zm-.227 2.227a4.84 4.84 0 0 1-1.069-.038 4.62 4.62 0 0 1-1.059-.16c.358-.027.717-.014 1.072.038a4.6 4.6 0 0 1 1.056.16zm9.654-10.48c0 .035-1.242-.051-2.768-.192l-2.755-.32c.003-.035 1.245.054 2.768.195l2.755.316zm7.242 5.299c0 .032-2.32-.153-5.172-.419l-5.161-.538c.003-.032 2.32.154 5.171.416l5.162.541zm11.958 1.104c0 .035-2.317-.154-5.171-.416l-5.162-.541c.003-.035 2.32.154 5.175.419l5.158.538zm-4.8 1.805c0 .035-3.414-.256-7.619-.64l-7.607-.765c.003-.032 3.415.253 7.62.64l7.606.765zm-.227 2.227c0 .032-3.415-.256-7.619-.64l-7.61-.765c.003-.032 3.414.253 7.622.64l7.607.765zm5.734 2.778c0 .035-3.417-.253-7.619-.64l-7.61-.765c.004-.032 3.415.256 7.62.64l7.609.765zm18.605 1.721c0 .035-3.414-.253-7.619-.64l-7.607-.765c.004-.032 3.415.256 7.62.64l7.606.765z" class="B"/><path d="M132.013 110.187c0 .036-3.415-.252-7.619-.64l-7.594-.768c.019-.025 3.414.256 7.622.64l7.591.768z" class="C"/><path d="M140.205 113.196c0 .032-5.299-.432-11.84-1.034l-11.818-1.155c.003-.032 5.299.429 11.84 1.034l11.818 1.155z" class="B"/><path d="M99.296 102.664c0 .036-1.242-.051-2.768-.192l-2.755-.32c.003-.035 1.242.055 2.768.196l2.755.316zm1.824 9.162c0 .035-1.245-.051-2.768-.195l-2.755-.32c.003-.039 1.242.051 2.768.195l2.755.32zm44.272 4.096c0 .032-1.245-.055-2.768-.195l-2.755-.32c.003-.039 1.241.054 2.768.195l2.755.32z" class="C"/><path d="M91.28 113.852c-.048 0 .374-3.981.941-8.88l1.107-8.864c.045.006-.378 3.98-.941 8.883l-1.107 8.861z" class="D"/><path d="M133.318 106.316l-1.737-2.592c-.343-.672-2.007-2.349-2.007-2.349s-.32.112-.278.672c.223.52.476 1.027.755 1.52 0 0 .167.822-.205.867s-4.8-.64-4.8-.64c-.96-.147-.96.419-.96.419s-.64-.125-.764.304c-.077.275.492.659.492.659s-.668-.249-.924.199.96.96.96.96c.016.713 2.348 1.731 2.966 2.025s6.304 1.725 6.304 1.725l1.392-3.126-1.194-.643z" class="L"/><path d="M128.669 105.49c-.235.007-.47-.011-.701-.054a11.83 11.83 0 0 1-1.654-.359c-.544-.159-1.078-.349-1.6-.569-.223-.087-.438-.194-.64-.32.227.055.45.13.665.223l1.6.535 1.635.394a4.86 4.86 0 0 1 .695.15zm-.435 1.126a3.57 3.57 0 0 1-.656-.134l-1.559-.439a16.1 16.1 0 0 1-1.52-.563 2.95 2.95 0 0 1-.601-.304 4.44 4.44 0 0 1 .64.221l1.526.525 1.542.473c.216.053.427.127.628.221zm-.612 1.101c-.199.002-.398-.022-.592-.07-.469-.099-.929-.236-1.376-.41s-.881-.373-1.302-.602a2.44 2.44 0 0 1-.502-.32c.019-.035.812.4 1.849.8a13.48 13.48 0 0 0 1.341.442 3.66 3.66 0 0 1 .582.16z" class="M"/><path d="M139.149 93.007c0 .32-1.389 10.595-1.389 12.691s4.016 4.387 4.016 4.387l4.397 9.335h15.657l-6.054-10.1-1.718-8.019c-.919-3.05-.826-4.624-3.095-6.858l-4.381-2.947-7.433 1.51z" class="C"/><path d="M142.022 110.591c-.112-.209-.246-.405-.4-.586l-.419-.224a12.29 12.29 0 0 1-1.453-.96c-.706-.515-1.291-1.179-1.712-1.945-.425-.919-.393-2.048-.24-3.156l.525-3.116.304-2.56.061-1.734c-.012-.213-.012-.427 0-.64a1 1 0 0 1 .026.163c0 .106.025.266.038.47.032.581.032 1.163 0 1.744l-.269 2.56-.512 3.117c-.16 1.1-.182 2.195.215 3.065.404.75.965 1.405 1.644 1.92.453.36.925.695 1.415 1.002.305.249.568.546.777.88z" class="B"/><path d="M143.773 99.647l2.409 10.112-12.16-3.424-2.073 3.661 15.814 7.2c.944.43 2.008.516 3.009.244a4.45 4.45 0 0 0 2.47-1.736 4.44 4.44 0 0 0 .678-3.654l-3.539-13.834a3.39 3.39 0 0 0-.609-1.239c-.286-.367-.645-.671-1.053-.893a3.39 3.39 0 0 0-1.322-.398c-.464-.04-.93.015-1.371.163a3.38 3.38 0 0 0-2.253 3.798z" class="C"/><path d="M150.432 99.02c.028.055.048.113.061.173l.141.506.489 1.863 1.559 6.16.835 3.401c.247.929.325 1.895.23 2.851a3.99 3.99 0 0 1-.678 1.805c-.133.199-.297.374-.487.519a5.64 5.64 0 0 0 .436-.551 4.1 4.1 0 0 0 .62-1.785c.078-.945-.011-1.896-.262-2.81l-.845-3.392-1.513-6.173-.442-1.875-.115-.512c-.014-.059-.024-.119-.029-.179z" class="B"/><path d="M151.002 117.493s1.705-.604 2.368-2.24.553-2.24.208-3.856l-1.261-5.12s3.216 7.2 2.912 8.916-2.589 2.835-2.589 2.835l-1.638-.535z" fill="#000" class="H"/><path d="M146.602 95.711h-.074-.214c-.114.016-.226.038-.336.067a1.91 1.91 0 0 0-.426.198c-.605.371-1.229 1.28-1.6 2.49a3.87 3.87 0 0 0-.173.96c.018.359.064.716.138 1.069l.515 2.352 1.392 5.347.422 1.517.042.14-.144-.038-8.64-2.464-2.56-.749-.688-.208c-.081-.023-.16-.05-.237-.083a1.42 1.42 0 0 1 .243.051l.701.183 2.579.7 8.64 2.41-.102.102-.422-1.52-1.383-5.353-.502-2.362c-.072-.362-.115-.729-.128-1.097.018-.342.081-.68.189-1.005.374-1.238 1.024-2.144 1.664-2.509.138-.083.286-.147.441-.192a2.66 2.66 0 0 1 .352-.054h.215c.073.042.096.045.096.048z" class="B"/><path d="M146.678 78.329l-5.494-2.672c-2-.214-4.086 3.325-4.218 5.331-.102 2.202.012 4.409.343 6.589.525 3.347 2.771 3.462 2.771 3.462l.147 5.734 7.085-4.534.416-12.714c.007-.295-.098-.581-.292-.803a1.18 1.18 0 0 0-.758-.394z" class="L"/><path d="M137.827 83.448a.43.43 0 0 0 .413.435c.055.004.11-.002.161-.02a.42.42 0 0 0 .142-.081.41.41 0 0 0 .139-.287.43.43 0 0 0-.118-.301c-.077-.081-.183-.128-.295-.131a.42.42 0 0 0-.162.017.4.4 0 0 0-.142.08.41.41 0 0 0-.138.287zm-.269-.924c.048.042.384 0 .832.106s.756.32.81.294-.016-.074-.15-.163a2.05 2.05 0 0 0-.64-.269c-.219-.056-.445-.073-.669-.048-.141.022-.205.061-.183.08zm4.567 1.056c-.001.111.041.219.119.3s.182.128.294.132c.054.004.109-.002.162-.019s.1-.045.141-.081a.42.42 0 0 0 .1-.129.41.41 0 0 0 .041-.158.43.43 0 0 0-.412-.432.41.41 0 0 0-.162.019.4.4 0 0 0-.142.081.42.42 0 0 0-.1.129.41.41 0 0 0-.041.158zm-.016-.695c.067.016.361-.211.848-.339s.883-.093.925-.141-.055-.064-.231-.083a2.19 2.19 0 0 0-.752.074 1.85 1.85 0 0 0-.662.32c-.128.09-.157.17-.128.17zm-1.696 3.043c-.244-.077-.497-.123-.752-.138-.115 0-.227-.035-.247-.118a.59.59 0 0 1 .077-.349l.352-.896.787-2.349c-.054-.019-.486 1.002-.96 2.278l-.336.902c-.075.142-.098.307-.064.464.017.042.044.079.078.109s.074.052.118.063a.79.79 0 0 0 .198.029 3.12 3.12 0 0 0 .749.003z" class="B"/><path d="M140.08 91.074a8.51 8.51 0 0 0 4.48-1.187s-1.136 2.362-4.48 2.038v-.851zm.4-4.029c.095-.158.223-.293.377-.395a1.23 1.23 0 0 1 .509-.194.53.53 0 0 1 .306.065c.093.052.168.131.216.226.05.125.069.259.056.393a.84.84 0 0 1-.13.375.71.71 0 0 1-.7.339 1.2 1.2 0 0 1-.58-.378.42.42 0 0 1-.115-.166.29.29 0 0 1-.009-.124c.006-.041.021-.081.044-.116" class="M"/><path d="M141.76 86.252c-.074 0-.077.496-.506.851s-.96.298-.96.368.119.096.343.102c.294.006.581-.093.809-.278.219-.178.359-.434.391-.714.022-.208-.032-.333-.077-.33zm-.029-5.386c.058.118.512.016 1.056.026s.999.115 1.059 0c.026-.058-.06-.166-.249-.269a1.72 1.72 0 0 0-.803-.195 1.76 1.76 0 0 0-.807.176c-.189.096-.281.205-.256.262zm-4.313.64c.102.106.496 0 .96 0s.876.07.96-.042c.041-.051-.023-.157-.199-.256a1.6 1.6 0 0 0-.79-.173 1.55 1.55 0 0 0-.775.214c-.147.099-.201.205-.156.256zm15.12 11.971c-.73-1.181-1.328-4.118-1.581-5.606s-1.043-6.269-2.314-8.778-2.761-3.52-4.23-3.92a3.39 3.39 0 0 0-2.381.173c-1.738-.086-2.579.346-3.568 1.248s-1.712 2.659-1.821 4.013c-.033 1.243.029 2.488.186 3.722 0 0 .259-2.986.595-4.019a2.92 2.92 0 0 1 2.88-2.09s3.539.787 4.73 2.803c1.369 2.317 1.702 3.485 1.702 3.485l.442 1.28-.567 3.667c-.153 1.213-.141 2.416.855 2.906l2.24 1.344s3.318 2.691 3.808 5.517c-.007-.016.515-3.331-.976-5.744z" class="B"/><path d="M146.701 84.687a1.02 1.02 0 0 1 .506-.842c.148-.086.316-.133.488-.137s.342.036.494.115c.352.205.621.614.589 1.398-.087 2.099-2.173 1.578-2.176 1.52s.057-1.187.099-2.054z" class="L"/><path d="M147.277 85.973s.035.026.096.058c.085.039.182.045.272.016a.91.91 0 0 0 .332-.336c.079-.139.12-.297.119-.457a1.22 1.22 0 0 0-.08-.528.42.42 0 0 0-.096-.178c-.045-.051-.103-.09-.166-.114a.19.19 0 0 0-.221.09c-.032.058-.019.102-.032.106s-.042-.038-.023-.125a.23.23 0 0 1 .09-.128c.059-.04.131-.056.202-.045.085.021.164.063.229.123s.114.135.142.219c.079.186.114.387.102.589.001.187-.053.37-.154.527s-.248.281-.419.356a.39.39 0 0 1-.167.001.4.4 0 0 1-.153-.068c-.073-.058-.083-.102-.073-.106z" class="M"/><path d="M143.574 75.042s-.288 0-.742.067a2.5 2.5 0 0 0-.768.227c-.291.149-.552.352-.768.598a3.89 3.89 0 0 0-.848 1.558c-.122.445-.138.733-.154.73a1.13 1.13 0 0 1 0-.202 3.3 3.3 0 0 1 .093-.541c.146-.595.436-1.144.845-1.6.401-.469.967-.766 1.581-.829a4.15 4.15 0 0 1 .55-.026.73.73 0 0 1 .211.016z" class="D"/><path d="M146.538 90.184c-.359 1.526.8 3.939 1.897 5.056s2.416 2.083 3.101 3.494c.797 1.635.64 3.702 1.798 5.12a1.62 1.62 0 0 0 .496.451c.195.113.413.184.637.208.451 0 .915-.394.832-.835.989-.042 1.616-1.21 1.463-2.189s-.836-1.782-1.485-2.528c.614.24 1.341-.256 1.51-.896a2.15 2.15 0 0 0-.045-.98 2.17 2.17 0 0 0-.473-.86c-.446-.486-.938-.929-1.469-1.322-2.541-2.138-3.702-5.578-4.186-8.96m-2.323-12.127c-.423-.553-1.039-.926-1.725-1.046-.341-.054-.69-.02-1.014.098s-.613.318-.838.58c-.432.538-1.191 1.331-.775 1.882.656.64 1.341 1.28 2.208 1.6s1.965.115 2.461-.64.23-1.782-.317-2.474z" class="B"/><g class="D"><path d="M147.728 77.58c-.022 0-.173-.224-.47-.563-.386-.437-.839-.809-1.341-1.104-1.191-.691-2.346-.778-2.33-.838a2.35 2.35 0 0 1 .736.067c.59.12 1.157.337 1.677.64a4.77 4.77 0 0 1 1.35 1.174c.163.183.291.395.378.624z"/><path d="M148.102 73.583a.79.79 0 0 1 .074.528 1.82 1.82 0 0 1-.589 1.142 2.5 2.5 0 0 1-1.149.57 1.11 1.11 0 0 1-.518.022 2.99 2.99 0 0 1 .499-.15 2.71 2.71 0 0 0 1.069-.579c.3-.275.505-.638.586-1.037.044-.294 0-.493.028-.496z"/><path d="M148.006 74.655c-.163-.097-.32-.204-.47-.32-.379-.239-.797-.412-1.235-.509a3.94 3.94 0 0 0-1.335-.061 4.04 4.04 0 0 1-.556.083c.162-.106.345-.174.537-.198a3.36 3.36 0 0 1 2.653.586 1.32 1.32 0 0 1 .406.419zm.688 13.872a7.86 7.86 0 0 0 .861-1.741 4.16 4.16 0 0 0 .151-2.067 3.08 3.08 0 0 0-.48-1.12c-.255-.363-.563-.687-.912-.96-.694-.519-1.419-.996-2.17-1.427l-1.789-1.165c-.391-.286-.755-.608-1.088-.96a3.53 3.53 0 0 1-.259-.294.47.47 0 0 1-.08-.112c.134.114.263.234.384.362.349.324.72.624 1.11.896.493.352 1.108.723 1.799 1.13a19.54 19.54 0 0 1 2.195 1.427 4.66 4.66 0 0 1 .944.992 3.24 3.24 0 0 1 .496 1.181 4.17 4.17 0 0 1-.189 2.134 5.52 5.52 0 0 1-.64 1.28 3.81 3.81 0 0 1-.233.32c-.064.096-.096.128-.1.125z"/></g><path d="M160.246 141.346l-6.048-2.643-1.6 5.248 4.708 1.654-.048 4.515c-2.24.64-2.56 1.77-2.56 1.77l4.697-.106 4.09-8.32-3.239-2.118z" class="C"/><path opacity=".36" d="M163.482 143.464l-4.09 8.314-4.698.106.512-.717 3.818-.298 3.77-7.856.688.451z" class="F"/><g class="B"><path d="M157.238 148.047c.039.045.304-.115.669-.112s.64.147.669.099-.227-.32-.672-.32-.707.295-.666.333zm.052-1.123c.048.032.252-.25.64-.32s.678.083.707.032-.042-.1-.176-.167c-.179-.087-.382-.111-.577-.067s-.368.152-.492.307c-.109.109-.125.202-.102.215zm-.061-1.437c.051.026.205-.25.531-.371s.621-.019.64-.074-.051-.086-.182-.131c-.173-.062-.362-.062-.535 0a.8.8 0 0 0-.413.346c-.064.131-.067.22-.041.23zm-.346-.004c.058 0 .019-.32.163-.64s.368-.499.34-.55-.365.077-.532.47-.022.746.029.72zm-.557-.518a2.02 2.02 0 0 0 .109-.64l.064-.688c.021-.145.021-.293 0-.439-.022-.096-.082-.18-.166-.233-.048-.031-.103-.048-.16-.048s-.113.017-.16.048a.87.87 0 0 0-.269.416c-.046.138-.074.281-.083.425a1.55 1.55 0 0 0 .125.711c.166.384.403.522.409.502-.101-.179-.193-.364-.275-.553a1.69 1.69 0 0 1-.07-.64 1.41 1.41 0 0 1 .086-.368.75.75 0 0 1 .192-.32c.014-.011.032-.016.05-.016a.08.08 0 0 1 .049.016c.039.024.067.064.077.108a1.57 1.57 0 0 1 0 .375l-.019.691c-.023.218-.009.439.041.653z"/><path d="M156.25 145.16c.019 0-.122-.217-.484-.336-.243-.076-.505-.071-.745.015a1.17 1.17 0 0 0-.586.462.21.21 0 0 0-.01.093c.003.032.013.062.029.089.03.046.074.081.125.1a.65.65 0 0 0 .218.044 2.05 2.05 0 0 0 .384 0 1.97 1.97 0 0 0 .621-.16c.336-.147.492-.32.476-.336s-.201.096-.528.199a2.21 2.21 0 0 1-.582.105c-.116.01-.233.01-.349 0-.054-.002-.108-.013-.16-.032-.038-.022-.029 0-.029-.032a.42.42 0 0 1 .093-.108c.043-.041.089-.079.138-.112.094-.062.196-.111.304-.144a1.12 1.12 0 0 1 .566-.032 4.16 4.16 0 0 1 .519.185z"/></g><path opacity=".36" d="M159.728 143.403c.002.111.037.219.1.31s.152.161.255.202.217.049.325.026.207-.08.284-.16a.55.55 0 0 0 .147-.29.56.56 0 0 0-.038-.323.57.57 0 0 0-.212-.247c-.094-.059-.203-.09-.314-.087a.56.56 0 0 0-.391.172c-.102.106-.159.249-.156.397z" class="F"/><path d="M128.512 142.062l.064 6.151s-6.23 2.131-6.33 3.27l11.933.304.295-9.6-5.962-.125z" class="C"/><path opacity=".36" d="M132.282 147.791a.49.49 0 0 1 .266.223c.059.104.078.226.054.343a.47.47 0 0 1-.217.271c-.104.06-.227.077-.343.049-.121-.04-.222-.123-.284-.234a.5.5 0 0 1-.052-.364c.046-.117.136-.211.251-.262a.48.48 0 0 1 .363-.013m1.859 3.984v-.96l-11.44.07s-.537.218-.486.592l11.926.298z" class="F"/><path d="M128.384 148.165c0 .058.291.093.573.285s.429.445.483.423-.022-.359-.368-.589-.698-.189-.688-.119zm-1.264.471c-.016.054.237.16.426.413s.243.512.3.512.106-.32-.14-.64-.583-.343-.586-.285zm-.749 1.478c.051 0 .141-.275 0-.598s-.413-.458-.438-.41.141.224.253.49.128.512.185.518zm2.154-3.369c.025.054.294-.02.624 0s.582.14.614.089-.211-.262-.598-.294-.666.16-.64.205z" class="B"/><path d="M128.528 143.279l.01 1.097 5.865.096.035-.985-5.91-.208z" fill="#000" class="H"/><g class="B"><path d="M128.538 145.503c.194.056.4.056.595 0 .22-.032.435-.091.64-.176a3.06 3.06 0 0 0 .349-.173.73.73 0 0 0 .185-.138.25.25 0 0 0 .074-.154c.005-.058-.009-.117-.042-.166-.028-.041-.065-.075-.108-.1s-.092-.038-.141-.04a.7.7 0 0 0-.228.025 2.23 2.23 0 0 0-.374.119c-.204.085-.393.201-.56.345-.282.25-.384.464-.365.477s.167-.16.455-.362c.166-.119.348-.216.54-.288.113-.041.228-.073.346-.096.128-.032.234-.028.266.029s0 .029-.016.064a.62.62 0 0 1-.135.103 3.36 3.36 0 0 1-.32.169c-.187.087-.382.157-.582.208a3.83 3.83 0 0 0-.579.154z"/><path d="M128.611 145.605a.96.96 0 0 0 .17-.573 1.86 1.86 0 0 0-.064-.655c-.034-.128-.082-.251-.141-.368a.49.49 0 0 0-.145-.21.5.5 0 0 0-.229-.11.27.27 0 0 0-.256.16c-.032.069-.054.142-.064.217a1.28 1.28 0 0 0 0 .4 1.37 1.37 0 0 0 .24.624c.224.32.467.394.473.375s-.182-.148-.352-.452c-.098-.174-.158-.367-.176-.566-.008-.115-.001-.23.023-.342.019-.128.07-.228.118-.215s.157.099.205.202c.055.102.101.209.137.32.062.195.097.397.103.601-.013.349-.074.567-.042.592zm27.645-6.678l-13.744-5.11 14.448-2.029.726-7.037-27.014 2.355-3.814 5.495 1.004 6.889 26.32 6.695 2.074-7.258z"/><path d="M127.117 143.852l-1.315-25.152a7.07 7.07 0 0 1 3.52-5.917c.867-.502 1.831-.814 2.828-.915a7.08 7.08 0 0 1 2.954.326l17.536 5.847 8.579 1.363s2.679 5.152 1.715 8.291c-.944 3.075-4.31 5.12-7.276 4.24-3.684-1.091-20.586-8.358-20.586-8.358v20.48l-7.955-.205z"/></g><g class="D"><path d="M155.405 132.002c-.037-.005-.073-.016-.106-.032l-.301-.118-1.148-.458-4.218-1.722-13.885-5.728-.707-.294.112-.074-.022 14.512-.026 4.368-.016 1.188v.32a.37.37 0 0 1 0 .105.46.46 0 0 1 0-.105v-.32l-.016-1.188-.026-4.368-.022-14.512v-.124l.115.048.707.294 13.866 5.76 4.195 1.766 1.139.49.295.131.064.061zm-16.189.029a5.79 5.79 0 0 1 3.293 1.824c-.032.038-.659-.544-1.571-1.047s-1.738-.726-1.722-.777z"/><path d="M133.546 120.172c.375.529.686 1.1.928 1.702a8.15 8.15 0 0 1 .64 1.824c-.042 0-.365-.787-.8-1.757l-.768-1.769z"/></g><path d="M69.248 54.06l59.344-7.773-2.259-19.018-59.319 7.85 2.234 18.941z" class="B"/><path d="M72.573 38.85a8.33 8.33 0 0 1-1.949.25 4.08 4.08 0 0 1 .96-.182 4.3 4.3 0 0 1 .989-.067zm-.183-1.961a4.01 4.01 0 0 1-.96.182 4.08 4.08 0 0 1-.979.067c.312-.097.634-.158.96-.182a4.52 4.52 0 0 1 .979-.067zm.458 4.076a4.08 4.08 0 0 1-.96.182 4.32 4.32 0 0 1-.982.067 4.08 4.08 0 0 1 .96-.182 4.31 4.31 0 0 1 .982-.067zm.272 2.09a4.05 4.05 0 0 1-.96.182c-.323.06-.651.082-.979.067a8.32 8.32 0 0 1 1.946-.25h-.006zm.275 2.105c-.312.095-.634.155-.96.179a4.08 4.08 0 0 1-.979.067c.636-.161 1.29-.243 1.946-.246h-.006zm.275 2.103a4.18 4.18 0 0 1-.96.179 4.1 4.1 0 0 1-.982.067c.312-.097.634-.158.96-.182a4.2 4.2 0 0 1 .982-.064zm.276 2.102a4.18 4.18 0 0 1-.96.179 4.1 4.1 0 0 1-.986.061 4.2 4.2 0 0 1 .96-.179 4.1 4.1 0 0 1 .986-.061z" class="G"/><path d="M80.362 37.733c0 .032-1.123.202-2.518.378l-2.534.266c-.003-.032 1.123-.202 2.518-.381l2.534-.262zm7.603 3.434c0 .032-2.109.32-4.72.659l-4.736.544c-.003-.032 2.109-.32 4.723-.659l4.733-.544z" class="C"/><path d="M98.902 39.772c0 .032-2.112.32-4.723.662l-4.736.544c-.006-.032 2.109-.32 4.723-.659l4.736-.547zm-3.907 2.637c0 .032-3.11.454-6.96.96l-6.976.832c-.003-.029 3.114-.458 6.963-.96l6.973-.832zm.275 2.102c0 .032-3.11.454-6.96.944l-6.976.832c-.003-.032 3.11-.454 6.96-.96l6.976-.816zm5.728 1.408c0 .032-3.11.454-6.96.96l-6.976.832c-.003-.032 3.114-.454 6.96-.944l6.976-.848zm17.031-2.17c0 .032-3.111.454-6.96.96l-6.976.829c-.003-.032 3.113-.454 6.963-.944l6.973-.845z" class="G"/><path d="M111.558 40.3c0 .032-3.113.454-6.96.96l-6.976.829c-.003-.032 3.111-.454 6.96-.96l6.976-.829z" class="E"/><path d="M119.536 41.42c0 .032-4.835.675-10.813 1.437l-10.829 1.322c-.006-.029 4.839-.675 10.816-1.437l10.826-1.322z" class="D"/><path d="M80.64 39.96c0 .029-1.123.202-2.518.378l-2.537.266c-.006-.032 1.126-.202 2.522-.381l2.534-.262zm3.616 8.09c0 .032-1.126.202-2.522.381l-2.534.266c-.006-.032 1.123-.202 2.522-.381l2.534-.266z" class="E"/><path d="M124.765 42.885c0 .032-1.127.202-2.522.381l-2.534.266c-.003-.029 1.123-.202 2.521-.381l2.535-.266z" class="C"/><path d="M75.866 51.913c-.045 0-.522-3.754-1.062-8.394l-.896-8.413c.048-.006.522 3.754 1.062 8.394l.896 8.413z" class="D"/><g class="I"><path d="M71.091 53.794l-1.872.266-.221-2.541-.32-2.24-.422-3.61-1.341 1.971a1.73 1.73 0 0 0-.278.819l-.195 6.87-.032 2.938 3.331 2.093-.07-3.498.774-.829c.758-.816.646-2.24.646-2.24z"/><path d="M67.014 51.554a14.29 14.29 0 0 1 1.501-2.157 2.03 2.03 0 0 1 .64-.56c.126-.069.27-.099.413-.089s.281.061.397.147a.8.8 0 0 1 .207.431c.023.161-.003.326-.076.472-.15.289-.347.552-.582.778a1.6 1.6 0 0 0-.454.845 2.58 2.58 0 0 0 .163.899 2.95 2.95 0 0 1-.027 1.479c-.134.483-.39.923-.742 1.28"/></g><path d="M68.458 55.078s.103-.122.259-.352c.221-.326.377-.692.458-1.078.059-.265.079-.536.061-.806a3.99 3.99 0 0 0-.198-.912 1.41 1.41 0 0 1-.051-.538 1.28 1.28 0 0 1 .205-.528c.205-.32.506-.566.71-.874a1.07 1.07 0 0 0 .192-.49c.022-.165-.018-.333-.112-.47-.108-.113-.253-.184-.409-.201a.66.66 0 0 0-.442.111c-.258.172-.484.389-.666.64l-.515.64-.685.979c-.073.128-.156.249-.25.362a2.04 2.04 0 0 1 .195-.397 11.53 11.53 0 0 1 .64-1.014l.499-.662c.189-.266.426-.495.698-.675a.98.98 0 0 1 .534-.134.69.69 0 0 1 .525.259 1.01 1.01 0 0 1-.074 1.152c-.227.32-.522.576-.71.87a1.12 1.12 0 0 0-.186.461 1.28 1.28 0 0 0 .045.477 4.04 4.04 0 0 1 .186.96 2.91 2.91 0 0 1-.083.838 2.86 2.86 0 0 1-.522 1.091 1.81 1.81 0 0 1-.221.243c-.061.016-.08.051-.083.048z" class="N"/><use xlink:href="#U" class="C"/><use xlink:href="#U" fill="#000" class="H"/><path d="M51.146 144.796a.54.54 0 0 0-.464.557c.015.132.08.254.182.34a.53.53 0 0 0 .365.124c.14-.021.267-.094.357-.203a.57.57 0 0 0 .13-.389.54.54 0 0 0-.226-.335c-.116-.078-.257-.108-.395-.085" class="G"/><path d="M48.298 148.806l.195-1.056 12.496 2.278s.544.342.416.742l-13.107-1.964zm7.036-2.881c0 .064-.32.045-.682.205s-.554.4-.608.368.096-.39.518-.576.797-.042.771.003zm1.306.788c0 .064-.288.131-.547.371s-.362.515-.426.502-.051-.381.275-.672.698-.262.698-.201zm.518 1.772c-.061 0-.102-.32.115-.64s.538-.422.557-.364-.195.217-.368.486-.24.518-.304.518zm-1.708-4.109c-.035.055-.32-.08-.682-.109s-.662.042-.688-.016.282-.249.71-.208.701.282.659.333z" class="B"/><path d="M52.086 140.863l-.118 6.832s6.912 2.416 7.002 3.67l-13.254.243-.246-10.652 6.618-.093z" class="C"/><path d="M47.859 147.205c-.127.041-.235.127-.302.242s-.09.252-.063.382a.52.52 0 0 0 .236.307c.115.068.252.089.382.058a.57.57 0 0 0 .381-.662c-.05-.132-.15-.239-.278-.299s-.274-.067-.407-.021" class="G"/><g class="B"><path d="M45.715 151.618l.019-1.075 12.701.17s.595.246.534.662l-13.254.243zm6.464-3.993c0 .064-.32.099-.64.32s-.48.486-.541.464.029-.4.416-.64.778-.205.765-.144zm1.402.54c.016.064-.262.179-.477.458s-.275.566-.339.566-.112-.368.163-.707.65-.371.653-.317zm.819 1.658c-.058 0-.154-.32 0-.666s.458-.502.486-.451-.154.246-.282.544-.141.563-.205.573zm-2.365-3.76c-.026.061-.32-.026-.691 0s-.64.154-.682.099.234-.291.666-.32.739.17.707.221zm-9.296-58.237l.176 6.755 1.997 20.983-1.043 16c-.349 5.011.662 13.696.662 13.696l8.435-.221 2.262-29.12 1.411-18.154 2.845-9.488-16.746-.451z"/><path d="M63.584 89.359l.531 27.446a11.52 11.52 0 0 1-.672 4.109l-7.248 20.179-.358 1.331-5.069-1.084 2.461-53.514 10.355 1.533z"/></g><g class="D"><path d="M56.515 94.21c.003.044.003.088 0 .131v.387 1.485l-.099 5.466c-.134 4.611-.445 10.982-1.002 17.997l-1.654 17.929-.566 5.44-.163 1.476-.045.384c-.004.043-.012.086-.022.128a.81.81 0 0 1 0-.132 3.39 3.39 0 0 1 .029-.384l.134-1.478.518-5.44 1.6-17.939c.538-7.015.883-13.376 1.046-17.987l.147-5.46c0-.64.026-1.136.035-1.485v-.387c.01-.045.023-.089.042-.131zm-7.363-4.653c.009.107 0 .215-.026.32a4.69 4.69 0 0 1-.218.822 5.39 5.39 0 0 1-4.109 3.475 4.83 4.83 0 0 1-.848.08 1.09 1.09 0 0 1-.32-.026c0-.029.445 0 1.136-.163.9-.194 1.739-.608 2.442-1.203a5.61 5.61 0 0 0 1.587-2.211c.272-.659.326-1.101.355-1.094z"/><path d="M56.96 90.633c.002.086-.021.171-.066.244a.43.43 0 0 1-.191.166.44.44 0 0 1-.251.032.43.43 0 0 1-.226-.113.44.44 0 0 1-.125-.22c-.019-.084-.012-.172.019-.252a.43.43 0 0 1 .156-.199.44.44 0 0 1 .24-.079.43.43 0 0 1 .31.118c.041.039.075.086.098.139a.43.43 0 0 1 .037.165zm6.842 3.244c-.23-.149-.436-.333-.611-.544-.899-.979-1.485-2.205-1.683-3.52a2.66 2.66 0 0 1-.042-.816c.026 0 .051.32.15.797a7.94 7.94 0 0 0 .611 1.834 8.18 8.18 0 0 0 1.046 1.626l.528.624z"/></g><g class="C"><path d="M58.067 54.725s2.384 1.846 3.318 3.936a45.35 45.35 0 0 0 2.787 4.938l1.706-6.163 4.621 2.198s-1.421 9.654-1.76 10.787c-.47 1.568-1.6 2.973-3.357 2.807s-2.803-.96-3.958-2.618l-1.562-2.819-1.795-13.066z"/><path d="M46.576 50.703s-6.605 3.264-8 5.197c-1.674 2.342 2.966 9.837 3.318 11.693.17.893 1.28 7.603.755 12.896-.337 3.519-.469 7.055-.394 10.589l21.315-1.718c0-3.715-.96-6.586-1.6-11.306l-1.6-15.402-2.304-7.926-3.293-1.392-8.198-2.63z"/></g><path d="M59.99 60.053c.021.052.034.107.038.163l.074.47.24 1.734.672 5.734.534 5.76.125 1.747.022.474a.61.61 0 0 1 0 .166.68.68 0 0 1-.029-.163c0-.128-.035-.282-.054-.474l-.173-1.741-.582-5.744-.64-5.738-.186-1.741-.045-.474c-.007-.059-.006-.118.003-.176z" class="B"/><path d="M56.541 66.431s.038-.055.122-.141l.352-.355 1.19-1.152v.061l-1.2-1.13-.342-.349-.122-.134a.82.82 0 0 1 .144.112l.374.32 1.213 1.11.032.029-.032.032-1.206 1.133-.371.339a1.04 1.04 0 0 1-.154.125zm-3.639-3.21a.94.94 0 0 1-.122.138l-.355.355-1.19 1.152v-.058l1.197 1.126.355.349c.047.04.089.087.125.138a1.13 1.13 0 0 1-.144-.112l-.374-.32-1.216-1.114-.032-.029.032-.029 1.206-1.133.374-.336c.043-.048.091-.091.144-.128zm.935 3.965c-.022 0 .358-1.082.851-2.397l.931-2.368c.022.01-.362 1.081-.854 2.397l-.928 2.368z" class="F"/><path d="M43.936 61.621c-.032 0 0-.442-.147-1.133-.177-.898-.573-1.738-1.153-2.446a5.55 5.55 0 0 0-2.172-1.611c-.64-.275-1.085-.339-1.078-.368a1.06 1.06 0 0 1 .32.029 4.77 4.77 0 0 1 .816.227 5.44 5.44 0 0 1 2.24 1.619 5.36 5.36 0 0 1 1.142 2.547 4.48 4.48 0 0 1 .064.842 1.06 1.06 0 0 1-.032.294zm14.342 17.914a1.77 1.77 0 0 1-.416-.061 9.95 9.95 0 0 1-1.114-.275 13.6 13.6 0 0 1-1.6-.602 14.43 14.43 0 0 1-1.827-1.008 14.28 14.28 0 0 1-1.648-1.28c-.421-.382-.818-.79-1.187-1.222a11.05 11.05 0 0 1-.698-.912c-.086-.112-.16-.232-.221-.358.029-.016.365.477 1.008 1.19a14.63 14.63 0 0 0 1.2 1.187 16 16 0 0 0 1.638 1.251 15.48 15.48 0 0 0 1.802 1.005 14.22 14.22 0 0 0 1.562.64l1.501.445z" class="B"/><path d="M42.938 66.088c-1.373 8.173-.678 16.806 1.434 24.819l.544-.042c.445-8.272-.374-16.65-1.978-24.778z" fill="#000" class="H"/><path d="M43.712 92.53l.163 1.862s1.427.746 1.939 1.28 2.01 3.296 2.01 3.296c-.132.126-.304.203-.486.216a.79.79 0 0 1-.512-.142c-.388-.465-.741-.958-1.056-1.475a.8.8 0 0 0-.727.227.8.8 0 0 0-.207.733l.419 1.92c.006.118.832.928 1.459 1.501a.53.53 0 0 1 .158.289c.021.11.006.225-.042.326a.53.53 0 0 1-.225.24c-.098.055-.211.077-.323.063a.26.26 0 0 1-.128-.064s.074.883-1.142.179c0 0-1.082.263-1.6-.352 0 0-1.328-.185-1.802-.569s-1.53-4.397-1.53-4.397l-.618-4.278 4.25-.854z" class="I"/><path d="M43.603 98.975a2.56 2.56 0 0 0 .019.73 3.81 3.81 0 0 0 .525 1.684 3.43 3.43 0 0 0 1.354 1.1 2.24 2.24 0 0 0 .669.263 3.15 3.15 0 0 0-.605-.381c-.495-.267-.926-.639-1.261-1.091-.29-.491-.477-1.035-.55-1.6a3.14 3.14 0 0 0-.15-.704zm-.912.49a1.36 1.36 0 0 0-.022.668 5.28 5.28 0 0 0 .138.711c.07.295.2.572.381.816a3.63 3.63 0 0 0 .666.579l.573.41c.169.138.357.252.557.339.016-.023-.166-.192-.477-.448l-.55-.442c-.232-.165-.446-.354-.64-.563a2.19 2.19 0 0 1-.358-.746c-.071-.223-.129-.451-.173-.681l-.093-.643zm-1.011.646c-.077.019.112.736.39 1.581a.69.69 0 0 0 .205.301 1.82 1.82 0 0 0 .234.204 2.64 2.64 0 0 0 .435.285c.262.141.451.17.458.148s-.154-.1-.39-.263a4.7 4.7 0 0 1-.394-.304 2.38 2.38 0 0 1-.211-.202.55.55 0 0 1-.157-.23l-.384-1.082a2.18 2.18 0 0 0-.186-.438z" class="N"/><path d="M38.589 55.899s-2.56 3.2-2.586 5.795-.557 19.421-.557 19.421l3.594 14.016 5.734-1.45-2.035-14.768.198-12.826-4.349-10.189z" class="C"/><path d="M39.04 95.132a.46.46 0 0 1 .099-.035l.298-.083 1.136-.32 4.186-1.085-.048.067-1.626-11.162-.429-2.976.179-10.118.067-2.986.026-.803v-.208-.07c.005.023.005.047 0 .07v.208.803l-.019 2.986-.122 10.122.429 2.976 1.6 11.168v.054l-.054.016-4.195 1.03-1.149.275-.298.064a.43.43 0 0 1-.08.006z" class="B"/><path d="M52.454 80.044a18.92 18.92 0 0 0 7.04 1.43c-.365.55-1.059.694-1.718.733a5.48 5.48 0 0 1-1.92-.186c-1.216-.374-2.643-.941-3.382-1.978m11.692-16.418a14.86 14.86 0 0 0-.102 4.717.96.96 0 0 0 .195.541c.031.037.069.067.112.088s.09.034.138.037a.34.34 0 0 0 .141-.021.36.36 0 0 0 .121-.075.53.53 0 0 0 0-.47c-.482-1.558-.689-3.187-.611-4.816" class="H" fill="#000"/><path d="M60.253 37.922c-.32-.717-1.171-1.248-1.229-1.475-.154-.595.365-1.242.173-1.827-.454-1.373-1.571-1.19-1.571-1.19-.509-.618-1.2-1.434-2.317-1.722-1.213-.32-3.002-.547-4.08.09s-1.872 1.059-2.221 2.262l7.645 13.44c.877-.406 1.424-1.302 1.744-2.211l.829-2.771c.269-.669-.026-1.731.573-2.128.752-.493.742-1.808.454-2.467z" class="B"/><path d="M57.76 39.132c-.092-1.48-.739-2.87-1.81-3.894s-2.49-1.607-3.972-1.632h-.32c-3.296.138-5.021 3.008-4.8 6.298l-.285 10.8 5.587 3.741c1.882 1.414 2.634.294 2.634-1.098v-3.085s3.171-.438 3.264-3.6c.045-1.536-.118-4.678-.298-7.53z" class="I"/><g class="B"><path d="M57.066 41.58a.45.45 0 0 1-.442.448c-.058.003-.115-.005-.17-.024a.43.43 0 0 1-.25-.226c-.024-.052-.038-.109-.041-.167a.45.45 0 0 1 .445-.448.43.43 0 0 1 .419.248.44.44 0 0 1 .039.167zm.038-.749c-.058.058-.397-.202-.883-.208s-.845.23-.896.17.032-.131.189-.243a1.26 1.26 0 0 1 .72-.208 1.17 1.17 0 0 1 .701.24c.147.115.198.224.17.25zm-4.694.921a.45.45 0 0 1-.442.448c-.058.003-.115-.005-.17-.024a.43.43 0 0 1-.25-.226c-.024-.052-.038-.109-.041-.167a.45.45 0 0 1 .445-.448.43.43 0 0 1 .17.023c.055.019.105.049.147.088s.077.086.101.138a.43.43 0 0 1 .039.167zm-.013-.85c-.054.061-.4-.189-.886-.182s-.838.25-.893.192.029-.134.186-.246a1.23 1.23 0 0 1 .714-.23 1.21 1.21 0 0 1 .707.221c.147.115.202.221.173.246zm1.581 3.407a3.36 3.36 0 0 1 .79-.128c.125 0 .243-.032.266-.118a.64.64 0 0 0-.077-.368l-.352-.96-.781-2.483c.054-.019.493 1.062.979 2.416l.336.96c.075.152.095.325.054.49a.32.32 0 0 1-.205.176c-.069.017-.14.026-.211.026a3.02 3.02 0 0 1-.8-.01zM52.4 39.193c-.067.125-.538 0-1.114 0s-1.053.086-1.11-.042c-.026-.061.07-.173.272-.275a1.92 1.92 0 0 1 1.693.038c.195.102.288.221.259.278zm4.742.015c-.099.109-.474 0-.931-.026s-.842.058-.928-.058c-.038-.058.022-.166.195-.269a1.37 1.37 0 0 1 .758-.166 1.39 1.39 0 0 1 .739.234c.16.122.211.23.166.285zm-7.897-5.375a2.39 2.39 0 0 0 .223 1.019 2.38 2.38 0 0 0 .635.827 2.41 2.41 0 0 0 .926.479c.34.09.696.103 1.042.04.534-.099 1.12-.368 1.584-.083s.506 1.034.938 1.408c.618.534 1.6.032 2.381.266.605.179.982.758 1.386 1.245s1.005.96 1.6.768c-.02-.541-.1-1.077-.24-1.6a2.39 2.39 0 0 0-.918-1.315c-.265-.136-.522-.287-.771-.451-.502-.406-.621-1.11-.931-1.677a2.62 2.62 0 0 0-2-1.325c-.688-.07-1.395.134-2.067-.035-.496-.125-.931-.448-1.434-.541-.979-.189-1.888.515-2.598 1.216"/><path d="M52.378 35.225c-.438-.125-1.338-.41-1.574-.79a2.68 2.68 0 0 0-2.333-1.341c-.477.037-.929.228-1.288.544s-.607.739-.706 1.207a3.18 3.18 0 0 0-2.736 1.763c-.263.537-.391 1.13-.374 1.727s.18 1.182.473 1.703c.19.246.313.537.358.845 0 .39-.285.701-.486 1.021-.554.88-.512 2.086-.083 3.043s.73 1.28 1.341 1.485c1.194.374 1.354 2.042 1.818 2.499l.576-6.842a.72.72 0 0 0 .186.07c1.178.266 1.331-2.032 1.069-2.688.444-.362.841-.779 1.181-1.242.376-.735.562-1.552.541-2.378.426.026 2.23-.573 2.038-.627z"/></g><path d="M47.53 42.137c-.054-.026-2.163-.682-2.131 1.485s2.198 1.683 2.202 1.622-.07-3.107-.07-3.107z" class="I"/><path d="M46.925 44.434s-.035.026-.099.054a.37.37 0 0 1-.282 0 .94.94 0 0 1-.445-.832 1.19 1.19 0 0 1 .099-.541.44.44 0 0 1 .102-.182.43.43 0 0 1 .176-.112.2.2 0 0 1 .13.011c.041.018.074.051.094.091.029.058.016.102.029.106s.045-.038.026-.125c-.012-.054-.042-.102-.086-.134-.06-.045-.134-.064-.208-.054a.53.53 0 0 0-.39.342 1.28 1.28 0 0 0-.122.605.96.96 0 0 0 .563.925.41.41 0 0 0 .346-.061c.064-.042.077-.09.067-.093zm7.869 5.827s-2.88-.442-4.56-1.722c0 0 .886 2.637 4.557 2.714l.003-.992z" class="N"/><path d="M52.72 44.61c.08 0 .07.534.522.922s1.021.339 1.024.413-.128.102-.368.106a1.35 1.35 0 0 1-.858-.32c-.229-.195-.373-.472-.403-.771-.016-.221.045-.352.083-.349zm162.528 107.159c0 .048-43.651.083-97.485.083s-97.491-.035-97.491-.083 43.642-.083 97.488-.083l97.488.083z" class="B"/><defs ><path id="B" d="M158.259 104.482c.519-.111 1.056-.111 1.575 0-.519.111-1.056.111-1.575 0z"/><path id="C" d="M155.114 104.482a3.76 3.76 0 0 1 1.574 0 3.76 3.76 0 0 1-1.574 0z"/><path id="D" d="M145.68 104.482c.518-.111 1.053-.111 1.571 0-.518.111-1.053.111-1.571 0z"/><path id="E" d="M92.211 104.482a3.75 3.75 0 0 1 1.571 0 3.75 3.75 0 0 1-1.571 0z"/><path id="F" d="M83.546 97.893c.11.476.11.971 0 1.446a3.2 3.2 0 0 1 0-1.446z"/><path id="G" d="M87.491 86.962a3.75 3.75 0 0 1-1.571 0 3.75 3.75 0 0 1 1.571 0z"/><path id="H" d="M96.928 86.962c-.519.111-1.055.111-1.574 0 .519-.111 1.055-.111 1.574 0z"/><path id="I" d="M100.074 86.962a3.77 3.77 0 0 1-1.575 0 3.77 3.77 0 0 1 1.575 0z"/><path id="J" d="M162.205 90.655c-.111-.476-.111-.971 0-1.446a3.21 3.21 0 0 1 0 1.446z"/><path id="K" d="M89.92 65.458c-.875.107-1.759.107-2.634 0 .875-.107 1.759-.107 2.634 0z"/><path id="L" d="M88.221 14.37c0 .146-.043.288-.124.409s-.196.215-.33.271-.282.07-.425.042-.274-.098-.377-.201-.173-.234-.201-.377-.014-.291.042-.425.15-.249.271-.33.263-.124.409-.124c.195 0 .382.078.52.216s.216.325.216.521z"/><path id="M" d="M100.672 23.148c0 .045-1.469.08-3.286.08s-3.286-.035-3.286-.08 1.472-.08 3.286-.08l3.286.08z"/><path id="N" d="M158.15 58.492a4.03 4.03 0 0 1 1.629 0 4.03 4.03 0 0 1-1.629 0z"/><path id="O" d="M151.645 58.492a4.01 4.01 0 0 1 1.625 0 4.01 4.01 0 0 1-1.625 0z"/><path id="P" d="M93.075 58.492c.536-.111 1.089-.111 1.626 0-.536.111-1.089.111-1.626 0z"/><path id="Q" d="M88.192 42.153c-.536.111-1.089.111-1.626 0 .536-.111 1.089-.111 1.626 0z"/><path id="R" d="M97.955 42.153a4.03 4.03 0 0 1-1.629 0 4.03 4.03 0 0 1 1.629 0z"/><path id="S" d="M107.715 42.153a4.01 4.01 0 0 1-1.625 0 4.01 4.01 0 0 1 1.625 0z"/><path id="T" d="M114.24 42.153c-.536.111-1.089.111-1.626 0 .537-.111 1.09-.111 1.626 0z"/><path id="U" d="M56.368 139.257l-1.254 6.72s6.4 3.52 6.291 4.8l-13.12-1.965 1.539-10.566 6.544 1.011z"/></defs></svg>