<svg width="81" height="77" viewBox="0 0 81 77" fill="none" xmlns="http://www.w3.org/2000/svg">
    <path d="M43.7026 6.17383V33.7967" stroke="#2E353A" stroke-linecap="round" stroke-linejoin="round" />
    <path d="M46.9848 6.91528V33.7967" stroke="#2E353A" stroke-linecap="round" stroke-linejoin="round" />
    <path d="M50.5832 21.6252V47.6625" stroke="#2E353A" stroke-linecap="round" stroke-linejoin="round" />
    <path d="M54.3931 6.91528V47.6625" stroke="#2E353A" stroke-linecap="round" stroke-linejoin="round" />
    <path d="M58.2031 6.91528V34.5381" stroke="#2E353A" stroke-linecap="round" stroke-linejoin="round" />
    <path d="M40.8456 9.87671H58.3099" stroke="#2E353A" stroke-linecap="round" stroke-linejoin="round" />
    <path d="M40.8456 16.0161H59.7846" stroke="#2E353A" stroke-linecap="round" stroke-linejoin="round" />
    <path d="M40.5293 21.6252H61.5899" stroke="#2E353A" stroke-linecap="round" stroke-linejoin="round" />
    <path d="M40.2111 27.8711H61.5901" stroke="#2E353A" stroke-linecap="round" stroke-linejoin="round" />
    <path d="M44.2324 34.6431H60.4254" stroke="#2E353A" stroke-linecap="round" stroke-linejoin="round" />
    <path d="M48.4656 41.2051H59.0494" stroke="#2E353A" stroke-linecap="round" stroke-linejoin="round" />
    <path d="M20.6024 8.79663L24.3385 11.7214" stroke="#2E353A" stroke-width="2" stroke-linecap="round" stroke-linejoin="round" />
    <path d="M28.0746 5.71167L29.3747 7.66082" stroke="#2E353A" stroke-width="2" stroke-linecap="round" stroke-linejoin="round" />
    <path d="M34.7352 1L35.8731 4.57378" stroke="#2E353A" stroke-width="2" stroke-linecap="round" stroke-linejoin="round" />
    <path d="M56.0507 46.9252H49.889V32.2748H41.5297V6.32788C38.0066 6.36267 34.5518 7.30313 31.4972 9.05887C28.4426 10.8146 25.891 13.3266 24.0877 16.3533C22.2844 19.3801 21.29 22.8198 21.2002 26.3419C21.1103 29.864 21.9279 33.3499 23.5745 36.4647C24.2441 38.0236 25.8174 41.8418 27.3927 46.7794C28.8489 51.337 29.6089 55.9192 29.6089 56.6114C29.6089 56.6792 29.6089 56.749 29.6089 56.8168C29.6017 57.0228 29.6361 57.2282 29.7099 57.4206C29.7838 57.6131 29.8956 57.7887 30.0388 57.9371C30.182 58.0854 30.3535 58.2034 30.5432 58.2841C30.733 58.3647 30.937 58.4063 31.1431 58.4065H52.3496C52.5557 58.4061 52.7596 58.3642 52.9491 58.2835C53.1387 58.2027 53.3102 58.0847 53.4533 57.9364C53.5964 57.7882 53.7082 57.6126 53.7822 57.4203C53.8562 57.228 53.8907 57.0227 53.8839 56.8168C53.8839 56.7428 53.8839 56.673 53.8839 56.6114C53.8798 55.9274 54.6253 51.4335 56.0507 46.9252Z" fill="#13CB6E" stroke="#2E353A" stroke-linecap="round" stroke-linejoin="round" />
    <path d="M34.5689 9.63865C35.1633 9.37068 35.773 9.13818 36.3948 8.94238" stroke="#2E353A" stroke-width="2" stroke-linecap="round" stroke-linejoin="round" />
    <path d="M27.7295 14.8434C27.7295 14.8434 29.4034 12.1734 33.0819 10.3762" stroke="#2E353A" stroke-width="2" stroke-linecap="round" stroke-linejoin="round" />
    <path d="M28.1689 44.4031C28.9309 46.8924 29.9393 50.3409 30.2885 52.2674C30.88 55.5167 30.4939 57.1968 31.7673 57.4864" stroke="#2E353A" stroke-width="2" stroke-linecap="round" stroke-linejoin="round" />
    <path d="M27.2365 41.4331C27.2365 41.4331 27.4418 42.1006 27.7725 43.1234" stroke="#2E353A" stroke-width="2" stroke-linecap="round" stroke-linejoin="round" />
    <path d="M40.4451 58.207V38.5718C40.4451 38.5718 41.2667 33.437 38.5966 33.437C35.9266 33.437 36.132 36.1071 39.2128 38.9825C42.2937 41.858 47.0176 39.1879 47.6338 36.9286C48.25 34.6693 46.6068 33.6424 45.5799 35.4909C44.5529 37.3394 45.5799 58.2892 45.5799 58.2892" stroke="#2E353A" stroke-width="2" stroke-linecap="round" stroke-linejoin="round" />
    <path d="M52.8855 58.2874H30.7219V63.4303H52.8855V58.2874Z" fill="white" stroke="#2E353A" stroke-linecap="round" stroke-linejoin="round" />
    <path d="M52.8855 64.6543H30.7219V69.7973H52.8855V64.6543Z" fill="white" stroke="#2E353A" stroke-linecap="round" stroke-linejoin="round" />
    <path d="M52.8855 63.4302H30.7219V64.6543H52.8855V63.4302Z" fill="#2E353A" stroke="#2E353A" stroke-linecap="round" stroke-linejoin="round" />
    <path d="M52.8855 71.0215H30.7219V76.1644H52.8855V71.0215Z" fill="white" stroke="#2E353A" stroke-linecap="round" stroke-linejoin="round" />
    <path d="M50.5667 62.7422H52.2139" stroke="#2E353A" stroke-linecap="round" stroke-linejoin="round" />
    <path d="M31.5928 62.7422H49.7739" stroke="#2E353A" stroke-linecap="round" stroke-linejoin="round" />
    <path d="M46.2946 69.2097H51.6039" stroke="#2E353A" stroke-linecap="round" stroke-linejoin="round" />
    <path d="M34.8831 69.2097H45.6846" stroke="#2E353A" stroke-linecap="round" stroke-linejoin="round" />
    <path d="M33.1148 69.2097H34.0288" stroke="#2E353A" stroke-linecap="round" stroke-linejoin="round" />
    <path d="M52.8855 69.7974H30.7219V71.0215H52.8855V69.7974Z" fill="#2E353A" stroke="#2E353A" stroke-linecap="round" stroke-linejoin="round" />
    <path d="M39.8024 72.1489H33.6077V75.3737H39.8024V72.1489Z" fill="#13CB6E" stroke="#2E353A" stroke-linecap="round" stroke-linejoin="round" />
    <path d="M51.0678 72.1489H43.4807V76.0986H51.0678V72.1489Z" fill="#13CB6E" stroke="#2E353A" stroke-linecap="round" stroke-linejoin="round" />
    <path d="M78.2758 64.4429H72.9459V71.919H75.1539H78.2758H80.4858V68.181L78.2758 64.4429Z" fill="#2E353A" stroke="#2E353A" stroke-linecap="round" stroke-linejoin="round" />
    <path d="M80.4858 71.9192H78.0437V73.6178H80.4858V71.9192Z" fill="white" stroke="#2E353A" stroke-linecap="round" stroke-linejoin="round" />
    <path d="M68.984 71.8347C68.984 71.8347 71.654 70.3969 70.7298 63.2083L67.3408 61.3598L61.4872 60.4355L56.2498 60.6409V63.6191C56.2498 63.6191 59.228 66.1865 59.536 67.008C59.7293 67.5703 59.8332 68.1594 59.8441 68.7538V71.6293L68.984 71.8347Z" fill="#13CB6E" stroke="#2E353A" stroke-linecap="round" stroke-linejoin="round" />
    <path d="M70.7298 63.2085L68.984 71.8349" stroke="#2E353A" stroke-linecap="round" stroke-linejoin="round" />
    <path d="M67.3408 61.3599L65.3896 71.8347" stroke="#2E353A" stroke-linecap="round" stroke-linejoin="round" />
    <path d="M61.4873 60.4355L60.0496 68.2403" stroke="#2E353A" stroke-linecap="round" stroke-linejoin="round" />
    <path d="M56.4552 63.2083C56.4552 63.2083 59.8441 64.646 61.1792 65.5702C62.5142 66.4945 62.3088 68.4457 62.3088 68.4457" stroke="#2E353A" stroke-linecap="round" stroke-linejoin="round" />
    <path d="M72.9932 71.9724H57.0693V73.3074H72.9932V71.9724Z" fill="white" stroke="#2E353A" stroke-linecap="round" stroke-linejoin="round" />
    <path d="M76.1726 68.5484H79.4979L77.713 65.4675H76.1726V68.5484Z" fill="white" stroke="#2E353A" stroke-linecap="round" stroke-linejoin="round" />
    <path d="M75.6592 65.4675H74.2214V68.5484H75.6592V65.4675Z" fill="white" stroke="#2E353A" stroke-linecap="round" stroke-linejoin="round" />
    <path d="M66.848 71.9192H57.1536V74.2339H66.848V71.9192Z" fill="white" stroke="#2E353A" stroke-linecap="round" stroke-linejoin="round" />
    <path d="M76.0318 76.1271C77.1403 75.9268 77.8765 74.8659 77.6763 73.7575C77.4761 72.649 76.4152 71.9128 75.3067 72.113C74.1983 72.3133 73.462 73.3742 73.6623 74.4826C73.8625 75.5911 74.9234 76.3273 76.0318 76.1271Z" fill="#2E353A" stroke="#2E353A" stroke-linecap="round" stroke-linejoin="round" />
    <path d="M75.6653 75.3164C76.3221 75.3164 76.8545 74.784 76.8545 74.1272C76.8545 73.4704 76.3221 72.938 75.6653 72.938C75.0085 72.938 74.4761 73.4704 74.4761 74.1272C74.4761 74.784 75.0085 75.3164 75.6653 75.3164Z" fill="white" stroke="#2E353A" stroke-linecap="round" stroke-linejoin="round" />
    <path d="M59.8136 75.4591C60.7192 75.2988 61.3233 74.4347 61.163 73.5291C61.0027 72.6235 60.1386 72.0193 59.233 72.1797C58.3274 72.34 57.7232 73.2041 57.8836 74.1097C58.0439 75.0153 58.908 75.6194 59.8136 75.4591Z" fill="#2E353A" stroke="#2E353A" stroke-linecap="round" stroke-linejoin="round" />
    <path d="M59.953 75.3164C60.6098 75.3164 61.1422 74.784 61.1422 74.1272C61.1422 73.4704 60.6098 72.938 59.953 72.938C59.2962 72.938 58.7638 73.4704 58.7638 74.1272C58.7638 74.784 59.2962 75.3164 59.953 75.3164Z" fill="white" stroke="#2E353A" stroke-linecap="round" stroke-linejoin="round" />
    <path d="M66.2565 75.6206C67.0862 74.8588 67.1412 73.5686 66.3793 72.739C65.6175 71.9093 64.3273 71.8543 63.4976 72.6162C62.6679 73.378 62.613 74.6682 63.3748 75.4979C64.1367 76.3275 65.4269 76.3825 66.2565 75.6206Z" fill="#2E353A" stroke="#2E353A" stroke-linecap="round" stroke-linejoin="round" />
    <path d="M64.8762 75.3164C65.533 75.3164 66.0654 74.784 66.0654 74.1272C66.0654 73.4704 65.533 72.938 64.8762 72.938C64.2194 72.938 63.687 73.4704 63.687 74.1272C63.687 74.784 64.2194 75.3164 64.8762 75.3164Z" fill="white" stroke="#2E353A" stroke-linecap="round" stroke-linejoin="round" />
    <path d="M64.2086 68.343H59.0739C58.7052 68.343 58.4064 68.6419 58.4064 69.0105V71.1671C58.4064 71.5358 58.7052 71.8346 59.0739 71.8346H64.2086C64.5773 71.8346 64.8761 71.5358 64.8761 71.1671V69.0105C64.8761 68.6419 64.5773 68.343 64.2086 68.343Z" fill="#2E353A" stroke="#2E353A" stroke-linecap="round" stroke-linejoin="round" />
    <path d="M55.839 71.8347V61.6782H57.8929V71.8347" stroke="#2E353A" stroke-linecap="round" stroke-linejoin="round" />
    <path d="M55.8533 63.0239H57.8703" stroke="#2E353A" stroke-linecap="round" stroke-linejoin="round" />
    <path d="M55.8533 64.6091H57.8703" stroke="#2E353A" stroke-linecap="round" stroke-linejoin="round" />
    <path d="M55.8533 66.1946H57.8703" stroke="#2E353A" stroke-linecap="round" stroke-linejoin="round" />
    <path d="M55.8533 67.7825H57.8703" stroke="#2E353A" stroke-linecap="round" stroke-linejoin="round" />
    <path d="M55.8533 69.3682H57.8703" stroke="#2E353A" stroke-linecap="round" stroke-linejoin="round" />
    <path d="M55.8533 70.9536H57.8703" stroke="#2E353A" stroke-linecap="round" stroke-linejoin="round" />
    <path d="M14.7591 76.3637H11.0621V11.8713L14.7591 16.1701V76.3637Z" stroke="#2E353A" stroke-linecap="round" stroke-linejoin="round" />
    <path d="M11.0991 62.8078H14.7242L11.0991 59.3018H14.7242L11.0991 62.8078Z" stroke="#2E353A" stroke-linecap="round" stroke-linejoin="round" />
    <path d="M11.0991 59.2135H14.7242L11.0991 55.7075H14.7242L11.0991 59.2135Z" stroke="#2E353A" stroke-linecap="round" stroke-linejoin="round" />
    <path d="M11.0991 55.6193H14.7242L11.0991 52.1133H14.7242L11.0991 55.6193Z" stroke="#2E353A" stroke-linecap="round" stroke-linejoin="round" />
    <path d="M11.0991 52.0248H14.7242L11.0991 48.5188H14.7242L11.0991 52.0248Z" stroke="#2E353A" stroke-linecap="round" stroke-linejoin="round" />
    <path d="M11.0991 48.4305H14.7242L11.0991 44.9246H14.7242L11.0991 48.4305Z" stroke="#2E353A" stroke-linecap="round" stroke-linejoin="round" />
    <path d="M11.0991 44.8363H14.7242L11.0991 41.3303H14.7242L11.0991 44.8363Z" stroke="#2E353A" stroke-linecap="round" stroke-linejoin="round" />
    <path d="M11.0991 41.2418H14.7242L11.0991 37.7358H14.7242L11.0991 41.2418Z" stroke="#2E353A" stroke-linecap="round" stroke-linejoin="round" />
    <path d="M11.0991 37.6476H14.7242L11.0991 34.1416H14.7242L11.0991 37.6476Z" stroke="#2E353A" stroke-linecap="round" stroke-linejoin="round" />
    <path d="M11.0991 34.0534H14.7242L11.0991 30.5474H14.7242L11.0991 34.0534Z" stroke="#2E353A" stroke-linecap="round" stroke-linejoin="round" />
    <path d="M11.0991 30.4589H14.7242L11.0991 26.9529H14.7242L11.0991 30.4589Z" stroke="#2E353A" stroke-linecap="round" stroke-linejoin="round" />
    <path d="M11.0991 26.8646H14.7242L11.0991 23.3586H14.7242L11.0991 26.8646Z" stroke="#2E353A" stroke-linecap="round" stroke-linejoin="round" />
    <path d="M11.0991 23.2704H14.7242L11.0991 19.7644H14.7242L11.0991 23.2704Z" stroke="#2E353A" stroke-linecap="round" stroke-linejoin="round" />
    <path d="M11.0991 19.6759H14.7242L11.0991 16.1699H14.7242L11.0991 19.6759Z" stroke="#2E353A" stroke-linecap="round" stroke-linejoin="round" />
    <path d="M31.9235 19.7726L30.1325 18.645H17.3511L15.7901 19.7726H31.9235Z" stroke="#2E353A" stroke-linecap="round" stroke-linejoin="round" />
    <path d="M26.4898 19.6763H1V20.3471H26.4898V19.6763Z" fill="#2E353A" stroke="#2E353A" stroke-linecap="round" stroke-linejoin="round" />
    <path d="M30.1325 18.6451L11.0621 11.8713L17.3511 18.6451" stroke="#2E353A" stroke-linecap="round" stroke-linejoin="round" />
    <path d="M11.0641 11.8713L1 19.6762" stroke="#2E353A" stroke-linecap="round" stroke-linejoin="round" />
    <path d="M17.4312 21.4219H9.72906V26.3512H17.4312V21.4219Z" fill="#2E353A" stroke="#2E353A" stroke-linecap="round" stroke-linejoin="round" />
    <path d="M15.0007 22.449H11.3331V23.6228H15.0007V22.449Z" fill="white" stroke="#2E353A" stroke-linecap="round" stroke-linejoin="round" />
    <path d="M32.2192 20.4978V29.3542" stroke="#2E353A" stroke-linecap="round" stroke-linejoin="round" />
    <path d="M32.9711 32.3794H31.108V34.4907H32.9711V32.3794Z" fill="#2E353A" stroke="#2E353A" stroke-linecap="round" stroke-linejoin="round" />
    <path d="M31.108 32.3796L32.2499 29.1858L33.3919 32.3796" stroke="#2E353A" stroke-linecap="round" stroke-linejoin="round" />
    <path d="M26.0367 63.3187L30.0614 69.6811L31.0675 68.9449L28.106 63.0219C27.9729 62.7557 27.7683 62.5318 27.515 62.3754C27.2617 62.219 26.9699 62.1362 26.6722 62.1365C26.5356 62.139 26.4021 62.1778 26.2854 62.249C26.1688 62.3202 26.0732 62.4212 26.0084 62.5416C25.9437 62.662 25.9122 62.7974 25.9172 62.934C25.9222 63.0706 25.9634 63.2034 26.0367 63.3187Z" fill="#13CB6E" stroke="#2E353A" stroke-linecap="round" stroke-linejoin="round" />
    <path d="M30.8614 69.4604L26.7209 72.4052C26.7209 72.4052 27.0899 73.9681 29.4812 73.8759C31.8726 73.7837 31.782 71.3001 31.782 71.3001L30.8614 69.4604Z" fill="#2E353A" stroke="white" stroke-linecap="round" stroke-linejoin="round" />
    <path d="M17.7063 66.3113L25.2057 62.9322C25.453 62.8209 25.731 62.7977 25.9934 62.8663C26.2558 62.9349 26.4867 63.0914 26.6479 63.3095C26.742 63.4369 26.8097 63.5819 26.8469 63.7359C26.8841 63.8899 26.89 64.0497 26.8644 64.2061C26.8387 64.3624 26.782 64.512 26.6976 64.646C26.6132 64.7801 26.5028 64.8958 26.3728 64.9865L18.1675 70.7301L17.7063 66.3113Z" fill="#13CB6E" stroke="#2E353A" stroke-linecap="round" stroke-linejoin="round" />
    <path d="M14.6177 72.1655H6.88861V73.3612H14.6177V72.1655Z" fill="white" stroke="#2E353A" stroke-linecap="round" stroke-linejoin="round" />
    <path d="M11.7337 67.9963H3.50787V71.3771H11.7337V67.9963Z" fill="#2E353A" stroke="#2E353A" stroke-linecap="round" stroke-linejoin="round" />
    <path d="M10.6636 64.1633H17.6468C17.8102 64.1633 17.967 64.2283 18.0825 64.3438C18.1981 64.4594 18.263 64.6161 18.263 64.7795V71.3725H10.0453V64.7795C10.0453 64.6984 10.0614 64.6181 10.0924 64.5432C10.1235 64.4683 10.1691 64.4003 10.2265 64.3431C10.284 64.2858 10.3521 64.2405 10.4271 64.2096C10.5021 64.1788 10.5825 64.1631 10.6636 64.1633Z" fill="#13CB6E" stroke="#2E353A" stroke-linecap="round" stroke-linejoin="round" />
    <path d="M3.12923 75.5754H14.1251C14.4724 75.5754 14.8056 75.4375 15.0512 75.1918C15.2968 74.9462 15.4348 74.6131 15.4348 74.2657C15.4348 73.9182 15.2968 73.5849 15.0513 73.339C14.8057 73.0932 14.4726 72.9548 14.1251 72.9543H3.12923C2.78172 72.9548 2.44859 73.0932 2.20302 73.339C1.95745 73.5849 1.81952 73.9182 1.81952 74.2657C1.81952 74.6131 1.95751 74.9462 2.20312 75.1918C2.44874 75.4375 2.78187 75.5754 3.12923 75.5754Z" fill="#2E353A" stroke="#2E353A" stroke-linecap="round" stroke-linejoin="round" />
    <path d="M5.158 75.5754H16.1522C16.4997 75.5754 16.833 75.4375 17.0789 75.1919C17.3248 74.9464 17.4631 74.6132 17.4636 74.2657C17.4636 73.9179 17.3254 73.5844 17.0795 73.3384C16.8335 73.0925 16.5 72.9543 16.1522 72.9543H5.158C4.8102 72.9543 4.47665 73.0925 4.23071 73.3384C3.98478 73.5844 3.84662 73.9179 3.84662 74.2657C3.84706 74.6132 3.98542 74.9464 4.23131 75.1919C4.47719 75.4375 4.81049 75.5754 5.158 75.5754Z" fill="white" stroke="#2E353A" stroke-linecap="round" stroke-linejoin="round" />
    <path d="M18.2692 71.3767H3.50787V72.5043H18.2692V71.3767Z" fill="white" stroke="#2E353A" stroke-linecap="round" stroke-linejoin="round" />
    <path d="M6.17937 74.3743C6.17937 74.5382 6.13078 74.6983 6.03975 74.8346C5.94873 74.9708 5.81934 75.077 5.66797 75.1397C5.51659 75.2024 5.35003 75.2188 5.18933 75.1868C5.02863 75.1549 4.88102 75.076 4.76516 74.9601C4.64931 74.8442 4.57041 74.6966 4.53844 74.5359C4.50648 74.3752 4.52288 74.2087 4.58558 74.0573C4.64828 73.9059 4.75446 73.7765 4.8907 73.6855C5.02693 73.5945 5.1871 73.5459 5.35095 73.5459C5.57066 73.5459 5.78137 73.6332 5.93673 73.7885C6.09209 73.9439 6.17937 74.1546 6.17937 74.3743Z" fill="#2E353A" stroke="#2E353A" stroke-linecap="round" stroke-linejoin="round" />
    <path d="M8.05577 75.2027C8.5133 75.2027 8.88419 74.8318 8.88419 74.3743C8.88419 73.9168 8.5133 73.5459 8.05577 73.5459C7.59825 73.5459 7.22736 73.9168 7.22736 74.3743C7.22736 74.8318 7.59825 75.2027 8.05577 75.2027Z" fill="#2E353A" stroke="#2E353A" stroke-linecap="round" stroke-linejoin="round" />
    <path d="M10.945 75.5751C11.5053 75.5751 11.9596 75.1209 11.9596 74.5605C11.9596 74.0002 11.5053 73.5459 10.945 73.5459C10.3846 73.5459 9.93036 74.0002 9.93036 74.5605C9.93036 75.1209 10.3846 75.5751 10.945 75.5751Z" fill="#2E353A" stroke="#2E353A" stroke-linecap="round" stroke-linejoin="round" />
    <path d="M14.2922 74.3743C14.2922 74.5382 14.2436 74.6983 14.1526 74.8346C14.0616 74.9708 13.9322 75.077 13.7808 75.1397C13.6294 75.2024 13.4629 75.2188 13.3022 75.1868C13.1415 75.1549 12.9939 75.076 12.878 74.9601C12.7622 74.8443 12.6833 74.6966 12.6513 74.5359C12.6193 74.3752 12.6357 74.2087 12.6984 74.0573C12.7611 73.9059 12.8673 73.7765 13.0036 73.6855C13.1398 73.5945 13.2999 73.5459 13.4638 73.5459C13.6835 73.5459 13.8942 73.6332 14.0496 73.7885C14.2049 73.9439 14.2922 74.1546 14.2922 74.3743Z" fill="#2E353A" stroke="#2E353A" stroke-linecap="round" stroke-linejoin="round" />
    <path d="M17.3695 74.5605C17.3695 74.7612 17.31 74.9574 17.1985 75.1242C17.087 75.2911 16.9285 75.4211 16.7431 75.4979C16.5577 75.5747 16.3537 75.5948 16.1569 75.5557C15.9601 75.5165 15.7793 75.4199 15.6374 75.278C15.4955 75.1361 15.3989 74.9553 15.3597 74.7585C15.3206 74.5617 15.3406 74.3576 15.4174 74.1722C15.4942 73.9868 15.6243 73.8284 15.7911 73.7169C15.958 73.6054 16.1542 73.5459 16.3548 73.5459C16.6239 73.5459 16.882 73.6528 17.0723 73.8431C17.2626 74.0334 17.3695 74.2914 17.3695 74.5605Z" fill="#2E353A" stroke="#2E353A" stroke-linecap="round" stroke-linejoin="round" />
    <path d="M19.7001 74.3743C19.7001 74.5382 19.6515 74.6985 19.5604 74.8347C19.4693 74.971 19.3398 75.0772 19.1883 75.1398C19.0369 75.2025 18.8702 75.2188 18.7095 75.1867C18.5487 75.1546 18.4011 75.0755 18.2853 74.9595C18.1695 74.8435 18.0908 74.6957 18.059 74.5349C18.0272 74.3741 18.0439 74.2075 18.1068 74.0561C18.1698 73.9048 18.2762 73.7755 18.4127 73.6847C18.5491 73.5939 18.7095 73.5456 18.8734 73.5459C18.9821 73.5459 19.0897 73.5673 19.1901 73.609C19.2906 73.6506 19.3818 73.7117 19.4586 73.7886C19.5354 73.8656 19.5962 73.9569 19.6377 74.0574C19.6791 74.1579 19.7003 74.2656 19.7001 74.3743Z" fill="#2E353A" stroke="#2E353A" stroke-linecap="round" stroke-linejoin="round" />
    <path d="M27.7542 64.0598C27.7542 63.9685 27.7271 63.8793 27.6763 63.8034C27.6256 63.7275 27.5535 63.6684 27.4691 63.6336C27.3847 63.5987 27.2919 63.5897 27.2024 63.6076C27.1129 63.6255 27.0308 63.6696 26.9663 63.7343C26.9019 63.799 26.8581 63.8813 26.8405 63.9709C26.8229 64.0604 26.8323 64.1532 26.8674 64.2374C26.9026 64.3217 26.962 64.3936 27.038 64.4441C27.1141 64.4945 27.2034 64.5213 27.2947 64.521C27.3552 64.521 27.4151 64.509 27.4709 64.4858C27.5268 64.4626 27.5775 64.4286 27.6202 64.3858C27.6629 64.3429 27.6967 64.2921 27.7197 64.2361C27.7427 64.1802 27.7544 64.1203 27.7542 64.0598Z" fill="#2E353A" stroke="#2E353A" stroke-linecap="round" stroke-linejoin="round" />
    <path d="M15.9345 65.0649H11.0579V68.0097H15.9345V65.0649Z" fill="white" stroke="#2E353A" stroke-linecap="round" stroke-linejoin="round" />
    <path d="M16.431 65.0649H13.763V68.0097H16.431V65.0649Z" fill="white" stroke="#2E353A" stroke-linecap="round" stroke-linejoin="round" />
</svg>
