<svg xmlns="http://www.w3.org/2000/svg" xmlns:xlink="http://www.w3.org/1999/xlink" width="81" height="77" fill="none" xmlns:v="https://vecta.io/nano"><style><![CDATA[.B{stroke-linejoin:round}.C{fill:#2e353a}.D{fill:#fff}.E{stroke-linecap:round}.F{fill:#13cb6e}]]></style><g stroke="#2e353a" class="B"><g class="E"><path d="M43.703 6.174v27.623m3.282-26.882v26.881m3.598-12.171v26.037m3.81-40.747v40.747m3.81-40.747v27.623"/><path d="M40.846 9.877H58.31m-17.464 6.139h18.939m-19.256 5.609H61.59m-21.379 6.246H61.59m-17.358 6.772h16.193m-11.959 6.562H59.05"/><path d="M20.602 8.797l3.736 2.925m3.737-6.01l1.3 1.949M34.735 1l1.138 3.574" stroke-width="2"/></g><path d="M56.051 46.925h-6.162v-14.65H41.53V6.328a20.54 20.54 0 0 0-17.442 10.025 20.54 20.54 0 0 0-.513 20.111c.67 1.559 2.243 5.377 3.818 10.315 1.456 4.558 2.216 9.14 2.216 9.832v.205c-.007.206.027.411.101.604s.186.368.329.517a1.54 1.54 0 0 0 1.104.469H52.35a1.54 1.54 0 0 0 1.104-.47 1.54 1.54 0 0 0 .431-1.12v-.205c-.004-.684.741-5.178 2.167-9.686z" class="F"/><path d="M34.569 9.639a16.49 16.49 0 0 1 1.826-.696m-8.665 5.9s1.674-2.67 5.352-4.467m-4.913 34.027l2.12 7.864c.591 3.249.205 4.929 1.479 5.219m-4.531-16.053l.536 1.69m12.672 15.084V38.572s.822-5.135-1.848-5.135-2.465 2.67.616 5.546 7.805.205 8.421-2.054-1.027-3.286-2.054-1.438 0 22.798 0 22.798" stroke-width="2" class="E"/><path d="M52.886 58.287H30.722v5.143h22.164v-5.143zm0 6.367H30.722v5.143h22.164v-5.143z" class="D"/><path d="M52.886 63.43H30.722v1.224h22.164V63.43z" class="C"/><path d="M52.886 71.022H30.722v5.143h22.164v-5.143z" class="D"/><path d="M50.567 62.742h1.647m-20.621 0h18.181m-3.479 6.468h5.309m-16.721 0h10.802m-12.57 0h.914" class="E"/><path d="M52.886 69.797H30.722v1.224h22.164v-1.224z" class="C"/><path d="M39.802 72.149h-6.195v3.225h6.195v-3.225zm11.266 0h-7.587v3.95h7.587v-3.95z" class="F"/><path d="M78.276 64.443h-5.33v7.476h2.208 3.122 2.21v-3.738l-2.21-3.738z" class="C"/><path d="M80.486 71.919h-2.442v1.699h2.442v-1.699z" class="D"/><path d="M68.984 71.835s2.67-1.438 1.746-8.626l-3.389-1.849-5.854-.924-5.237.205v2.978s2.978 2.567 3.286 3.389a5.69 5.69 0 0 1 .308 1.746v2.876l9.14.205z" class="F"/><g class="E"><path d="M70.73 63.209l-1.746 8.626M67.341 61.36L65.39 71.835m-3.903-11.399L60.05 68.24"/><path d="M56.455 63.208s3.389 1.438 4.724 2.362 1.13 2.876 1.13 2.876"/></g><g class="D"><path d="M72.993 71.972H57.069v1.335h15.924v-1.335zm3.18-3.424h3.325l-1.785-3.081h-1.54v3.081z"/><path d="M75.659 65.468h-1.438v3.081h1.438v-3.081zm-8.811 6.451h-9.694v2.315h9.694v-2.315z"/></g><path d="M76.032 76.127a2.04 2.04 0 0 0 1.644-2.37 2.04 2.04 0 0 0-2.37-1.644 2.04 2.04 0 0 0-1.644 2.37 2.04 2.04 0 0 0 2.37 1.644z" class="C"/><use xlink:href="#B" class="D"/><path d="M59.814 75.459c.906-.16 1.51-1.024 1.349-1.93s-1.024-1.51-1.93-1.349-1.51 1.024-1.349 1.93 1.024 1.51 1.93 1.349z" class="C"/><use xlink:href="#B" x="-15.712" class="D"/><path d="M66.257 75.621a2.04 2.04 0 0 0-2.759-3.004 2.04 2.04 0 0 0 2.759 3.004z" class="C"/><use xlink:href="#B" x="-10.789" class="D"/><path d="M64.209 68.343h-5.135a.67.67 0 0 0-.668.667v2.157a.67.67 0 0 0 .668.667h5.135a.67.67 0 0 0 .667-.667v-2.157a.67.67 0 0 0-.667-.667z" class="C"/><path d="M55.839 71.835V61.678h2.054v10.157m-2.04-8.811h2.017m-2.017 1.585h2.017m-2.017 1.586h2.017m-2.017 1.588h2.017m-2.017 1.585h2.017m-2.017 1.586h2.017" class="E"/><path d="M14.759 76.364h-3.697V11.871l3.697 4.299v60.194z"/><use xlink:href="#C"/><use xlink:href="#C" y="-3.594"/><use xlink:href="#C" y="-7.189"/><use xlink:href="#C" y="-10.783"/><use xlink:href="#C" y="-14.377"/><use xlink:href="#C" y="-17.972"/><use xlink:href="#C" y="-21.566"/><use xlink:href="#C" y="-25.16"/><use xlink:href="#C" y="-28.755"/><use xlink:href="#C" y="-32.349"/><use xlink:href="#C" y="-35.943"/><use xlink:href="#C" y="-39.538"/><use xlink:href="#C" y="-43.132"/><path d="M31.924 19.773l-1.791-1.128H17.351l-1.561 1.128h16.133z"/><path d="M26.49 19.676H1v.671h25.49v-.671z" class="C"/><path d="M30.133 18.645l-19.07-6.774 6.289 6.774m-6.288-6.774L1 19.676" class="E"/><path d="M17.431 21.422H9.729v4.929h7.702v-4.929z" class="C"/><path d="M15.001 22.449h-3.668v1.174h3.668v-1.174z" class="D"/><path d="M32.219 20.498v8.856" class="E"/><path d="M32.971 32.379h-1.863v2.111h1.863v-2.111z" class="C"/><path d="M31.108 32.38l1.142-3.194 1.142 3.194" class="E"/><path d="M26.037 63.319l4.025 6.362 1.006-.736-2.961-5.923a1.6 1.6 0 0 0-1.434-.885.77.77 0 0 0-.664.405.77.77 0 0 0 .028.777z" class="F"/></g><path d="M30.861 69.46l-4.14 2.945s.369 1.563 2.76 1.471 2.301-2.576 2.301-2.576l-.921-1.84z" stroke="#fff" class="B C"/><g stroke="#2e353a" class="B"><path d="M17.706 66.311l7.499-3.379c.247-.111.525-.135.788-.066s.493.225.654.443c.094.127.162.272.199.426s.043.314.017.47-.082.306-.167.44-.195.25-.325.341l-8.205 5.744-.461-4.419z" class="F"/><path d="M14.618 72.166H6.889v1.196h7.729v-1.196z" class="D"/><path d="M11.734 67.996H3.508v3.381h8.226v-3.381z" class="C"/><path d="M10.664 64.163h6.983c.163 0 .32.065.436.18s.181.272.181.436v6.593h-8.218V64.78a.62.62 0 0 1 .047-.236c.031-.075.077-.143.134-.2s.126-.103.201-.134a.62.62 0 0 1 .237-.046z" class="F"/><path d="M3.129 75.575h10.996a1.31 1.31 0 0 0 1.31-1.31 1.31 1.31 0 0 0-1.31-1.311H3.129a1.31 1.31 0 0 0-1.31 1.311 1.31 1.31 0 0 0 1.31 1.31z" class="C"/><path d="M5.158 75.575h10.994a1.31 1.31 0 1 0 0-2.621H5.158a1.31 1.31 0 1 0 0 2.621zm13.111-4.198H3.508v1.128h14.761v-1.128z" class="D"/><g class="C"><use xlink:href="#D"/><path d="M8.056 75.203a.83.83 0 0 0 .828-.828.83.83 0 0 0-.828-.828.83.83 0 0 0-.828.828.83.83 0 0 0 .828.828zm2.889.372c.56 0 1.015-.454 1.015-1.015s-.454-1.015-1.015-1.015S9.93 74 9.93 74.561s.454 1.015 1.015 1.015z"/><use xlink:href="#D" x="8.113"/><path d="M17.37 74.561a1.01 1.01 0 0 1-.171.564 1.02 1.02 0 0 1-.455.374c-.185.077-.389.097-.586.058s-.378-.136-.52-.278-.239-.323-.278-.52-.019-.401.058-.586.207-.344.374-.455a1.02 1.02 0 0 1 .564-.171c.269 0 .527.107.717.297s.297.448.297.717zm2.33-.187a.83.83 0 0 1-1.415.585.83.83 0 0 1 .589-1.413.82.82 0 0 1 .317.063c.101.042.192.103.268.18a.83.83 0 0 1 .241.586zm8.054-10.314a.46.46 0 0 0-.788-.325.46.46 0 0 0 .328.787.46.46 0 0 0 .46-.461z"/></g><g class="D"><path d="M15.935 65.065h-4.877v2.945h4.877v-2.945z"/><path d="M16.431 65.065h-2.668v2.945h2.668v-2.945z"/></g></g><defs ><path id="B" d="M75.665 75.316a1.19 1.19 0 0 0 1.189-1.189 1.19 1.19 0 0 0-1.189-1.189 1.19 1.19 0 0 0-1.189 1.189 1.19 1.19 0 0 0 1.189 1.189z"/><path id="C" d="M11.099 62.808h3.625l-3.625-3.506h3.625l-3.625 3.506z"/><path id="D" d="M6.179 74.374a.83.83 0 0 1-.511.765.83.83 0 0 1-.903-.18.83.83 0 0 1-.18-.903.83.83 0 0 1 .765-.511.83.83 0 0 1 .828.828z"/></defs></svg>