<svg width="84" height="76" viewBox="0 0 84 76" fill="none" xmlns="http://www.w3.org/2000/svg">
    <path d="M50.907 0H2.0507C0.918128 0 0 0.918127 0 2.05069V73.9493C0 75.0819 0.918128 76 2.0507 76H50.907C52.0395 76 52.9577 75.0819 52.9577 73.9493V2.05069C52.9577 0.918127 52.0395 0 50.907 0Z" fill="#263238" />
    <path d="M51.2638 5.42236H1.64587V68.8909H51.2638V5.42236Z" fill="white" />
    <path d="M28.5109 72.1811C28.5105 72.5828 28.3911 72.9753 28.1677 73.3091C27.9443 73.6429 27.627 73.903 27.2558 74.0564C26.8846 74.2099 26.4763 74.2499 26.0824 74.1713C25.6885 74.0927 25.3267 73.8991 25.0428 73.615C24.7589 73.3309 24.5657 72.9689 24.4874 72.575C24.4092 72.181 24.4495 71.7727 24.6033 71.4017C24.7571 71.0306 25.0175 70.7135 25.3514 70.4904C25.6854 70.2673 26.0781 70.1482 26.4797 70.1482C26.7466 70.1482 27.0109 70.2008 27.2574 70.303C27.504 70.4052 27.728 70.5549 27.9166 70.7437C28.1052 70.9325 28.2548 71.1567 28.3568 71.4033C28.4587 71.6499 28.5111 71.9143 28.5109 72.1811Z" fill="#455A64" />
    <path d="M34.2386 2.18921H18.7208C18.6012 2.18921 18.5042 2.28619 18.5042 2.40582V2.81241C18.5042 2.93204 18.6012 3.02902 18.7208 3.02902H34.2386C34.3583 3.02902 34.4552 2.93204 34.4552 2.81241V2.40582C34.4552 2.28619 34.3583 2.18921 34.2386 2.18921Z" fill="#455A64" />
    <path d="M17.3483 15.6243H6.21065C5.75958 15.6243 5.39392 15.9899 5.39392 16.441V27.5787C5.39392 28.0297 5.75958 28.3954 6.21065 28.3954H17.3483C17.7994 28.3954 18.1651 28.0297 18.1651 27.5787V16.441C18.1651 15.9899 17.7994 15.6243 17.3483 15.6243Z" fill="#13CB6E" />
    <path d="M13.927 19.9763H9.609C9.35993 19.9763 9.15802 20.1782 9.15802 20.4273V22.3093C9.15802 22.5584 9.35993 22.7603 9.609 22.7603H13.927C14.1761 22.7603 14.378 22.5584 14.378 22.3093V20.4273C14.378 20.1782 14.1761 19.9763 13.927 19.9763Z" fill="#FAFAFA" />
    <path d="M15.3526 21.1833H8.20449C8.10251 21.1833 8.01984 21.266 8.01984 21.368V23.669C8.01984 23.771 8.10251 23.8537 8.20449 23.8537H15.3526C15.4546 23.8537 15.5373 23.771 15.5373 23.669V21.368C15.5373 21.266 15.4546 21.1833 15.3526 21.1833Z" fill="#FAFAFA" />
    <path d="M14.3779 21.1833C14.4215 21.4909 14.44 21.8014 14.433 22.1119V22.1652H14.3779C13.7387 22.1812 12.8066 22.1918 11.768 22.1918C10.7293 22.1918 9.79716 22.1812 9.15799 22.1652H9.10295V22.1119C9.09595 21.8014 9.11435 21.4909 9.15799 21.1833C9.20274 21.4907 9.22116 21.8014 9.21303 22.1119L9.15799 22.0569C9.79716 22.0409 10.7293 22.0303 11.768 22.0303C12.8066 22.0303 13.7387 22.0409 14.3779 22.0569L14.3229 22.1119C14.3147 21.8014 14.3332 21.4907 14.3779 21.1833Z" fill="#263238" />
    <path d="M9.13313 23.8307C9.08696 23.8307 9.05145 23.2518 9.05145 22.5381C9.05145 21.8244 9.08696 21.2473 9.13313 21.2473C9.17929 21.2473 9.21303 21.8244 9.21303 22.5381C9.21303 23.2518 9.17751 23.8307 9.13313 23.8307Z" fill="#263238" />
    <path d="M14.3832 23.8536C14.3371 23.8536 14.3016 23.2961 14.3016 22.6108C14.3016 21.9254 14.3371 21.3679 14.3832 21.3679C14.4294 21.3679 14.4631 21.9254 14.4631 22.6108C14.4631 23.2961 14.4276 23.8536 14.3832 23.8536Z" fill="#263238" />
    <path d="M31.7955 15.6243H20.6579C20.2068 15.6243 19.8411 15.9899 19.8411 16.441V27.5787C19.8411 28.0297 20.2068 28.3954 20.6579 28.3954H31.7955C32.2466 28.3954 32.6123 28.0297 32.6123 27.5787V16.441C32.6123 15.9899 32.2466 15.6243 31.7955 15.6243Z" fill="#E0E0E0" />
    <path d="M28.376 19.9763H24.058C23.8089 19.9763 23.607 20.1782 23.607 20.4273V22.3093C23.607 22.5584 23.8089 22.7603 24.058 22.7603H28.376C28.625 22.7603 28.8269 22.5584 28.8269 22.3093V20.4273C28.8269 20.1782 28.625 19.9763 28.376 19.9763Z" fill="#13CB6E" />
    <path d="M29.8016 21.1833H22.6535C22.5515 21.1833 22.4688 21.266 22.4688 21.368V23.669C22.4688 23.771 22.5515 23.8537 22.6535 23.8537H29.8016C29.9036 23.8537 29.9862 23.771 29.9862 23.669V21.368C29.9862 21.266 29.9036 21.1833 29.8016 21.1833Z" fill="#13CB6E" />
    <path d="M28.8268 21.1833C28.8692 21.491 28.887 21.8015 28.8801 22.1119V22.1652H28.8251C28.1859 22.1812 27.252 22.1918 26.2151 22.1918C25.1782 22.1918 24.2425 22.1812 23.6051 22.1652H23.5483V22.1119C23.5402 21.8014 23.5586 21.4907 23.6034 21.1833C23.6481 21.4907 23.6665 21.8014 23.6584 22.1119L23.6034 22.0569C24.2408 22.0409 25.1747 22.0303 26.2133 22.0303C27.252 22.0303 28.1841 22.0409 28.8233 22.0569L28.7683 22.1119C28.7613 21.8013 28.7809 21.4906 28.8268 21.1833Z" fill="#263238" />
    <path d="M23.5803 23.8307C23.5359 23.8307 23.4987 23.2518 23.4987 22.5381C23.4987 21.8244 23.5359 21.2473 23.5803 21.2473C23.6247 21.2473 23.662 21.8244 23.662 22.5381C23.662 23.2518 23.6265 23.8307 23.5803 23.8307Z" fill="#263238" />
    <path d="M28.8304 23.8536C28.7861 23.8536 28.7505 23.2961 28.7505 22.6108C28.7505 21.9254 28.7861 21.3679 28.8304 21.3679C28.8748 21.3679 28.9121 21.9254 28.9121 22.6108C28.9121 23.2961 28.8766 23.8536 28.8304 23.8536Z" fill="#263238" />
    <path d="M46.2445 15.6243H35.1068C34.6558 15.6243 34.2901 15.9899 34.2901 16.441V27.5787C34.2901 28.0297 34.6558 28.3954 35.1068 28.3954H46.2445C46.6955 28.3954 47.0612 28.0297 47.0612 27.5787V16.441C47.0612 15.9899 46.6955 15.6243 46.2445 15.6243Z" fill="#E0E0E0" />
    <path d="M42.8249 19.9763H38.5069C38.2579 19.9763 38.056 20.1782 38.056 20.4273V22.3093C38.056 22.5584 38.2579 22.7603 38.5069 22.7603H42.8249C43.074 22.7603 43.2759 22.5584 43.2759 22.3093V20.4273C43.2759 20.1782 43.074 19.9763 42.8249 19.9763Z" fill="#455A64" />
    <path d="M44.2505 21.1833H37.1024C37.0005 21.1833 36.9178 21.266 36.9178 21.368V23.669C36.9178 23.771 37.0005 23.8537 37.1024 23.8537H44.2505C44.3525 23.8537 44.4352 23.771 44.4352 23.669V21.368C44.4352 21.266 44.3525 21.1833 44.2505 21.1833Z" fill="#455A64" />
    <path d="M43.2741 21.1833C43.3188 21.4907 43.3372 21.8014 43.3291 22.1119V22.1652H43.2723C42.6349 22.1812 41.701 22.1918 40.6641 22.1918C39.6272 22.1918 38.6916 22.1812 38.0542 22.1652H37.9974V22.1119C37.9892 21.8014 38.0076 21.4907 38.0524 21.1833C38.096 21.4909 38.1144 21.8014 38.1074 22.1119L38.0524 22.0569C38.6898 22.0409 39.6237 22.0303 40.6623 22.0303C41.701 22.0303 42.6331 22.0409 43.2705 22.0569L43.2155 22.1119C43.2097 21.8013 43.2293 21.4908 43.2741 21.1833Z" fill="#263238" />
    <path d="M38.0293 23.8307C37.9849 23.8307 37.9476 23.2518 37.9476 22.5381C37.9476 21.8244 37.9849 21.2473 38.0293 21.2473C38.0737 21.2473 38.111 21.8244 38.111 22.5381C38.111 23.2518 38.0737 23.8307 38.0293 23.8307Z" fill="#263238" />
    <path d="M43.2794 23.8536C43.235 23.8536 43.1977 23.2961 43.1977 22.6108C43.1977 21.9254 43.235 21.3679 43.2794 21.3679C43.3237 21.3679 43.361 21.9254 43.361 22.6108C43.361 23.2961 43.3255 23.8536 43.2794 23.8536Z" fill="#263238" />
    <path d="M17.3483 31.6926H6.21065C5.75958 31.6926 5.39392 32.0583 5.39392 32.5094V43.647C5.39392 44.0981 5.75958 44.4637 6.21065 44.4637H17.3483C17.7994 44.4637 18.1651 44.0981 18.1651 43.647V32.5094C18.1651 32.0583 17.7994 31.6926 17.3483 31.6926Z" fill="#E0E0E0" />
    <path d="M9.11542 37.8551L9.7102 39.9288L13.7938 39.9448L14.4454 37.9598C14.2196 37.8854 13.981 37.8576 13.7441 37.8781L13.6731 35.6677C13.672 35.6181 13.6587 35.5696 13.6344 35.5264C13.6101 35.4832 13.5756 35.4467 13.5338 35.42C13.492 35.3933 13.4444 35.3774 13.395 35.3735C13.3455 35.3696 13.2959 35.378 13.2505 35.3978L12.8528 35.5753H10.5447L10.2801 35.4422C10.2345 35.419 10.1837 35.408 10.1326 35.4102C10.0814 35.4123 10.0317 35.4276 9.98823 35.4545C9.94472 35.4815 9.90886 35.5191 9.88412 35.5639C9.85937 35.6087 9.84656 35.6591 9.84692 35.7103V37.8923C9.60844 37.8285 9.35915 37.8158 9.11542 37.8551Z" fill="#13CB6E" />
    <path d="M9.92084 39.9306L9.70599 39.9297L9.69809 41.817L9.91293 41.8179L9.92084 39.9306Z" fill="#263238" />
    <path d="M10.6754 39.9389L10.4606 39.938L10.4565 40.9021L10.6713 40.903L10.6754 39.9389Z" fill="#263238" />
    <path d="M12.8379 39.9479L12.6231 39.947L12.6191 40.9111L12.8339 40.912L12.8379 39.9479Z" fill="#263238" />
    <path d="M13.7949 39.9467L13.5801 39.9458L13.5722 41.8331L13.787 41.834L13.7949 39.9467Z" fill="#263238" />
    <path d="M10.5748 38.7342C10.5589 38.7342 10.5482 38.024 10.5518 37.1558C10.5553 36.2876 10.5731 35.5774 10.589 35.5774C10.605 35.5774 10.6157 36.2876 10.6121 37.1558C10.6086 38.024 10.5908 38.7342 10.5748 38.7342Z" fill="#263238" />
    <path d="M12.8794 38.745C12.8634 38.745 12.8528 38.0348 12.8563 37.1666C12.8599 36.2983 12.8776 35.5881 12.8936 35.5881C12.9096 35.5881 12.9202 36.2983 12.9167 37.1666C12.9131 38.0348 12.8972 38.745 12.8794 38.745Z" fill="#263238" />
    <path d="M13.7406 37.8802C13.7069 37.8946 13.6718 37.9053 13.6358 37.9122L13.5772 37.9264L13.5115 37.9513L13.4334 37.9797L13.3517 38.0241C13.2161 38.1012 13.1043 38.2143 13.0286 38.3507C12.9353 38.5273 12.8958 38.7273 12.915 38.926V38.9562H11.7964L10.5731 38.9473H10.5482V38.9225C10.5458 38.7359 10.497 38.5528 10.4062 38.3898C10.339 38.267 10.2506 38.157 10.1452 38.0649C10.0474 37.9859 9.94075 37.9186 9.82739 37.8643C9.86044 37.8713 9.89259 37.882 9.92327 37.8962C10.01 37.9336 10.0912 37.9826 10.1647 38.0418C10.2799 38.1337 10.3768 38.2463 10.4506 38.3738C10.5484 38.5392 10.6022 38.7268 10.6068 38.9189L10.5802 38.8941H11.8035H12.8937L12.867 38.9242C12.8486 38.7192 12.8899 38.5132 12.986 38.3312C13.0702 38.1889 13.1934 38.0736 13.3411 37.9992L13.4263 37.9584L13.5062 37.9317L13.5755 37.9086L13.634 37.898C13.669 37.889 13.7046 37.8831 13.7406 37.8802Z" fill="#263238" />
    <path d="M10.5304 38.9331C10.5304 38.942 10.4541 38.9562 10.3405 39.0077C10.1939 39.074 10.0659 39.1752 9.96759 39.3024C9.87415 39.4329 9.81327 39.5839 9.79004 39.7427C9.78654 39.8105 9.77943 39.8781 9.76873 39.9451C9.74532 39.8785 9.73862 39.8072 9.7492 39.7374C9.76334 39.5671 9.82484 39.4041 9.92675 39.2669C10.0313 39.131 10.1723 39.0275 10.3334 38.9686C10.3951 38.9406 10.4628 38.9284 10.5304 38.9331Z" fill="#263238" />
    <path d="M13.7494 39.9912C13.7405 39.9912 13.7387 39.9042 13.705 39.7693C13.6621 39.5953 13.5794 39.4336 13.4635 39.297C13.3464 39.1623 13.2 39.056 13.0356 38.9863C12.9078 38.933 12.8226 38.9188 12.8244 38.9099C12.9016 38.9043 12.979 38.9178 13.0498 38.949C13.228 39.0093 13.3867 39.1165 13.5091 39.2592C13.6316 39.402 13.7134 39.5751 13.7458 39.7604C13.7659 39.8359 13.7671 39.9151 13.7494 39.9912Z" fill="#263238" />
    <path d="M31.7955 31.6926H20.6579C20.2068 31.6926 19.8411 32.0583 19.8411 32.5094V43.647C19.8411 44.0981 20.2068 44.4637 20.6579 44.4637H31.7955C32.2466 44.4637 32.6123 44.0981 32.6123 43.647V32.5094C32.6123 32.0583 32.2466 31.6926 31.7955 31.6926Z" fill="#E0E0E0" />
    <path d="M46.2445 31.6926H35.1068C34.6558 31.6926 34.2901 32.0583 34.2901 32.5094V43.647C34.2901 44.0981 34.6558 44.4637 35.1068 44.4637H46.2445C46.6955 44.4637 47.0612 44.0981 47.0612 43.647V32.5094C47.0612 32.0583 46.6955 31.6926 46.2445 31.6926Z" fill="#13CB6E" />
    <path d="M17.3483 47.7607H6.21065C5.75958 47.7607 5.39392 48.1264 5.39392 48.5775V59.7151C5.39392 60.1662 5.75958 60.5319 6.21065 60.5319H17.3483C17.7994 60.5319 18.1651 60.1662 18.1651 59.7151V48.5775C18.1651 48.1264 17.7994 47.7607 17.3483 47.7607Z" fill="#13CB6E" />
    <path d="M31.7955 47.7607H20.6579C20.2068 47.7607 19.8411 48.1264 19.8411 48.5775V59.7151C19.8411 60.1662 20.2068 60.5319 20.6579 60.5319H31.7955C32.2466 60.5319 32.6123 60.1662 32.6123 59.7151V48.5775C32.6123 48.1264 32.2466 47.7607 31.7955 47.7607Z" fill="#E0E0E0" />
    <path d="M46.2445 47.7607H35.1068C34.6558 47.7607 34.2901 48.1264 34.2901 48.5775V59.7151C34.2901 60.1662 34.6558 60.5319 35.1068 60.5319H46.2445C46.6955 60.5319 47.0612 60.1662 47.0612 59.7151V48.5775C47.0612 48.1264 46.6955 47.7607 46.2445 47.7607Z" fill="#E0E0E0" />
    <path d="M24.6314 64.7467C24.8844 64.7467 25.0895 64.5416 25.0895 64.2886C25.0895 64.0357 24.8844 63.8306 24.6314 63.8306C24.3784 63.8306 24.1733 64.0357 24.1733 64.2886C24.1733 64.5416 24.3784 64.7467 24.6314 64.7467Z" fill="#263238" />
    <path d="M26.9378 64.289C26.9374 64.3795 26.9102 64.4679 26.8597 64.543C26.8092 64.6181 26.7375 64.6765 26.6538 64.7109C26.57 64.7453 26.478 64.7541 26.3892 64.7362C26.3005 64.7184 26.219 64.6746 26.1551 64.6105C26.0913 64.5463 26.0478 64.4647 26.0303 64.3759C26.0127 64.2871 26.0219 64.1951 26.0566 64.1115C26.0914 64.0279 26.1501 63.9564 26.2254 63.9062C26.3007 63.8559 26.3892 63.8291 26.4797 63.8291C26.54 63.8291 26.5997 63.841 26.6554 63.8641C26.7111 63.8873 26.7617 63.9212 26.8042 63.9639C26.8468 64.0066 26.8805 64.0573 26.9034 64.1131C26.9263 64.1689 26.938 64.2287 26.9378 64.289Z" fill="#263238" />
    <path d="M28.7879 64.2887C28.7879 64.3798 28.7609 64.4687 28.7103 64.5444C28.6597 64.6201 28.5877 64.679 28.5036 64.7137C28.4195 64.7485 28.3269 64.7575 28.2377 64.7396C28.1484 64.7217 28.0665 64.6777 28.0022 64.6133C27.938 64.5488 27.8943 64.4667 27.8768 64.3773C27.8592 64.288 27.8686 64.1955 27.9037 64.1115C27.9388 64.0275 27.998 63.9558 28.0738 63.9055C28.1497 63.8552 28.2388 63.8285 28.3298 63.8289C28.4515 63.8293 28.568 63.878 28.6538 63.9642C28.7397 64.0504 28.7879 64.1671 28.7879 64.2887Z" fill="#263238" />
    <path d="M8.32529 10.7398H5.98874C5.96519 10.7398 5.94261 10.7305 5.92597 10.7138C5.90932 10.6972 5.89996 10.6746 5.89996 10.651C5.89996 10.6275 5.90932 10.6049 5.92597 10.5883C5.94261 10.5716 5.96519 10.5623 5.98874 10.5623H8.32529C8.34883 10.5623 8.37141 10.5716 8.38806 10.5883C8.40471 10.6049 8.41406 10.6275 8.41406 10.651C8.41406 10.6746 8.40471 10.6972 8.38806 10.7138C8.37141 10.7305 8.34883 10.7398 8.32529 10.7398Z" fill="#263238" />
    <path d="M6.89596 11.4874C6.87759 11.4873 6.85966 11.4817 6.84447 11.4714L5.79516 10.7239C5.78313 10.716 5.77326 10.7051 5.76644 10.6924C5.75962 10.6797 5.75607 10.6655 5.7561 10.6511C5.7569 10.6369 5.76081 10.623 5.76756 10.6104C5.77431 10.5978 5.78373 10.5869 5.79516 10.5783L6.87643 9.84148C6.88588 9.83323 6.89697 9.82708 6.90897 9.82343C6.92097 9.81977 6.93361 9.81871 6.94605 9.82029C6.9585 9.82188 6.97046 9.82609 6.98116 9.83264C6.99186 9.83919 7.00105 9.84793 7.00812 9.85829C7.0152 9.86865 7.02 9.88039 7.02221 9.89274C7.02441 9.90509 7.02398 9.91777 7.02093 9.92993C7.01788 9.9421 7.01228 9.95349 7.00452 9.96334C6.99675 9.97318 6.98698 9.98128 6.97585 9.98707L6.00112 10.6529L6.94922 11.3258C6.96476 11.3366 6.97642 11.3522 6.9825 11.3701C6.98858 11.3881 6.98875 11.4075 6.983 11.4256C6.97725 11.4436 6.96586 11.4593 6.95052 11.4705C6.93518 11.4816 6.91668 11.4875 6.89773 11.4874H6.89596Z" fill="#263238" />
    <path d="M46.0652 10.7488H43.7286C43.7051 10.7488 43.6825 10.7395 43.6658 10.7228C43.6492 10.7062 43.6398 10.6836 43.6398 10.6601C43.6398 10.6365 43.6492 10.6139 43.6658 10.5973C43.6825 10.5806 43.7051 10.5713 43.7286 10.5713H46.0652C46.0887 10.5713 46.1113 10.5806 46.1279 10.5973C46.1446 10.6139 46.1539 10.6365 46.1539 10.6601C46.1539 10.6836 46.1446 10.7062 46.1279 10.7228C46.1113 10.7395 46.0887 10.7488 46.0652 10.7488Z" fill="#263238" />
    <path d="M45.1224 11.4874C45.1077 11.4872 45.0933 11.4836 45.0804 11.4768C45.0674 11.47 45.0562 11.4603 45.0478 11.4483C45.0352 11.4288 45.0306 11.4052 45.0349 11.3824C45.0392 11.3596 45.0521 11.3394 45.0709 11.3258L46.0474 10.6582L45.1011 9.98707C45.082 9.97318 45.0692 9.95244 45.0652 9.92924C45.0612 9.90604 45.0664 9.8822 45.0797 9.86278C45.0865 9.85318 45.095 9.84501 45.1049 9.83873C45.1148 9.83246 45.1259 9.82821 45.1374 9.82623C45.149 9.82425 45.1608 9.82457 45.1723 9.82719C45.1837 9.82981 45.1945 9.83466 45.204 9.84148L46.2533 10.589C46.2655 10.5966 46.2754 10.6074 46.282 10.6202C46.2886 10.633 46.2915 10.6474 46.2906 10.6618C46.2904 10.6759 46.2869 10.6899 46.2805 10.7025C46.274 10.7151 46.2647 10.7261 46.2533 10.7345L45.1721 11.4714C45.1574 11.4815 45.1401 11.487 45.1224 11.4874Z" fill="#263238" />
    <path d="M14.3332 52.8341L9.91397 52.8418C9.67961 52.8422 9.48996 53.0325 9.49036 53.2669L9.49503 55.9372C9.49543 56.1716 9.68575 56.3612 9.92011 56.3608L14.3393 56.3531C14.5737 56.3527 14.7633 56.1624 14.7629 55.928L14.7582 53.2577C14.7578 53.0233 14.5675 52.8337 14.3332 52.8341Z" fill="#E0E0E0" />
    <path d="M13.3215 53.4904C13.3192 53.4679 13.3192 53.4453 13.3215 53.4229C13.3215 53.3708 13.3251 53.3069 13.3322 53.2311C13.3517 52.9948 13.3517 52.7573 13.3322 52.5209C13.3033 52.1751 13.1617 51.8482 12.9291 51.5906C12.7874 51.4457 12.6067 51.3452 12.4089 51.3012C12.1933 51.2582 11.9735 51.2397 11.7538 51.2461C11.3063 51.2461 10.866 51.3384 10.5606 51.587C10.4186 51.7039 10.3066 51.8531 10.2339 52.022C10.1708 52.1697 10.1295 52.3258 10.1114 52.4854C10.0874 52.7215 10.0874 52.9595 10.1114 53.1956C10.1185 53.2737 10.1239 53.3377 10.1274 53.3874C10.1274 53.4318 10.1274 53.4548 10.1274 53.4548C10.12 53.4336 10.1152 53.4115 10.1132 53.3891C10.1132 53.3465 10.0972 53.2808 10.0866 53.1992C10.0531 52.964 10.046 52.7258 10.0653 52.489C10.0819 52.3241 10.1226 52.1626 10.186 52.0096C10.259 51.8319 10.3742 51.6747 10.5216 51.5515C10.6869 51.4191 10.8789 51.324 11.0844 51.2728C11.3028 51.219 11.527 51.1922 11.752 51.1929C11.9765 51.1865 12.2011 51.2055 12.4213 51.2497C12.6299 51.2971 12.82 51.4045 12.9682 51.5586C13.2075 51.8263 13.3506 52.1662 13.3748 52.5245C13.3931 52.7611 13.3884 52.999 13.3606 53.2347C13.3606 53.3181 13.3446 53.382 13.3393 53.4247C13.3351 53.447 13.3292 53.469 13.3215 53.4904Z" fill="#263238" />
    <path d="M13.6673 52.8172L9.24814 52.8249C9.01378 52.8254 8.82412 53.0157 8.82453 53.25L8.82919 55.9204C8.8296 56.1547 9.01992 56.3444 9.25428 56.344L13.6735 56.3362C13.9078 56.3358 14.0975 56.1455 14.0971 55.9112L14.0924 53.2408C14.092 53.0065 13.9017 52.8168 13.6673 52.8172Z" fill="#FAFAFA" />
    <path d="M13.6695 56.3398C13.7263 56.3346 13.782 56.3209 13.8347 56.299C13.8969 56.2715 13.9513 56.2288 13.9927 56.1747C14.0503 56.102 14.0816 56.0119 14.0815 55.919C14.0815 55.4894 14.0815 54.8733 14.069 54.1134C14.069 53.9234 14.069 53.7228 14.069 53.515C14.069 53.4121 14.069 53.302 14.069 53.2008C14.0572 53.0964 14.005 53.0007 13.9234 52.9345C13.8367 52.867 13.7273 52.8358 13.618 52.8475H13.2629H12.5261H9.24857C9.18104 52.8477 9.11472 52.8653 9.05596 52.8986C8.9972 52.9319 8.94797 52.9797 8.913 53.0374C8.87748 53.0939 8.85785 53.1589 8.85618 53.2256C8.85618 53.2967 8.85618 53.3659 8.85618 53.4369C8.85618 53.721 8.85618 53.9997 8.85618 54.2732V55.8551C8.85265 55.915 8.85925 55.975 8.87571 56.0327C8.89383 56.0871 8.92282 56.1372 8.96093 56.18C8.99916 56.2223 9.0461 56.2558 9.09852 56.2782C9.15093 56.3005 9.20758 56.3113 9.26455 56.3096H11.2105H13.0144H13.5062H13.634H13.6766H13.634H13.5062H13.0162L11.2105 56.3238H9.96764H9.25744C9.19266 56.3259 9.1282 56.3139 9.06845 56.2888C9.00871 56.2637 8.95508 56.226 8.91122 56.1783C8.86633 56.1301 8.83294 56.0725 8.81357 56.0096C8.79464 55.9469 8.78683 55.8814 8.79049 55.8161C8.79049 55.3118 8.79049 54.7827 8.79049 54.2341C8.79049 53.9607 8.79049 53.6819 8.79049 53.3979C8.79049 53.3268 8.79049 53.2576 8.79049 53.183C8.79322 53.1063 8.81586 53.0317 8.85618 52.9664C8.89689 52.8998 8.95402 52.8447 9.0221 52.8065C9.09018 52.7683 9.16693 52.7481 9.24501 52.748H12.5226H13.6109C13.7322 52.737 13.8531 52.7733 13.9483 52.8492C13.9937 52.8861 14.0314 52.9316 14.0591 52.9831C14.0869 53.0346 14.1041 53.0911 14.1099 53.1493C14.1099 53.2611 14.1099 53.3641 14.1099 53.4689C14.1099 53.6766 14.1099 53.8772 14.1099 54.0672C14.1099 54.8271 14.1099 55.4432 14.1099 55.8729C14.1082 55.9707 14.0739 56.0651 14.0122 56.141C13.9671 56.1957 13.9092 56.2384 13.8435 56.2653C13.7939 56.3063 13.7335 56.3322 13.6695 56.3398Z" fill="#263238" />
    <path d="M28.6649 52.8341L24.2458 52.8418C24.0114 52.8422 23.8217 53.0325 23.8222 53.2669L23.8268 55.9372C23.8272 56.1716 24.0175 56.3612 24.2519 56.3608L28.6711 56.3531C28.9054 56.3527 29.0951 56.1624 29.0947 55.928L29.09 53.2577C29.0896 53.0233 28.8993 52.8337 28.6649 52.8341Z" fill="#13CB6E" />
    <path d="M27.6533 53.4904C27.651 53.4679 27.651 53.4453 27.6533 53.4229C27.6533 53.3708 27.6569 53.3069 27.664 53.2311C27.6835 52.9948 27.6835 52.7573 27.664 52.5209C27.6351 52.1751 27.4935 51.8482 27.2609 51.5906C27.1192 51.4457 26.9385 51.3452 26.7407 51.3012C26.5251 51.2582 26.3053 51.2397 26.0856 51.2461C25.6381 51.2461 25.1978 51.3384 24.8924 51.587C24.7504 51.7039 24.6384 51.8531 24.5657 52.022C24.5025 52.1697 24.4613 52.3258 24.4432 52.4854C24.4192 52.7215 24.4192 52.9595 24.4432 53.1956C24.4503 53.2737 24.4556 53.3377 24.4592 53.3874C24.4592 53.4318 24.4592 53.4548 24.4592 53.4548C24.4518 53.4336 24.447 53.4115 24.445 53.3891C24.445 53.3465 24.429 53.2808 24.4184 53.1992C24.3849 52.964 24.3777 52.7258 24.3971 52.489C24.4137 52.3241 24.4544 52.1626 24.5178 52.0096C24.5908 51.8319 24.706 51.6747 24.8534 51.5515C25.0187 51.4191 25.2107 51.324 25.4162 51.2728C25.6346 51.219 25.8588 51.1922 26.0838 51.1929C26.3083 51.1865 26.5329 51.2055 26.7532 51.2497C26.9617 51.2971 27.1518 51.4045 27.3 51.5586C27.5393 51.8263 27.6824 52.1662 27.7066 52.5245C27.725 52.7611 27.7202 52.999 27.6924 53.2347C27.6924 53.3181 27.6764 53.382 27.6711 53.4247C27.668 53.4472 27.6621 53.4693 27.6533 53.4904Z" fill="#263238" />
    <path d="M27.9991 52.8172L23.5799 52.8249C23.3455 52.8254 23.1558 53.0157 23.1563 53.25L23.1609 55.9204C23.1613 56.1547 23.3516 56.3444 23.586 56.344L28.0052 56.3362C28.2396 56.3358 28.4292 56.1455 28.4288 55.9112L28.4241 53.2408C28.4237 53.0065 28.2334 52.8168 27.9991 52.8172Z" fill="#13CB6E" />
    <path d="M28.0013 56.3398C28.0581 56.3346 28.1137 56.3209 28.1664 56.299C28.2287 56.2715 28.283 56.2288 28.3244 56.1747C28.3821 56.102 28.4134 56.0119 28.4132 55.919C28.4132 55.4894 28.4132 54.8733 28.4008 54.1134C28.4008 53.9234 28.4008 53.7228 28.4008 53.515C28.4008 53.4121 28.4008 53.302 28.4008 53.2008C28.389 53.0964 28.3367 53.0007 28.2552 52.9345C28.1685 52.867 28.059 52.8358 27.9498 52.8475H27.5947H26.8579H23.5803C23.5128 52.8477 23.4465 52.8653 23.3877 52.8986C23.329 52.9319 23.2797 52.9797 23.2447 53.0374C23.2092 53.0939 23.1896 53.1589 23.1879 53.2256C23.1879 53.2967 23.1879 53.3659 23.1879 53.4369C23.1879 53.721 23.1879 53.9997 23.1879 54.2732V55.8551C23.1844 55.915 23.191 55.975 23.2075 56.0327C23.2256 56.0871 23.2546 56.1372 23.2927 56.18C23.3312 56.2224 23.3784 56.256 23.4312 56.2784C23.4839 56.3007 23.5408 56.3114 23.5981 56.3096H25.5387H27.3443H27.8344H27.9622H28.0048H27.9622H27.8344H27.3443L25.5387 56.3238H24.2958H23.6016C23.5368 56.3259 23.4724 56.3139 23.4126 56.2888C23.3529 56.2637 23.2993 56.226 23.2554 56.1783C23.2105 56.1301 23.1771 56.0725 23.1578 56.0096C23.1394 55.9468 23.1322 55.8813 23.1364 55.8161C23.1364 55.3118 23.1364 54.7827 23.1364 54.2341C23.1364 53.9607 23.1364 53.6819 23.1364 53.3979C23.1364 53.3268 23.1364 53.2576 23.1364 53.183C23.1392 53.1063 23.1618 53.0317 23.2021 52.9664C23.2428 52.8998 23.3 52.8447 23.3681 52.8065C23.4361 52.7683 23.5129 52.7481 23.591 52.748H26.8685H27.9569C28.0782 52.737 28.199 52.7733 28.2942 52.8492C28.3859 52.924 28.4446 53.0317 28.4576 53.1493C28.4576 53.2611 28.4576 53.3641 28.4576 53.4689C28.4576 53.6766 28.4576 53.8772 28.4576 54.0672C28.4576 54.8271 28.4576 55.4432 28.4576 55.8729C28.4568 55.9573 28.4311 56.0395 28.3837 56.1093C28.3364 56.1792 28.2694 56.2334 28.1913 56.2653C28.1372 56.3092 28.0708 56.3353 28.0013 56.3398Z" fill="#263238" />
    <path d="M43.5649 52.8329L39.1457 52.8406C38.9113 52.841 38.7216 53.0313 38.7221 53.2656L38.7267 55.936C38.7271 56.1703 38.9174 56.36 39.1518 56.3596L43.571 56.3519C43.8054 56.3515 43.995 56.1612 43.9946 55.9268L43.9899 53.2565C43.9895 53.0221 43.7992 52.8324 43.5649 52.8329Z" fill="#455A64" />
    <path d="M42.5533 53.4904C42.5509 53.4679 42.5509 53.4453 42.5533 53.4229C42.5533 53.3708 42.5568 53.3069 42.5639 53.2311C42.5834 52.9948 42.5834 52.7573 42.5639 52.5209C42.5341 52.1753 42.3927 51.8487 42.1609 51.5906C42.0192 51.4457 41.8384 51.3452 41.6407 51.3012C41.425 51.2582 41.2053 51.2398 40.9855 51.2461C40.5363 51.2461 40.0978 51.3384 39.7906 51.587C39.6496 51.7045 39.5383 51.8535 39.4657 52.022C39.4025 52.1697 39.3612 52.3258 39.3432 52.4854C39.3192 52.7215 39.3192 52.9595 39.3432 53.1956C39.3503 53.2737 39.3556 53.3377 39.3592 53.3874C39.3619 53.4098 39.3619 53.4324 39.3592 53.4548C39.3517 53.4336 39.347 53.4115 39.345 53.3891C39.345 53.3465 39.329 53.2808 39.3183 53.1992C39.2848 52.964 39.2777 52.7258 39.297 52.489C39.3128 52.324 39.3535 52.1624 39.4178 52.0096C39.4901 51.8315 39.6054 51.6742 39.7533 51.5515C39.9187 51.4191 40.1106 51.324 40.3161 51.2728C40.5345 51.2188 40.7588 51.192 40.9837 51.1929C41.2083 51.1865 41.4328 51.2055 41.6531 51.2497C41.8615 51.2975 42.0515 51.4048 42.1999 51.5586C42.4395 51.826 42.5821 52.1662 42.6047 52.5245C42.6244 52.761 42.6203 52.999 42.5923 53.2347C42.5923 53.3181 42.5763 53.382 42.571 53.4247C42.5668 53.447 42.5609 53.469 42.5533 53.4904Z" fill="#263238" />
    <path d="M42.899 52.8165L38.4798 52.8242C38.2455 52.8246 38.0558 53.0149 38.0562 53.2493L38.0609 55.9196C38.0613 56.154 38.2516 56.3436 38.486 56.3432L42.9052 56.3355C43.1395 56.3351 43.3292 56.1448 43.3288 55.9104L43.3241 53.2401C43.3237 53.0057 43.1334 52.8161 42.899 52.8165Z" fill="#455A64" />
    <path d="M42.9012 56.3398C42.958 56.3346 43.0137 56.3209 43.0663 56.299C43.1286 56.2715 43.183 56.2288 43.2244 56.1747C43.282 56.102 43.3133 56.0119 43.3131 55.919C43.3131 55.4894 43.3131 54.8733 43.3007 54.1134C43.3007 53.9234 43.3007 53.7228 43.3007 53.515C43.3007 53.4121 43.3007 53.302 43.3007 53.2008C43.2888 53.096 43.2358 53.0002 43.1533 52.9345C43.0674 52.8668 42.9584 52.8356 42.8497 52.8475H42.4946H41.7578H38.4802C38.4127 52.8477 38.3464 52.8653 38.2876 52.8986C38.2289 52.9319 38.1796 52.9797 38.1447 53.0374C38.1091 53.0939 38.0895 53.1589 38.0878 53.2256C38.0878 53.2967 38.0878 53.3659 38.0878 53.4369C38.0878 53.721 38.0878 53.9997 38.0878 54.2732V55.8551C38.0843 55.915 38.0909 55.975 38.1074 56.0327C38.1248 56.0874 38.1538 56.1377 38.1926 56.18C38.2307 56.2224 38.2777 56.2559 38.3301 56.2783C38.3825 56.3007 38.4392 56.3114 38.4962 56.3096H40.4351H42.239H42.7308H42.8586H42.9012H42.8586H42.7308H42.239L40.4351 56.3238H39.1922H38.4962C38.4317 56.3257 38.3675 56.3137 38.3081 56.2886C38.2487 56.2635 38.1953 56.2258 38.1518 56.1783C38.1069 56.1298 38.073 56.0723 38.0523 56.0096C38.0348 55.9467 38.0276 55.8813 38.031 55.8161C38.031 55.3118 38.031 54.7827 38.031 54.2341C38.031 53.9607 38.031 53.6819 38.031 53.3979C38.031 53.3268 38.031 53.2576 38.031 53.183C38.0338 53.1063 38.0564 53.0317 38.0967 52.9664C38.1371 52.8999 38.194 52.8449 38.2617 52.8067C38.3295 52.7685 38.406 52.7483 38.4838 52.748H41.7631H42.8515C42.9728 52.737 43.0937 52.7733 43.1888 52.8492C43.2343 52.8861 43.272 52.9316 43.2997 52.9831C43.3274 53.0346 43.3447 53.0911 43.3504 53.1493C43.3504 53.2611 43.3504 53.3641 43.3504 53.4689C43.3504 53.6766 43.3504 53.8772 43.3504 54.0672C43.3504 54.8271 43.3504 55.4432 43.3504 55.8729C43.3488 55.9707 43.3144 56.0651 43.2528 56.141C43.2077 56.1957 43.1497 56.2384 43.0841 56.2653C43.032 56.3079 42.9683 56.3339 42.9012 56.3398Z" fill="#263238" />
    <path d="M23.8165 38.2033L24.4113 40.2842L28.4949 40.3019L29.1429 38.3098C28.9171 38.2354 28.6784 38.2082 28.4416 38.2299L28.3742 36.023C28.3726 35.9736 28.3591 35.9253 28.3347 35.8824C28.3103 35.8394 28.2757 35.8031 28.2341 35.7765C28.1925 35.7499 28.145 35.7339 28.0957 35.7298C28.0465 35.7257 27.997 35.7337 27.9516 35.7531L27.5539 35.9306L25.2457 35.92L24.9812 35.7868C24.9356 35.7637 24.8847 35.7527 24.8336 35.7548C24.7825 35.757 24.7328 35.7723 24.6893 35.7992C24.6458 35.8261 24.6099 35.8638 24.5852 35.9086C24.5604 35.9534 24.5476 36.0038 24.548 36.0549V38.2388C24.3095 38.1747 24.06 38.1626 23.8165 38.2033Z" fill="#455A64" />
    <path d="M24.6221 40.2797L24.4073 40.2788L24.3994 42.1661L24.6142 42.167L24.6221 40.2797Z" fill="#263238" />
    <path d="M25.3802 40.2812L25.1654 40.2803L25.1614 41.2444L25.3762 41.2453L25.3802 40.2812Z" fill="#263238" />
    <path d="M27.5391 40.2956L27.3243 40.2947L27.3202 41.2587L27.5351 41.2596L27.5391 40.2956Z" fill="#263238" />
    <path d="M28.4926 40.3009L28.2778 40.3L28.2699 42.1874L28.4847 42.1883L28.4926 40.3009Z" fill="#263238" />
    <path d="M25.2759 39.0838C25.2599 39.0838 25.2493 38.3736 25.2528 37.5054C25.2564 36.6372 25.2723 35.927 25.2901 35.927C25.3079 35.927 25.315 36.6372 25.3114 37.5054C25.3079 38.3736 25.2919 39.0838 25.2759 39.0838Z" fill="#263238" />
    <path d="M27.5805 39.0928C27.5645 39.0928 27.5539 38.3827 27.5574 37.5144C27.561 36.6462 27.577 35.936 27.5947 35.936C27.6125 35.936 27.6213 36.6462 27.616 37.5144C27.6107 38.3827 27.5965 39.0928 27.5805 39.0928Z" fill="#263238" />
    <path d="M28.4417 38.23C28.4068 38.2422 28.3712 38.2523 28.3351 38.2601L28.2783 38.2743L28.2109 38.301L28.1345 38.3294L28.0528 38.3738C27.9169 38.4497 27.8049 38.5623 27.7297 38.6987C27.6363 38.8758 27.5968 39.0764 27.6161 39.2757V39.3041H26.4975H25.2742H25.2493V39.2793C25.2481 39.0927 25.1999 38.9095 25.109 38.7466C25.0403 38.6218 24.9494 38.5105 24.8409 38.4182C24.7431 38.3392 24.6365 38.2719 24.5231 38.2175C24.5555 38.2243 24.587 38.2344 24.6172 38.2477C24.7044 38.2853 24.7862 38.3343 24.8605 38.3933C24.9756 38.4859 25.0726 38.5991 25.1463 38.7271C25.2434 38.8928 25.2971 39.0802 25.3026 39.2722L25.2759 39.2455H26.4993H27.5894L27.5628 39.2757C27.5449 39.0663 27.5894 38.8563 27.6906 38.6721C27.7723 38.5308 27.8923 38.4157 28.0369 38.34L28.1239 38.2974L28.2038 38.2708L28.273 38.2495L28.3316 38.2388C28.3678 38.2315 28.4048 38.2285 28.4417 38.23Z" fill="#263238" />
    <path d="M25.2369 39.2809C25.2369 39.2916 25.1605 39.3058 25.0469 39.3573C24.8993 39.4226 24.7708 39.5243 24.6733 39.6529C24.5758 39.7815 24.5125 39.9327 24.4894 40.0923C24.4857 40.1601 24.4786 40.2277 24.4681 40.2948C24.4451 40.228 24.4384 40.1568 24.4485 40.087C24.4611 39.9163 24.5228 39.753 24.6261 39.6165C24.7304 39.4811 24.8706 39.3777 25.0309 39.3182C25.0955 39.2891 25.1662 39.2763 25.2369 39.2809Z" fill="#263238" />
    <path d="M28.4504 40.3391C28.4416 40.3391 28.4398 40.2521 28.406 40.119C28.3635 39.9449 28.2808 39.7831 28.1646 39.6467C28.0471 39.5115 27.9001 39.4052 27.7349 39.336C27.6089 39.2827 27.5219 39.2667 27.5236 39.2579C27.6014 39.2522 27.6795 39.2656 27.7509 39.2969C27.9289 39.358 28.0873 39.4657 28.2097 39.6086C28.3321 39.7516 28.414 39.9248 28.4469 40.1101C28.467 40.185 28.4682 40.2637 28.4504 40.3391Z" fill="#263238" />
    <path d="M38.3116 37.6581L38.9081 39.7337L42.9918 39.7514L43.6434 37.7647C43.4175 37.6902 43.1789 37.6624 42.9421 37.683L42.8764 35.4778C42.8749 35.4282 42.8614 35.3797 42.8369 35.3366C42.8124 35.2934 42.7777 35.2569 42.7358 35.2303C42.6939 35.2036 42.6462 35.1877 42.5967 35.1838C42.5472 35.1799 42.4975 35.1882 42.452 35.208L42.0543 35.3855L39.7551 35.3766L39.4905 35.2435C39.4448 35.2199 39.3938 35.2085 39.3424 35.2105C39.291 35.2125 39.241 35.2277 39.1973 35.2546C39.1535 35.2816 39.1175 35.3194 39.0926 35.3645C39.0678 35.4095 39.055 35.4601 39.0555 35.5116V37.6936C38.8129 37.6286 38.5592 37.6165 38.3116 37.6581Z" fill="#FAFAFA" />
    <path d="M39.1176 39.7333L38.9028 39.7324L38.8949 41.6198L39.1097 41.6207L39.1176 39.7333Z" fill="#263238" />
    <path d="M39.8757 39.7363L39.6609 39.7354L39.6569 40.6994L39.8717 40.7003L39.8757 39.7363Z" fill="#263238" />
    <path d="M42.0382 39.7453L41.8234 39.7444L41.8193 40.7085L42.0341 40.7094L42.0382 39.7453Z" fill="#263238" />
    <path d="M42.9864 39.7565L42.7715 39.7556L42.7636 41.643L42.9785 41.6439L42.9864 39.7565Z" fill="#263238" />
    <path d="M39.7711 38.5374C39.7551 38.5374 39.7462 37.8272 39.7497 36.959C39.7533 36.0908 39.7693 35.3823 39.7853 35.3823C39.8013 35.3823 39.8119 36.0925 39.8084 36.9607C39.8048 37.829 39.7959 38.5374 39.7711 38.5374Z" fill="#263238" />
    <path d="M42.0774 38.5477C42.0596 38.5477 42.0507 37.8375 42.0543 36.9693C42.0578 36.1011 42.0738 35.3909 42.0898 35.3909C42.1058 35.3909 42.1164 36.1011 42.1129 36.9693C42.1093 37.8375 42.0934 38.5477 42.0774 38.5477Z" fill="#263238" />
    <path d="M42.9367 37.683C42.9032 37.6978 42.868 37.7085 42.832 37.715L42.7734 37.7292L42.7077 37.754L42.6296 37.7824L42.5479 37.8268C42.4123 37.904 42.3005 38.017 42.2248 38.1535C42.1316 38.3301 42.0921 38.53 42.1111 38.7288V38.759H40.9908H39.7675H39.7427V38.7341C39.7411 38.5474 39.6922 38.3641 39.6006 38.2015C39.5318 38.0762 39.441 37.9643 39.3325 37.8712C39.2354 37.7918 39.1286 37.725 39.0147 37.6724C39.0483 37.6765 39.0808 37.6867 39.1106 37.7025C39.1973 37.74 39.2785 37.7889 39.352 37.8481C39.4668 37.9404 39.5637 38.053 39.6379 38.1802C39.7352 38.3457 39.789 38.5333 39.7941 38.7252L39.7675 38.7004H40.9908H42.081L42.0543 38.7306C42.036 38.5203 42.0811 38.3094 42.1839 38.1251C42.2646 37.9836 42.385 37.8688 42.5302 37.7949L42.6154 37.7523L42.6953 37.7256L42.7645 37.7043L42.8249 37.6937C42.8619 37.6876 42.8993 37.684 42.9367 37.683Z" fill="#263238" />
    <path d="M39.7266 38.7361C39.7266 38.745 39.6503 38.7592 39.5384 38.8107C39.3908 38.8759 39.2622 38.9775 39.1646 39.1061C39.0671 39.2347 39.0039 39.386 38.9809 39.5457C38.9614 39.6682 38.9685 39.7481 38.9596 39.7481C38.934 39.6826 38.9267 39.6115 38.9383 39.5422C38.9515 39.3711 39.0131 39.2073 39.1158 39.0699C39.219 38.9337 39.3597 38.8306 39.5207 38.7734C39.5848 38.7429 39.6559 38.73 39.7266 38.7361Z" fill="#263238" />
    <path d="M42.9457 39.7939C42.9368 39.7939 42.935 39.7069 42.9013 39.572C42.8597 39.398 42.7773 39.2364 42.6609 39.1006C42.5445 38.9648 42.3975 38.8586 42.2319 38.7908C42.1041 38.7357 42.0189 38.7215 42.0207 38.7127C42.0979 38.7071 42.1753 38.7205 42.2461 38.7517C42.4244 38.8124 42.5832 38.9197 42.706 39.0624C42.8275 39.2056 42.9089 39.3783 42.9421 39.5631C42.9622 39.6386 42.9634 39.7179 42.9457 39.7939Z" fill="#263238" />
    <path d="M20.2655 10.55C20.2638 10.4534 20.2822 10.3575 20.3194 10.2683C20.3567 10.1791 20.412 10.0987 20.4819 10.0319C20.5518 9.96521 20.6347 9.91369 20.7255 9.88062C20.8163 9.84755 20.913 9.83365 21.0094 9.8398C21.1194 9.83449 21.2291 9.85483 21.3298 9.8992C21.4306 9.94357 21.5197 10.0108 21.59 10.0955L21.3468 10.3156C21.3096 10.2665 21.2616 10.2266 21.2065 10.1992C21.1513 10.1718 21.0905 10.1575 21.0289 10.1576C20.9311 10.1643 20.8393 10.2078 20.7723 10.2795C20.7054 10.3512 20.6681 10.4457 20.6681 10.5438C20.6681 10.6419 20.7054 10.7364 20.7723 10.808C20.8393 10.8797 20.9311 10.9233 21.0289 10.9299C21.0905 10.9296 21.1511 10.9152 21.2062 10.8878C21.2613 10.8604 21.3094 10.8208 21.3468 10.7719L21.59 10.9921C21.5195 11.0765 21.4304 11.1433 21.3296 11.1874C21.2288 11.2314 21.1192 11.2515 21.0094 11.246C20.9142 11.252 20.8187 11.2386 20.7289 11.2063C20.6391 11.1741 20.5568 11.1239 20.4871 11.0587C20.4174 10.9935 20.3618 10.9147 20.3237 10.8273C20.2856 10.7398 20.2658 10.6454 20.2655 10.55Z" fill="#263238" />
    <path d="M22.6481 10.9637H22.0764L21.9699 11.2265H21.5793L22.1776 9.87354H22.554L23.1524 11.2265H22.7511L22.6481 10.9637ZM22.5363 10.6814L22.3587 10.2499L22.1812 10.6814H22.5363Z" fill="#263238" />
    <path d="M23.4809 10.1771H23.0654V9.87354H24.2763V10.1771H23.8626V11.2265H23.4809V10.1771Z" fill="#263238" />
    <path d="M25.2582 10.9637H24.6865L24.5799 11.2265H24.1893L24.7859 9.87354H25.1623L25.7624 11.2265H25.3647L25.2582 10.9637ZM25.1463 10.6814L24.9688 10.2499L24.7912 10.6814H25.1463Z" fill="#263238" />
    <path d="M25.8707 9.87354H26.2525V10.9229H26.897V11.2265H25.8707V9.87354Z" fill="#263238" />
    <path d="M26.9573 10.5501C26.9487 10.3996 26.9856 10.25 27.063 10.1207C27.1405 9.99135 27.2549 9.88826 27.3916 9.82474C27.5283 9.76123 27.6809 9.74021 27.8297 9.7644C27.9785 9.7886 28.1166 9.8569 28.2261 9.96047C28.3356 10.064 28.4115 10.1981 28.444 10.3453C28.4765 10.4925 28.464 10.646 28.4082 10.7861C28.3525 10.9261 28.2559 11.0461 28.1311 11.1307C28.0063 11.2152 27.859 11.2604 27.7083 11.2603C27.6117 11.2658 27.5149 11.2516 27.424 11.2184C27.333 11.1852 27.2498 11.1338 27.1795 11.0673C27.1092 11.0007 27.0532 10.9206 27.015 10.8316C26.9767 10.7427 26.9571 10.6469 26.9573 10.5501ZM28.0741 10.5501C28.0699 10.4788 28.045 10.4103 28.0023 10.353C27.9597 10.2957 27.9012 10.2522 27.8341 10.2277C27.767 10.2033 27.6943 10.199 27.6248 10.2154C27.5553 10.2319 27.4921 10.2683 27.4431 10.3202C27.394 10.3721 27.3613 10.4372 27.3488 10.5075C27.3363 10.5778 27.3447 10.6502 27.3729 10.7158C27.4011 10.7814 27.4479 10.8373 27.5075 10.8767C27.5671 10.916 27.6369 10.937 27.7083 10.9371C27.7589 10.9394 27.8095 10.9307 27.8565 10.9118C27.9035 10.8929 27.9459 10.8642 27.9809 10.8275C28.0159 10.7908 28.0426 10.7471 28.0593 10.6993C28.076 10.6514 28.0822 10.6005 28.0776 10.5501H28.0741Z" fill="#263238" />
    <path d="M29.5673 10.5216H29.9046V11.0809C29.7378 11.1966 29.5395 11.2585 29.3364 11.2584C29.2356 11.2721 29.1331 11.264 29.0357 11.2346C28.9383 11.2052 28.8484 11.1553 28.7719 11.0881C28.6955 11.021 28.6344 10.9382 28.5928 10.8454C28.5512 10.7526 28.53 10.6519 28.5306 10.5502C28.5312 10.4485 28.5537 10.3481 28.5965 10.2558C28.6393 10.1635 28.7015 10.0815 28.7787 10.0153C28.856 9.94917 28.9465 9.90035 29.0443 9.87221C29.142 9.84406 29.2447 9.83725 29.3453 9.85222C29.4561 9.84658 29.5666 9.86582 29.6689 9.90853C29.7713 9.95124 29.8627 10.0163 29.9366 10.099L29.6933 10.3192C29.6527 10.2719 29.6023 10.2341 29.5456 10.2083C29.4888 10.1825 29.4272 10.1695 29.3649 10.17C29.267 10.1767 29.1752 10.2202 29.1082 10.2919C29.0413 10.3636 29.004 10.4581 29.004 10.5562C29.004 10.6543 29.0413 10.7488 29.1082 10.8205C29.1752 10.8922 29.267 10.9357 29.3649 10.9424C29.4365 10.9427 29.5074 10.9276 29.5726 10.898L29.5673 10.5216Z" fill="#263238" />
    <path d="M30.1372 10.6334V9.88232H30.5189V10.6209C30.5189 10.8535 30.6148 10.9458 30.7764 10.9458C30.938 10.9458 31.0303 10.8535 31.0303 10.6209V9.88232H31.4085V10.6334C31.4085 10.8019 31.3415 10.9636 31.2223 11.0828C31.1031 11.202 30.9414 11.269 30.7728 11.269C30.6043 11.269 30.4426 11.202 30.3234 11.0828C30.2042 10.9636 30.1372 10.8019 30.1372 10.6334Z" fill="#263238" />
    <path d="M32.7526 10.9317V11.2265H31.666V9.87354H32.7313V10.17H32.0477V10.3973H32.6496V10.6832H32.0477V10.9317H32.7526Z" fill="#263238" />
    <path d="M33.7948 12.2901C33.7948 12.3149 30.5367 12.3362 26.5152 12.3362C22.4937 12.3362 19.2357 12.3149 19.2357 12.2901C19.2357 12.2652 22.4937 12.2439 26.5152 12.2439C30.5367 12.2439 33.7948 12.2634 33.7948 12.2901Z" fill="#E0E0E0" />
    <path d="M28.9068 12.8797C28.9068 12.9045 27.8415 12.9258 26.517 12.9258C25.1924 12.9258 24.1271 12.9045 24.1271 12.8797C24.1271 12.8548 25.1924 12.8335 26.517 12.8335C27.8415 12.8335 28.9068 12.853 28.9068 12.8797Z" fill="#E0E0E0" />
    <path d="M83.0522 39.1602H59.1274V56.3611H83.0522V39.1602Z" fill="#13CB6E" />
    <path d="M65.5406 39.1602C65.5743 39.1602 65.5406 42.7928 65.5406 42.7928H63.7651V39.1602H65.5406Z" fill="#263238" />
    <g opacity="0.4">
        <path opacity="0.4" d="M71.089 56.3613H83.0523V39.1603H71.089V56.3613Z" fill="black" />
    </g>
    <path d="M63.0585 52.9929H59.8555V55.2602H63.0585V52.9929Z" fill="#FAFAFA" />
    <path d="M63.0638 55.2637H59.8591V52.9893H63.0709L63.0638 55.2637ZM59.8679 55.2548H63.0638V52.9981H59.8591L59.8679 55.2548Z" fill="#263238" />
    <path d="M65.2512 52.9929H63.6497V55.2602H65.2512V52.9929Z" fill="#FAFAFA" />
    <path d="M65.2565 55.2637H63.6462V52.9893H65.2565V55.2637ZM63.6586 55.2548H65.2565V52.9981H63.6586V55.2548Z" fill="#263238" />
    <path d="M81.9852 56.3755H54.7687V75.9414H81.9852V56.3755Z" fill="#13CB6E" />
    <path d="M62.0695 56.3755C62.1067 56.3755 62.0695 60.5053 62.0695 60.5053H60.0543V56.3755H62.0695Z" fill="#263238" />
    <g opacity="0.4">
        <path opacity="0.4" d="M68.3778 75.9392H81.9852V56.3733H68.3778V75.9392Z" fill="black" />
    </g>
    <path d="M59.2412 72.1096H55.5979V74.6876H59.2412V72.1096Z" fill="#FAFAFA" />
    <path d="M59.2465 74.6931H55.5979V72.1062H59.2501L59.2465 74.6931ZM55.5979 74.6842H59.2377V72.1151H55.5979V74.6842Z" fill="#263238" />
    <path d="M61.7357 72.1096H59.9141V74.6876H61.7357V72.1096Z" fill="#FAFAFA" />
    <path d="M61.7411 74.6931H59.9105V72.1062H61.7411V74.6931ZM59.9194 74.6842H61.7322V72.1151H59.9194V74.6842Z" fill="#263238" />
    <path d="M83.0522 56.3611C83.0522 56.386 77.6956 56.4073 71.0889 56.4073C64.4823 56.4073 59.1274 56.386 59.1274 56.3611C59.1274 56.3362 64.4823 56.3149 71.0889 56.3149C77.6956 56.3149 83.0522 56.3362 83.0522 56.3611Z" fill="#263238" />
</svg>
