<svg xmlns="http://www.w3.org/2000/svg" xmlns:xlink="http://www.w3.org/1999/xlink" width="84" height="76" fill="none" xmlns:v="https://vecta.io/nano"><style><![CDATA[.B{fill:#263238}.C{fill:#13cb6e}.D{fill:#fafafa}.E{fill:#e0e0e0}.F{fill:#455a64}]]></style><path d="M50.907 0H2.051A2.05 2.05 0 0 0 0 2.051v71.899A2.05 2.05 0 0 0 2.051 76h48.856a2.05 2.05 0 0 0 2.051-2.051V2.051A2.05 2.05 0 0 0 50.907 0z" class="B"/><path d="M51.264 5.422H1.646v63.469h49.618V5.422z" fill="#fff"/><path d="M28.511 72.181a2.03 2.03 0 0 1-3.468 1.434 2.03 2.03 0 0 1 1.437-3.467 2.03 2.03 0 0 1 1.437.596c.189.189.338.413.44.66s.154.511.154.778zm5.728-69.992H18.721c-.12 0-.217.097-.217.217v.407c0 .12.097.217.217.217h15.518c.12 0 .217-.097.217-.217v-.407c0-.12-.097-.217-.217-.217z" class="F"/><path d="M17.348 15.624H6.211c-.451 0-.817.366-.817.817v11.138c0 .451.366.817.817.817h11.138c.451 0 .817-.366.817-.817V16.441c0-.451-.366-.817-.817-.817z" class="C"/><g class="D"><path d="M13.927 19.976H9.609a.45.45 0 0 0-.451.451v1.882a.45.45 0 0 0 .451.451h4.318a.45.45 0 0 0 .451-.451v-1.882a.45.45 0 0 0-.451-.451z"/><path d="M15.353 21.183H8.204c-.102 0-.185.083-.185.185v2.301c0 .102.083.185.185.185h7.148c.102 0 .185-.083.185-.185v-2.301c0-.102-.083-.185-.185-.185z"/></g><g class="B"><path d="M14.378 21.183a5.7 5.7 0 0 1 .055.929v.053h-.055l-2.61.027a111.66 111.66 0 0 1-2.61-.027h-.055v-.053c-.007-.31.011-.621.055-.929.045.307.063.618.055.929l-.055-.055 2.61-.027 2.61.027-.055.055c-.008-.31.01-.621.055-.929z"/><path d="M9.133 23.831c-.046 0-.082-.579-.082-1.293s.036-1.291.082-1.291.08.577.08 1.291-.036 1.293-.08 1.293zm5.25.023c-.046 0-.082-.558-.082-1.243s.035-1.243.082-1.243.08.558.08 1.243-.036 1.243-.08 1.243z"/></g><path d="M31.796 15.624H20.658c-.451 0-.817.366-.817.817v11.138c0 .451.366.817.817.817h11.138c.451 0 .817-.366.817-.817V16.441c0-.451-.366-.817-.817-.817z" class="E"/><g class="C"><use xlink:href="#B"/><use xlink:href="#C"/></g><g class="B"><path d="M28.827 21.183a5.85 5.85 0 0 1 .053.929v.053h-.055l-2.61.027c-1.037 0-1.973-.011-2.61-.027h-.057v-.053c-.008-.31.01-.621.055-.929.045.307.063.618.055.929l-.055-.055 2.61-.027 2.61.027-.055.055c-.007-.311.013-.621.058-.929z"/><path d="M23.58 23.831c-.044 0-.082-.579-.082-1.293s.037-1.291.082-1.291.082.577.082 1.291-.035 1.293-.082 1.293zm5.25.023c-.044 0-.08-.558-.08-1.243s.036-1.243.08-1.243.082.558.082 1.243-.035 1.243-.082 1.243z"/></g><path d="M46.245 15.624H35.107c-.451 0-.817.366-.817.817v11.138c0 .451.366.817.817.817h11.138c.451 0 .817-.366.817-.817V16.441c0-.451-.366-.817-.817-.817z" class="E"/><g class="F"><use xlink:href="#B" x="14.449"/><use xlink:href="#C" x="14.449"/></g><g class="B"><path d="M43.274 21.183c.045.307.063.618.055.929v.053h-.057l-2.608.027c-1.037 0-1.972-.011-2.61-.027h-.057v-.053c-.008-.31.01-.621.055-.929a5.7 5.7 0 0 1 .055.929l-.055-.055 2.61-.027 2.608.027-.055.055a5.7 5.7 0 0 1 .059-.929z"/><path d="M38.029 23.831c-.044 0-.082-.579-.082-1.293s.037-1.291.082-1.291.082.577.082 1.291-.037 1.293-.082 1.293zm5.25.023c-.044 0-.082-.558-.082-1.243s.037-1.243.082-1.243.082.558.082 1.243-.035 1.243-.082 1.243z"/></g><path d="M17.348 31.693H6.211c-.451 0-.817.366-.817.817v11.138c0 .451.366.817.817.817h11.138c.451 0 .817-.366.817-.817V32.509c0-.451-.366-.817-.817-.817z" class="E"/><path d="M9.115 37.855l.595 2.074 4.084.016.652-1.985c-.226-.074-.464-.102-.701-.082l-.071-2.21c-.001-.05-.014-.098-.039-.141s-.059-.08-.101-.106-.089-.043-.139-.047-.099.005-.144.024l-.398.178h-2.308l-.265-.133c-.046-.023-.096-.034-.147-.032s-.101.017-.144.044a.3.3 0 0 0-.104.109c-.025.045-.038.095-.037.146v2.182a1.75 1.75 0 0 0-.732-.037z" class="C"/><g class="B"><use xlink:href="#D"/><use xlink:href="#E"/><use xlink:href="#E" x="2.163" y="0.009"/><use xlink:href="#D" x="3.874" y="0.016"/><path d="M10.575 38.734c-.016 0-.027-.71-.023-1.578l.037-1.578c.016 0 .027.71.023 1.578l-.037 1.578zm2.304.011c-.016 0-.027-.71-.023-1.578l.037-1.579c.016 0 .027.71.023 1.579l-.037 1.578z"/><path d="M13.741 37.88a.51.51 0 0 1-.105.032l-.059.014-.066.025-.078.028-.082.044a.85.85 0 0 0-.323.327 1.02 1.02 0 0 0-.114.575v.03h-1.119l-1.223-.009h-.025v-.025c-.002-.187-.051-.37-.142-.533a1.19 1.19 0 0 0-.261-.325 1.62 1.62 0 0 0-.318-.201.45.45 0 0 1 .096.032c.087.037.168.086.241.146a1.18 1.18 0 0 1 .286.332c.098.165.152.353.156.545l-.027-.025h1.223 1.09l-.027.03c-.018-.205.023-.411.119-.593.084-.142.207-.258.355-.332l.085-.041.08-.027.069-.023.059-.011a.63.63 0 0 1 .107-.018z"/><path d="M10.53 38.933c0 .009-.076.023-.19.075a.97.97 0 0 0-.373.295c-.098.128-.154.282-.178.44-.003.068-.011.135-.021.202a.43.43 0 0 1-.02-.208.92.92 0 0 1 .178-.471.88.88 0 0 1 .407-.298.41.41 0 0 1 .197-.035zm3.219 1.058c-.009 0-.011-.087-.044-.222a1.16 1.16 0 0 0-.242-.472 1.18 1.18 0 0 0-.428-.311l-.211-.076a.47.47 0 0 1 .225.039 1.05 1.05 0 0 1 .696.811.49.49 0 0 1 .004.231z"/></g><path d="M31.796 31.693H20.658c-.451 0-.817.366-.817.817v11.138c0 .451.366.817.817.817h11.138c.451 0 .817-.366.817-.817V32.509c0-.451-.366-.817-.817-.817z" class="E"/><path d="M46.245 31.693H35.107a.82.82 0 0 0-.817.817v11.138a.82.82 0 0 0 .817.817h11.138a.82.82 0 0 0 .817-.817V32.509a.82.82 0 0 0-.817-.817zM17.348 47.761H6.211a.82.82 0 0 0-.817.817v11.138a.82.82 0 0 0 .817.817h11.138a.82.82 0 0 0 .817-.817V48.578a.82.82 0 0 0-.817-.817z" class="C"/><path d="M31.796 47.761H20.658a.82.82 0 0 0-.817.817v11.138a.82.82 0 0 0 .817.817h11.138a.82.82 0 0 0 .817-.817V48.578a.82.82 0 0 0-.817-.817zm14.449 0H35.107a.82.82 0 0 0-.817.817v11.138a.82.82 0 0 0 .817.817h11.138a.82.82 0 0 0 .817-.817V48.578a.82.82 0 0 0-.817-.817z" class="E"/><g class="B"><path d="M24.631 64.747a.46.46 0 0 0 .458-.458.46.46 0 0 0-.458-.458.46.46 0 0 0-.458.458.46.46 0 0 0 .458.458zm2.307-.458a.46.46 0 0 1-.783.322.46.46 0 0 1-.099-.499.46.46 0 0 1 .748-.147.45.45 0 0 1 .099.149.46.46 0 0 1 .034.176zm1.85 0a.46.46 0 0 1-.785.325.46.46 0 0 1 .328-.785.46.46 0 0 1 .458.46zM8.325 10.74H5.989c-.024 0-.046-.009-.063-.026s-.026-.039-.026-.063.009-.046.026-.063.039-.026.063-.026h2.337c.024 0 .046.009.063.026s.026.039.026.063-.009.046-.026.063-.039.026-.063.026z"/><path d="M6.896 11.487c-.018 0-.036-.006-.051-.016l-1.049-.747c-.012-.008-.022-.019-.029-.032s-.01-.027-.01-.041.005-.028.011-.041.016-.024.028-.032l1.081-.737c.009-.008.021-.014.033-.018s.025-.005.037-.003.024.006.035.012.02.015.027.026.012.022.014.034.002.025-.001.037-.009.024-.016.033-.018.018-.029.024l-.975.666.948.673c.016.011.027.026.033.044s.006.037 0 .055-.017.034-.032.045-.034.017-.053.017h-.002zm39.169-.738h-2.337c-.023 0-.046-.009-.063-.026s-.026-.039-.026-.063.009-.046.026-.063.039-.026.063-.026h2.337c.024 0 .046.009.063.026s.026.039.026.063-.009.046-.026.063-.039.026-.063.026z"/><path d="M45.122 11.487c-.015 0-.029-.004-.042-.011s-.024-.017-.033-.029c-.013-.019-.017-.043-.013-.066s.017-.043.036-.057l.977-.668-.946-.671a.09.09 0 0 1-.021-.124.09.09 0 0 1 .025-.024c.01-.006.021-.011.032-.012s.023-.002.035.001.022.007.032.014l1.049.748a.08.08 0 0 1 .037.073c0 .014-.004.028-.01.041s-.016.024-.027.032l-1.081.737c-.015.01-.032.016-.05.016z"/></g><use xlink:href="#F" class="E"/><path d="M13.322 53.49a.33.33 0 0 1 0-.068c0-.052.004-.116.011-.192a4.32 4.32 0 0 0 0-.71c-.029-.346-.171-.673-.403-.93-.142-.145-.322-.245-.52-.289-.216-.043-.435-.062-.655-.055-.447 0-.888.092-1.193.341-.142.117-.254.266-.327.435-.063.148-.104.304-.123.463a3.51 3.51 0 0 0 0 .71l.016.192v.067c-.007-.021-.012-.043-.014-.066 0-.043-.016-.108-.027-.19-.034-.235-.041-.473-.021-.71.017-.165.057-.326.121-.479.073-.178.188-.335.336-.458a1.47 1.47 0 0 1 .563-.279c.218-.054.443-.081.668-.08a2.97 2.97 0 0 1 .669.057c.209.047.399.155.547.309a1.61 1.61 0 0 1 .407.966c.018.237.014.474-.014.71 0 .083-.016.147-.021.19a.43.43 0 0 1-.018.066z" class="B"/><use xlink:href="#G" class="D"/><path d="M13.67 56.34c.057-.005.113-.019.165-.041.062-.027.117-.07.158-.124a.41.41 0 0 0 .089-.256l-.012-1.806v-.598-.314a.4.4 0 0 0-.146-.266c-.087-.068-.196-.099-.305-.087h-.355-.737-3.278c-.068 0-.134.018-.193.051s-.108.081-.143.139a.37.37 0 0 0-.057.188v.211.836 1.582c-.004.06.003.12.02.178a.42.42 0 0 0 .085.147c.038.042.085.076.138.098s.109.033.166.031h1.946 1.804.492.128.043-.043-.128-.49l-1.806.014H9.968h-.71a.45.45 0 0 1-.346-.145c-.045-.048-.078-.106-.098-.169a.56.56 0 0 1-.023-.194v-1.582-.836-.215a.44.44 0 0 1 .066-.217c.041-.067.098-.122.166-.16s.145-.058.223-.059h3.278 1.088c.121-.011.242.025.337.101.045.037.083.082.111.134a.44.44 0 0 1 .051.166v.32.598 1.806c-.002.098-.036.192-.098.268a.43.43 0 0 1-.169.124c-.05.041-.11.067-.174.074z" class="B"/><use xlink:href="#F" x="14.332" class="C"/><path d="M27.653 53.49a.33.33 0 0 1 0-.068c0-.052.004-.116.011-.192a4.32 4.32 0 0 0 0-.71c-.029-.346-.171-.673-.403-.93-.142-.145-.322-.245-.52-.289-.216-.043-.435-.062-.655-.055-.447 0-.888.092-1.193.341-.142.117-.254.266-.327.435a1.65 1.65 0 0 0-.122.463 3.51 3.51 0 0 0 0 .71l.016.192v.067c-.007-.021-.012-.043-.014-.066 0-.043-.016-.108-.027-.19a3.19 3.19 0 0 1-.021-.71c.017-.165.057-.326.121-.479.073-.178.188-.335.336-.458a1.47 1.47 0 0 1 .563-.279c.218-.054.443-.081.668-.08a2.97 2.97 0 0 1 .669.057c.209.047.399.155.547.309a1.61 1.61 0 0 1 .407.966 3.65 3.65 0 0 1-.014.71c0 .083-.016.147-.021.19-.003.023-.009.045-.018.066z" class="B"/><use xlink:href="#G" x="14.332" class="C"/><path d="M28.001 56.34c.057-.005.112-.019.165-.041.062-.027.117-.07.158-.124a.41.41 0 0 0 .089-.256l-.012-1.806v-.598-.314a.4.4 0 0 0-.146-.266c-.087-.068-.196-.099-.305-.087h-.355-.737-3.278c-.068 0-.134.018-.193.051s-.108.081-.143.139a.37.37 0 0 0-.057.188v.211.836 1.582c-.003.06.003.12.02.178a.42.42 0 0 0 .085.147c.038.042.086.076.139.098s.11.033.167.031h1.941 1.806.49.128.043-.043-.128-.49l-1.806.014h-1.243-.694a.45.45 0 0 1-.346-.145c-.045-.048-.078-.106-.098-.169a.56.56 0 0 1-.021-.194v-1.582-.836-.215c.003-.077.025-.151.066-.217s.098-.122.166-.16.145-.058.223-.059h3.278 1.088c.121-.011.242.025.337.101a.45.45 0 0 1 .163.3v.32.598 1.806a.43.43 0 0 1-.074.236c-.047.07-.114.124-.192.156-.054.044-.12.07-.19.074z" class="B"/><use xlink:href="#F" x="29.232" y="-0.001" class="F"/><path d="M42.553 53.49c-.002-.023-.002-.045 0-.068a2.11 2.11 0 0 1 .011-.192 4.32 4.32 0 0 0 0-.71 1.6 1.6 0 0 0-.403-.93c-.142-.145-.322-.245-.52-.289a2.92 2.92 0 0 0-.655-.055c-.449 0-.888.092-1.195.341a1.17 1.17 0 0 0-.325.435c-.063.148-.105.304-.122.463a3.51 3.51 0 0 0 0 .71l.016.192c.003.022.003.045 0 .067-.008-.021-.012-.043-.014-.066 0-.043-.016-.108-.027-.19-.034-.235-.041-.473-.021-.71a1.64 1.64 0 0 1 .121-.479c.072-.178.188-.335.336-.458a1.47 1.47 0 0 1 .563-.279c.218-.054.443-.081.668-.08a2.97 2.97 0 0 1 .669.057 1.1 1.1 0 0 1 .547.309 1.6 1.6 0 0 1 .405.966c.02.236.016.474-.012.71 0 .083-.016.147-.021.19a.44.44 0 0 1-.018.066z" class="B"/><use xlink:href="#F" x="28.566" y="-0.017" class="F"/><path d="M42.901 56.34c.057-.005.112-.019.165-.041.062-.027.117-.07.158-.124a.41.41 0 0 0 .089-.256l-.012-1.806v-.598-.314c-.012-.105-.065-.201-.147-.266s-.195-.099-.304-.087h-.355-.737-3.278c-.068 0-.134.018-.193.051s-.108.081-.143.139a.37.37 0 0 0-.057.188v.211.836 1.582c-.004.06.003.12.02.178s.046.105.085.147.085.076.138.098a.39.39 0 0 0 .166.031h1.939 1.804.492.128.043-.043-.128-.492l-1.804.014h-1.243-.696a.45.45 0 0 1-.344-.145.46.46 0 0 1-.099-.169c-.018-.063-.025-.128-.021-.194v-1.582-.836-.215c.003-.077.025-.151.066-.217s.097-.121.165-.16.144-.058.222-.059h3.279 1.088c.121-.011.242.025.337.101a.44.44 0 0 1 .162.3v.32.598 1.806c-.002.098-.036.192-.098.268a.43.43 0 0 1-.169.124c-.052.043-.116.069-.183.074z" class="B"/><path d="M23.817 38.203l.595 2.081 4.084.018.648-1.992c-.226-.074-.465-.102-.701-.08l-.067-2.207c-.002-.049-.015-.098-.039-.141s-.059-.079-.101-.106-.089-.043-.138-.047-.099.004-.144.023l-.398.177-2.308-.011-.264-.133a.3.3 0 0 0-.292.012c-.043.027-.079.065-.104.109s-.038.095-.037.146v2.184c-.238-.064-.488-.076-.731-.035z" class="F"/><g class="B"><use xlink:href="#D" x="14.701" y="0.349"/><use xlink:href="#E" x="14.705" y="0.342"/><use xlink:href="#E" x="16.864" y="0.357"/><use xlink:href="#D" x="18.572" y="0.37"/><path d="M25.276 39.084c-.016 0-.027-.71-.023-1.578l.037-1.578c.018 0 .025.71.021 1.578l-.035 1.578zm2.305.009c-.016 0-.027-.71-.023-1.578l.037-1.578c.018 0 .027.71.021 1.578l-.035 1.578z"/><path d="M28.442 38.23a.9.9 0 0 1-.107.03l-.057.014-.067.027-.076.028-.082.044c-.136.076-.248.188-.323.325-.093.177-.133.378-.114.577v.028h-1.119-1.223-.025v-.025a1.11 1.11 0 0 0-.14-.533c-.069-.125-.16-.236-.268-.328a1.62 1.62 0 0 0-.318-.201c.032.007.064.017.094.03.087.038.169.087.243.146a1.19 1.19 0 0 1 .286.334c.097.166.151.353.156.545l-.027-.027h1.223 1.09l-.027.03c-.018-.209.027-.419.128-.604a.86.86 0 0 1 .346-.332l.087-.043.08-.027.069-.021.059-.011c.036-.007.073-.01.11-.009z"/><path d="M25.237 39.281c0 .011-.076.025-.19.076a.95.95 0 0 0-.558.735l-.021.203c-.023-.067-.03-.138-.02-.208a.89.89 0 0 1 .178-.471.91.91 0 0 1 .405-.298.43.43 0 0 1 .206-.037zm3.213 1.058c-.009 0-.011-.087-.044-.22a1.15 1.15 0 0 0-.241-.472c-.117-.135-.265-.242-.43-.311l-.211-.078a.48.48 0 0 1 .227.039 1.06 1.06 0 0 1 .459.312 1.05 1.05 0 0 1 .237.502.47.47 0 0 1 .003.229z"/></g><path d="M38.312 37.658l.596 2.076 4.084.018.652-1.987c-.226-.075-.465-.102-.701-.082l-.066-2.205c-.002-.05-.015-.098-.039-.141s-.059-.08-.101-.106-.09-.043-.139-.047-.099.004-.145.024l-.398.178-2.299-.009-.265-.133c-.046-.024-.097-.035-.148-.033a.3.3 0 0 0-.145.044c-.044.027-.08.065-.105.11a.3.3 0 0 0-.037.147v2.182a1.75 1.75 0 0 0-.744-.036z" class="D"/><g class="B"><use xlink:href="#D" x="29.197" y="-0.198"/><use xlink:href="#E" x="29.201" y="-0.203"/><path d="M42.038 39.745l-.215-.001-.004.964h.215l.004-.964z"/><use xlink:href="#D" x="33.065" y="-0.174"/><path d="M39.771 38.537c-.016 0-.025-.71-.021-1.578l.036-1.577c.016 0 .027.71.023 1.578l-.037 1.577zm2.306.011c-.018 0-.027-.71-.023-1.578l.035-1.578c.016 0 .027.71.023 1.578l-.036 1.578z"/><path d="M42.937 37.683c-.034.015-.069.026-.105.032l-.059.014-.066.025-.078.028-.082.044a.85.85 0 0 0-.323.327c-.093.177-.133.377-.114.575v.03h-1.12-1.223-.025v-.025c-.002-.187-.05-.37-.142-.533a1.19 1.19 0 0 0-.268-.33c-.097-.079-.204-.146-.318-.199.034.004.066.014.096.03a1.05 1.05 0 0 1 .241.146c.115.092.212.205.286.332.097.166.151.353.156.545l-.027-.025h1.223 1.09l-.027.03c-.018-.21.027-.421.13-.605.081-.142.201-.256.346-.33l.085-.043.08-.027.069-.021.06-.011c.037-.006.074-.01.112-.011z"/><path d="M39.727 38.736c0 .009-.076.023-.188.075a.95.95 0 0 0-.558.735c-.02.123-.012.202-.021.202a.39.39 0 0 1-.021-.206.9.9 0 0 1 .178-.472c.103-.137.244-.239.405-.296a.4.4 0 0 1 .206-.037zm3.219 1.058c-.009 0-.011-.087-.044-.222a1.13 1.13 0 0 0-.669-.781c-.128-.055-.213-.069-.211-.078a.47.47 0 0 1 .225.039 1.06 1.06 0 0 1 .46.311 1.05 1.05 0 0 1 .236.501.49.49 0 0 1 .004.231zM20.266 10.55a.7.7 0 0 1 .743-.71.71.71 0 0 1 .581.256l-.243.22a.4.4 0 0 0-.318-.158c-.098.007-.19.05-.257.122s-.104.166-.104.264.037.193.104.264.159.115.257.122a.4.4 0 0 0 .177-.042c.055-.027.103-.067.141-.116l.243.22a.71.71 0 0 1-.581.254.7.7 0 0 1-.744-.696z"/><path d="M22.648 10.964h-.572l-.107.263h-.391l.598-1.353h.376l.598 1.353h-.401l-.103-.263zm-.112-.282l-.178-.431-.177.431h.355zm.945-.505h-.415v-.304h1.211v.304h-.414v1.049h-.382v-1.049zm1.777.787h-.572l-.107.263h-.391l.597-1.353h.376l.6 1.353h-.398l-.107-.263zm-.112-.282l-.177-.431-.178.431h.355zm.725-.808h.382v1.049h.644v.304h-1.026V9.874z"/><path d="M26.957 10.55a.74.74 0 0 1 .106-.429.76.76 0 0 1 .329-.296.74.74 0 0 1 .438-.06.75.75 0 0 1 .396.196c.109.104.185.238.218.385a.75.75 0 0 1-.036.441c-.056.14-.152.26-.277.345a.75.75 0 0 1-.423.13.71.71 0 0 1-.751-.71zm1.117 0a.36.36 0 0 0-.072-.197c-.043-.057-.101-.101-.168-.125s-.14-.029-.209-.012-.133.053-.182.105-.082.117-.094.187a.37.37 0 0 0 .024.208c.028.065.075.122.135.161s.129.06.201.06c.051.002.101-.006.148-.025s.089-.048.124-.084.062-.08.078-.128a.36.36 0 0 0 .018-.149h-.003zm1.493-.028h.337v.559c-.167.116-.365.178-.568.178a.71.71 0 0 1-.806-.708.71.71 0 0 1 .815-.698.74.74 0 0 1 .591.247l-.243.22a.43.43 0 0 0-.328-.149c-.098.007-.19.05-.257.122s-.104.166-.104.264.037.193.104.264.159.115.257.122a.51.51 0 0 0 .208-.044l-.005-.376zm.57.111v-.751h.382v.739c0 .233.096.325.258.325s.254-.092.254-.325v-.739h.378v.751c0 .168-.067.33-.186.449s-.281.186-.45.186-.33-.067-.449-.186-.186-.281-.186-.449zm2.616.299v.295h-1.087V9.874h1.065v.296h-.684v.227h.602v.286h-.602v.248h.705z"/></g><path d="M33.795 12.29c0 .025-3.258.046-7.28.046s-7.279-.021-7.279-.046 3.258-.046 7.279-.046l7.28.046zm-4.888.59c0 .025-1.065.046-2.39.046s-2.39-.021-2.39-.046 1.065-.046 2.39-.046l2.39.046z" class="E"/><path d="M83.052 39.16H59.127v17.201h23.925V39.16z" class="C"/><path d="M65.541 39.16c.034 0 0 3.633 0 3.633h-1.776V39.16h1.776z" class="B"/><path opacity=".16" d="M71.089 56.361h11.963V39.16H71.089v17.201z" fill="#000"/><path d="M63.059 52.993h-3.203v2.267h3.203v-2.267z" class="D"/><path d="M63.064 55.264h-3.205v-2.274h3.212l-.007 2.274zm-3.196-.009h3.196v-2.257h-3.205l.009 2.257z" class="B"/><path d="M65.251 52.993H63.65v2.267h1.601v-2.267z" class="D"/><path d="M65.257 55.264h-1.61v-2.274h1.61v2.274zm-1.598-.009h1.598v-2.257h-1.598v2.257z" class="B"/><path d="M81.985 56.376H54.769v19.566h27.217V56.376z" class="C"/><path d="M62.07 56.376c.037 0 0 4.13 0 4.13h-2.015v-4.13h2.015z" class="B"/><path opacity=".16" d="M68.378 75.939h13.607V56.373H68.378v19.566z" fill="#000"/><path d="M59.241 72.11h-3.643v2.578h3.643V72.11z" class="D"/><path d="M59.247 74.693h-3.649v-2.587h3.652l-.004 2.587zm-3.649-.009h3.64v-2.569h-3.64v2.569z" class="B"/><path d="M61.736 72.11h-1.822v2.578h1.822V72.11z" class="D"/><path d="M61.741 74.693H59.91v-2.587h1.831v2.587zm-1.822-.009h1.813v-2.569h-1.813v2.569zm23.133-18.323c0 .025-5.357.046-11.963.046s-11.961-.021-11.961-.046 5.355-.046 11.961-.046l11.963.046z" class="B"/><defs ><path id="B" d="M28.376 19.976h-4.318a.45.45 0 0 0-.451.451v1.882a.45.45 0 0 0 .451.451h4.318a.45.45 0 0 0 .451-.451v-1.882a.45.45 0 0 0-.451-.451z"/><path id="C" d="M29.802 21.183h-7.148c-.102 0-.185.083-.185.185v2.301c0 .102.083.185.185.185h7.148c.102 0 .185-.083.185-.185v-2.301c0-.102-.083-.185-.185-.185z"/><path id="D" d="M9.921 39.931l-.215-.001-.008 1.887.215.001.008-1.887z"/><path id="E" d="M10.675 39.939l-.215-.001-.004.964.215.001.004-.964z"/><path id="F" d="M14.333 52.834l-4.419.008c-.234 0-.424.191-.424.425l.005 2.67c0 .234.191.424.425.424l4.419-.008c.234 0 .424-.191.424-.425l-.005-2.67c0-.234-.191-.424-.425-.424z"/><path id="G" d="M13.667 52.817l-4.419.008c-.234.001-.424.191-.424.425l.005 2.67c0 .234.191.424.425.424l4.419-.008c.234 0 .424-.191.424-.425l-.005-2.67c0-.234-.191-.424-.425-.424z"/></defs></svg>