<svg xmlns="http://www.w3.org/2000/svg" xmlns:xlink="http://www.w3.org/1999/xlink" width="99" height="76" fill="none" xmlns:v="https://vecta.io/nano"><style><![CDATA[.B{fill:#13cb6e}.C{fill:#263238}.D{fill:#fff}.E{opacity:.5}.F{opacity:.3}.G{fill:#ffb573}]]></style><path d="M98.183.686H0v61.991h98.183V.686z" class="B"/><path opacity=".6" d="M98.183.686H0v61.991h98.183V.686z" class="D"/><path d="M97.553 0H.633v62.064h96.919V0z" class="B"/><g class="D"><path opacity=".8" d="M97.553 0H.633v62.064h96.919V0z"/><path d="M69.962 59.045c-.42 0-.847 0-1.278-.026-8.538-.356-14.037-3.934-19.871-7.722-2.516-1.634-5.118-3.32-8.08-4.845-5.063-2.609-8.604-1.402-12.354-.133-2.469.835-5.018 1.698-8.125 1.499-3.574-.237-6.235-1.549-7.907-3.923-2.585-3.669-2.277-9.249-1.129-13.252 2.274-7.919 7.665-14.049 15.588-17.725 7.563-3.512 17.142-4.7 27.695-3.436 13.867 1.66 26.087 8.422 31.865 17.645 3.854 6.145 4.644 13.027 2.281 19.905-2.637 7.682-9.41 12.014-18.686 12.014zM34.843 44.79c1.786 0 3.719.415 5.943 1.558 2.967 1.523 5.571 3.214 8.09 4.85 5.82 3.778 11.317 7.352 19.812 7.703 9.875.413 17.109-3.93 19.848-11.908 2.35-6.844 1.565-13.691-2.272-19.803-5.768-9.195-17.946-15.935-31.779-17.59-22.124-2.649-38.657 5.426-43.163 21.076-1.141 3.975-1.449 9.517 1.112 13.15 1.66 2.346 4.269 3.648 7.826 3.873 3.083.197 5.621-.662 8.078-1.494 2.132-.719 4.195-1.416 6.505-1.416z" class="F"/><path d="M88.913 19.006c6.166 9.41 4.964 23.341-6.889 31.499-12.92 8.893-25.224 6.581-31.518-2.685s-3.524-21.067 6.361-29.533 25.523-9.244 32.047.719z"/></g><g class="B E"><path d="M11.986 3.605H6.989c-.19 0-.344.154-.344.344v.071c0 .19.154.344.344.344h4.997c.19 0 .344-.154.344-.344v-.071c0-.19-.154-.344-.344-.344z" class="E"/><use xlink:href="#B" class="E"/><use xlink:href="#B" x="11.369" class="E"/><use xlink:href="#B" x="22.739" class="E"/></g><path d="M92.181 3.605h-9.078c-.345 0-.624.279-.624.624v.133c0 .344.279.624.624.624h9.078c.345 0 .624-.279.624-.624v-.133c0-.344-.279-.624-.624-.624z" class="B"/><path d="M34.651 14.725H8.085a1.44 1.44 0 0 0-1.44 1.44v.002a1.44 1.44 0 0 0 1.44 1.44h26.566a1.44 1.44 0 0 0 1.439-1.44v-.002a1.44 1.44 0 0 0-1.439-1.44zm7.174 5.775H7.931c-.71 0-1.285.576-1.285 1.285v3.451c0 .71.575 1.285 1.285 1.285h33.895c.71 0 1.285-.575 1.285-1.285v-3.451c0-.71-.575-1.285-1.285-1.285zm-10.7 8.474H7.931c-.71 0-1.285.575-1.285 1.285v3.451c0 .71.575 1.285 1.285 1.285h23.194c.71 0 1.285-.575 1.285-1.285v-3.451c0-.71-.575-1.285-1.285-1.285z" class="D"/><g class="B"><path d="M31.44 39.115H7.176c-.07.001-.14-.013-.205-.039a.53.53 0 0 1-.175-.87.53.53 0 0 1 .376-.156H31.44a.53.53 0 0 1 .376.908.53.53 0 0 1-.376.157zm-7.432 2.053H7.169a.53.53 0 0 1-.373-.907.53.53 0 0 1 .172-.115c.064-.027.134-.04.203-.04H24.01a.54.54 0 0 1 .203.04.53.53 0 0 1 .287.695.53.53 0 0 1-.493.328z" class="F"/><path opacity=".1" d="M26.91 46.279H10.248c-1.99 0-3.602 1.613-3.602 3.602s1.613 3.602 3.602 3.602H26.91c1.99 0 3.602-1.613 3.602-3.602s-1.613-3.602-3.602-3.602z"/><path d="M26.623 52.78H10.497c-.459.002-.914-.087-1.339-.262a3.49 3.49 0 0 1-1.895-1.889 3.49 3.49 0 0 1 .756-3.803 3.49 3.49 0 0 1 2.466-1.021h16.139a3.49 3.49 0 0 1 1.337.263c.424.175.809.431 1.134.755a3.49 3.49 0 0 1 1.025 2.468 3.49 3.49 0 0 1-.266 1.337c-.176.424-.433.809-.758 1.133a3.49 3.49 0 0 1-2.471 1.019z"/></g><g class="D"><path opacity=".4" d="M22.57 50.216h-8.032c-.245 0-.481-.097-.654-.271s-.271-.409-.271-.654.098-.48.272-.653.408-.27.653-.27h8.032a.92.92 0 0 1 .654.269c.086.086.154.188.201.3s.07.232.07.354-.023.242-.07.354-.114.214-.2.3-.188.154-.3.2-.233.07-.354.07z"/><path d="M59.029 10.252c.229.844.159 1.741-.197 2.539s-.977 1.449-1.758 1.842-1.674.505-2.527.316-1.616-.667-2.157-1.353c.631.168 1.295.168 1.926 0 .613-.16 1.176-.471 1.638-.905s.808-.976 1.006-1.577.243-1.243.13-1.866-.38-1.208-.777-1.702c.652.169 1.248.509 1.726.984s.82 1.07.992 1.722z"/><path opacity=".6" d="M93.481 21.584c.117 0 .211-.095.211-.211s-.094-.211-.211-.211-.211.095-.211.211.094.211.211.211zM77.887 10.058c0 .042-.012.082-.036.117a.21.21 0 0 1-.095.078c-.039.016-.081.02-.122.012a.21.21 0 0 1-.166-.166c-.008-.041-.004-.083.012-.122a.21.21 0 0 1 .195-.13c.056 0 .11.022.149.062a.21.21 0 0 1 .062.149zm-16.344 3.387c.117 0 .211-.095.211-.211s-.094-.211-.211-.211-.211.095-.211.211.094.211.211.211z"/></g><path opacity=".6" d="M70.735 19.668c.117 0 .211-.095.211-.211s-.095-.211-.211-.211-.211.095-.211.211.094.211.211.211zm17.118 10.821a.21.21 0 0 1-.13.195c-.038.016-.081.02-.122.012s-.079-.028-.108-.058a.21.21 0 0 1 .032-.325c.035-.023.076-.036.117-.036.056 0 .11.022.149.062a.21.21 0 0 1 .062.149z" class="B"/><path opacity=".7" d="M67.721 9.053c-.624.211-.794.382-1.006 1.006-.211-.624-.382-.794-1.005-1.006.624-.211.794-.382 1.005-1.006.211.624.382.794 1.006 1.006zm21.443 4.615c.355 0 .643-.288.643-.643s-.288-.643-.643-.643-.643.288-.643.643.288.643.643.643zM49.31 16.165a.81.81 0 0 0-.643.643.81.81 0 0 0-.643-.643.81.81 0 0 0 .643-.643.81.81 0 0 0 .643.643z" class="D"/><g class="B"><path opacity=".7" d="M64.194 19.594c-.493.166-.626.301-.794.794-.166-.493-.301-.628-.794-.794.493-.166.628-.301.794-.794.159.493.301.628.794.794zm7.788-5.988c.206 0 .372-.167.372-.372s-.167-.372-.372-.372-.372.167-.372.372.167.372.372.372z"/><path d="M80.423 36.032c.095-.349 1.691-.218 3.557.292s3.32 1.209 3.221 1.558l1.971.538c.152-.55-2.134-1.66-5.092-2.462s-5.486-1.017-5.635-.474l1.978.548z"/></g><path opacity=".2" d="M81.295 35.348c.941.151 1.873.355 2.791.61.92.249 1.825.546 2.713.892a3.17 3.17 0 0 1 .017.581c-.892-.493-1.845-.865-2.834-1.108-1.238-.337-2.357-.51-3-.486a2.88 2.88 0 0 1 .313-.489z" fill="#000"/><path d="M84.881 39.429c1.368-.588 2.001-2.174 1.413-3.542s-2.174-2.001-3.542-1.412-2 2.174-1.412 3.542 2.174 2.001 3.542 1.412z" class="B"/><g class="D"><path opacity=".4" d="M83.816 39.653c1.489 0 2.696-1.207 2.696-2.697s-1.207-2.696-2.696-2.696-2.697 1.207-2.697 2.696 1.207 2.697 2.697 2.697z"/><path opacity=".1" d="M81.699 36.179c.021.512.413.759.873.555a1.46 1.46 0 0 0 .578-.539c.139-.229.213-.492.212-.761-.021-.512-.413-.761-.87-.555a1.45 1.45 0 0 0-.579.538 1.47 1.47 0 0 0-.213.761zm2.578-.349a.36.36 0 0 0 .123.165c.056.042.124.065.194.069a.35.35 0 0 0 .336-.204c.029-.063.039-.135.028-.204a.35.35 0 0 0-.09-.185c-.048-.051-.109-.088-.178-.104a.35.35 0 0 0-.205.013c-.087.033-.158.098-.197.182s-.043.181-.012.268zm.647 2.882a.3.3 0 0 0 .06.101c.026.029.059.053.094.07s.074.026.114.028.079-.004.116-.018a.3.3 0 0 0 .16-.379.3.3 0 0 0-.367-.186.3.3 0 0 0-.1.06c-.029.026-.053.059-.069.095s-.026.075-.027.114.005.079.019.116z"/></g><g class="B"><path d="M83.575 37.839a13.8 13.8 0 0 0 2.571.474c-.088.152-.193.294-.311.425l-2.36-.536-2.308-.738a2.4 2.4 0 0 1-.05-.522c.789.374 1.612.674 2.457.896z" class="E"/><path d="M80.423 36.031c-.097.349 1.345 1.046 3.218 1.558s3.472.64 3.557.292l1.971.538c-.149.553-2.673.344-5.637-.474s-5.241-1.909-5.089-2.462l1.98.548z"/><use xlink:href="#C"/></g><use xlink:href="#C" class="D E"/><use xlink:href="#D" class="B"/><use xlink:href="#D" class="D F"/><path opacity=".2" d="M45.468 52.348l-4.731-2.282a.17.17 0 0 1-.111-.16c0-.035.011-.069.031-.097a.17.17 0 0 1 .081-.062l3.493-.977 3.496-.977a.19.19 0 0 1 .19.063.19.19 0 0 1 .028.198l-2.258 4.236c-.021.037-.056.063-.097.074s-.084.006-.121-.015z" class="B"/><path d="M45.575 51.248c-.14-.072-.303-.088-.454-.044s-.28.145-.359.281l-2.31 3.991 7.826-2.189-4.703-2.04z" class="C"/><path d="M45.342 51.212l-2.896 4.269 3.913-1.093 3.918-1.101-4.342-2.243c-.103-.047-.219-.056-.328-.025s-.203.099-.265.194z" class="B"/><path opacity=".12" d="M45.935 51.043c-.102-.047-.218-.057-.327-.026s-.203.099-.266.192l-2.896 4.269 7.826-2.189-4.338-2.246z" class="D"/><path d="M54.361 19.988c.79-.851 1.978 1.143 1.978 1.143s.778.285.05.908c-2.265-1.017-2.028-2.051-2.028-2.051z" class="C"/><path d="M61.313 48.174c-1.802-3.067 11.384-5.73 11.528-8.355-2.011-3.944-5.471-8.538-5.471-8.538l-11.464 5.044s2.047 10.366 5.407 11.848z" fill="#000"/><path d="M64.578 43.403l3.607-5.72s12.095 8.856 13.044 10.762 1.304 17.414 1.304 17.414l-2.274-.047s-2.898-7.826-3.064-14.851c-6.925-3-12.617-7.558-12.617-7.558z" class="C"/><path d="M70.109 44.968c-.097.862.048 1.734.417 2.519l-2.386-1.518-.116-.216 2.085-.785z" fill="#000"/><path d="M84.801 68.975s-2.637-1.961-2.713-3.287l-1.897.13-.391 2.035 1.01.356.206-.237.204.389c.818.287 3.005 1.022 3.584 1.017.035-.062.053-.131.053-.202s-.019-.14-.055-.201z" class="C"/><path d="M82.652 66.395l-2.663-.157-.197-1.167 2.991-.021-.13 1.345z" class="B"/><g class="C"><path d="M61.478 43.087l6.308-2.433s4.399 14.322 4.032 16.423-9.361 14.744-9.361 14.744l-1.793-1.397s2.353-8.011 6.403-13.739c-3.747-6.538-5.59-13.599-5.59-13.599z"/><path d="M62.415 75.675s-.949-3.149-.211-4.257l-1.598-1.025-1.53 1.397.598.889.311-.074-.069.434c.474.711 1.798 2.609 2.265 2.96.064-.029.119-.075.16-.131s.067-.124.075-.194z"/></g><path d="M62.233 72.322l-2.042-1.715.538-1.055 2.412 1.772-.908.998z" class="B"/><path d="M63.466 25.784l1.703 1.058 1.736 1.015 1.736.899c.521.251 1.063.455 1.62.609l-.593.017a.9.9 0 0 0 .334-.1 4.12 4.12 0 0 0 .555-.294 13.68 13.68 0 0 0 1.2-.837l1.219-.965 1.224-1.003.017-.014a.87.87 0 0 1 1.117.003.87.87 0 0 1 .194 1.1 16.86 16.86 0 0 1-.918 1.423l-1.055 1.345a12.47 12.47 0 0 1-1.259 1.271 7.51 7.51 0 0 1-.797.602 3.96 3.96 0 0 1-1.155.524 1.22 1.22 0 0 1-.474.031l-.114-.017c-.818-.122-1.618-.338-2.386-.645l-1.055-.434-1.008-.474-1.928-1.053-1.855-1.186c-.361-.264-.606-.656-.685-1.096s.015-.893.262-1.265.628-.635 1.063-.734.892-.026 1.276.204l.026.017z" class="C"/><path d="M75.215 27.091c.861.062 1.553-1.383 1.553-1.383l.572-.809c.094-.133.137-.295.122-.457s-.087-.314-.203-.427l-.6-.593a.69.69 0 0 0-.495-.197.69.69 0 0 0-.487.216l-.673.712a1.26 1.26 0 0 0-.268.446l-.237.676a1.58 1.58 0 0 0 .398 1.643l.057.055c.069.071.162.113.261.119z" class="G"/><path d="M73.635 26.47l.372-.797c.534-.092 1.862 1.025 2.035 1.497-.116.254-.764.761-.764.761-.406-.455-1.328-1.141-1.644-1.461z" fill="#e0e0e0"/><path d="M54.179 30.174c1.928-1.466 4.914-3.168 7.115-3.979a2.79 2.79 0 0 1 3.126.896c2.165 2.765 3.932 6.809 6.738 12.256-3.643 4.198-9.361 5.407-9.361 5.407-.785-.972-1.52-3.263-2.355-5.274-1.494-1.712-3.574-3.458-5.587-5.713-.232-.249-.408-.544-.519-.866s-.151-.664-.121-1.003.132-.668.298-.965.393-.556.666-.759z" class="D"/><path d="M68.024 40.912c-.024 0-.047-.007-.067-.021s-.034-.033-.043-.055c-1.947-4.9-7.29-10.729-8.379-11.483-.022-.019-.036-.046-.04-.074s.003-.058.02-.082.041-.041.069-.048.058-.004.084.01c1.103.761 6.503 6.64 8.467 11.59.011.029.01.062-.002.09s-.035.051-.064.064c-.014.007-.03.01-.045.009z" fill="#e6e6e6"/><path d="M55.732 29.093c4.06 2.104 2.225 14.746 8.578 20.291-3.742-.021-6.353-2.692-6.353-2.692s-2.372-10.29-4.731-13.281c-1.437-1.814.595-3.353 2.507-4.319zm3.78-2.073c2.094.794 13.518 11.047 13.769 16.838 1.141-4.126-.78-7.589-.78-7.589s-3.854-4.323-5.538-6.617-3.671-4.506-5.241-4.01c-2.009.614-2.21 1.378-2.21 1.378z" class="C"/><path d="M53.93 25.006l3.493.567c.168.994.565 1.897 2.089 1.447.59.249.296 1.096-.123 1.66-.949.408-2.388.842-3.365.41-.171-.7-1.164-3.012-2.094-4.084z" class="G"/><g class="B"><path d="M59.669 27.85c.066.342.046.695-.059 1.027-.363.209-1.126.107-1.126.107s-.128-.69.09-.972c.837-.247 1.096-.161 1.096-.161z"/><path d="M59.01 28.851a1.01 1.01 0 0 1 .311-.498c1.935 1.788 6.626 2.874 7.743 3.716.536.37 1.501 1.328 1.489 2.542-1.046-.882-2.372-.576-2.988-1.06-1.731-1.667-5.599-2.931-6.555-4.7z"/></g><path opacity=".2" d="M55.386 25.243l2.037.33a3.45 3.45 0 0 0 .173.681c-.512.349-1.57.237-1.897-.237-.15-.237-.256-.499-.313-.773z" fill="#000"/><path d="M52.609 24.632c1.338 1.105 2.063 1.821 3.306 1.786 1.869-.057 2.739-2.175 1.757-3.662-.885-1.34-2.922-2.924-4.575-2.146a2.39 2.39 0 0 0-.92.763c-.237.328-.387.711-.436 1.113s.005.809.157 1.185.396.706.71.961z" class="G"/><g class="C"><path d="M53.242 25.158c.804-.712.358-1.397-.078-1.312.382-.519-.408-1.39-1.036-1.259 1.006-.712 2.962-1.551 2.644-2.981-.296-1.342-2.825-1.259-2.763.439.425-.145.524.505-.711 1.034-1.992.854-1.798 2.317-.761 2.421-.768.472.854 2.07 2.706 1.658z"/><path d="M54.281 21.05c.747-1.046.662-1.897.557-2.36.557.918.211 2.011-.557 2.36zm-4.971 2.286c1.262.251 1.995-.171 2.383-.46-.61.894-1.748 1.017-2.383.46z"/></g><path d="M52.901 25.815c.164.108.349.182.542.218s.392.034.584-.007c.517-.111.531-.636.185-.996-.313-.323-.949-.655-1.378-.351a.68.68 0 0 0-.273.586.68.68 0 0 0 .34.55z" class="G"/><path d="M54.44 23.059c.102.095.237.119.299.052s.031-.202-.074-.299-.237-.119-.299-.052-.031.204.073.299zm1.219-1.157c.104.097.237.121.301.052s.028-.202-.074-.296-.237-.121-.301-.052-.028.202.074.296z" class="C"/><path d="M55.533 22.272a4.95 4.95 0 0 0 1.337.327.82.82 0 0 1-.365.583l-.972-.911z" fill="#ed893e"/><path d="M53.852 23.023c-.008.011-.02.019-.033.024s-.021.005-.032.005-.022-.003-.032-.008-.019-.011-.026-.019-.013-.017-.017-.028a.84.84 0 0 1 .074-.756c.013-.018.033-.029.055-.032s.044.002.062.016.029.033.032.055-.003.044-.016.061a.67.67 0 0 0-.052.6c.006.014.007.029.005.044a.08.08 0 0 1-.019.039zm2.027-2.044c-.006.012-.016.022-.027.03s-.024.013-.038.015a.65.65 0 0 0-.294.09c-.09.053-.164.127-.219.216-.011.019-.028.033-.049.039s-.043.004-.062-.006-.034-.028-.041-.048-.005-.044.005-.063a.81.81 0 0 1 .643-.394c.015-.001.03.002.043.008s.025.016.033.029.013.027.014.041-.002.03-.009.043z" class="C"/><path d="M55.981 28.929l-.047-.147c-.111 0-.524.375-.32.583.697.692 2.469.643 3.185.432-.225-.211-.33-1.371-.237-1.783-.572.377-1.321.666-2.58.915zm2.597-.918a2.72 2.72 0 0 1 2.002.557c.185-.299-.074-.894-.187-1.077-.356-.614-.74-.923-1.387-.365-.04.258.168.491-.427.885z" fill="#e6e6e6"/><path d="M56.019 32.977l-.998 1.371-.96 1.392-.863 1.385-.346.666a4.34 4.34 0 0 0-.237.562 3.29 3.29 0 0 0-.071 1.186 10.28 10.28 0 0 0 .275 1.53 31.3 31.3 0 0 0 1.029 3.211l.014.043a.87.87 0 0 1-.383 1.045.87.87 0 0 1-.583.103c-.2-.035-.382-.139-.514-.295-.406-.486-.779-1-1.115-1.537-.342-.54-.649-1.101-.92-1.679-.287-.609-.515-1.244-.681-1.897-.207-.766-.254-1.567-.137-2.353a6.89 6.89 0 0 1 .306-1.134l.396-.949c.272-.586.575-1.157.908-1.71l1.013-1.575 1.124-1.504c.288-.34.696-.557 1.139-.605s.888.077 1.242.348.59.668.66 1.108-.033.891-.287 1.257l-.009.028z" class="C"/><path d="M52.26 44.762a.42.42 0 0 1 .213-.175l.768-.289c.073-.027.152-.032.229-.017s.147.053.203.107l.5.474a4.69 4.69 0 0 1 1.105 1.66l.083.209a.69.69 0 0 1-.016.532.69.69 0 0 1-.389.362l-.792.289c-.153.056-.321.056-.474 0s-.281-.166-.361-.308l-.486-.863s-1.008-1.228-.583-1.98z" class="G"/><path d="M53.728 44.029a3.18 3.18 0 0 1 .669.695c-.216.496-1.881.984-2.372.87-.149-.237-.213-1.058-.213-1.058.6-.085 1.475-.42 1.916-.508z" fill="#e0e0e0"/><path d="M56.365 23.993a1.79 1.79 0 0 0 .19-.19c.013-.02.014-.026.014-.032-.006-.023-.01-.028-.014-.032a.05.05 0 0 0-.069 0c-.13.157-.294.282-.479.367s-.387.127-.591.123c-.024.004-.03.006-.035.011-.015.02-.017.026-.017.032a.05.05 0 0 0 .013.034c.008.009.02.015.032.016.348.008.687-.109.956-.33z" class="C"/><g class="B"><path d="M76.552 22.597l11.082-4.157c.043-.014.082-.038.115-.07s.057-.071.072-.114.019-.089.013-.134-.022-.088-.048-.126L84.16 11.83a.45.45 0 0 0-.524-.187L72.554 15.8c-.043.015-.082.039-.114.071s-.056.071-.071.114-.019.088-.014.133.022.088.046.126l3.626 6.166a.45.45 0 0 0 .524.187z"/><path d="M75.978 31.122l11.082-4.157c.102-.049.189-.123.254-.215s.106-.199.118-.311l.666-7.784c.019-.221-.116-.341-.303-.273l-11.083 4.155a.66.66 0 0 0-.254.213c-.065.091-.106.198-.119.309l-.666 7.786c-.021.221.119.344.304.277z"/></g><path opacity=".2" d="M76.735 23.32a.67.67 0 0 1 .375-.524l10.599-3.98c.041-.015.086-.02.13-.013s.085.024.12.051.063.062.081.102.026.084.022.129l-.628 7.352c-.012.112-.052.22-.117.312s-.153.166-.255.214L76.46 30.94c-.041.016-.086.021-.13.015a.26.26 0 0 1-.121-.05c-.035-.027-.063-.062-.081-.103s-.025-.085-.021-.129l.629-7.352z" fill="#000"/><g class="F"><path d="M58.725 26.235c1.659-2.599.896-6.051-1.703-7.709s-6.051-.896-7.709 1.703-.896 6.051 1.703 7.709 6.051.896 7.709-1.703z" class="B F"/><path opacity=".4" d="M51.932 23.261c.123-1.382-.495-2.566-1.381-2.645s-1.704.977-1.827 2.358.495 2.566 1.381 2.645 1.704-.977 1.827-2.358zm.8 1.314c-.237-.133-.6.05-.792.408s-.152.756.092.889.6-.052.794-.41.152-.742-.095-.887z" class="D"/></g><defs ><path id="B" d="M23.353 3.605h-4.997c-.19 0-.344.154-.344.344v.071c0 .19.154.344.344.344h4.997c.19 0 .344-.154.344-.344v-.071c0-.19-.154-.344-.344-.344z"/><path id="C" d="M42.769 45.826l-2.585 4.269 4.11-1.15 4.11-1.148-5.014-2.134a.49.49 0 0 0-.621.164z"/><path id="D" d="M50.278 53.287l-7.826 2.189c-.096.023-.198.01-.285-.037s-.155-.124-.189-.217l-1.866-4.916c-.02-.043-.03-.089-.03-.136s.01-.093.03-.136.048-.08.084-.111.077-.053.122-.066l7.826-2.187c.096-.024.198-.011.286.036s.155.124.189.218l1.866 4.916c.02.042.03.089.03.135s-.01.093-.03.135-.048.08-.084.11-.077.052-.122.065z"/></defs></svg>