<svg width="99" height="76" viewBox="0 0 99 76" fill="none" xmlns="http://www.w3.org/2000/svg">
    <path d="M98.1834 0.685791H0V62.6765H98.1834V0.685791Z" fill="#13CB6E" />
    <path opacity="0.6" d="M98.1834 0.685791H0V62.6765H98.1834V0.685791Z" fill="white" />
    <path d="M97.5526 0H0.633209V62.0642H97.5526V0Z" fill="#13CB6E" />
    <path opacity="0.8" d="M97.5526 0H0.633209V62.0642H97.5526V0Z" fill="white" />
    <path opacity="0.3" d="M69.9616 59.045C69.5419 59.045 69.115 59.045 68.6833 59.0189C60.1457 58.6632 54.646 55.0845 48.8119 51.2971C46.2956 49.6631 43.694 47.9769 40.7319 46.4519C35.6686 43.8432 32.1278 45.0503 28.3783 46.3191C25.9095 47.1539 23.3601 48.0172 20.2533 47.818C16.6793 47.5808 14.0184 46.2693 12.3465 43.8954C9.76144 40.2265 10.0697 34.6462 11.2176 30.643C13.4919 22.7243 18.8825 16.5938 26.806 12.9178C34.369 9.40549 43.9478 8.21733 54.5013 9.48138C68.3679 11.1415 80.5887 17.9029 86.3659 27.1259C90.2197 33.2707 91.0094 40.153 88.6473 47.0306C86.0101 54.7122 79.2369 59.045 69.9616 59.045ZM34.8433 44.7895C36.6291 44.7895 38.5619 45.2045 40.7864 46.3476C43.7533 47.8702 46.3573 49.5611 48.8759 51.1975C54.6958 54.9754 60.1931 58.5494 68.6881 58.9004C78.5634 59.313 85.7967 54.9707 88.5359 46.9927C90.8861 40.1483 90.1011 33.3015 86.2639 27.19C80.4962 17.9954 68.3181 11.2553 54.4847 9.59996C32.3602 6.95091 15.8279 15.0261 11.3219 30.6762C10.1812 34.651 9.8729 40.1933 12.4342 43.8266C14.0943 46.1721 16.703 47.4741 20.2604 47.6994C23.3435 47.8962 25.8811 47.0377 28.338 46.2053C30.4701 45.4867 32.5333 44.7895 34.8433 44.7895Z" fill="white" />
    <path d="M88.9129 19.0057C95.079 28.4162 93.8766 42.3468 82.0234 50.5051C69.1031 59.3985 56.7993 57.0862 50.5051 47.8204C44.211 38.5547 46.981 26.7537 56.8657 18.2872C66.7505 9.82062 82.3887 9.04274 88.9129 19.0057Z" fill="white" />
    <g opacity="0.5">
        <path opacity="0.5" d="M11.986 3.60498H6.98905C6.79913 3.60498 6.64517 3.75894 6.64517 3.94886V4.02C6.64517 4.20992 6.79913 4.36388 6.98905 4.36388H11.986C12.1759 4.36388 12.3298 4.20992 12.3298 4.02V3.94886C12.3298 3.75894 12.1759 3.60498 11.986 3.60498Z" fill="#13CB6E" />
        <path opacity="0.5" d="M23.353 3.60498H18.3561C18.1661 3.60498 18.0122 3.75894 18.0122 3.94886V4.02C18.0122 4.20992 18.1661 4.36388 18.3561 4.36388H23.353C23.5429 4.36388 23.6968 4.20992 23.6968 4.02V3.94886C23.6968 3.75894 23.5429 3.60498 23.353 3.60498Z" fill="#13CB6E" />
        <path opacity="0.5" d="M34.7223 3.60498H29.7254C29.5355 3.60498 29.3815 3.75894 29.3815 3.94886V4.02C29.3815 4.20992 29.5355 4.36388 29.7254 4.36388H34.7223C34.9122 4.36388 35.0662 4.20992 35.0662 4.02V3.94886C35.0662 3.75894 34.9122 3.60498 34.7223 3.60498Z" fill="#13CB6E" />
        <path opacity="0.5" d="M46.0917 3.60498H41.0947C40.9048 3.60498 40.7509 3.75894 40.7509 3.94886V4.02C40.7509 4.20992 40.9048 4.36388 41.0947 4.36388H46.0917C46.2816 4.36388 46.4355 4.20992 46.4355 4.02V3.94886C46.4355 3.75894 46.2816 3.60498 46.0917 3.60498Z" fill="#13CB6E" />
    </g>
    <path d="M92.1809 3.60498H83.1025C82.758 3.60498 82.4788 3.88423 82.4788 4.2287V4.36151C82.4788 4.70599 82.758 4.98524 83.1025 4.98524H92.1809C92.5254 4.98524 92.8046 4.70599 92.8046 4.36151V4.2287C92.8046 3.88423 92.5254 3.60498 92.1809 3.60498Z" fill="#13CB6E" />
    <path d="M34.6512 14.7249H8.08472C7.28968 14.7249 6.64517 15.3694 6.64517 16.1644V16.1668C6.64517 16.9618 7.28968 17.6063 8.08472 17.6063H34.6512C35.4462 17.6063 36.0907 16.9618 36.0907 16.1668V16.1644C36.0907 15.3694 35.4462 14.7249 34.6512 14.7249Z" fill="white" />
    <path d="M41.8252 20.5H7.93057C7.22066 20.5 6.64517 21.0755 6.64517 21.7854V25.236C6.64517 25.9459 7.22066 26.5214 7.93057 26.5214H41.8252C42.5351 26.5214 43.1106 25.9459 43.1106 25.236V21.7854C43.1106 21.0755 42.5351 20.5 41.8252 20.5Z" fill="white" />
    <path d="M31.1246 28.9736H7.93057C7.22067 28.9736 6.64517 29.5491 6.64517 30.259V33.7097C6.64517 34.4196 7.22067 34.9951 7.93057 34.9951H31.1246C31.8345 34.9951 32.41 34.4196 32.41 33.7097V30.259C32.41 29.5491 31.8345 28.9736 31.1246 28.9736Z" fill="white" />
    <path opacity="0.3" d="M31.4401 39.1147H7.17642C7.10606 39.1153 7.03628 39.1019 6.97112 39.0754C6.90597 39.0488 6.84674 39.0096 6.79687 38.9599C6.74701 38.9103 6.7075 38.8512 6.68065 38.7862C6.6538 38.7211 6.64013 38.6514 6.64045 38.581C6.64045 38.4401 6.69642 38.305 6.79604 38.2054C6.89567 38.1058 7.03079 38.0498 7.17168 38.0498H31.4401C31.581 38.0498 31.7161 38.1058 31.8157 38.2054C31.9153 38.305 31.9713 38.4401 31.9713 38.581C31.9716 38.651 31.9581 38.7203 31.9315 38.7851C31.905 38.8498 31.8659 38.9086 31.8165 38.9582C31.7672 39.0078 31.7085 39.0471 31.6439 39.074C31.5793 39.1008 31.51 39.1147 31.4401 39.1147Z" fill="#13CB6E" />
    <path opacity="0.3" d="M24.0075 41.1682H7.16927C7.02879 41.1675 6.89428 41.1113 6.79517 41.0117C6.69605 40.9122 6.64041 40.7774 6.64041 40.6369C6.64041 40.5672 6.65415 40.4981 6.68085 40.4336C6.70755 40.3692 6.74668 40.3106 6.79601 40.2613C6.84534 40.212 6.9039 40.1728 6.96835 40.1461C7.0328 40.1195 7.10188 40.1057 7.17164 40.1057H24.0099C24.0796 40.1057 24.1487 40.1195 24.2132 40.1461C24.2776 40.1728 24.3362 40.212 24.3855 40.2613C24.4348 40.3106 24.474 40.3692 24.5007 40.4336C24.5274 40.4981 24.5411 40.5672 24.5411 40.6369C24.5411 40.7069 24.5273 40.7762 24.5004 40.8408C24.4736 40.9054 24.4342 40.964 24.3847 41.0134C24.3351 41.0628 24.2762 41.1019 24.2115 41.1284C24.1468 41.155 24.0775 41.1685 24.0075 41.1682Z" fill="#13CB6E" />
    <path opacity="0.1" d="M26.9103 46.2788H10.2476C8.25804 46.2788 6.64517 47.8917 6.64517 49.8812C6.64517 51.8708 8.25804 53.4837 10.2476 53.4837H26.9103C28.8999 53.4837 30.5128 51.8708 30.5128 49.8812C30.5128 47.8917 28.8999 46.2788 26.9103 46.2788Z" fill="#13CB6E" />
    <path d="M26.6234 52.7795H10.4966C10.0375 52.7811 9.58258 52.692 9.15795 52.5173C8.73333 52.3427 8.34735 52.086 8.02214 51.7619C7.69694 51.4378 7.43891 51.0527 7.26285 50.6287C7.08679 50.2046 6.99617 49.75 6.99617 49.2909C6.9968 48.3661 7.36462 47.4794 8.01879 46.8256C8.67296 46.1719 9.55994 45.8047 10.4848 45.8047H26.6234C27.0819 45.8038 27.5361 45.8932 27.96 46.068C28.3839 46.2427 28.7693 46.4993 29.0939 46.8231C29.4186 47.1469 29.6763 47.5315 29.8522 47.955C30.0281 48.3784 30.1188 48.8324 30.1191 49.2909C30.1191 49.7496 30.0286 50.2039 29.8528 50.6276C29.6771 51.0513 29.4195 51.4362 29.0948 51.7602C28.7701 52.0843 28.3847 52.3411 27.9606 52.516C27.5365 52.6909 27.0821 52.7804 26.6234 52.7795Z" fill="#13CB6E" />
    <path opacity="0.4" d="M22.5703 50.2161H14.5378C14.2925 50.2161 14.0572 50.1186 13.8838 49.9452C13.7103 49.7717 13.6129 49.5365 13.6129 49.2912C13.6135 49.0463 13.7112 48.8117 13.8846 48.6387C14.058 48.4658 14.2929 48.3687 14.5378 48.3687H22.5703C22.6917 48.3683 22.8119 48.392 22.9241 48.4382C23.0363 48.4844 23.1383 48.5523 23.2242 48.638C23.3101 48.7237 23.3783 48.8255 23.4248 48.9376C23.4713 49.0497 23.4953 49.1698 23.4953 49.2912C23.4956 49.4127 23.4719 49.5331 23.4255 49.6455C23.3791 49.7579 23.311 49.8599 23.2251 49.9459C23.1391 50.0318 23.037 50.0999 22.9247 50.1463C22.8123 50.1927 22.6919 50.2164 22.5703 50.2161Z" fill="white" />
    <path d="M59.0286 10.2521C59.2572 11.096 59.1874 11.9928 58.8311 12.7912C58.4747 13.5895 57.8536 14.2402 57.0728 14.6335C56.2919 15.0267 55.3993 15.1382 54.5457 14.9492C53.6921 14.7601 52.93 14.2822 52.3882 13.5961C53.019 13.7645 53.683 13.7645 54.3139 13.5961C54.9267 13.4359 55.4897 13.1249 55.9515 12.6914C56.4133 12.2579 56.7592 11.7157 56.9577 11.1142C57.1562 10.5127 57.201 9.87111 57.088 9.24788C56.975 8.62466 56.7078 8.03963 56.3108 7.54614C56.9633 7.71514 57.5591 8.0549 58.0367 8.53049C58.5144 9.00608 58.8568 9.60033 59.0286 10.2521Z" fill="white" />
    <path opacity="0.6" d="M93.4805 21.5838C93.5971 21.5838 93.6916 21.4893 93.6916 21.3727C93.6916 21.2561 93.5971 21.1616 93.4805 21.1616C93.3639 21.1616 93.2694 21.2561 93.2694 21.3727C93.2694 21.4893 93.3639 21.5838 93.4805 21.5838Z" fill="white" />
    <path opacity="0.6" d="M77.8874 10.058C77.8874 10.0997 77.875 10.1405 77.8518 10.1753C77.8286 10.21 77.7957 10.237 77.7571 10.253C77.7185 10.269 77.6761 10.2731 77.6351 10.265C77.5942 10.2569 77.5566 10.2368 77.5271 10.2072C77.4975 10.1777 77.4774 10.1401 77.4693 10.0992C77.4612 10.0582 77.4653 10.0158 77.4813 9.97722C77.4973 9.93865 77.5243 9.90569 77.5591 9.8825C77.5938 9.8593 77.6346 9.84692 77.6763 9.84692C77.7323 9.84692 77.786 9.86916 77.8256 9.90875C77.8652 9.94833 77.8874 10.002 77.8874 10.058Z" fill="white" />
    <path opacity="0.6" d="M61.5425 13.4446C61.6591 13.4446 61.7536 13.3501 61.7536 13.2335C61.7536 13.117 61.6591 13.0225 61.5425 13.0225C61.4259 13.0225 61.3314 13.117 61.3314 13.2335C61.3314 13.3501 61.4259 13.4446 61.5425 13.4446Z" fill="white" />
    <path opacity="0.6" d="M70.7347 19.6677C70.8513 19.6677 70.9458 19.5732 70.9458 19.4567C70.9458 19.3401 70.8513 19.2456 70.7347 19.2456C70.6182 19.2456 70.5237 19.3401 70.5237 19.4567C70.5237 19.5732 70.6182 19.6677 70.7347 19.6677Z" fill="#13CB6E" />
    <path opacity="0.6" d="M87.8527 30.4891C87.8527 30.5309 87.8403 30.5717 87.8171 30.6064C87.7939 30.6411 87.761 30.6682 87.7224 30.6841C87.6839 30.7001 87.6414 30.7043 87.6005 30.6962C87.5595 30.688 87.5219 30.6679 87.4924 30.6384C87.4629 30.6089 87.4428 30.5713 87.4347 30.5303C87.4265 30.4894 87.4307 30.4469 87.4467 30.4084C87.4626 30.3698 87.4897 30.3368 87.5244 30.3136C87.5591 30.2905 87.5999 30.2781 87.6416 30.2781C87.6976 30.2781 87.7513 30.3003 87.7909 30.3399C87.8305 30.3795 87.8527 30.4332 87.8527 30.4891Z" fill="#13CB6E" />
    <path opacity="0.7" d="M67.7205 9.05267C67.0967 9.26374 66.926 9.4345 66.7149 10.0582C66.5039 9.4345 66.3331 9.26374 65.7094 9.05267C66.3331 8.8416 66.5039 8.67085 66.7149 8.04712C66.926 8.67085 67.0967 8.8416 67.7205 9.05267Z" fill="white" />
    <path opacity="0.7" d="M89.1643 13.6675C89.5192 13.6675 89.807 13.3797 89.807 13.0248C89.807 12.6698 89.5192 12.3821 89.1643 12.3821C88.8093 12.3821 88.5216 12.6698 88.5216 13.0248C88.5216 13.3797 88.8093 13.6675 89.1643 13.6675Z" fill="white" />
    <path opacity="0.7" d="M49.3099 16.1647C49.1507 16.1951 49.0043 16.2726 48.8897 16.3872C48.7751 16.5018 48.6976 16.6482 48.6672 16.8074C48.6368 16.6482 48.5592 16.5018 48.4446 16.3872C48.3301 16.2726 48.1837 16.1951 48.0245 16.1647C48.1837 16.1343 48.3301 16.0568 48.4446 15.9422C48.5592 15.8276 48.6368 15.6812 48.6672 15.522C48.6976 15.6812 48.7751 15.8276 48.8897 15.9422C49.0043 16.0568 49.1507 16.1343 49.3099 16.1647Z" fill="white" />
    <path opacity="0.7" d="M64.1939 19.594C63.7006 19.7601 63.5678 19.8952 63.3994 20.3885C63.2334 19.8952 63.0983 19.7601 62.605 19.594C63.0983 19.428 63.2334 19.2928 63.3994 18.7996C63.5583 19.2928 63.7006 19.428 64.1939 19.594Z" fill="#13CB6E" />
    <path opacity="0.7" d="M71.9822 13.6058C72.1878 13.6058 72.3545 13.4391 72.3545 13.2334C72.3545 13.0278 72.1878 12.8611 71.9822 12.8611C71.7766 12.8611 71.6099 13.0278 71.6099 13.2334C71.6099 13.4391 71.7766 13.6058 71.9822 13.6058Z" fill="#13CB6E" />
    <path d="M80.4226 36.0316C80.5175 35.683 82.1135 35.8134 83.98 36.3233C85.8464 36.8332 87.3002 37.5328 87.2006 37.8814L89.1714 38.4198C89.3232 37.8696 87.037 36.7597 84.0796 35.9581C81.1222 35.1565 78.5941 34.9407 78.4447 35.4838L80.4226 36.0316Z" fill="#13CB6E" />
    <path opacity="0.2" d="M81.2954 35.3484C82.2365 35.4996 83.1684 35.7031 84.0868 35.9579C85.0064 36.2066 85.912 36.5042 86.7999 36.8496C86.8232 37.0423 86.8288 37.2368 86.8165 37.4306C85.9249 36.9378 84.9719 36.5654 83.9824 36.3231C82.7445 35.9863 81.6251 35.8132 80.9824 35.8369C81.07 35.664 81.1749 35.5003 81.2954 35.3484Z" fill="black" />
    <path d="M84.8808 39.4288C86.249 38.8407 86.8814 37.2549 86.2933 35.8867C85.7052 34.5185 84.1193 33.8861 82.7511 34.4742C81.3829 35.0623 80.7506 36.6482 81.3387 38.0164C81.9268 39.3846 83.5127 40.0169 84.8808 39.4288Z" fill="#13CB6E" />
    <path opacity="0.4" d="M83.8164 39.6527C85.3056 39.6527 86.5128 38.4455 86.5128 36.9562C86.5128 35.467 85.3056 34.2598 83.8164 34.2598C82.3271 34.2598 81.1199 35.467 81.1199 36.9562C81.1199 38.4455 82.3271 39.6527 83.8164 39.6527Z" fill="white" />
    <path opacity="0.1" d="M81.6985 36.1785C81.7198 36.6908 82.1111 36.9374 82.5712 36.7335C82.8096 36.6105 83.0095 36.424 83.1488 36.1947C83.2882 35.9655 83.3616 35.7022 83.3609 35.4339C83.3396 34.9216 82.9483 34.6726 82.4906 34.8789C82.2515 35.0014 82.051 35.1876 81.9112 35.417C81.7714 35.6464 81.6978 35.9099 81.6985 36.1785Z" fill="white" />
    <path opacity="0.1" d="M84.2765 35.8299C84.3002 35.8959 84.343 35.9533 84.3995 35.9948C84.4559 36.0364 84.5234 36.0602 84.5934 36.0633C84.6634 36.0664 84.7328 36.0486 84.7926 36.0122C84.8525 35.9758 84.9002 35.9224 84.9297 35.8588C84.9591 35.7952 84.969 35.7243 84.958 35.6551C84.9471 35.5859 84.9158 35.5215 84.8682 35.4701C84.8205 35.4187 84.7587 35.3826 84.6905 35.3665C84.6223 35.3503 84.5509 35.3548 84.4852 35.3793C84.3982 35.4119 84.3274 35.4774 84.2884 35.5618C84.2493 35.6461 84.245 35.7425 84.2765 35.8299Z" fill="white" />
    <path opacity="0.1" d="M84.9238 38.7115C84.9371 38.7487 84.9576 38.7829 84.9841 38.8121C85.0106 38.8413 85.0427 38.865 85.0784 38.8817C85.1141 38.8985 85.1528 38.908 85.1922 38.9097C85.2316 38.9115 85.271 38.9054 85.308 38.8918C85.3777 38.8607 85.433 38.8044 85.4628 38.7341C85.4926 38.6638 85.4945 38.5849 85.4683 38.5132C85.4422 38.4416 85.3897 38.3825 85.3217 38.348C85.2536 38.3135 85.175 38.3061 85.1017 38.3273C85.0646 38.3405 85.0304 38.361 85.0013 38.3876C84.9722 38.4142 84.9487 38.4463 84.9321 38.4821C84.9155 38.5178 84.9063 38.5566 84.9049 38.596C84.9034 38.6354 84.9099 38.6747 84.9238 38.7115Z" fill="white" />
    <path opacity="0.5" d="M83.5745 37.8386C84.4145 38.0777 85.2753 38.2365 86.1453 38.3129C86.0569 38.4649 85.9528 38.6072 85.8346 38.7374C85.1231 38.6094 84.3097 38.4291 83.4749 38.2015C82.6401 37.9738 81.8551 37.7271 81.1673 37.4639C81.1317 37.2923 81.115 37.1174 81.1175 36.9421C81.9069 37.3165 82.7295 37.6166 83.5745 37.8386Z" fill="#13CB6E" />
    <path d="M80.4227 36.0312C80.3255 36.3799 81.7674 37.0771 83.6409 37.5894C85.5145 38.1016 87.1129 38.2297 87.1983 37.8811L89.1691 38.4194C89.0197 38.972 86.4963 38.7633 83.5318 37.9451C80.5674 37.1269 78.2907 36.036 78.4424 35.4834L80.4227 36.0312Z" fill="#13CB6E" />
    <path d="M42.7691 45.826L40.1841 50.0949L44.294 48.9446L48.4039 47.7968L43.3904 45.6624C43.2846 45.6099 43.1633 45.5976 43.0491 45.6277C42.9348 45.6578 42.8354 45.7282 42.7691 45.826Z" fill="#13CB6E" />
    <path opacity="0.5" d="M42.7691 45.826L40.1841 50.0949L44.294 48.9446L48.4039 47.7968L43.3904 45.6624C43.2846 45.6099 43.1633 45.5976 43.0491 45.6277C42.9348 45.6578 42.8354 45.7282 42.7691 45.826Z" fill="white" />
    <path d="M50.2775 53.2871L42.4513 55.476C42.3549 55.499 42.2534 55.4859 42.166 55.4391C42.0786 55.3924 42.0114 55.3152 41.977 55.2223L40.1105 50.306C40.091 50.2634 40.0808 50.2171 40.0808 50.1702C40.0809 50.1233 40.091 50.077 40.1106 50.0344C40.1302 49.9918 40.1588 49.954 40.1944 49.9235C40.23 49.893 40.2718 49.8706 40.3169 49.8577L48.1431 47.6711C48.2395 47.6476 48.3412 47.6605 48.4287 47.7073C48.5163 47.7542 48.5834 47.8316 48.6174 47.9249L50.4838 52.8412C50.5034 52.8836 50.5135 52.9298 50.5135 52.9765C50.5135 53.0232 50.5033 53.0694 50.4837 53.1118C50.4641 53.1542 50.4355 53.1918 50.3999 53.2221C50.3643 53.2524 50.3225 53.2745 50.2775 53.2871Z" fill="#13CB6E" />
    <path opacity="0.3" d="M50.2775 53.2871L42.4513 55.476C42.3549 55.499 42.2534 55.4859 42.166 55.4391C42.0786 55.3924 42.0114 55.3152 41.977 55.2223L40.1105 50.306C40.091 50.2634 40.0808 50.2171 40.0808 50.1702C40.0809 50.1233 40.091 50.077 40.1106 50.0344C40.1302 49.9918 40.1588 49.954 40.1944 49.9235C40.23 49.893 40.2718 49.8706 40.3169 49.8577L48.1431 47.6711C48.2395 47.6476 48.3412 47.6605 48.4287 47.7073C48.5163 47.7542 48.5834 47.8316 48.6174 47.9249L50.4838 52.8412C50.5034 52.8836 50.5135 52.9298 50.5135 52.9765C50.5135 53.0232 50.5033 53.0694 50.4837 53.1118C50.4641 53.1542 50.4355 53.1918 50.3999 53.2221C50.3643 53.2524 50.3225 53.2745 50.2775 53.2871Z" fill="white" />
    <path opacity="0.2" d="M45.468 52.348L40.7367 50.0665C40.704 50.0544 40.6758 50.0326 40.6559 50.0039C40.636 49.9753 40.6253 49.9413 40.6253 49.9064C40.6253 49.8716 40.636 49.8376 40.6559 49.8089C40.6758 49.7803 40.704 49.7585 40.7367 49.7464L44.23 48.7693L47.7257 47.7922C47.7601 47.7839 47.7961 47.7853 47.8297 47.7964C47.8633 47.8075 47.8931 47.8277 47.9158 47.8549C47.9385 47.882 47.9531 47.9149 47.9581 47.9499C47.9631 47.985 47.9581 48.0207 47.9439 48.053L45.6861 52.2887C45.6648 52.3252 45.63 52.3519 45.5892 52.363C45.5484 52.3741 45.5048 52.3687 45.468 52.348Z" fill="#13CB6E" />
    <path d="M45.5747 51.2476C45.4346 51.1752 45.2719 51.1594 45.1205 51.2035C44.9691 51.2477 44.8404 51.3484 44.7612 51.4848L42.4513 55.4762L50.2775 53.2872L45.5747 51.2476Z" fill="#263238" />
    <path d="M45.3422 51.2119L42.4465 55.4808L46.3596 54.3875L50.2775 53.287L45.9351 51.0435C45.8324 50.9964 45.7163 50.9874 45.6076 51.0183C45.4989 51.0492 45.4048 51.1178 45.3422 51.2119Z" fill="#13CB6E" />
    <path opacity="0.12" d="M45.9351 51.0434C45.8327 50.996 45.7168 50.9867 45.6081 51.0171C45.4994 51.0475 45.4052 51.1157 45.3422 51.2094L42.4465 55.4782L50.2728 53.2892L45.9351 51.0434Z" fill="white" />
    <path d="M54.3614 19.9881C55.1511 19.1367 56.3392 21.1312 56.3392 21.1312C56.3392 21.1312 57.1171 21.4158 56.389 22.0395C54.1242 21.0221 54.3614 19.9881 54.3614 19.9881Z" fill="#263238" />
    <path d="M61.3125 48.1743C59.5101 45.1078 72.6961 42.4445 72.8408 39.8192C70.8297 35.8753 67.3695 31.2815 67.3695 31.2815L55.9053 36.3259C55.9053 36.3259 57.952 46.692 61.3125 48.1743Z" fill="black" />
    <path d="M64.5781 43.4026L68.1853 37.6824C68.1853 37.6824 80.2803 46.5379 81.229 48.4446C82.1776 50.3513 82.5333 65.8591 82.5333 65.8591L80.259 65.8117C80.259 65.8117 77.3609 57.9855 77.1949 50.9608C70.2699 47.9608 64.5781 43.4026 64.5781 43.4026Z" fill="#263238" />
    <path d="M70.1087 44.968C70.012 45.83 70.1565 46.7019 70.5261 47.4866C69.6533 46.9578 68.8541 46.4431 68.1403 45.9688L68.024 45.753L70.1087 44.968Z" fill="black" />
    <path d="M84.8006 68.975C84.8006 68.975 82.1634 67.0137 82.0875 65.688L80.1903 65.8184L79.799 67.8532L80.8093 68.209L81.0156 67.9718L81.2195 68.3608C82.0377 68.6477 84.2243 69.3829 84.803 69.3782C84.838 69.3167 84.8562 69.247 84.8558 69.1763C84.8554 69.1055 84.8364 69.0361 84.8006 68.975Z" fill="#263238" />
    <path d="M82.6519 66.3952L79.9886 66.2387L79.7918 65.0719L82.7824 65.0505L82.6519 66.3952Z" fill="#13CB6E" />
    <path d="M61.4784 43.0871L67.7868 40.6538C67.7868 40.6538 72.1861 54.9758 71.8185 57.077C71.4509 59.1782 62.4579 71.8211 62.4579 71.8211L60.665 70.4243C60.665 70.4243 63.0176 62.4131 67.0682 56.6857C63.3211 50.1472 61.4784 43.0871 61.4784 43.0871Z" fill="#263238" />
    <path d="M62.4153 75.6753C62.4153 75.6753 61.4667 72.5258 62.2042 71.4183L60.6058 70.3938L59.0761 71.7907L59.6737 72.68L59.9844 72.6065L59.9157 73.0405C60.39 73.7519 61.7133 75.6492 62.1805 76.0002C62.2444 75.971 62.2997 75.9257 62.3408 75.8688C62.382 75.8118 62.4077 75.7451 62.4153 75.6753Z" fill="#263238" />
    <path d="M62.2326 72.3218L60.1907 70.6071L60.729 69.5518L63.1409 71.3233L62.2326 72.3218Z" fill="#13CB6E" />
    <path d="M63.4658 25.7838C64.0065 26.1253 64.5971 26.4953 65.1686 26.8416C65.7402 27.1878 66.3259 27.5293 66.9046 27.8566C67.4833 28.1839 68.0667 28.4851 68.6406 28.7554C69.1612 29.0067 69.7033 29.2107 70.2604 29.3649L69.6675 29.3815C69.7844 29.3705 69.898 29.3366 70.0019 29.2819C70.1941 29.1981 70.3796 29.0998 70.5568 28.9878C70.9434 28.7507 71.356 28.4613 71.7568 28.1507C72.1576 27.84 72.5703 27.5175 72.9758 27.1854L74.1996 26.1823L74.2162 26.168C74.3731 26.0373 74.571 25.9659 74.7752 25.9664C74.9795 25.9669 75.177 26.0392 75.3334 26.1706C75.4897 26.3021 75.5948 26.4843 75.6303 26.6854C75.6658 26.8866 75.6295 27.0938 75.5276 27.2708C75.2457 27.7602 74.9394 28.2351 74.6098 28.6938C74.2802 29.1539 73.9316 29.6021 73.5545 30.0385C73.1657 30.4918 72.7449 30.9166 72.2952 31.3096C72.0432 31.5279 71.777 31.7291 71.4983 31.912C71.144 32.1476 70.754 32.3246 70.3434 32.4361C70.1888 32.4774 70.0277 32.4879 69.8691 32.467L69.7552 32.4504C68.9376 32.3286 68.137 32.1122 67.3694 31.8053C67.009 31.6677 66.658 31.5207 66.3141 31.3713C65.9702 31.2219 65.6382 31.0559 65.3062 30.897C64.6445 30.5673 64.0065 30.2116 63.3781 29.844C62.7496 29.4764 62.1472 29.0922 61.5235 28.6582C61.1628 28.3947 60.9176 28.0022 60.8389 27.5625C60.7602 27.1228 60.8539 26.6697 61.1007 26.2974C61.3475 25.9251 61.7283 25.6622 62.164 25.5635C62.5996 25.4647 63.0565 25.5377 63.4397 25.7672L63.4658 25.7838Z" fill="#263238" />
    <path d="M75.2147 27.0907C76.0756 27.1524 76.7681 25.7081 76.7681 25.7081L77.3396 24.8994C77.4334 24.7664 77.4768 24.6043 77.462 24.4422C77.4472 24.2802 77.3752 24.1286 77.259 24.0148L76.659 23.4219C76.5937 23.3578 76.5163 23.3075 76.4313 23.2737C76.3463 23.2399 76.2555 23.2235 76.1641 23.2252C76.0726 23.227 75.9825 23.247 75.8989 23.284C75.8153 23.321 75.7399 23.3743 75.6771 23.4408L75.0036 24.1523C74.8842 24.2807 74.7929 24.4325 74.7356 24.5982L74.4985 25.2741C74.4023 25.5576 74.3887 25.8627 74.4592 26.1537C74.5297 26.4446 74.6815 26.7096 74.8969 26.9176L74.9538 26.9721C75.0228 27.043 75.1159 27.0854 75.2147 27.0907Z" fill="#FFB573" />
    <path d="M73.6352 26.4695C73.6352 26.4695 73.8415 25.9952 74.0075 25.6726C74.5411 25.5802 75.8692 26.6972 76.0423 27.1691C75.9261 27.4229 75.2787 27.9304 75.2787 27.9304C74.8732 27.475 73.9506 26.7897 73.6352 26.4695Z" fill="#E0E0E0" />
    <path d="M54.1787 30.1741C56.1068 28.7084 59.0927 27.0056 61.2935 26.1946C61.8428 25.9987 62.4397 25.9799 63.0004 26.1406C63.561 26.3014 64.0572 26.6338 64.4192 27.091C66.5845 29.8563 68.3513 33.8998 71.1569 39.3473C67.5141 43.545 61.7962 44.7545 61.7962 44.7545C61.0113 43.7822 60.2761 41.4912 59.4413 39.4801C57.9472 37.7678 55.8673 36.0224 53.8538 33.767C53.6221 33.5178 53.4454 33.2226 53.3353 32.9006C53.2251 32.5786 53.1841 32.237 53.2147 31.898C53.2454 31.5591 53.347 31.2304 53.5131 30.9334C53.6792 30.6364 53.906 30.3776 54.1787 30.1741Z" fill="white" />
    <path d="M68.024 40.9122C68.0002 40.9122 67.977 40.905 67.9575 40.8914C67.938 40.8778 67.9231 40.8586 67.9149 40.8363C65.9678 35.9367 60.6247 30.1073 59.5361 29.3532C59.5142 29.3341 59.5001 29.3076 59.4965 29.2789C59.4928 29.2501 59.4998 29.2209 59.5162 29.197C59.5325 29.173 59.5571 29.1559 59.5853 29.1488C59.6134 29.1418 59.6432 29.1453 59.6689 29.1587C60.7717 29.92 66.1718 35.7991 68.1355 40.7486C68.1465 40.7779 68.1457 40.8103 68.1333 40.8391C68.121 40.8678 68.0979 40.8906 68.0691 40.9027C68.055 40.9093 68.0395 40.9125 68.024 40.9122Z" fill="#E6E6E6" />
    <path d="M55.7321 29.0925C59.7923 31.1961 57.9567 43.839 64.3101 49.3838C60.5678 49.3624 57.9567 46.692 57.9567 46.692C57.9567 46.692 55.5851 36.4017 53.2253 33.4112C51.7882 31.5969 53.8206 30.0578 55.7321 29.0925Z" fill="#263238" />
    <path d="M59.5124 27.0196C61.6065 27.8141 73.0304 38.0664 73.2818 43.8578C74.4226 39.7313 72.5016 36.2688 72.5016 36.2688C72.5016 36.2688 68.6477 31.9454 66.9639 29.6521C65.2801 27.3588 63.2927 25.1461 61.7227 25.6417C59.714 26.256 59.5124 27.0196 59.5124 27.0196Z" fill="#263238" />
    <path d="M53.9298 25.0061L57.4231 25.5729C57.5915 26.5666 57.9876 27.4702 59.5125 27.0196C60.103 27.2686 59.809 28.1152 59.3892 28.6797C58.4406 29.0876 57.001 29.5216 56.0239 29.09C55.8531 28.3903 54.8594 26.0781 53.9298 25.0061Z" fill="#FFB573" />
    <path d="M59.669 27.8497C59.7352 28.1916 59.7149 28.5447 59.6097 28.8766C59.2469 29.0853 58.4832 28.9834 58.4832 28.9834C58.4832 28.9834 58.3551 28.2932 58.5733 28.011C59.4105 27.7644 59.669 27.8497 59.669 27.8497Z" fill="#13CB6E" />
    <path d="M59.0096 28.8508C59.0615 28.6577 59.1696 28.4843 59.3203 28.3528C61.2555 30.141 65.9465 31.2271 67.0635 32.069C67.5995 32.439 68.5647 33.3971 68.5529 34.6114C67.507 33.7291 66.1813 34.0351 65.5647 33.5513C63.8334 31.8841 59.9654 30.62 59.0096 28.8508Z" fill="#13CB6E" />
    <path opacity="0.2" d="M55.3859 25.2434L57.4231 25.5731C57.4575 25.8052 57.5155 26.0333 57.5962 26.2537C57.084 26.6023 56.0262 26.4908 55.699 26.0165C55.5493 25.7796 55.4432 25.5178 55.3859 25.2434Z" fill="black" />
    <path d="M52.6087 24.6315C53.9463 25.7366 54.672 26.4529 55.9147 26.4173C57.7836 26.3604 58.6539 24.2425 57.6721 22.7556C56.7875 21.4156 54.7503 19.8314 53.0973 20.6093C52.7311 20.7818 52.4147 21.0444 52.1776 21.3726C51.9406 21.7007 51.7906 22.0836 51.7418 22.4854C51.693 22.8873 51.7469 23.2949 51.8985 23.6702C52.0502 24.0456 52.2945 24.3763 52.6087 24.6315Z" fill="#FFB573" />
    <path d="M53.2419 25.1578C54.0459 24.4463 53.6001 23.7609 53.1637 23.8463C53.5455 23.3269 52.7558 22.4566 52.1273 22.587C53.1329 21.8755 55.0894 21.036 54.7716 19.6059C54.4752 18.2636 51.9471 18.3466 52.0087 20.0447C52.4332 19.9 52.5329 20.5498 51.2973 21.0787C49.3052 21.9325 49.4996 23.3957 50.536 23.5001C49.7676 23.972 51.3898 25.5705 53.2419 25.1578Z" fill="#263238" />
    <path d="M54.2807 21.0504C55.0278 20.0045 54.9424 19.1531 54.838 18.6907C55.3954 19.6085 55.0491 20.7018 54.2807 21.0504Z" fill="#263238" />
    <path d="M49.3099 23.3363C50.5716 23.5877 51.3044 23.1656 51.6933 22.8762C51.0838 23.7703 49.9455 23.8936 49.3099 23.3363Z" fill="#263238" />
    <path d="M52.9005 25.815C53.065 25.9229 53.2492 25.9972 53.4426 26.0334C53.636 26.0696 53.8346 26.0671 54.027 26.026C54.544 25.9146 54.5582 25.3905 54.212 25.03C53.8989 24.7075 53.2634 24.3754 52.8341 24.679C52.7435 24.7463 52.6711 24.8351 52.6234 24.9374C52.5757 25.0397 52.5542 25.1522 52.5608 25.2649C52.5673 25.3776 52.6018 25.4868 52.6612 25.5829C52.7205 25.6789 52.8027 25.7586 52.9005 25.815Z" fill="#FFB573" />
    <path d="M54.4396 23.0591C54.5416 23.1539 54.6768 23.1777 54.7385 23.1113C54.8001 23.0449 54.7693 22.9097 54.665 22.8125C54.5606 22.7152 54.4278 22.6939 54.3661 22.7603C54.3044 22.8267 54.3353 22.9642 54.4396 23.0591Z" fill="#263238" />
    <path d="M55.6586 21.9018C55.7629 21.9991 55.8957 22.0228 55.9598 21.954C56.0238 21.8852 55.9882 21.7524 55.8863 21.6576C55.7843 21.5627 55.6491 21.5366 55.5851 21.6054C55.5211 21.6742 55.5566 21.807 55.6586 21.9018Z" fill="#263238" />
    <path d="M55.533 22.2717C55.9614 22.4426 56.4116 22.5527 56.8705 22.599C56.8555 22.7169 56.8151 22.8301 56.7521 22.9309C56.689 23.0316 56.6048 23.1174 56.5053 23.1824L55.533 22.2717Z" fill="#ED893E" />
    <path d="M53.8515 23.0233C53.843 23.0343 53.8314 23.0426 53.8183 23.0471C53.808 23.0508 53.7971 23.0525 53.7862 23.0521C53.7752 23.0516 53.7645 23.049 53.7546 23.0444C53.7447 23.0397 53.7357 23.0332 53.7284 23.0251C53.721 23.017 53.7153 23.0076 53.7116 22.9973C53.6631 22.8743 53.6445 22.7417 53.6572 22.6101C53.67 22.4786 53.7138 22.352 53.7851 22.2407C53.7983 22.2231 53.818 22.2115 53.8398 22.2084C53.8615 22.2052 53.8837 22.2109 53.9013 22.2241C53.9189 22.2373 53.9305 22.257 53.9337 22.2788C53.9368 22.3006 53.9311 22.3227 53.9179 22.3403C53.8631 22.4294 53.8298 22.53 53.8207 22.6342C53.8117 22.7383 53.8271 22.8432 53.8657 22.9403C53.8712 22.9541 53.8728 22.9692 53.8703 22.9839C53.8678 22.9985 53.8613 23.0122 53.8515 23.0233Z" fill="#263238" />
    <path d="M55.8793 20.9792C55.873 20.9912 55.8638 21.0016 55.8527 21.0095C55.8416 21.0173 55.8287 21.0224 55.8152 21.0242C55.7115 21.0302 55.6108 21.0611 55.5216 21.1144C55.4324 21.1677 55.3574 21.2417 55.3029 21.3302C55.2924 21.3492 55.2748 21.3633 55.254 21.3695C55.2331 21.3758 55.2107 21.3735 55.1915 21.3634C55.172 21.3532 55.1574 21.3358 55.1507 21.315C55.144 21.2941 55.1459 21.2714 55.1559 21.2519C55.223 21.139 55.3166 21.0442 55.4286 20.9756C55.5406 20.907 55.6676 20.8667 55.7986 20.8582C55.8134 20.857 55.8283 20.8597 55.8416 20.8662C55.855 20.8726 55.8664 20.8825 55.8746 20.8949C55.8829 20.9072 55.8877 20.9216 55.8885 20.9364C55.8893 20.9512 55.8861 20.966 55.8793 20.9792Z" fill="#263238" />
    <path d="M55.9812 28.9289C55.9812 28.9289 55.9314 28.7818 55.9337 28.7818C55.8223 28.7818 55.4096 29.1565 55.6136 29.3652C56.3108 30.0577 58.0824 30.0079 58.7986 29.7969C58.5733 29.5858 58.469 28.4261 58.5615 28.0134C57.9899 28.3905 57.2405 28.6798 55.9812 28.9289Z" fill="#E6E6E6" />
    <path d="M58.578 28.0108C59.2927 27.9239 60.0127 28.1244 60.5797 28.5682C60.7647 28.2693 60.5061 27.6741 60.3923 27.4915C60.0366 26.8772 59.6524 26.5689 59.0049 27.1262C58.9646 27.3847 59.1733 27.6172 58.578 28.0108Z" fill="#E6E6E6" />
    <path d="M56.0191 32.977L55.0207 34.3478C54.691 34.8221 54.3708 35.2775 54.0602 35.7399C53.7495 36.2024 53.4578 36.672 53.1969 37.1249C53.0665 37.3621 52.9598 37.5779 52.8507 37.7913C52.7585 37.9729 52.6793 38.1607 52.6135 38.3534C52.518 38.7411 52.4939 39.1429 52.5423 39.5392C52.5953 40.0553 52.6873 40.5667 52.8175 41.0689C53.1026 42.157 53.4462 43.2289 53.8467 44.28L53.8609 44.3227C53.9298 44.5142 53.9291 44.7238 53.8591 44.9149C53.7891 45.106 53.6541 45.2664 53.4779 45.3681C53.3016 45.4698 53.0952 45.5063 52.8947 45.4713C52.6942 45.4363 52.5124 45.3319 52.3811 45.1764C51.9749 44.6902 51.6025 44.1768 51.2664 43.6397C50.9248 43.0998 50.6175 42.539 50.3463 41.9606C50.0589 41.3515 49.8309 40.7162 49.6656 40.0633C49.4583 39.2969 49.4115 38.496 49.5281 37.7107C49.5976 37.3248 49.7 36.9456 49.834 36.5771C49.9573 36.238 50.0901 35.9225 50.2301 35.6285C50.5023 35.0428 50.8055 34.472 51.1384 33.9186C51.4585 33.3755 51.8 32.8537 52.151 32.3438C52.502 31.8339 52.8625 31.3454 53.2752 30.8402C53.5631 30.4999 53.9709 30.2833 54.4142 30.2354C54.8574 30.1875 55.3021 30.312 55.656 30.583C56.01 30.8541 56.2461 31.2509 56.3155 31.6913C56.3848 32.1317 56.2821 32.5819 56.0286 32.9486L56.0191 32.977Z" fill="#263238" />
    <path d="M52.2602 44.7615C52.3095 44.6806 52.3847 44.6187 52.4736 44.586L53.242 44.2966C53.3152 44.2699 53.3944 44.2641 53.4707 44.2801C53.547 44.296 53.6173 44.3329 53.6736 44.3868L54.174 44.8611C54.6571 45.3289 55.034 45.895 55.2792 46.5212L55.3622 46.7299C55.3948 46.8152 55.4102 46.9061 55.4074 46.9974C55.4047 47.0886 55.3838 47.1785 55.3461 47.2616C55.3084 47.3448 55.2546 47.4196 55.1877 47.4818C55.1208 47.544 55.0423 47.5923 54.9566 47.624L54.1645 47.9133C54.0115 47.9697 53.8433 47.9696 53.6903 47.9131C53.5373 47.8565 53.4094 47.7473 53.3297 47.605L52.8436 46.7417C52.8436 46.7417 51.8357 45.5133 52.2602 44.7615Z" fill="#FFB573" />
    <path d="M53.7282 44.0286C53.9851 44.2248 54.2107 44.4592 54.397 44.7234C54.1812 45.2191 52.5163 45.7076 52.0254 45.5938C51.876 45.3566 51.812 44.5361 51.812 44.5361C52.412 44.4507 53.2871 44.1163 53.7282 44.0286Z" fill="#E0E0E0" />
    <path d="M56.3653 23.9934C56.4332 23.935 56.4967 23.8715 56.5551 23.8036C56.5596 23.7996 56.5632 23.7947 56.5657 23.7892C56.5682 23.7837 56.5695 23.7777 56.5695 23.7716C56.5695 23.7656 56.5682 23.7596 56.5657 23.7541C56.5632 23.7485 56.5596 23.7436 56.5551 23.7396C56.5458 23.7308 56.5335 23.7258 56.5207 23.7258C56.5079 23.7258 56.4956 23.7308 56.4863 23.7396C56.3563 23.8965 56.1927 24.0221 56.0075 24.1071C55.8223 24.1921 55.6204 24.2343 55.4167 24.2305C55.4105 24.2299 55.4042 24.2304 55.3982 24.2322C55.3922 24.234 55.3866 24.237 55.3817 24.241C55.3769 24.2449 55.3728 24.2498 55.3699 24.2554C55.3669 24.2609 55.3651 24.267 55.3645 24.2732C55.3645 24.2856 55.3691 24.2976 55.3774 24.3068C55.3857 24.3161 55.3972 24.3218 55.4096 24.323C55.7574 24.331 56.0965 24.214 56.3653 23.9934Z" fill="#263238" />
    <path d="M76.5522 22.5967L87.6346 18.4393C87.6777 18.4251 87.717 18.401 87.7492 18.3691C87.7815 18.3372 87.806 18.2982 87.8207 18.2553C87.8354 18.2123 87.8399 18.1665 87.834 18.1215C87.828 18.0765 87.8117 18.0335 87.7864 17.9958L84.1602 11.8297C84.1068 11.744 84.0259 11.6788 83.9308 11.6448C83.8357 11.6108 83.7318 11.6099 83.6361 11.6423L72.5537 15.7997C72.5109 15.8144 72.472 15.8386 72.44 15.8706C72.408 15.9026 72.3838 15.9414 72.3691 15.9843C72.3545 16.0271 72.3498 16.0727 72.3555 16.1175C72.3612 16.1624 72.3771 16.2054 72.402 16.2432L76.0281 22.4093C76.0816 22.495 76.1624 22.5602 76.2576 22.5942C76.3527 22.6282 76.4565 22.6291 76.5522 22.5967Z" fill="#13CB6E" />
    <path d="M75.9784 31.1224L87.0608 26.965C87.1623 26.916 87.2497 26.8419 87.3149 26.7498C87.38 26.6578 87.4207 26.5507 87.4331 26.4386L88.0995 18.655C88.1185 18.4345 87.9833 18.3135 87.796 18.3823L76.7135 22.5373C76.6124 22.5856 76.5251 22.6588 76.46 22.7501C76.3949 22.8414 76.354 22.9477 76.3412 23.0591L75.6748 30.8449C75.6534 31.0655 75.7934 31.1888 75.9784 31.1224Z" fill="#13CB6E" />
    <path opacity="0.2" d="M76.7348 23.3199C76.7481 23.2081 76.7894 23.1014 76.8549 23.0097C76.9204 22.9181 77.008 22.8445 77.1095 22.7958L87.7081 18.8163C87.7496 18.801 87.7942 18.7964 87.8379 18.8029C87.8816 18.8094 87.9229 18.8269 87.9581 18.8535C87.9933 18.8802 88.0213 18.9154 88.0393 18.9557C88.0574 18.996 88.065 19.0402 88.0615 19.0843L87.433 26.4362C87.4215 26.5485 87.3811 26.656 87.3159 26.7482C87.2507 26.8405 87.1628 26.9143 87.0607 26.9626L76.4597 30.9398C76.4183 30.9557 76.3734 30.9608 76.3294 30.9546C76.2855 30.9484 76.2438 30.931 76.2084 30.9042C76.173 30.8773 76.1451 30.8419 76.1272 30.8012C76.1094 30.7606 76.1022 30.716 76.1063 30.6718L76.7348 23.3199Z" fill="black" />
    <g opacity="0.3">
        <path opacity="0.3" d="M58.7251 26.2345C60.3836 23.6353 59.6209 20.1838 57.0217 18.5253C54.4225 16.8669 50.971 17.6295 49.3125 20.2288C47.6541 22.828 48.4167 26.2795 51.016 27.9379C53.6152 29.5964 57.0667 28.8337 58.7251 26.2345Z" fill="#13CB6E" />
        <path opacity="0.4" d="M51.9323 23.2606C52.0556 21.879 51.4375 20.6949 50.5517 20.6159C49.6658 20.5368 48.8478 21.5927 48.7245 22.9743C48.6012 24.3558 49.2193 25.5399 50.1051 25.619C50.991 25.698 51.809 24.6421 51.9323 23.2606Z" fill="white" />
        <path opacity="0.4" d="M52.7321 24.5748C52.4949 24.442 52.1321 24.6246 51.94 24.9828C51.7479 25.3409 51.7882 25.7393 52.0324 25.8721C52.2767 26.0049 52.6324 25.8199 52.8269 25.4618C53.0214 25.1037 52.9787 24.7195 52.7321 24.5748Z" fill="white" />
    </g>
</svg>
